/* XPM */
static const char * WMAnisotropicFiltering_xpm[] = {
"32 32 489 2",
"  	c None",
". 	c #FF00FF",
"+ 	c #FE00FE",
"@ 	c #FD01FD",
"# 	c #FA03FA",
"$ 	c #F707F7",
"% 	c #F10BF1",
"& 	c #EB12EB",
"* 	c #E218E2",
"= 	c #DB1FDB",
"- 	c #D526D5",
"; 	c #CE2DCE",
"> 	c #C832C8",
", 	c #C238C2",
"' 	c #BD3DBD",
") 	c #B941B9",
"! 	c #B545B5",
"~ 	c #B248B2",
"{ 	c #B04CB0",
"] 	c #AD4EAD",
"^ 	c #AC4FAC",
"/ 	c #AB4FAB",
"( 	c #FD00FD",
"_ 	c #FC02FC",
": 	c #F904F9",
"< 	c #F409F4",
"[ 	c #EE0EEE",
"} 	c #E616E6",
"| 	c #DF1DDF",
"1 	c #D725D7",
"2 	c #C833C8",
"3 	c #C13AC1",
"4 	c #BB3FBB",
"5 	c #B645B6",
"6 	c #B04AB0",
"7 	c #AD4FAD",
"8 	c #A952A9",
"9 	c #A754A7",
"0 	c #A457A4",
"a 	c #A259A2",
"b 	c #A259A1",
"c 	c #A15AA1",
"d 	c #FE01FE",
"e 	c #F806F8",
"f 	c #F20BF2",
"g 	c #E21BE2",
"h 	c #D823D8",
"i 	c #CF2CCF",
"j 	c #C733C7",
"k 	c #C03CC0",
"l 	c #B942B9",
"m 	c #B149B1",
"n 	c #AB4FAC",
"o 	c #A258A2",
"p 	c #9E5C9E",
"q 	c #9B609B",
"r 	c #996299",
"s 	c #976497",
"t 	c #966596",
"u 	c #F607F6",
"v 	c #EF0EEF",
"w 	c #E716E7",
"x 	c #DC20DC",
"y 	c #D22AD2",
"z 	c #C834C8",
"A 	c #BF3CBE",
"B 	c #B744B7",
"C 	c #AF4CAE",
"D 	c #A852A8",
"E 	c #9D5E9D",
"F 	c #986398",
"G 	c #946794",
"H 	c #906B90",
"I 	c #8D6D8D",
"J 	c #8C6F8C",
"K 	c #8B708B",
"L 	c #FC01FC",
"M 	c #FA04FA",
"N 	c #EC11EC",
"O 	c #E21AE2",
"P 	c #D625D6",
"Q 	c #CB31CB",
"R 	c #C03BC0",
"S 	c #AC4EAC",
"T 	c #9F5C9E",
"U 	c #936993",
"V 	c #8D6E8D",
"W 	c #897389",
"X 	c #857785",
"Y 	c #827A82",
"Z 	c #817B81",
"` 	c #807D80",
" .	c #807C80",
"..	c #847884",
"+.	c #F905F9",
"@.	c #F30BF3",
"#.	c #EA13EA",
"$.	c #DE1FDE",
"%.	c #D12BD1",
"&.	c #C338C3",
"*.	c #B843B8",
"=.	c #AE4DAE",
"-.	c #A555A5",
";.	c #9C5E9C",
">.	c #956595",
",.	c #8F6C8F",
"'.	c #897489",
").	c #837983",
"!.	c #7E7E7F",
"~.	c #7A827A",
"{.	c #778577",
"].	c #768676",
"^.	c #758875",
"/.	c #758775",
"(.	c #788478",
"_.	c #7B817B",
":.	c #7E7E7E",
"<.	c #F10CF1",
"[.	c #D922D9",
"}.	c #CC30CC",
"|.	c #BD3EBD",
"1.	c #B14BB1",
"2.	c #9B5F9B",
"3.	c #946893",
"4.	c #8C6E8C",
"5.	c #857685",
"6.	c #788378",
"7.	c #738973",
"8.	c #6F8D6F",
"9.	c #6C906C",
"0.	c #6B926B",
"a.	c #6A936A",
"b.	c #6A926A",
"c.	c #6E8E6E",
"d.	c #728A72",
"e.	c #758676",
"f.	c #FB02FB",
"g.	c #E419E4",
"h.	c #D627D6",
"i.	c #C736C7",
"j.	c #AA51AA",
"k.	c #9D5D9E",
"l.	c #8B6F8B",
"m.	c #837783",
"n.	c #7B7F7B",
"o.	c #748774",
"p.	c #699369",
"q.	c #659765",
"r.	c #619B61",
"s.	c #609D60",
"t.	c #5F9D5F",
"u.	c #649864",
"v.	c #689468",
"w.	c #6D8F6D",
"x.	c #FB03FB",
"y.	c #F608F6",
"z.	c #ED10ED",
"A.	c #E11CE1",
"B.	c #C13BC1",
"C.	c #A358A3",
"D.	c #966496",
"E.	c #827883",
"F.	c #7B807B",
"G.	c #738873",
"H.	c #6B916B",
"I.	c #5E9E5F",
"J.	c #5AA25A",
"K.	c #56A556",
"L.	c #55A755",
"M.	c #54A854",
"N.	c #57A557",
"O.	c #5BA25B",
"P.	c #6A916A",
"Q.	c #718B71",
"R.	c #F509F5",
"S.	c #CD2ECD",
"T.	c #BC40BC",
"U.	c #7A807B",
"V.	c #728972",
"W.	c #699169",
"X.	c #619A61",
"Y.	c #5BA15B",
"Z.	c #4FAD50",
"`.	c #4CB04C",
" +	c #4AB24A",
".+	c #4AB34A",
"++	c #4BB14B",
"@+	c #4DAF4D",
"#+	c #51AB51",
"$+	c #56A656",
"%+	c #5C9F5C",
"&+	c #639963",
"*+	c #F30AF3",
"=+	c #E914E9",
"-+	c #DB22DA",
";+	c #C933C9",
">+	c #B745B7",
",+	c #A656A5",
"'+	c #8A718A",
")+	c #7E7C7E",
"!+	c #59A259",
"~+	c #4AB14A",
"{+	c #45B745",
"]+	c #41BB41",
"^+	c #3FBD3F",
"/+	c #44B844",
"(+	c #48B348",
"_+	c #4EAE4E",
":+	c #5D9F5D",
"<+	c #768776",
"[+	c #7C7F7C",
"}+	c #D825D8",
"|+	c #C536C5",
"1+	c #B249B2",
"2+	c #A15BA0",
"3+	c #926992",
"4+	c #788278",
"5+	c #6D8D6D",
"6+	c #49B449",
"7+	c #3BC13B",
"8+	c #37C537",
"9+	c #35C735",
"0+	c #40BC40",
"a+	c #47B547",
"b+	c #4FAE4F",
"c+	c #609C60",
"d+	c #699269",
"e+	c #728A73",
"f+	c #827982",
"g+	c #F10DF1",
"h+	c #E518E5",
"i+	c #D527D5",
"j+	c #C23AC2",
"k+	c #AF4DAF",
"l+	c #807B80",
"m+	c #689368",
"n+	c #5E9E5E",
"o+	c #38C338",
"p+	c #32CA32",
"q+	c #2DCE2D",
"r+	c #2BD02B",
"s+	c #2CD02C",
"t+	c #2ECD2F",
"u+	c #33C933",
"v+	c #39C339",
"w+	c #49B349",
"x+	c #52AA52",
"y+	c #708B70",
"z+	c #798179",
"A+	c #837883",
"B+	c #EF0FEF",
"C+	c #E31AE3",
"D+	c #D32BD3",
"E+	c #BF3DBF",
"F+	c #AB50AB",
"G+	c #9A6299",
"H+	c #897289",
"I+	c #7C7F7B",
"J+	c #708C70",
"K+	c #649663",
"L+	c #4FAD4F",
"M+	c #44B744",
"N+	c #3AC13A",
"O+	c #2AD22A",
"P+	c #25D625",
"Q+	c #23D923",
"R+	c #24D823",
"S+	c #27D527",
"T+	c #2CCF2C",
"U+	c #3CC03C",
"V+	c #45B845",
"W+	c #59A459",
"X+	c #778377",
"Y+	c #946694",
"Z+	c #DF1EDF",
"`+	c #CE2ECE",
" @	c #A854A8",
".@	c #867486",
"+@	c #798279",
"@@	c #6D8E6D",
"#@	c #57A456",
"$@	c #4BB04B",
"%@	c #2DCF2D",
"&@	c #25D725",
"*@	c #1FDC1F",
"=@	c #1CDF1C",
"-@	c #1DDF1E",
";@	c #21DA21",
">@	c #28D428",
",@	c #2FCD2F",
"'@	c #38C438",
")@	c #42BA42",
"!@	c #629B62",
"~@	c #6C8F6C",
"{@	c #768476",
"]@	c #827882",
"^@	c #8E6D8E",
"/@	c #986299",
"(@	c #C835C8",
"_@	c #A656A6",
":@	c #778477",
"<@	c #6B906B",
"[@	c #609B5F",
"}@	c #55A655",
"|@	c #2BD12B",
"1@	c #1DDF1D",
"2@	c #1AE21A",
"3@	c #1EDD1E",
"4@	c #25D825",
"5@	c #36C637",
"6@	c #40BB41",
"7@	c #B546B5",
"8@	c #A05BA0",
"9@	c #926A92",
"0@	c #6A906A",
"a@	c #609B60",
"b@	c #54A654",
"c@	c #36C636",
"d@	c #1FDD1F",
"e@	c #1CE11C",
"f@	c #1BE01B",
"g@	c #2ECE2E",
"h@	c #4CAF4C",
"i@	c #57A457",
"j@	c #629862",
"k@	c #847784",
"l@	c #AD4DAD",
"m@	c #BD3FBD",
"n@	c #9A619A",
"o@	c #30CC30",
"p@	c #29D329",
"q@	c #24D824",
"r@	c #21DB21",
"s@	c #20DC20",
"t@	c #31CB31",
"u@	c #3AC23A",
"v@	c #4FAC4F",
"w@	c #659665",
"x@	c #6F8B6F",
"y@	c #867586",
"z@	c #936893",
"A@	c #A25AA2",
"B@	c #B04BB0",
"C@	c #D22BD2",
"D@	c #8A708A",
"E@	c #6C8E6C",
"F@	c #629962",
"G@	c #58A358",
"H@	c #46B646",
"I@	c #3DBF3D",
"J@	c #28D328",
"K@	c #2AD12B",
"L@	c #2FCC2F",
"M@	c #3FBC40",
"N@	c #54A954",
"O@	c #7E7D7E",
"P@	c #B448B4",
"Q@	c #C537C5",
"R@	c #6F8C6F",
"S@	c #669566",
"T@	c #54A953",
"U@	c #43B943",
"V@	c #3CBF3C",
"W@	c #32CB32",
"X@	c #34C834",
"Y@	c #46B546",
"Z@	c #4FAC50",
"`@	c #59A359",
" #	c #6E8E6D",
".#	c #817981",
"+#	c #A853A8",
"@#	c #D824D8",
"##	c #E617E6",
"$#	c #3EBE3E",
"%#	c #48B448",
"&#	c #7D7D7D",
"*#	c #877387",
"=#	c #926892",
"-#	c #9F5D9F",
";#	c #BB41BB",
">#	c #DA22DA",
",#	c #E815E8",
"'#	c #6F8D6E",
")#	c #679567",
"!#	c #5F9C5F",
"~#	c #47B647",
"{#	c #46B746",
"]#	c #51AA52",
"^#	c #58A458",
"/#	c #609C5F",
"(#	c #B14AB1",
"_#	c #CF2DCF",
":#	c #DD1FDD",
"<#	c #53A953",
"[#	c #50AC50",
"}#	c #5CA05C",
"|#	c #619A62",
"1#	c #718C71",
"2#	c #817A81",
"3#	c #9F5C9F",
"4#	c #B745B6",
"5#	c #C437C4",
"6#	c #D329D3",
"7#	c #5CA15C",
"8#	c #669666",
"9#	c #798379",
"0#	c #BD3FBC",
"a#	c #EE0FEE",
"b#	c #748874",
"c#	c #718A71",
"d#	c #689568",
"e#	c #669766",
"f#	c #679667",
"g#	c #7B807C",
"h#	c #8A728A",
"i#	c #916A91",
"j#	c #9A609A",
"k#	c #A357A3",
"l#	c #B644B6",
"m#	c #C239C2",
"n#	c #DB21DB",
"o#	c #F00DF0",
"p#	c #867686",
"q#	c #8C708C",
"r#	c #9B619A",
"s#	c #B447B4",
"t#	c #D428D4",
"u#	c #E913E9",
"v#	c #7C807C",
"w#	c #7C817C",
"x#	c #7D7F7D",
"y#	c #7E7D7F",
"z#	c #867786",
"A#	c #8B728B",
"B#	c #906C90",
"C#	c #966696",
"D#	c #B347B3",
"E#	c #BC3EBC",
"F#	c #C536C4",
"G#	c #887487",
"H#	c #877587",
"I#	c #877687",
"J#	c #887488",
"K#	c #89728A",
"L#	c #8D6F8D",
"M#	c #916B90",
"N#	c #956795",
"O#	c #9A629A",
"P#	c #A05CA0",
"Q#	c #A655A6",
"R#	c #AC4DAD",
"S#	c #BC3FBC",
"T#	c #EF0DEF",
"U#	c #916991",
"V#	c #9B5F9C",
"W#	c #A456A5",
"X#	c #D427D4",
"Y#	c #DC1FDC",
"Z#	c #E418E4",
"`#	c #F706F7",
" $	c #9C5F9C",
".$	c #9E5D9E",
"+$	c #AA52AA",
"@$	c #B348B3",
"#$	c #B842B8",
"$$	c #BF3CBF",
"%$	c #C635C6",
"&$	c #CD2DCD",
"*$	c #D426D4",
"=$	c #E219E2",
"-$	c #E912E9",
";$	c #F508F5",
">$	c #A852A9",
",$	c #A952AA",
"'$	c #AB51AB",
")$	c #CD2CCE",
"!$	c #E813E8",
"~$	c #F309F3",
"{$	c #B448B3",
"]$	c #B446B4",
"^$	c #C03AC0",
"/$	c #C435C5",
"($	c #CA31CA",
"_$	c #CE2BCF",
":$	c #DA20DA",
"<$	c #E119E1",
"[$	c #E814E8",
"}$	c #ED0EED",
"|$	c #F20AF2",
". . . . . . . . . . . + + @ # $ % & * = - ; > , ' ) ! ~ { ] ^ / ",
". . . . . . . . . . + ( _ : < [ } | 1 ; 2 3 4 5 6 7 8 9 0 a b c ",
". . . . . . . . . + d _ e f & g h i j k l m n 9 o p q r s t t t ",
". . . . . . . . + @ # u v w x y z A B C D o E F G H I J K K K J ",
". . . . . . . + L M < N O P Q R ! S 9 T F U V W X Y Z `  .Z Y ..",
". . . . . . + _ +.@.#.$.%.&.*.=.-.;.>.,.'.).!.~.{.].^./.].(._.:.",
". . . . . + _ e <.w [.}.|.1.-.2.3.4.5.:.6.7.8.9.0.a.b.9.c.d.e.(.",
". . . + @ f.$ v g.h.i.B j.k.G l.m.n.o.c.p.q.r.s.t.t.r.u.v.w.d.].",
". . + + x.y.z.A.%.B.1.C.D.V E.F.G.H.u.I.J.K.L.M.L.N.O.t.u.P.Q.].",
". + @ # R.& $.S.T./ ;.H 5.U.V.W.X.Y.M.Z.`. +.+++@+#+$+%+&+H.d.(.",
"+ @ M *+=+-+;+>+,+s '+)+o.H.X.!+#+~+{+]+^+^+]+/+(+_+L.:+q.w.<+[+",
"_ +.f w }+|+1+2+3+m.4+5+u.J.#+6+]+7+8+9+9+8+7+0+a+b+N.c+d+e+F.f+",
"e g+h+i+j+k+E V l+G.m+n+M. +]+o+p+q+r+s+t+u+v+]+w+x+Y.q.y+z+A+'+",
"B+C+D+E+F+G+H+I+J+K+J.L+M+N+p+O+P+Q+R+S+T+u+U+V+_+W+&+w.X+f+4.Y+",
"Z+`+T. @t .@+@@@X.#@$@]+8+%@&@*@=@-@;@>@,@'@)@`.$+!@~@{@]@^@/@C.",
"(@>+_@G X :@<@[@}@ +^+9+|@Q+1@2@2@3@4@%@5@6@++$+X.~@:@]@,.;.8 7@",
"k+8@9@A+{@0@a@b@ +0+c@%@&@d@e@f@d@&@g@8+)@h@i@j@@@6.k@H p l@m@Q ",
"n@,.f+:@<@a@K.`.)@o+o@p@q@r@s@Q+p@t@u@/+v@J.w@x@F.y@z@A@B@j+C@Z+",
"D@f+:@E@F@G@v@H@I@c@,@|@p@J@K@L@8+M@w+N@n+d+G.O@'+t 0 P@Q@i+g.v ",
" .6.R@S@:+T@++U@V@8+u+t@W@X@'@^+Y@Z@`@&+ #6..#I n@+#B z @###<.e ",
"+@d.0.r.`@#+~+{+M@I@7+U+$#)@%#v@N.c+b.7.&#*#=#-#S ;#Q >#,#f +._ ",
"/.'#)#!#`@x+@+w+~#{#H@%#`.]#^#/#v.Q.~.k@^@F 0 (#E+_#:##.*+M L + ",
"d.w.)#c+Y.$+<##+[##+<#N.}#|#m+1#6.2#K z@3#j.4#5#6#A.N R.M @ + . ",
"e+@@p.u.c+:+Y.O.7#n+r.8#H.d.9#Z H+=#q -.1.0#;+1 g.a#y.x.@ + . . ",
"b#c#w.b.d#8#e#f#m+9.J+].g#f+h#i#j#k#S l#m#_#n#w o#$ f.@ + . . . ",
"9#].b#d.Q.1#d.G.{._. .p#q#z@r#o F+s#' 2 t#| u#f e _ + + . . . . ",
" .:.v#w#w#x#y#Y z#A#B#C#;.k#F+D#E#F#i >#g.z.< : _ + + . . . . . ",
"G#H#H#I#J#K#L#M#N#O#P#Q#R#s#S#5#S.- | ,#T#y.# @ + . . . . . . . ",
"9@U#3+z@>.F V#3#W#j.B@l#|.|+}.X#Y#Z#N f `#x.@ + . . . . . . . . ",
" $E .$8@o Q#+$l@@$#$$$%$&$*$Y#=$-$T#;$: _ @ + . . . . . . . . . ",
">$,$'$] B@s##$|., 2 )$- Y#=$!$[ ~$`#x.@ + + . . . . . . . . . . ",
"{$]$l#) |.^$/$($_$- :$<$[$}$|$`## _ @ + + . . . . . . . . . . . "};
