/* XPM */
static const char * superquadricglyphs_xpm[] = {
"32 32 424 2",
"  	c None",
". 	c #E5E5E5",
"+ 	c #F1EFF2",
"@ 	c #F0EEF1",
"# 	c #E9E9E9",
"$ 	c #E4E4E4",
"% 	c #E6E6E6",
"& 	c #D2D2D2",
"* 	c #8D9686",
"= 	c #002100",
"- 	c #0D3100",
"; 	c #0B2C00",
"> 	c #021D00",
", 	c #59684F",
"' 	c #AFB2AC",
") 	c #F1F0F1",
"! 	c #DDDDDD",
"~ 	c #1C310D",
"{ 	c #244F05",
"] 	c #285806",
"^ 	c #275705",
"/ 	c #224A05",
"( 	c #1D4204",
"_ 	c #1B3D04",
": 	c #153600",
"< 	c #0A2100",
"[ 	c #CFD2CE",
"} 	c #EAE9EA",
"| 	c #DBDADB",
"1 	c #000F00",
"2 	c #244D06",
"3 	c #2C6206",
"4 	c #326F07",
"5 	c #316C07",
"6 	c #2A5D06",
"7 	c #1D4104",
"8 	c #1C3D03",
"9 	c #1B3C04",
"0 	c #0C2C00",
"a 	c #4E5E43",
"b 	c #DCDDDC",
"c 	c #2E4120",
"d 	c #214905",
"e 	c #2B5F06",
"f 	c #336F07",
"g 	c #397E08",
"h 	c #3B8309",
"i 	c #347408",
"j 	c #295B06",
"k 	c #214904",
"l 	c #1D4004",
"m 	c #1B3E04",
"n 	c #1C3D04",
"o 	c #284315",
"p 	c #9AA196",
"q 	c #ECEBED",
"r 	c #F3F2F3",
"s 	c #3D4D31",
"t 	c #1E4302",
"u 	c #295A06",
"v 	c #316B07",
"w 	c #387C07",
"x 	c #3D8709",
"y 	c #41900A",
"z 	c #408E09",
"A 	c #367908",
"B 	c #295A05",
"C 	c #204705",
"D 	c #1D3F03",
"E 	c #1B3D03",
"F 	c #163700",
"G 	c #7A8871",
"H 	c #E7E6E7",
"I 	c #132309",
"J 	c #1F4305",
"K 	c #285805",
"L 	c #2F6807",
"M 	c #367707",
"N 	c #3B8209",
"O 	c #408F09",
"P 	c #459909",
"Q 	c #479D0A",
"R 	c #43940A",
"S 	c #387C08",
"T 	c #1F4604",
"U 	c #1C3F04",
"V 	c #173800",
"W 	c #445935",
"X 	c #D8D9D8",
"Y 	c #E7E7E7",
"Z 	c #747F6D",
"` 	c #1A3D01",
" .	c #275706",
"..	c #2F6706",
"+.	c #357508",
"@.	c #397F08",
"#.	c #3E8908",
"$.	c #429309",
"%.	c #479D0B",
"&.	c #4CA80B",
"*.	c #4FAD0B",
"=.	c #204604",
"-.	c #1C3F03",
";.	c #1C3E04",
">.	c #183404",
",.	c #B8BAB5",
"'.	c #EFEEF0",
").	c #66705E",
"!.	c #153700",
"~.	c #265406",
"{.	c #2E6607",
"].	c #347307",
"^.	c #377C08",
"/.	c #3D8708",
"(.	c #418F0A",
"_.	c #45980A",
":.	c #49A20B",
"<.	c #4EAC0B",
"[.	c #53B90C",
"}.	c #54BB0C",
"|.	c #49A20A",
"1.	c #3C8509",
"2.	c #2A5E06",
"3.	c #001A00",
"4.	c #D9DBD8",
"5.	c #616A5B",
"6.	c #1A3903",
"7.	c #255305",
"8.	c #2D6406",
"9.	c #337207",
"0.	c #3C8609",
"a.	c #408D09",
"b.	c #44950A",
"c.	c #489D0A",
"d.	c #4AA40A",
"e.	c #4FAE0C",
"f.	c #56BE0C",
"g.	c #60D30E",
"h.	c #5DCD0D",
"i.	c #4CA90C",
"j.	c #3E8909",
"k.	c #2D6507",
"l.	c #224B04",
"m.	c #1B3E03",
"n.	c #133000",
"o.	c #A6A9A3",
"p.	c #C3C5C1",
"q.	c #0A2900",
"r.	c #255206",
"s.	c #2D6307",
"t.	c #337107",
"u.	c #43930A",
"v.	c #479B0A",
"w.	c #49A10B",
"x.	c #4BA70A",
"y.	c #50B00C",
"z.	c #60D60E",
"A.	c #70F910",
"B.	c #70F711",
"C.	c #55BA0C",
"D.	c #41910A",
"E.	c #306C07",
"F.	c #245105",
"G.	c #1E4204",
"H.	c #1C3C03",
"I.	c #384F28",
"J.	c #E0E0DF",
"K.	c #969894",
"L.	c #3C8409",
"M.	c #3F8C09",
"N.	c #439309",
"O.	c #469A09",
"P.	c #49A00B",
"Q.	c #4AA50A",
"R.	c #4DAB0B",
"S.	c #51B30B",
"T.	c #56BD0C",
"U.	c #5ED00E",
"V.	c #6BEE10",
"W.	c #7BFF12",
"X.	c #77FB11",
"Y.	c #59C50D",
"Z.	c #469B0A",
"`.	c #357608",
" +	c #285905",
".+	c #204605",
"++	c #1C3E03",
"@+	c #000900",
"#+	c #F0EFF0",
"$+	c #D3D3D2",
"%+	c #2F4520",
"&+	c #224C05",
"*+	c #326E07",
"=+	c #387B08",
"-+	c #3B8408",
";+	c #3F8B09",
">+	c #42920A",
",+	c #469A0A",
"'+	c #489F0B",
")+	c #4BA40A",
"!+	c #4CA90B",
"~+	c #4FAF0C",
"{+	c #52B60C",
"]+	c #5BC90D",
"^+	c #63DB0E",
"/+	c #6FF411",
"(+	c #7AFF11",
"_+	c #75FD12",
":+	c #5BCB0D",
"<+	c #4AA40B",
"[+	c #245005",
"}+	c #1E4404",
"|+	c #1A3A04",
"1+	c #4C5645",
"2+	c #E9E8E9",
"3+	c #C0C4BD",
"4+	c #133500",
"5+	c #295D06",
"6+	c #306B07",
"7+	c #367807",
"8+	c #3F8B08",
"9+	c #469909",
"0+	c #4AA30A",
"a+	c #4DA90B",
"b+	c #50AE0C",
"c+	c #51B40B",
"d+	c #54B90C",
"e+	c #57C00D",
"f+	c #5AC70D",
"g+	c #5DCD0E",
"h+	c #61D70E",
"i+	c #66E30F",
"j+	c #6BED0F",
"k+	c #69E70F",
"l+	c #4CA70B",
"m+	c #295806",
"n+	c #1F4404",
"o+	c #1D3F04",
"p+	c #314920",
"q+	c #D3D5D2",
"r+	c #C2C8BE",
"s+	c #1B4800",
"t+	c #3A8108",
"u+	c #3E8A09",
"v+	c #42910A",
"w+	c #459809",
"x+	c #489F0A",
"y+	c #4CA80A",
"z+	c #52B30B",
"A+	c #53B80B",
"B+	c #56BD0D",
"C+	c #57C10D",
"D+	c #59C40D",
"E+	c #59C60C",
"F+	c #5BCA0E",
"G+	c #5BCB0E",
"H+	c #53B60C",
"I+	c #4BA70B",
"J+	c #439509",
"K+	c #397D08",
"L+	c #2D6506",
"M+	c #265305",
"N+	c #133400",
"O+	c #C1C5BD",
"P+	c #C2C7BE",
"Q+	c #1C4A00",
"R+	c #3D8808",
"S+	c #489E0B",
"T+	c #4AA30B",
"U+	c #52B30C",
"V+	c #55BC0C",
"W+	c #57C00C",
"X+	c #58C20D",
"Y+	c #56BE0D",
"Z+	c #55BC0D",
"`+	c #51B30C",
" @	c #4FAE0B",
".@	c #4CA70A",
"+@	c #48A00A",
"@@	c #2A5B06",
"#@	c #1D4400",
"$@	c #6A7861",
"%@	c #D4D6D3",
"&@	c #3C6022",
"*@	c #337108",
"=@	c #3B8308",
"-@	c #3F8D09",
";@	c #449609",
">@	c #4AA20B",
",@	c #4EAC0C",
"'@	c #53B80C",
")@	c #56BF0D",
"!@	c #56C00C",
"~@	c #53B70B",
"{@	c #4DAA0B",
"]@	c #479E0B",
"^@	c #3C8508",
"/@	c #2E6707",
"(@	c #1F4A01",
"_@	c #6A7661",
":@	c #A0AC98",
"<@	c #2C6503",
"[@	c #3C8309",
"}@	c #4CA60A",
"|@	c #4EAB0B",
"1@	c #51B20C",
"2@	c #55BB0C",
"3@	c #57BF0D",
"4@	c #58C10D",
"5@	c #50B10C",
"6@	c #469B09",
"7@	c #3D8809",
"8@	c #2B6007",
"9@	c #143900",
"0@	c #BCC1B9",
"a@	c #EDEBEE",
"b@	c #6F895D",
"c@	c #337802",
"d@	c #53B60B",
"e@	c #56BF0C",
"f@	c #51B20B",
"g@	c #489E0A",
"h@	c #377A08",
"i@	c #214A05",
"j@	c #4E6042",
"k@	c #DFE0DE",
"l@	c #4B792B",
"m@	c #4EAD0B",
"n@	c #52B40C",
"o@	c #54BA0C",
"p@	c #55BD0D",
"q@	c #4EAD0C",
"r@	c #3B8409",
"s@	c #377B08",
"t@	c #234E06",
"u@	c #061E00",
"v@	c #EDECEE",
"w@	c #AAB2A4",
"x@	c #2E6C02",
"y@	c #4FAD0C",
"z@	c #52B40B",
"A@	c #55BA0D",
"B@	c #46990A",
"C@	c #2B6006",
"D@	c #234E05",
"E@	c #011900",
"F@	c #CBCCCA",
"G@	c #E6E6E7",
"H@	c #DADCD8",
"I@	c #205F00",
"J@	c #44970A",
"K@	c #53B70C",
"L@	c #54B80C",
"M@	c #42930A",
"N@	c #316D07",
"O@	c #193505",
"P@	c #A4A7A1",
"Q@	c #AEB8A6",
"R@	c #479C0B",
"S@	c #4BA60B",
"T@	c #50B20C",
"U@	c #316E07",
"V@	c #2B6206",
"W@	c #255205",
"X@	c #052300",
"Y@	c #BFC1BE",
"Z@	c #DFDFDE",
"`@	c #134D00",
" #	c #4FB00C",
".#	c #2C6306",
"+#	c #153400",
"@#	c #7C8277",
"##	c #E2E3E2",
"$#	c #3E6C1E",
"%#	c #408B0A",
"&#	c #4BA60A",
"*#	c #2D6407",
"=#	c #265505",
"-#	c #163800",
";#	c #697163",
">#	c #EEEEEF",
",#	c #EEECF0",
"'#	c #9CB18D",
")#	c #2A7000",
"!#	c #45990A",
"~#	c #479C0A",
"{#	c #459A0A",
"]#	c #3D8608",
"^#	c #285706",
"/#	c #143700",
"(#	c #7B8375",
"_#	c #ECEBEC",
":#	c #CCD2C8",
"<#	c #164900",
"[#	c #3C840A",
"}#	c #429409",
"|#	c #418F09",
"1#	c #2E6507",
"2#	c #1E4205",
"3#	c #2A3621",
"4#	c #E3E3E3",
"5#	c #ECEBEE",
"6#	c #7A8D6C",
"7#	c #256000",
"8#	c #397C09",
"9#	c #173A00",
"0#	c #394630",
"a#	c #F8F7F9",
"b#	c #F1EEF4",
"c#	c #7C8F6E",
"d#	c #225101",
"e#	c #275E00",
"f#	c #2C6006",
"g#	c #2A5C06",
"h#	c #255106",
"i#	c #788172",
"j#	c #F2F0F4",
"k#	c #AEB1AC",
"l#	c #8A9A7F",
"m#	c #8A9781",
"n#	c #818C79",
"o#	c #EEEDEF",
"p#	c #E8E8E8",
"q#	c #ECEAEE",
". . . . . . . . . . . . . . . . . . . . . . . . . . . . . . . . ",
". . . . . . . . . . . . + @ @ + # $ . . . . . . . . . . . . . . ",
". . . . . . . . . % & * = - ; > , ' ) $ . . . . . . . . . . . . ",
". . . . . . . . $ ! ~ { ] ^ / ( _ : < [ } $ . . . . . . . . . . ",
". . . . . . . . | 1 2 3 4 5 6 / 7 8 9 0 a b . . . . . . . . . . ",
". . . . . . $ ! c d e f g h i j k l m n 9 o p q $ . . . . . . . ",
". . . . . $ r s t u v w x y z A B C D _ m E F G . $ . . . . . . ",
". . . . . H I J K L M N O P Q R S j T U 8 n m V W X Y . . . . . ",
". . . $ Y Z `  ...+.@.#.$.%.&.*.Q g j =.-.m n ;.n >.,.$ . . . . ",
". . $ '.).!.~.{.].^./.(._.:.<.[.}.|.1.2.C U E ;.m n 3.4.H $ . . ",
". . . 5.6.7.8.9.S 0.a.b.c.d.e.f.g.h.i.j.k.l.l m._ ;.n n.o.. . . ",
"$ Y p.q.r.s.t.S 1.a.u.v.w.x.y.f.z.A.B.C.D.E.F.G.-.m m H.I.J.$ . ",
"Y K.n.{ s.4 A L.M.N.O.P.Q.R.S.T.U.V.W.X.Y.Z.`. +.+l ++m n @+#+. ",
"$+%+&+e *+=+-+;+>+,+'+)+!+~+{+f.]+^+/+(+_+:+<+0.3 [+}+l ++|+1+2+",
"3+4+5+6+7+h 8+>+9+'+0+a+b+c+d+e+f+g+h+i+j+k+Y.l+z t.m+&+n+o+p+q+",
"r+s+{.`.t+u+v+w+x+0+y+e.z+A+B+C+D+E+]+F+:+G+f+H+I+J+K+L+M+C N+O+",
"P+Q+4 K+R+(.P S+T+y+*.U+A+V+W+X+X+C+Y+Z+d+{+`+ @.@+@v+@.5 @@#@$@",
"%@&@*@=@-@;@Q >@.@,@`+'@Z+)@X+X+!@Z+~@S.~+{@l+d.]@P v+^@7+/@(@_@",
"H :@<@[@O Z.w.}@|@1@~@2@3@C+4@e+V+~@5@*.y+d.'+6@R z 7@S t.8@9@0@",
"$ a@b@c@$.Q <+{@5@d@2@e@4@X+W+Z+~@f@<.y+0+g@9+v+;+L.h@*+3 i@j@Y ",
". $ k@l@z Z.d.m@n@o@Y+C+X+e+p@'@f@q@y+0+S+P v+;+r@s@5 e t@u@v@. ",
". . . w@x@u.|.y@z@A@e@C+e+B+[.S.*.y+<+S+B@>+;+r@h@E.C@D@E@F@. . ",
". . $ G@H@I@J@&.5@K@p@Y+Z+L@c+e.!+d.x+,+M@;+r@=+N@C@[+O@P@. . . ",
". . . . . Q@*@R@S@T@'@'@~@S.e.a+<+'+,+R M.L.K+U@V@W@X@Y@2+$ . . ",
". . . . . G@Z@`@b.S@ @ #~+q@!+d.'+Z.R a.^@K+4 .#7.+#@#. . . . . ",
". . . . . . $ ##$#%#+@Q.&#&#d.'+v.R a.0.g t.*#=#-#;#>#. . . . . ",
". . . . . . . $ ,#'#)#!#~#Q ~#{#R a.]#@.*@L+^#/#(#_#$ . . . . . ",
". . . . . . . . . % :#<#[#y }#|#;+1.g 9.1#^ 2#3#4#. . . . . . . ",
". . . . . . . . . . $ 5#6#7#8#@.@.S 4 8. .9#0#a#$ . . . . . . . ",
". . . . . . . . . . . $ H b#c#d#e#f#g#h#; i#Y $ . . . . . . . . ",
". . . . . . . . . . . . . . % j#k#l#m#n#o#p#$ . . . . . . . $ . ",
"$ . . . . . . . . . . . . . . . . . . . . . . . . . . . . . q#. "};
