/* XPM */
static const char * arbitraryROI_xpm[] = {
"32 32 7 1",
" 	c None",
".	c #FF3333",
"+	c #D7D7D7",
"@	c #000000",
"#	c #FFB400",
"$	c #FF5E22",
"%	c #AA2222",
"                                ",
"          ...                   ",
"  +++     ....     ...    +++   ",
"  ++++    .....    ....   +++   ",
"  +++++    .....   ....   ++++  ",
"   +++++    .....   ....  ++++  ",
"    +++++    .....  ....   ++++ ",
"     +++++    ....   ....  ++++ ",
"      +++++   ....   ....   ++++",
"       ++++  ....     ....  ++++",
"      +++++ .....     ....   +++",
"     +++++ .....       ...   +++",
"     ++++  ....        ...   +++",
"    ++++  ....         ...   +++",
"   +++++  ....         ...   +++",
"  +++++   ....         ...   +++",
"  ++++     ....    @@  ...   +++",
"  +++++    ....   @##@ ...   +++",
"   +++++    .... @###@ ...   +++",
"    +++++   ....@####@$$$.  ++++",
"     +++++ @@%%%%#####%%%.  ++++",
"      +++++@#$$$$#####$$$@@ +++ ",
"       ++++@##$$$$####$$$#@ +++ ",
"      +++++@##$$$$###$$$$#@++++ ",
"     +++++ @###$$$###$$$$#@++++ ",
"    +++++  @##$$$$###$$$##@+++  ",
"   +++++    @#$$$$##$$$$#@++++  ",
"  +++++     @#$$$###$$$$#@++++  ",
"  ++++     @@#$$$###$$$##@+++   ",
"  +++    @@###$$$###$$$#@ +++   ",
"        @###############@       ",
"        @###########@@@@        "};
