/* XPM */
static const char * WMWriteDendrogram_xpm[] = {
"32 32 4 1",
" 	c None",
".	c #000000",
"+	c #000001",
"@	c #040206",
"..    ..    ..                  ",
"..    ..    ..                  ",
"..  ......  ..                  ",
"..  ......  ..                  ",
"..  ..  ..  ..                  ",
"..  ..  ..  ..                  ",
"..  ..  ..  ..                  ",
"..  ..  ..  ..                  ",
"......  ......                  ",
"......  ......                  ",
"  ..      +.                    ",
"  ..      .@                    ",
"                                ",
"                                ",
"                                ",
"                                ",
"                    .           ",
"                    .           ",
"                    .           ",
"             ...............    ",
"             .             .    ",
"             .             .    ",
"          ......        ......  ",
"          .    .        .    .  ",
"       ......  .     ......  .  ",
"       .    .  .     .    .  .  ",
"     .....  .  .   .....  .  .  ",
"     .   .  . ...  .   .  . ... ",
"    ...  .  . . . ...  .  . . . ",
"    . . ... . . . . . ... . . . ",
"    . . . . . . . . . . . . . . ",
"    . . . . . . . . . . . . . . "};
