/* XPM */
static const char * home_xpm[] = {
"32 32 3 1",
" 	c None",
".	c #00FFBE",
"+	c #FFFFFF",
"................................",
"................................",
"................................",
"................................",
"................................",
"................................",
"................................",
"......+++..............+++......",
"......+++..............+++......",
"......+++..............+++......",
"......+++..............+++......",
"......+++..............+++......",
"......+++..............+++......",
"......+++..............+++......",
"......+++..............+++......",
"......+++..............+++......",
"......+++..............+++......",
"......+++..............+++......",
"......++++++++++++++++++++......",
"......++++++++++++++++++++......",
"......++++++++++++++++++++......",
"......+++..............+++......",
"......+++..............+++......",
"......+++..............+++......",
"......+++..............+++......",
"......+++..............+++......",
"......+++..............+++......",
"......+++..............+++......",
"......+++..............+++......",
"......+++..............+++......",
"......+++..............+++......",
"......+++..............+++......"};
