/* XPM */
static const char * WMVectorAlign_xpm[] = {
"32 32 10 1",
" 	c None",
".	c #A1A1FF",
"+	c #A2A2FF",
"@	c #000000",
"#	c #161623",
"$	c #010103",
"%	c #1F1F31",
"&	c #9797F0",
"*	c #212134",
"=	c #7373B6",
"    .                           ",
"   ...                          ",
"   ..+                          ",
"  +..+                          ",
"   ++     @@@@@      @@@@       ",
"   +.      @@@@      @@@@       ",
"   +.      @@@@      @@@@       ",
"   ..     @@ @      @@ @        ",
"   +    @@         @@           ",
"   +   @@        @@@  ....+     ",
"   +  @@        @@    ....+     ",
"  .+ @@        @@   +..+++      ",
"  +.#@        $%++..+   .       ",
"   &         *=+.               ",
"   .         ++.                ",
"                                ",
"                                ",
"            @@@       @@@       ",
"          @@@@@      @@@@       ",
"           @@@@       @@@       ",
"          @@ @      @@ @@       ",
"         @@        @@           ",
"        @@        @@            ",
"      @@         @@    ....     ",
"     @@        @@     ......    ",
"    @@        @@...........     ",
"   @@ .      @@..       ..      ",
"      .+.+   ..+                ",
"         +..+++.                ",
"             +.++               ",
"             ...                ",
"                                "};
