/* XPM */
static const char * fiberdisplay2_xpm[] = {
"32 32 343 2",
"  	c None",
". 	c #164CF3",
"+ 	c #244DF5",
"@ 	c #1735F7",
"# 	c #1C29F8",
"$ 	c #121BFB",
"% 	c #2736F8",
"& 	c #1218FC",
"* 	c #156DE6",
"= 	c #2067EB",
"- 	c #184FF1",
"; 	c #2540F2",
"> 	c #2C2CF6",
", 	c #1E2DF6",
"' 	c #1B20FA",
") 	c #273CF6",
"! 	c #1E15FB",
"~ 	c #3644F5",
"{ 	c #212AF9",
"] 	c #192EF9",
"^ 	c #2E8FDB",
"/ 	c #2E76E7",
"( 	c #1E5AED",
"_ 	c #144BF2",
": 	c #1851EE",
"< 	c #3830F3",
"[ 	c #3C20F4",
"} 	c #1F16FB",
"| 	c #2538F7",
"1 	c #211FFB",
"2 	c #464CF5",
"3 	c #2833F8",
"4 	c #1B3EF4",
"5 	c #87A6EA",
"6 	c #4E7DEE",
"7 	c #2296D1",
"8 	c #1E97CC",
"9 	c #2F7EDE",
"0 	c #1B6AE6",
"a 	c #1B58EE",
"b 	c #225FEE",
"c 	c #2D4BEC",
"d 	c #3334F2",
"e 	c #401AF5",
"f 	c #1323FA",
"g 	c #1022FA",
"h 	c #2922F7",
"i 	c #1B23FA",
"j 	c #173AF5",
"k 	c #154BF3",
"l 	c #507BED",
"m 	c #205FED",
"n 	c #2A6BEA",
"o 	c #4DC1C5",
"p 	c #1FACC2",
"q 	c #23A7C7",
"r 	c #1EA5C1",
"s 	c #1F92CB",
"t 	c #2377DD",
"u 	c #176FE0",
"v 	c #2264E9",
"w 	c #3C59E3",
"x 	c #5047E4",
"y 	c #3F2AF0",
"z 	c #4012F6",
"A 	c #1A2AF7",
"B 	c #1C2FF6",
"C 	c #2622F8",
"D 	c #172BF9",
"E 	c #1346F2",
"F 	c #1F4BF3",
"G 	c #1F52F0",
"H 	c #1E4DF0",
"I 	c #5593E2",
"J 	c #2D90D6",
"K 	c #6BC9CB",
"L 	c #37BEBA",
"M 	c #0FAFB6",
"N 	c #25A3C3",
"O 	c #1A9CC3",
"P 	c #2581D5",
"Q 	c #1A74DF",
"R 	c #1B66E8",
"S 	c #1E56EA",
"T 	c #5C55DB",
"U 	c #4536EA",
"V 	c #2827F3",
"W 	c #1F2BF6",
"X 	c #1B37F6",
"Y 	c #192CF7",
"Z 	c #1839F5",
"` 	c #1231F8",
" .	c #1B3DF5",
"..	c #1B4AF0",
"+.	c #4C7DE6",
"@.	c #599DDB",
"#.	c #3D9ED5",
"$.	c #2FA3CD",
"%.	c #46C7B5",
"&.	c #34BAB2",
"*.	c #1CAFB3",
"=.	c #0EB3B3",
"-.	c #2B9CC1",
";.	c #318BCA",
">.	c #1D7BDA",
",.	c #257ED5",
"'.	c #3155E2",
").	c #3927F1",
"!.	c #2B41EA",
"~.	c #2321F8",
"{.	c #1A3AF5",
"].	c #2232F3",
"^.	c #2029F7",
"/.	c #1534F6",
"(.	c #1A3CF4",
"_.	c #1551EE",
":.	c #2954ED",
"<.	c #478CD7",
"[.	c #4196D7",
"}.	c #75B4D8",
"|.	c #4B8EDE",
"1.	c #24A1C9",
"2.	c #2DD399",
"3.	c #25CD99",
"4.	c #2AC7A0",
"5.	c #59C4B6",
"6.	c #19ADB7",
"7.	c #23B2AE",
"8.	c #27A7B6",
"9.	c #4496BB",
"0.	c #377CD2",
"a.	c #287ED1",
"b.	c #2B59E1",
"c.	c #3D28ED",
"d.	c #3444E5",
"e.	c #2E34EF",
"f.	c #3A3EE9",
"g.	c #4344E0",
"h.	c #2445EB",
"i.	c #1F55E9",
"j.	c #1E4EEB",
"k.	c #3667D9",
"l.	c #3B84CE",
"m.	c #3783D8",
"n.	c #2987D7",
"o.	c #5DB4CE",
"p.	c #73C4D0",
"q.	c #36D994",
"r.	c #18DA85",
"s.	c #22D28F",
"t.	c #26CC97",
"u.	c #2CC499",
"v.	c #3EB8A1",
"w.	c #1AB4AE",
"x.	c #1DB2B2",
"y.	c #14B0B4",
"z.	c #2887D0",
"A.	c #2277D8",
"B.	c #345FDC",
"C.	c #3C1FF0",
"D.	c #1F40EC",
"E.	c #212AF8",
"F.	c #1933F7",
"G.	c #494CDA",
"H.	c #1947F0",
"I.	c #1A3FF0",
"J.	c #1D43F1",
"K.	c #3763E8",
"L.	c #53A1C6",
"M.	c #45A1C7",
"N.	c #45A5C9",
"O.	c #7CB9D1",
"P.	c #7AC3C5",
"Q.	c #C8DCDD",
"R.	c #7EBFD6",
"S.	c #63E39E",
"T.	c #82E1B5",
"U.	c #50E098",
"V.	c #20D887",
"W.	c #20CD92",
"X.	c #35C396",
"Y.	c #41B99B",
"Z.	c #1FB7AB",
"`.	c #22AAB8",
" +	c #1BA9B8",
".+	c #2381D6",
"++	c #1C6FDC",
"@+	c #2D17F9",
"#+	c #2134F0",
"$+	c #2126F8",
"%+	c #163AF5",
"&+	c #214CEB",
"*+	c #1E45EF",
"=+	c #1C39F4",
"-+	c #2A54E9",
";+	c #2A87CD",
">+	c #6A9DBB",
",+	c #5FA1C3",
"'+	c #58A7BA",
")+	c #6AACC6",
"!+	c #89C5C3",
"~+	c #C9DDD9",
"{+	c #6BBDC8",
"]+	c #2FE56B",
"^+	c #62E293",
"/+	c #5BE291",
"(+	c #3BDD7F",
"_+	c #36D880",
":+	c #3FCD82",
"<+	c #3ECA86",
"[+	c #4DBA90",
"}+	c #52AA9E",
"|+	c #3DACA8",
"1+	c #429EB1",
"2+	c #307ED2",
"3+	c #2635F3",
"4+	c #223DEB",
"5+	c #2324F9",
"6+	c #1E40F1",
"7+	c #1152ED",
"8+	c #2660E0",
"9+	c #2677D3",
"0+	c #2993C2",
"a+	c #5EA2C4",
"b+	c #53A8CB",
"c+	c #67B2D0",
"d+	c #46AABE",
"e+	c #49AAC2",
"f+	c #4AB9B7",
"g+	c #72CCBF",
"h+	c #72E896",
"i+	c #4FE480",
"j+	c #48E373",
"k+	c #3EDD6A",
"l+	c #48DB66",
"m+	c #40DB6B",
"n+	c #41D07A",
"o+	c #3ED07B",
"p+	c #31D07F",
"q+	c #3CC984",
"r+	c #3CACA6",
"s+	c #3365E0",
"t+	c #2B4AE0",
"u+	c #2528F7",
"v+	c #154AF0",
"w+	c #1E5EE3",
"x+	c #2684CC",
"y+	c #3F9ACF",
"z+	c #59A9CF",
"A+	c #A9C2E3",
"B+	c #97C6D5",
"C+	c #96CDD1",
"D+	c #81CAC4",
"E+	c #89CBC7",
"F+	c #40F065",
"G+	c #3CEB62",
"H+	c #44E763",
"I+	c #3FE658",
"J+	c #48E251",
"K+	c #44E15C",
"L+	c #35E65C",
"M+	c #36E75E",
"N+	c #51E57B",
"O+	c #4FE477",
"P+	c #31E564",
"Q+	c #39D972",
"R+	c #3D8CBD",
"S+	c #353AE5",
"T+	c #2538F1",
"U+	c #1E92C4",
"V+	c #49B0C7",
"W+	c #9BC7D9",
"X+	c #9ECCDA",
"Y+	c #B8DDD9",
"Z+	c #96CDB4",
"`+	c #3FF04E",
" @	c #5EEF61",
".@	c #54ED5B",
"+@	c #45EE5C",
"@@	c #57E668",
"#@	c #5CE869",
"$@	c #99EAA7",
"%@	c #58A29F",
"&@	c #5B7EB8",
"*@	c #4133E5",
"=@	c #2C5AD9",
"-@	c #425CE7",
";@	c #C7C7D6",
">@	c #B4C2CF",
",@	c #B7B0D3",
"'@	c #A09CCB",
")@	c #5B40DB",
"!@	c #3C5FD8",
"~@	c #3040EA",
"{@	c #7273D5",
"]@	c #3860D2",
"^@	c #2248E6",
"/@	c #174BF0",
"(@	c #1742E7",
"_@	c #40A2BD",
":@	c #3DB998",
"<@	c #2679BD",
"[@	c #094DF4",
"}@	c #1561DD",
"|@	c #5E87C4",
"1@	c #2EA4AE",
"2@	c #27B4A4",
"3@	c #22ADAD",
"4@	c #32B1AB",
"5@	c #45A79B",
"6@	c #5CE037",
"7@	c #58BE66",
"8@	c #63679B",
"9@	c #1B7CD5",
"0@	c #149AC4",
"a@	c #1094C3",
"b@	c #319E96",
"c@	c #727472",
"d@	c #6BCA5D",
"e@	c #53D260",
"f@	c #55C8A0",
"g@	c #6BDE1F",
"h@	c #80D721",
"i@	c #96BF1F",
"j@	c #AF8D2C",
"k@	c #AD5155",
"l@	c #8B875D",
"m@	c #83776F",
"n@	c #7E8875",
"o@	c #46B767",
"p@	c #23BB7B",
"q@	c #1DDF57",
"r@	c #48EB11",
"s@	c #41C053",
"t@	c #388D9C",
"u@	c #2F7AB3",
"v@	c #6B9774",
"w@	c #9FC02A",
"x@	c #8BBA3A",
"y@	c #6CCB4A",
"z@	c #59D53E",
"A@	c #4BE728",
"B@	c #69BA4B",
"                                                                ",
"                                                                ",
"                                                                ",
"                                                                ",
"                                                                ",
"                          . + @ # $ % &                         ",
"                      * = - ; > , ' ) ! ~ { ]                   ",
"                  ^   / ( _ : < [ } | 1 2 3 4 5 6               ",
"                7 8 9 0 a b c d e f g h i j k l m n             ",
"          o p q r s t u v w x y z A B C D E F G H I J           ",
"          K L M N O P Q R S T U V W X Y Z `  ...+.@.#.$.        ",
"          %.&.*.=.-.;.>.,.'.).!.~.{.].^./.(._.:.<.[.}.|.1.      ",
"      2.3.4.5.6.7.8.9.0.a.b.c.d.e.f.g.h.i.j.k.l.m.n.o.p.        ",
"    q.r.s.t.u.v.w.x.y.z.A.B.C.D.E.F.G.H.I.J.K.L.M.N.O.P.Q.R.    ",
"    S.T.U.V.W.X.Y.Z.`. +.+++@+#+$+%+&+*+=+-+;+>+,+'+)+!+~+{+    ",
"    ]+^+/+(+_+:+<+[+}+|+1+2+3+4+5+6+7+4 8+9+0+a+b+c+d+e+f+g+    ",
"      h+i+j+k+l+m+n+o+p+q+r+s+t+u+v+w+x+y+z+A+B+C+D+E+          ",
"    F+G+H+I+J+K+L+M+N+O+P+Q+R+S+T+U+V+W+X+Y+Z+                  ",
"    `+ @.@+@@@#@  $@      %@&@*@=@-@;@>@,@'@                    ",
"                              )@!@~@{@                          ",
"                              ]@^@/@(@    _@:@                  ",
"                                <@[@}@|@  1@2@3@4@              ",
"                              5@6@7@8@9@0@a@b@c@d@e@f@          ",
"                                g@h@i@j@k@l@m@n@o@p@q@          ",
"                                r@s@t@u@v@w@x@y@z@A@B@          ",
"                                                                ",
"                                                                ",
"                                                                ",
"                                                                ",
"                                                                ",
"                                                                ",
"                                                                "};
