/* XPM */
static const char * WMFiberResampling_xpm[] = {
"16 16 77 1",
" 	c None",
".	c #8162D6",
"+	c #7568DD",
"@	c #6366D8",
"#	c #8479E0",
"$	c #8699DF",
"%	c #827CD8",
"&	c #7C71D9",
"*	c #6251D2",
"=	c #6C69D7",
"-	c #7673DD",
";	c #9089E1",
">	c #8B9ADF",
",	c #000000",
"'	c #6597C1",
")	c #6883CB",
"!	c #698ECE",
"~	c #6B71D1",
"{	c #828CBA",
"]	c #997DBA",
"^	c #8795E4",
"/	c #8BA5C4",
"(	c #7CB0AF",
"_	c #85BD95",
":	c #6B96B4",
"<	c #7E98BB",
"[	c #6C9B9F",
"}	c #4A8984",
"|	c #5E8E8B",
"1	c #8879AE",
"2	c #948EC5",
"3	c #8BA7BA",
"4	c #60C673",
"5	c #66CC6D",
"6	c #7CABBA",
"7	c #63AC9D",
"8	c #6CC963",
"9	c #91AA8A",
"0	c #8DA984",
"a	c #8C9BB5",
"b	c #4C63C8",
"c	c #7D6FE5",
"d	c #9FA3BF",
"e	c #62CC5F",
"f	c #6DC353",
"g	c #71B792",
"h	c #7DC669",
"i	c #53BE78",
"j	c #6D9E97",
"k	c #917CE0",
"l	c #78C4A4",
"m	c #67B650",
"n	c #7BA364",
"o	c #74BC56",
"p	c #58C24C",
"q	c #70C669",
"r	c #83B282",
"s	c #65A18E",
"t	c #58C96D",
"u	c #7FB194",
"v	c #5BC580",
"w	c #63B76E",
"x	c #70B974",
"y	c #74B76F",
"z	c #6FBD57",
"A	c #69BD5E",
"B	c #60B364",
"C	c #53BF53",
"D	c #6DC468",
"E	c #54A9A1",
"F	c #63AFA2",
"G	c #6DAE8C",
"H	c #6FAE9C",
"I	c #81C869",
"J	c #81C664",
"K	c #61AA82",
"L	c #8D8F99",
"                ",
"                ",
"                ",
"      .+@#      ",
"    $%&*=-;>    ",
"   ,')!~{]^/(_  ",
"  :,,<[}|123,45 ",
" 67890abcd,,,ef ",
" ghij,,,kl,mnop ",
" qrstuvwxyzABCD ",
"      EFGH      ",
"    IJKL        ",
"                ",
"                ",
"                ",
"                "};
