/* XPM */
static const char * isosurfaceraytracer_xpm[] = {
"32 32 400 2",
"  	c None",
". 	c #B8B7B8",
"+ 	c #B8B8B9",
"@ 	c #B9B7B8",
"# 	c #B8B7B9",
"$ 	c #B9B8B8",
"% 	c #B9B7B9",
"& 	c #B8B8B8",
"* 	c #1D1D9F",
"= 	c #B4B2B7",
"- 	c #6261AA",
"; 	c #2C2CA1",
"> 	c #20209F",
", 	c #3332A2",
"' 	c #6C6CAC",
") 	c #B8B6B8",
"! 	c #BAB9B9",
"~ 	c #BAB8B9",
"{ 	c #A3A1B5",
"] 	c #4D4DA7",
"^ 	c #2424A0",
"/ 	c #4D4DA6",
"( 	c #A3A2B4",
"_ 	c #B9B8B9",
": 	c #5D5CAA",
"< 	c #6A69AD",
"[ 	c #BCBBBC",
"} 	c #ABAAB8",
"| 	c #2A29A1",
"1 	c #2B2BA1",
"2 	c #A9A8B6",
"3 	c #BAB9BA",
"4 	c #BBBABB",
"5 	c #2525A0",
"6 	c #9998B6",
"7 	c #BAB9BD",
"8 	c #8988B3",
"9 	c #2E2EA2",
"0 	c #BFBEBF",
"a 	c #BFBDBF",
"b 	c #6160AC",
"c 	c #4141A6",
"d 	c #ACABB9",
"e 	c #ABA9B9",
"f 	c #3F3FA5",
"g 	c #5F5FAA",
"h 	c #B9B8BA",
"i 	c #BDBBBD",
"j 	c #BEBCBE",
"k 	c #BEBDBF",
"l 	c #2D2DA2",
"m 	c #5252A9",
"n 	c #8987B4",
"o 	c #BCBBC0",
"p 	c #C1BFC2",
"q 	c #C1C0C1",
"r 	c #3434A3",
"s 	c #9D9CB9",
"t 	c #BFBEC0",
"u 	c #9A9AB7",
"v 	c #3232A3",
"w 	c #BCBABC",
"x 	c #BBBABC",
"y 	c #BBB9BB",
"z 	c #BCBBBB",
"A 	c #C0BFBF",
"B 	c #C1BFC0",
"C 	c #8585B4",
"D 	c #2B2BA2",
"E 	c #3131A3",
"F 	c #9F9EBB",
"G 	c #C4C2C4",
"H 	c #C3C3C3",
"I 	c #2121A0",
"J 	c #BEBCC2",
"K 	c #C2C1C2",
"L 	c #C2C1C1",
"M 	c #BEBDBE",
"N 	c #BDBCBE",
"O 	c #BAB8BA",
"P 	c #BCBABB",
"Q 	c #BCBBBD",
"R 	c #C2C1C3",
"S 	c #C3C2C3",
"T 	c #C4C2C3",
"U 	c #C4C3C4",
"V 	c #9B9ABB",
"W 	c #3232A4",
"X 	c #2323A0",
"Y 	c #8E8DB9",
"Z 	c #C6C5C7",
"` 	c #C7C5C6",
" .	c #C0BFC3",
"..	c #C5C4C4",
"+.	c #BDBCC1",
"@.	c #BFBDBE",
"#.	c #BDBDBD",
"$.	c #C0BFC1",
"%.	c #C4C4C5",
"&.	c #C5C4C5",
"*.	c #C6C5C6",
"=.	c #C6C6C7",
"-.	c #C7C6C7",
";.	c #BBBBC5",
">.	c #6C6CB2",
",.	c #C8C8C9",
"'.	c #C9C8C8",
").	c #3535A4",
"!.	c #A3A2BF",
"~.	c #A09EBC",
"{.	c #3333A3",
"].	c #C2C0C2",
"^.	c #C1BFC1",
"/.	c #C0BEC0",
"(.	c #BDBCBD",
"_.	c #C2C2C2",
":.	c #C6C4C6",
"<.	c #C8C7C7",
"[.	c #2C2CA2",
"}.	c #8F8EBA",
"|.	c #C5C4C9",
"1.	c #9999BD",
"2.	c #2E2DA3",
"3.	c #CBCACB",
"4.	c #6666B1",
"5.	c #4444A8",
"6.	c #B6B5C5",
"7.	c #B5B4C4",
"8.	c #4241A7",
"9.	c #6160AE",
"0.	c #C0BFC0",
"a.	c #C8C7C8",
"b.	c #C9C8CA",
"c.	c #CAC9CA",
"d.	c #6262B0",
"e.	c #7070B5",
"f.	c #CECCCE",
"g.	c #CDCDCE",
"h.	c #BABAC9",
"i.	c #2A2AA2",
"j.	c #B8B7C4",
"k.	c #C8C6C8",
"l.	c #C6C6C6",
"m.	c #C5C3C5",
"n.	c #C3C2C4",
"o.	c #CBC9CA",
"p.	c #CBCBCB",
"q.	c #CCCCCC",
"r.	c #C1C1CA",
"s.	c #5E5EB0",
"t.	c #2C2CA3",
"u.	c #1F1F9F",
"v.	c #2F2FA3",
"w.	c #6E6DB5",
"x.	c #CBCACF",
"y.	c #D1D0D0",
"z.	c #D0CFD0",
"A.	c #B4B4C7",
"B.	c #5252AD",
"C.	c #2525A1",
"D.	c #2424A1",
"E.	c #5352AC",
"F.	c #B4B4C6",
"G.	c #C9C9C9",
"H.	c #C9C8C9",
"I.	c #C4C4C4",
"J.	c #C3C1C3",
"K.	c #C5C5C6",
"L.	c #C8C8C8",
"M.	c #CBCACC",
"N.	c #CDCCCD",
"O.	c #CDCDCD",
"P.	c #CFCECF",
"Q.	c #D1D0D1",
"R.	c #D1D1D2",
"S.	c #D2D1D2",
"T.	c #D2D2D2",
"U.	c #D3D2D3",
"V.	c #D3D1D2",
"W.	c #CFCDCE",
"X.	c #CCCBCC",
"Y.	c #CAC9CB",
"Z.	c #C7C7C8",
"`.	c #CBC9CB",
" +	c #CECDCE",
".+	c #D4D3D4",
"++	c #D4D4D5",
"@+	c #D4D5D5",
"#+	c #D5D4D5",
"$+	c #D5D5D5",
"%+	c #D4D3D3",
"&+	c #D2D2D3",
"*+	c #D1D1D1",
"=+	c #CFCFD0",
"-+	c #CDCCCC",
";+	c #CAC8C9",
">+	c #C8C7C9",
",+	c #C5C5C5",
"'+	c #CDCBCC",
")+	c #1E1E9F",
"!+	c #2828A2",
"~+	c #4747AB",
"{+	c #9696C3",
"]+	c #D7D7D8",
"^+	c #D8D7D8",
"/+	c #CECECF",
"(+	c #C8C6C7",
"_+	c #9594C4",
":+	c #DAD9DB",
"<+	c #DADADA",
"[+	c #C9C7C9",
"}+	c #CBCACA",
"|+	c #CECECE",
"1+	c #D0CFD1",
"2+	c #D7D5D7",
"3+	c #D9D8D9",
"4+	c #D8D7D9",
"5+	c #C2C2D2",
"6+	c #6B6BB7",
"7+	c #3A3AA8",
"8+	c #DDDCDD",
"9+	c #DCDCDD",
"0+	c #DCDBDC",
"a+	c #DCDBDB",
"b+	c #DBDADB",
"c+	c #D8D8D8",
"d+	c #D7D6D7",
"e+	c #D5D5D6",
"f+	c #CECCCD",
"g+	c #CACACB",
"h+	c #CDCBCD",
"i+	c #CECDCF",
"j+	c #DAD9DA",
"k+	c #DCDCDC",
"l+	c #DDDDDD",
"m+	c #D4D3DB",
"n+	c #2020A0",
"o+	c #DFDEDF",
"p+	c #E0DFDF",
"q+	c #DFDFDF",
"r+	c #DEDEDF",
"s+	c #DEDDDE",
"t+	c #DBDADA",
"u+	c #D7D7D7",
"v+	c #D6D6D6",
"w+	c #D5D3D5",
"x+	c #D2D0D1",
"y+	c #D2D1D1",
"z+	c #DBDBDC",
"A+	c #DEDCDD",
"B+	c #DADADD",
"C+	c #C3C3D6",
"D+	c #6767B7",
"E+	c #3D3DA9",
"F+	c #E1E1E1",
"G+	c #E1E1E2",
"H+	c #E1DFE0",
"I+	c #E0DFE0",
"J+	c #D6D6D7",
"K+	c #D5D3D4",
"L+	c #D3D3D4",
"M+	c #A6A5CE",
"N+	c #E4E3E4",
"O+	c #E4E4E4",
"P+	c #E3E3E3",
"Q+	c #E2E2E2",
"R+	c #D4D4D4",
"S+	c #D3D2D2",
"T+	c #2727A2",
"U+	c #5858B3",
"V+	c #B5B5D4",
"W+	c #E6E6E6",
"X+	c #E6E6E7",
"Y+	c #E6E5E6",
"Z+	c #E6E4E5",
"`+	c #E5E4E4",
" @	c #E0E0E0",
".@	c #D9D9DA",
"+@	c #D8D7D7",
"@@	c #D6D5D6",
"#@	c #D0CFCF",
"$@	c #D2D1D3",
"%@	c #D5D4D4",
"&@	c #D6D5D7",
"*@	c #DDDDE0",
"=@	c #8E8DC6",
"-@	c #4444AC",
";@	c #CECDDE",
">@	c #E8E8E8",
",@	c #E9E9E8",
"'@	c #E9E8E9",
")@	c #E9E8E8",
"!@	c #E8E8E9",
"~@	c #E8E7E8",
"{@	c #E7E7E7",
"]@	c #E3E2E2",
"^@	c #E1E0E1",
"/@	c #D5D4D6",
"(@	c #D4D2D3",
"_@	c #DAD9D9",
":@	c #E4E3E3",
"<@	c #E5E5E5",
"[@	c #6565B8",
"}@	c #3E3EAB",
"|@	c #E1E1E8",
"1@	c #ECEBEB",
"2@	c #EBEBEB",
"3@	c #EAEAEA",
"4@	c #E9E9E9",
"5@	c #E2E2E3",
"6@	c #E1E0E0",
"7@	c #DFDFDE",
"8@	c #DCDDDD",
"9@	c #D9D8D8",
"0@	c #DBDBDB",
"a@	c #E2E1E2",
"b@	c #E5E5E6",
"c@	c #E7E6E7",
"d@	c #E0DFE5",
"e@	c #3939A9",
"f@	c #7877C0",
"g@	c #EDEDEE",
"h@	c #EEEEEE",
"i@	c #EDEEEE",
"j@	c #EDEDED",
"k@	c #ECECEC",
"l@	c #E3E1E2",
"m@	c #DEDEDE",
"n@	c #E3E2E3",
"o@	c #EBEAEB",
"p@	c #BBBBD9",
"q@	c #BEBEDC",
"r@	c #F0F0F0",
"s@	c #F1F0F0",
"t@	c #F0EFF0",
"u@	c #EEEEEF",
"v@	c #EDECED",
"w@	c #E5E6E6",
"x@	c #DFDFE0",
"y@	c #DEDDDD",
"z@	c #D8D8D9",
"A@	c #ECECED",
"B@	c #7474C0",
"C@	c #3B3BAA",
"D@	c #EAEAEF",
"E@	c #F3F2F3",
"F@	c #F2F3F3",
"G@	c #F2F2F2",
"H@	c #F0F1F1",
"I@	c #EFEFEF",
"J@	c #E7E7E8",
"K@	c #E5E4E5",
"L@	c #E0E0E1",
"M@	c #D9D9D9",
"N@	c #E8E7E7",
"O@	c #EAE9EA",
"P@	c #EBEBEC",
"Q@	c #F0F0EF",
"R@	c #E7E6ED",
"S@	c #3636A8",
"T@	c #7979C3",
"U@	c #F5F5F5",
"V@	c #F4F4F3",
"W@	c #F1F1F1",
"X@	c #EAEAEB",
"Y@	c #DADADB",
"Z@	c #D8D6D7",
"`@	c #E3E2E4",
" #	c #EDEDEC",
".#	c #F2F1F2",
"+#	c #F3F3F3",
"@#	c #F6F5F5",
"##	c #F7F6F6",
"$#	c #F8F7F8",
"%#	c #F8F8F8",
"&#	c #F7F7F7",
"*#	c #F6F6F6",
"=#	c #F4F4F5",
"-#	c #DDDDDE",
";#	c #DCDBDD",
">#	c #EEEDEE",
",#	c #F3F2F2",
"'#	c #F5F5F4",
")#	c #F9F9F8",
"!#	c #FAFAFA",
"~#	c #FAFAFB",
"{#	c #F9FAF9",
"]#	c #F6F5F6",
"^#	c #F3F3F4",
"/#	c #EEEFEF",
"(#	c #E9E9EA",
"_#	c #F1F0F1",
":#	c #FBFBFA",
"<#	c #FCFCFC",
"[#	c #FCFDFD",
"}#	c #FBFBFB",
"|#	c #F9F9F9",
"1#	c #F6F6F7",
"2#	c #F4F4F4",
"3#	c #F1F1F2",
". + @ . # @ . . $ # . % . . @ . # # % @ @ . . # # . . @ . @ # % ",
"& % % @ % * * . . . $ @ @ # % # @ . @ . . # % . # . # . . . $ % ",
"& . . % # * * # % # % # . @ . % # # # @ % @ . % . . . $ % . . . ",
". @ . & % * * @ # . @ # . @ . . @ . . . # . . # @ . % # . . # . ",
". # . . & * * # . . = - ; > , ' ) ! ~ ~ { ] ^ ^ / ( . @ @ @ # @ ",
". # # & . * * % _ ~ : * * * * * < [ [ } | * * * * 1 2 % . @ . $ ",
"% % # # # * * 3 4 [ 5 * 6 7 8 * 9 0 a b * c d e f * g 3 % . . # ",
"# @ . _ h * * i j k l * m n o p q q q r * s t t u * v w x 3 _ # ",
". @ ~ y z * * 0 A B C D * * E F G H H I * J K L o * > M N [ 4 3 ",
"# O P Q M * * q R S T U V W * X Y Z ` > *  ...U +.* > q t @.j [ ",
"3 [ #.0 $.* * T %.&.*.=.-.;.>.* X ,.'.).* !.-.Z ~.* {.S ].^./.k ",
"(.j t q _.* * :.-.<.[.* }.|.1.* 2.3.3.4.* 5.6.7.8.* 9.&.G S K B ",
"0 0.q S U * * a.b.c.d.* * * * * e.f.g.h.i.* * * * D j.k.l.m.n.K ",
"0.K S &.*.* * o.p.q.r.s.t.u.v.w.x.y.z.z.A.B.C.D.E.F.3.G.H.-.:.I.",
"J.U K.-.L.c.M.N.O.P.z.z.Q.R.S.T.U.V.T.T.S.S.Q.z.P.W.N.X.Y.G.<.*.",
"U *.Z.H.`.X. + +z.Q.R.U.U..+++@+#+$+#+#+.+%+U.&+*+y.=+ +-+3.;+>+",
",+a.H.3.'+* * * * * * )+!+~+{+]+^+^+* * * * * * * * * * /+O.3.c.",
"(+H.3.N. +* * * * * * * * * * _+:+<+* * * * * * * * * * Q.P.g.X.",
"[+}+N.|+1+* * #+2+]+3+4+5+6+* 7+8+9+8+0+a+b+* * c+d+e+.+T.Q.=+f+",
"g+h+i+y.T.* * d+^+j+b+k+l+m+* n+o+p+q+r+s+8+* * t+3+u+v+w+U.x+P.",
"X. +z.y+.+* * 3+j+z+A+B+C+D+* E+F+F+G+F+H+I+* * 9+b+j+c+J+K+U.Q.",
"f+=+y+L+e+* * * * * * * * * u.M+N+O+N+N+P+Q+* * r+l+b+j+^+d+R+&+",
"|+Q.S+++d+* * * * * * * T+U+V+W+X+W+W+Y+Z+`+* *  @o+8+z+.@+@@@%+",
"#@$@%@&@c+* * o+ @*@=@* -@;@>@,@'@'@)@!@~@{@* * ]@^@q+A+z+.@u+/@",
"Q.(@$+^+_@* * I+Q+:@<@[@* }@|@1@2@1@2@2@3@4@* * O+5@6@7@8@b+9@&@",
"S..+v+3+0@* * a@:@b@c@d@e@* f@g@h@h@i@j@k@2@* * W+O+l@6@m@0+j+]+",
"U./@]+j+k+* * n@<@{@'@o@p@* )+q@r@s@r@t@u@v@* * {@w@:@G+x@y@b+3+",
".+@@z@b+l+* * O+W+)@3@A@u@B@* C@D@E@F@G@H@I@* * 4@J@K@n@L@s+0+_@",
".+J+M@a+s+* * <@N@O@P@i@Q@R@S@* T@U@U@V@E@W@* * X@>@X+O+G+q+8+Y@",
"%@Z@j+k+o+^@`@W+>@3@ #I@.#+#@###$#%#&#*#=#G@r@h@P@4@{@K@a@p+-#b+",
"#+^+<+;#o+F+O+X+>@2@>#r@,#'#&#)#!#~#{#%#]#^#W@/#k@(#N@b@Q+I+s+b+",
"$+]+:+8+o+a@N+{@4@P@h@_#+#U@%#:#<#[#}#|#1#2#3#I@k@3@~@<@n@ @s+b+"};
