/* XPM */
static const char * WMReadSphericalHarmonics_xpm[] = {
"32 32 581 2",
"  	c None",
". 	c #000000",
"+ 	c #DCDFDF",
"@ 	c #ECECEB",
"# 	c #F3F3F3",
"$ 	c #F1F1F1",
"% 	c #839397",
"& 	c #BEC2C3",
"* 	c #F6F6F5",
"= 	c #F2F2F1",
"- 	c #F7F7F6",
"; 	c #F7F7F5",
"> 	c #F5F5F4",
", 	c #F2F2F2",
"' 	c #F2F1F1",
") 	c #88A39A",
"! 	c #7BA99D",
"~ 	c #7CACA6",
"{ 	c #7BACAB",
"] 	c #7AA9AE",
"^ 	c #768C97",
"/ 	c #889298",
"( 	c #C3C5C5",
"_ 	c #F8F8F7",
": 	c #F5F5F5",
"< 	c #E0E1E3",
"[ 	c #B2B3C1",
"} 	c #757590",
"| 	c #757698",
"1 	c #75799C",
"2 	c #8B92A9",
"3 	c #B4B7C0",
"4 	c #EEEEEE",
"5 	c #D1D7D5",
"6 	c #7FA797",
"7 	c #82B1A4",
"8 	c #83B4AE",
"9 	c #83B4B5",
"0 	c #81B0B9",
"a 	c #7EACB9",
"b 	c #7798AF",
"c 	c #7B90A5",
"d 	c #7C8695",
"e 	c #87888D",
"f 	c #F3F2F1",
"g 	c #A2A2B0",
"h 	c #79799D",
"i 	c #7B7EAB",
"j 	c #7B84B5",
"k 	c #7A88B9",
"l 	c #788BBB",
"m 	c #768CB5",
"n 	c #7788A8",
"o 	c #A9ACB6",
"p 	c #ABB9B2",
"q 	c #82AB99",
"r 	c #88B6A8",
"s 	c #89B8B1",
"t 	c #89B6B9",
"u 	c #88B4BD",
"v 	c #799CBB",
"w 	c #7793B4",
"x 	c #7788A4",
"y 	c #767B8F",
"z 	c #757589",
"A 	c #7B769E",
"B 	c #807EAE",
"C 	c #8285BA",
"D 	c #828BC3",
"E 	c #8091C7",
"F 	c #7E94C8",
"G 	c #7995C2",
"H 	c #7693B7",
"I 	c #75839B",
"J 	c #CBCCCE",
"K 	c #85A4C8",
"L 	c #819CC3",
"M 	c #7C91BB",
"N 	c #7A83A4",
"O 	c #7B7997",
"P 	c #8077A0",
"Q 	c #847EAE",
"R 	c #8884BA",
"S 	c #898BC4",
"T 	c #8892CB",
"U 	c #8797CE",
"V 	c #839ACD",
"W 	c #7E9BC6",
"X 	c #7897BB",
"Y 	c #7891A9",
"Z 	c #9EA4AE",
"` 	c #90ACC9",
" .	c #8DA4CB",
"..	c #889CC8",
"+.	c #838DB9",
"@.	c #7F7D9F",
"#.	c #81769D",
"$.	c #867BA7",
"%.	c #8B82B4",
"&.	c #8F8AC0",
"*.	c #9092CB",
"=.	c #8F98D0",
"-.	c #8D9DD2",
";.	c #87A0CF",
">.	c #819FC7",
",.	c #7B9CBB",
"'.	c #7695AB",
").	c #9EA7AF",
"!.	c #E1E4E2",
"~.	c #85A38D",
"{.	c #90B39D",
"].	c #95B7A9",
"^.	c #99B2C3",
"/.	c #97ADC8",
"(.	c #94A4CB",
"_.	c #8F98C7",
":.	c #8786B1",
"<.	c #83799B",
"[.	c #8779A1",
"}.	c #8D7EAE",
"|.	c #9287BB",
"1.	c #958FC6",
"2.	c #9797CF",
"3.	c #959ED2",
"4.	c #91A2D2",
"5.	c #8BA4CD",
"6.	c #84A2C4",
"7.	c #7C9EB8",
"8.	c #7796A7",
"9.	c #9EA7AC",
"0.	c #93A395",
"a.	c #8DAB92",
"b.	c #95B4A1",
"c.	c #9EACC5",
"d.	c #9AA2C8",
"e.	c #9595C3",
"f.	c #8880A6",
"g.	c #86779A",
"h.	c #8D7BA5",
"i.	c #9583B2",
"j.	c #9A8DBF",
"k.	c #9D95CA",
"l.	c #9D9DD0",
"m.	c #9AA2D2",
"n.	c #95A6D0",
"o.	c #8DA7CA",
"p.	c #85A4BF",
"q.	c #7D9FB2",
"r.	c #7793A0",
"s.	c #AEB5B8",
"t.	c #E2E2E2",
"u.	c #88A089",
"v.	c #95B097",
"w.	c #9BB4A4",
"x.	c #A0A2C3",
"y.	c #9791BB",
"z.	c #887B9A",
"A.	c #8B779A",
"B.	c #9580A9",
"C.	c #9D88B7",
"D.	c #A292C3",
"E.	c #A39ACB",
"F.	c #A2A2D0",
"G.	c #9DA7D0",
"H.	c #97A9CB",
"I.	c #8FA8C3",
"J.	c #86A4B9",
"K.	c #7E9EAC",
"L.	c #758A91",
"M.	c #EDEDED",
"N.	c #C0C8C0",
"O.	c #8BA288",
"P.	c #9AB09A",
"Q.	c #9FB1A4",
"R.	c #A4A0BD",
"S.	c #998DAF",
"T.	c #867790",
"U.	c #917A9C",
"V.	c #9C84AC",
"W.	c #A48EBA",
"X.	c #A897C4",
"Y.	c #A99FCB",
"Z.	c #A7A6CD",
"`.	c #A0A9CB",
" +	c #99AAC5",
".+	c #90A8BC",
"++	c #86A4B1",
"@+	c #7B9AA2",
"#+	c #A1AFB1",
"$+	c #F6F5F5",
"%+	c #F7F6F7",
"&+	c #C1C9BF",
"*+	c #8EA288",
"=+	c #9CAD97",
"-+	c #9A8CA7",
";+	c #88778C",
">+	c #977E9F",
",+	c #A388AF",
"'+	c #AB93BB",
")+	c #AE9CC4",
"!+	c #AEA4C8",
"~+	c #AAA9C9",
"{+	c #A2ABC5",
"]+	c #9AABBD",
"^+	c #8FA7B4",
"/+	c #85A0A7",
"(+	c #7B9597",
"_+	c #D0D5D5",
":+	c #BDC5B9",
"<+	c #90A186",
"[+	c #9DA994",
"}+	c #8D798E",
"|+	c #9F83A2",
"1+	c #AC8DB1",
"2+	c #B297BD",
"3+	c #B5A0C3",
"4+	c #B2A8C5",
"5+	c #ACACC3",
"6+	c #A3ADBE",
"7+	c #99A9B4",
"8+	c #8DA4AB",
"9+	c #839C9E",
"0+	c #8E9D9C",
"a+	c #F6F5F6",
"b+	c #CCD2C9",
"c+	c #9FAC95",
"d+	c #97A189",
"e+	c #A2A097",
"f+	c #9C8D96",
"g+	c #977B92",
"h+	c #A887A4",
"i+	c #B392B1",
"j+	c #B99DBB",
"k+	c #B9A4BF",
"l+	c #B5ABC0",
"m+	c #AEADBC",
"n+	c #A3ACB6",
"o+	c #97A7AC",
"p+	c #8BA1A0",
"q+	c #809592",
"r+	c #F7F6F9",
"s+	c #B5C0AB",
"t+	c #A0A98B",
"u+	c #968B88",
"v+	c #A28097",
"w+	c #B18CA4",
"x+	c #BB97B0",
"y+	c #BFA2B8",
"z+	c #BDA8BB",
"A+	c #B7ACB9",
"B+	c #AEAEB4",
"C+	c #A2ABAD",
"D+	c #95A5A2",
"E+	c #889B95",
"F+	c #BDC3C2",
"G+	c #F5F4F5",
"H+	c #C0C6BF",
"I+	c #8C7B80",
"J+	c #AA8598",
"K+	c #B890A4",
"L+	c #C09CAE",
"M+	c #C3A4B4",
"N+	c #C0ABB5",
"O+	c #B9AEB3",
"P+	c #AEAEAD",
"Q+	c #A1AAA4",
"R+	c #93A29A",
"S+	c #86978E",
"T+	c #F3F2F3",
"U+	c #91A099",
"V+	c #9C7B88",
"W+	c #B28897",
"X+	c #BE95A2",
"Y+	c #C6A0AA",
"Z+	c #C8A8AE",
"`+	c #C2AEAE",
" @	c #BAAFAB",
".@	c #AEAEA5",
"+@	c #A1A99E",
"@@	c #8F9E90",
"#@	c #A4ADA7",
"$@	c #F6F6F6",
"%@	c #D9DCDB",
"&@	c #848784",
"*@	c #A7808B",
"=@	c #B98D96",
"-@	c #C3989F",
";@	c #CBA3A5",
">@	c #CAABA9",
",@	c #C4AFA7",
"'@	c #BBB0A4",
")@	c #AEAE9E",
"!@	c #9FA997",
"~@	c #8F9D8C",
"{@	c #7F8F80",
"]@	c #A9B2A9",
"^@	c #F9F7F9",
"/@	c #F9F8F9",
"(@	c #9AA6A2",
"_@	c #8D8785",
":@	c #AE8389",
"<@	c #BE9093",
"[@	c #C89C9B",
"}@	c #CEA5A0",
"|@	c #CCADA2",
"1@	c #C5B1A1",
"2@	c #BBB19E",
"3@	c #AEAE97",
"4@	c #A0A991",
"5@	c #909F88",
"6@	c #839980",
"7@	c #769877",
"8@	c #8BA48B",
"9@	c #C8CDC7",
"0@	c #F6F6F7",
"a@	c #F3F2F2",
"b@	c #A9B0AE",
"c@	c #83918D",
"d@	c #957B7E",
"e@	c #B28787",
"f@	c #C2938F",
"g@	c #CC9E96",
"h@	c #D0A79A",
"i@	c #CDAE9B",
"j@	c #C5B29A",
"k@	c #BCB297",
"l@	c #B0B092",
"m@	c #A1AB8C",
"n@	c #94A585",
"o@	c #8BA481",
"p@	c #83A87D",
"q@	c #7AA779",
"r@	c #769E75",
"s@	c #B7C0B6",
"t@	c #E6E6E6",
"u@	c #848F8F",
"v@	c #929297",
"w@	c #957B7B",
"x@	c #B48883",
"y@	c #C4958B",
"z@	c #CDA090",
"A@	c #D0A993",
"B@	c #CDAF94",
"C@	c #C5B293",
"D@	c #BBB390",
"E@	c #B0B18D",
"F@	c #A4AE88",
"G@	c #9AAC83",
"H@	c #92B080",
"I@	c #8BB17C",
"J@	c #82B379",
"K@	c #7AB176",
"L@	c #76A276",
"M@	c #BDC9BC",
"N@	c #BFC3C3",
"O@	c #8B8D93",
"P@	c #9C909D",
"Q@	c #8E7B79",
"R@	c #B0887E",
"S@	c #C19584",
"T@	c #CB9F88",
"U@	c #CDA98B",
"V@	c #CCAF8D",
"W@	c #C5B28B",
"X@	c #BCB489",
"Y@	c #B2B386",
"Z@	c #A7B183",
"`@	c #9FB480",
" #	c #9AB97E",
".#	c #92BB79",
"+#	c #89BB77",
"@#	c #81BB75",
"##	c #79B278",
"$#	c #76A577",
"%#	c #BDC8BD",
"&#	c #FCFBFB",
"*#	c #7E8589",
"=#	c #938F9C",
"-#	c #A18CA2",
";#	c #9E8093",
">#	c #A78575",
",#	c #BB927D",
"'#	c #C59D80",
")#	c #CAA783",
"!#	c #CAAE85",
"~#	c #C4B284",
"{#	c #BCB483",
"]#	c #B4B581",
"^#	c #ABB67E",
"/#	c #A4BA7B",
"(#	c #9FBF79",
"_#	c #97C376",
":#	c #8FC376",
"<#	c #87C278",
"[#	c #7EBD7A",
"}#	c #79B37B",
"|#	c #759E78",
"1#	c #E2E4E2",
"2#	c #C5C6C7",
"3#	c #858893",
"4#	c #9A8DA2",
"5#	c #A488A7",
"6#	c #AB7FA6",
"7#	c #9D807D",
"8#	c #B18F79",
"9#	c #BD9A79",
"0#	c #C3A37B",
"a#	c #C5AC7C",
"b#	c #C2B17D",
"c#	c #BDB57C",
"d#	c #B6B77A",
"e#	c #AFBA7A",
"f#	c #A9BF79",
"g#	c #A4C476",
"h#	c #9DC878",
"i#	c #95C979",
"j#	c #8DC87B",
"k#	c #84C57D",
"l#	c #7DBD7E",
"m#	c #77AE7E",
"n#	c #90A993",
"o#	c #A2A4A8",
"p#	c #8E8C9E",
"q#	c #9C8BA7",
"r#	c #A786AD",
"s#	c #AC7EAE",
"t#	c #A4799E",
"u#	c #A28878",
"v#	c #B49579",
"w#	c #BCA077",
"x#	c #C0A978",
"y#	c #BFAF7B",
"z#	c #BBB479",
"A#	c #B7B977",
"B#	c #B3BE7B",
"C#	c #AEC37B",
"D#	c #A7C87B",
"E#	c #A0CC7E",
"F#	c #9ACD7E",
"G#	c #91CD80",
"H#	c #8ACB80",
"I#	c #80C381",
"J#	c #79B881",
"K#	c #77A480",
"L#	c #D2D7D3",
"M#	c #C0C1C5",
"N#	c #8C889E",
"O#	c #9C89AB",
"P#	c #A584B2",
"Q#	c #AA7DB4",
"R#	c #A979B1",
"S#	c #9F7E9F",
"T#	c #A48D7E",
"U#	c #B39A7D",
"V#	c #BAA57D",
"W#	c #BBAE7C",
"X#	c #B9B37C",
"Y#	c #B6B97E",
"Z#	c #B4C07E",
"`#	c #B0C580",
" $	c #AACB81",
".$	c #A4CE82",
"+$	c #9DD083",
"@$	c #95D084",
"#$	c #8DCF85",
"$$	c #85C885",
"%$	c #7CBE85",
"&$	c #76B084",
"*$	c #C3D0C6",
"=$	c #CDCED2",
"-$	c #89849E",
";$	c #9A87AE",
">$	c #A082B4",
",$	c #A47BB6",
"'$	c #A479B6",
")$	c #A37DB6",
"!$	c #A083B2",
"~$	c #A18F89",
"{$	c #B4A285",
"]$	c #B8AB85",
"^$	c #B6B184",
"/$	c #B4B784",
"($	c #B1BE85",
"_$	c #AEC586",
":$	c #AACB88",
"<$	c #A4CF88",
"[$	c #9ED289",
"}$	c #97D289",
"|$	c #8FD18A",
"1$	c #88CC89",
"2$	c #80C388",
"3$	c #78B487",
"4$	c #9AAFA1",
"5$	c #7D7A92",
"6$	c #9385AC",
"7$	c #9A80B4",
"8$	c #9D7BB8",
"9$	c #9F77BB",
"0$	c #A07BC1",
"a$	c #A283CA",
"b$	c #A28CD5",
"c$	c #A095C1",
"d$	c #A29A8E",
"e$	c #AEAC8D",
"f$	c #AEB48D",
"g$	c #ACB98C",
"h$	c #AAC08D",
"i$	c #A8C68D",
"j$	c #A4CC8D",
"k$	c #9ED08F",
"l$	c #97D28F",
"m$	c #91D18F",
"n$	c #89CC8E",
"o$	c #82C48D",
"p$	c #79B38A",
"q$	c #96AF9F",
"r$	c #F4F3F4",
"s$	c #C6C5CE",
"t$	c #8B81A6",
"u$	c #9280B1",
"v$	c #977CBD",
"w$	c #9C7BC8",
"x$	c #9E7BD5",
"y$	c #9E80E6",
"z$	c #9D88F9",
"A$	c #A3A0FD",
"B$	c #DEDFF1",
"C$	c #9F9F97",
"D$	c #A3A992",
"E$	c #A5B292",
"F$	c #A4B992",
"G$	c #A2C092",
"H$	c #A0C693",
"I$	c #9CCB93",
"J$	c #96CD93",
"K$	c #90CD92",
"L$	c #88C992",
"M$	c #81C090",
"N$	c #79B08B",
"O$	c #C3D0C8",
"P$	c #EDEDEE",
"Q$	c #BBBAC8",
"R$	c #8F85BC",
"S$	c #937CD5",
"T$	c #9779EF",
"U$	c #9575FA",
"V$	c #B1A0FB",
"W$	c #DAD6F4",
"X$	c #F3F3F1",
"Y$	c #CCCECB",
"Z$	c #A2AE9F",
"`$	c #9AB095",
" %	c #9EBA97",
".%	c #9BBF97",
"+%	c #97C396",
"@%	c #93C596",
"#%	c #8EC595",
"$%	c #88C394",
"%%	c #80B991",
"&%	c #79A68B",
"*%	c #E4E6E5",
"=%	c #F7F7F3",
"-%	c #CBCCF9",
";%	c #D9DBE2",
">%	c #F5F7F0",
",%	c #BBC8C0",
"'%	c #9DBAA4",
")%	c #9AC0A2",
"!%	c #95C39F",
"~%	c #91C49D",
"{%	c #8BC39C",
"]%	c #84BD97",
"^%	c #80B195",
"/%	c #A2B1AB",
"(%	c #E6E9E8",
"_%	c #E0E8E4",
":%	c #B9E1CE",
"<%	c #BBECD2",
"[%	c #B5EBCF",
"}%	c #C2E5D2",
"|%	c #E6EBE8",
". . . . . . . . . + @ # $ $ $ $ $ $ $ $ $ $ $ $ $ $ $ $ $ $ $ $ ",
". . . . . . . . . . % & * $ $ $ $ $ = - - ; > , $ $ $ $ $ $ $ $ ",
". . ' ) ! ~ { ] . . . ^ / ( _ $ : < [ } | 1 2 3 4 $ $ $ $ $ $ $ ",
". . 5 6 7 8 9 0 a . . b c d e f g h i j k l m n o : $ $ $ $ $ $ ",
". . p q r s t u . . . v w x y z A B C D E F G H I J $ $ $ $ $ $ ",
". . . . . . . . . . K L M N O P Q R S T U V W X Y Z $ $ $ $ $ $ ",
". . . . . . . . . `  ...+.@.#.$.%.&.*.=.-.;.>.,.'.).$ $ $ $ $ $ ",
". . !.~.{.].. . ^./.(._.:.<.[.}.|.1.2.3.4.5.6.7.8.9.$ $ $ $ $ $ ",
". . # 0.a.b.. . . c.d.e.f.g.h.i.j.k.l.m.n.o.p.q.r.s.$ $ $ $ $ $ ",
". . $ t.u.v.w.. . . x.y.z.A.B.C.D.E.F.G.H.I.J.K.L.M.$ $ $ $ $ $ ",
". . $ $ N.O.P.Q.. . R.S.T.U.V.W.X.Y.Z.`. +.+++@+#+$+$ $ $ $ $ $ ",
". . $ $ %+&+*+=+. . . -+;+>+,+'+)+!+~+{+]+^+/+(+_+$ $ $ $ $ $ $ ",
". . $ $ $ $ :+<+[+. . . }+|+1+2+3+4+5+6+7+8+9+0+# $ $ $ $ $ $ $ ",
"$ $ $ $ $ $ a+b+c+d+e+f+g+h+i+j+k+l+m+n+o+p+q+$ $ $ $ $ $ $ $ $ ",
"$ $ $ $ $ $ $ $ r+s+t+u+v+w+x+y+z+A+B+C+D+E+F+, $ $ $ $ $ $ $ $ ",
"$ $ $ $ $ $ $ $ $ G+H+I+J+K+L+M+N+O+P+Q+R+S+$ $ $ $ $ $ $ $ $ $ ",
"$ $ $ $ $ $ $ $ $ T+U+V+W+X+Y+Z+`+ @.@+@@@#@$@$ $ $ $ $ $ $ $ $ ",
"$ $ $ $ $ $ $ $ $ %@&@*@=@-@;@>@,@'@)@!@~@{@]@^@$ $ $ $ $ $ $ $ ",
"$ $ $ $ $ $ $ $ /@(@_@:@<@[@}@|@1@2@3@4@5@6@7@8@9@0@$ $ $ $ $ $ ",
"$ $ $ $ $ $ $ a@b@c@d@e@f@g@h@i@j@k@l@m@n@o@p@q@r@s@$ $ $ $ $ $ ",
"$ $ $ $ $ $ $ t@u@v@w@x@y@z@A@B@C@D@E@F@G@H@I@J@K@L@M@%+$ $ $ $ ",
"$ $ $ $ $ $ # N@O@P@Q@R@S@T@U@V@W@X@Y@Z@`@ #.#+#@###$#%#$ $ $ $ ",
"$ $ $ $ $ $ &#*#=#-#;#>#,#'#)#!#~#{#]#^#/#(#_#:#<#[#}#|#1#$ $ $ ",
"$ $ $ $ $ $ 2#3#4#5#6#7#8#9#0#a#b#c#d#e#f#g#h#i#j#k#l#m#n#$ $ $ ",
"$ $ $ $ $ $ o#p#q#r#s#t#u#v#w#x#y#z#A#B#C#D#E#F#G#H#I#J#K#L#$ $ ",
"$ $ $ $ $ $ M#N#O#P#Q#R#S#T#U#V#W#X#Y#Z#`# $.$+$@$#$$$%$&$*$$ $ ",
"$ $ $ $ $ $ =$-$;$>$,$'$)$!$~${$]$^$/$($_$:$<$[$}$|$1$2$3$4$# $ ",
"$ $ $ $ $ $ t.5$6$7$8$9$0$a$b$c$d$e$f$g$h$i$j$k$l$m$n$o$p$q$r$$ ",
"$ $ $ $ $ $ # s$t$u$v$w$x$y$z$A$B$C$D$E$F$G$H$I$J$K$L$M$N$O$$ $ ",
"$ $ $ $ $ $ $ P$Q$R$S$T$U$V$W$X$$ 0@Y$Z$`$ %.%+%@%#%$%%%&%*%$ $ ",
"$ $ $ $ $ $ $ $ = =%-%;%>%X$$ $ $ $ $ G+,%'%)%!%~%{%]%^%/%: $ $ ",
"$ $ $ $ $ $ $ $ $ $ = $ $ $ $ $ $ $ $ $ # (%_%:%<%[%}%|%# $ $ $ "};
