/* XPM */
static const char * voxelizer_xpm[] = {
"16 16 4 1",
" 	c None",
".	c #FFFFFF",
"+	c #000000",
"@	c #A0A0A0",
".........+++++++",
".........+@@+@@+",
".........+@@+@@+",
"......++++++++++",
"......+@@+@@+...",
"......+@@+@@+...",
"...++++++++++...",
"...+@@+..+@@+...",
"...+@@+..+@@+...",
"+++++++..+++++++",
"+@@+.....+@@+@@+",
"+@@+.....+@@+@@+",
"++++.....+++++++",
"+@@+............",
"+@@+............",
"++++............"};
