/* XPM */
static const char * teemGlyphs_xpm[] = {
"32 32 648 2",
"  	c #E5E5E5",
". 	c #E4E4E4",
"+ 	c #E6E6E6",
"@ 	c #DDDDDD",
"# 	c #AEB8B5",
"$ 	c #748A87",
"% 	c #5B706C",
"& 	c #556563",
"* 	c #BFC5C5",
"= 	c #DBDBDA",
"- 	c #E9E8E8",
"; 	c #E7E6E7",
"> 	c #BBC1BE",
", 	c #0D4031",
"' 	c #034B3D",
") 	c #015049",
"! 	c #014E4F",
"~ 	c #04454B",
"{ 	c #0A3D46",
"] 	c #1A373E",
"^ 	c #878E90",
"/ 	c #EEEEED",
"( 	c #E7E7E6",
"_ 	c #F1F1EF",
": 	c #F1F1EE",
"< 	c #F1F0ED",
"[ 	c #EDECEB",
"} 	c #E7E7E7",
"| 	c #E7E6E6",
"1 	c #245543",
"2 	c #0B5F4A",
"3 	c #0D665A",
"4 	c #0C6664",
"5 	c #096169",
"6 	c #075969",
"7 	c #085065",
"8 	c #08445D",
"9 	c #022A3F",
"0 	c #243541",
"a 	c #909395",
"b 	c #F2F2F1",
"c 	c #EDEDEC",
"d 	c #C6C7CB",
"e 	c #70728D",
"f 	c #000032",
"g 	c #000141",
"h 	c #000648",
"i 	c #283661",
"j 	c #757A8A",
"k 	c #E0E0E0",
"l 	c #AAB6B0",
"m 	c #125C3E",
"n 	c #176E56",
"o 	c #197368",
"p 	c #1A7376",
"q 	c #166C7C",
"r 	c #11657E",
"s 	c #0A597C",
"t 	c #044E76",
"u 	c #04416B",
"v 	c #0A3259",
"w 	c #0D203B",
"x 	c #21242C",
"y 	c #E8E7E6",
"z 	c #53536D",
"A 	c #080749",
"B 	c #0A1163",
"C 	c #0B1B76",
"D 	c #09237E",
"E 	c #052980",
"F 	c #012A76",
"G 	c #04245E",
"H 	c #5F6677",
"I 	c #E8E8E8",
"J 	c #647D70",
"K 	c #186342",
"L 	c #22785E",
"M 	c #257B6F",
"N 	c #25797C",
"O 	c #227385",
"P 	c #1E6B8B",
"Q 	c #17608D",
"R 	c #105489",
"S 	c #074782",
"T 	c #033774",
"U 	c #032257",
"V 	c #020C30",
"W 	c #000025",
"X 	c #0A024C",
"Y 	c #141169",
"Z 	c #181D7F",
"` 	c #18298F",
" .	c #153397",
"..	c #103998",
"+.	c #083B8E",
"@.	c #02377A",
"#.	c #001A46",
"$.	c #9EA0A4",
"%.	c #94A79B",
"&.	c #1D643E",
"*.	c #297A5C",
"=.	c #2E7E6E",
"-.	c #307D7E",
";.	c #2F7889",
">.	c #2B7093",
",.	c #266597",
"'.	c #1E5898",
").	c #164791",
"!.	c #0D3481",
"~.	c #091956",
"{.	c #0B063F",
"].	c #14034F",
"^.	c #1C0F68",
"/.	c #221C7F",
"(.	c #252992",
"_.	c #24359E",
":.	c #213FA5",
"<.	c #1945A2",
"[.	c #0F4696",
"}.	c #054080",
"|.	c #053461",
"1.	c #4B5868",
"2.	c #8FA294",
"3.	c #206239",
"4.	c #2E7855",
"5.	c #367E69",
"6.	c #397F7A",
"7.	c #3A7A89",
"8.	c #377193",
"9.	c #32669B",
"0.	c #2C589F",
"a.	c #234799",
"b.	c #192C7D",
"c.	c #120E4E",
"d.	c #160249",
"e.	c #200A5D",
"f.	c #291775",
"g.	c #2F268B",
"h.	c #32359E",
"i.	c #3041A9",
"j.	c #2B4AAB",
"k.	c #214FA6",
"l.	c #164E97",
"m.	c #0A4880",
"n.	c #023B64",
"o.	c #4C5D6B",
"p.	c #C7CCC8",
"q.	c #1E552B",
"r.	c #31724A",
"s.	c #3A7A5F",
"t.	c #417D73",
"u.	c #437882",
"v.	c #42718F",
"w.	c #3F679A",
"x.	c #39579F",
"y.	c #304197",
"z.	c #21206F",
"A.	c #190746",
"B.	c #210651",
"C.	c #2C1168",
"D.	c #362180",
"E.	c #3C3096",
"F.	c #3E40A6",
"G.	c #3A4CAD",
"H.	c #3454AC",
"I.	c #2956A3",
"J.	c #1C5492",
"K.	c #0D4B7B",
"L.	c #033D5D",
"M.	c #4B5C66",
"N.	c #E9E8E9",
"O.	c #38553C",
"P.	c #2B6436",
"Q.	c #3B7551",
"R.	c #467966",
"S.	c #4A7578",
"T.	c #4C7088",
"U.	c #4B6594",
"V.	c #445399",
"W.	c #3A3C8F",
"X.	c #24155A",
"Y.	c #200443",
"Z.	c #2D0C59",
"`.	c #3A1A71",
" +	c #442B89",
".+	c #4A3B9D",
"++	c #494AA9",
"@+	c #4454AC",
"#+	c #3A5AA7",
"$+	c #2C5C9D",
"%+	c #1E5789",
"&+	c #0E4D70",
"*+	c #033850",
"=+	c #68767B",
"-+	c #C8C8C8",
";+	c #235025",
">+	c #3A6D40",
",+	c #467556",
"'+	c #4E7369",
")+	c #526D7B",
"!+	c #536188",
"~+	c #4F5291",
"{+	c #403480",
"]+	c #230C43",
"^+	c #280444",
"/+	c #3B1461",
"(+	c #49247A",
"_+	c #523590",
":+	c #55459F",
"<+	c #5253A7",
"[+	c #4A5BA7",
"}+	c #3E5F9E",
"|+	c #305E91",
"1+	c #20587E",
"2+	c #0F4B65",
"3+	c #002634",
"4+	c #DEDEDE",
"5+	c #8B9A8A",
"6+	c #275323",
"7+	c #436C44",
"8+	c #4E6F58",
"9+	c #566B6A",
"0+	c #586179",
"a+	c #575084",
"b+	c #422B6B",
"c+	c #200432",
"d+	c #330948",
"e+	c #481C66",
"f+	c #562E7F",
"g+	c #5E3F92",
"h+	c #5F4E9F",
"i+	c #5B5AA3",
"j+	c #50619F",
"k+	c #426293",
"l+	c #315E83",
"m+	c #20566F",
"n+	c #0B4353",
"o+	c #516B6F",
"p+	c #EEECEC",
"q+	c #F0EEF0",
"r+	c #8C9B89",
"s+	c #2E5423",
"t+	c #476740",
"u+	c #546754",
"v+	c #5B5E66",
"w+	c #5B4E72",
"x+	c #432A5B",
"y+	c #22032A",
"z+	c #40104D",
"A+	c #55246B",
"B+	c #643782",
"C+	c #6A4892",
"D+	c #69569A",
"E+	c #62619B",
"F+	c #546494",
"G+	c #436385",
"H+	c #2F5C73",
"I+	c #1D505D",
"J+	c #0A3B40",
"K+	c #A9B0B0",
"L+	c #84947E",
"M+	c #31511F",
"N+	c #4A6039",
"O+	c #565C4C",
"P+	c #5C4F5C",
"Q+	c #402747",
"R+	c #2D062E",
"S+	c #4E1952",
"T+	c #652D6E",
"U+	c #714084",
"V+	c #76508F",
"W+	c #705E93",
"X+	c #666590",
"Y+	c #556786",
"Z+	c #426075",
"`+	c #2D5863",
" @	c #19484C",
".@	c #2E4948",
"+@	c #EEEDEF",
"@@	c #A0AB9B",
"#@	c #4E663A",
"$@	c #405125",
"%@	c #545040",
"&@	c #472C3D",
"*@	c #3F0C36",
"=@	c #5E2156",
"-@	c #72366F",
";@	c #7D4980",
">@	c #7D5889",
",@	c #76638A",
"'@	c #686783",
")@	c #556577",
"!@	c #3F5D65",
"~@	c #295150",
"{@	c #153B36",
"]@	c #F1EFF3",
"^@	c #768B64",
"/@	c #4F6029",
"(@	c #3D2924",
"_@	c #52153E",
":@	c #6E2A58",
"<@	c #803E6D",
"[@	c #88527B",
"}@	c #855E80",
"|@	c #7A667E",
"1@	c #6A6975",
"2@	c #546467",
"3@	c #3B5954",
"4@	c #22463C",
"5@	c #85918E",
"6@	c #ECEBED",
"7@	c #8B9689",
"8@	c #2A0A15",
"9@	c #621E41",
"0@	c #7B3257",
"a@	c #8B4769",
"b@	c #915873",
"c@	c #8B6476",
"d@	c #7D6972",
"e@	c #6A6A67",
"f@	c #516258",
"g@	c #385445",
"h@	c #203E2E",
"i@	c #E8E7E8",
"j@	c #344F42",
"k@	c #470A22",
"l@	c #702440",
"m@	c #873A54",
"n@	c #964F62",
"o@	c #985E69",
"p@	c #8E6869",
"q@	c #7F6B64",
"r@	c #696959",
"s@	c #51604B",
"t@	c #2F4B32",
"u@	c #57675B",
"v@	c #EFEEEF",
"w@	c #B9BFBD",
"x@	c #1B211C",
"y@	c #5C1427",
"z@	c #7C2B3D",
"A@	c #91414E",
"B@	c #9F5559",
"C@	c #9D635F",
"D@	c #926B5D",
"E@	c #806D58",
"F@	c #696A4C",
"G@	c #4E5F3E",
"H@	c #2F4A2A",
"I@	c #122F15",
"J@	c #60715F",
"K@	c #F4F1F4",
"L@	c #F4F2F3",
"M@	c #435A52",
"N@	c #2C211E",
"O@	c #681A25",
"P@	c #873237",
"Q@	c #9A4746",
"R@	c #A45950",
"S@	c #A06752",
"T@	c #946E51",
"U@	c #826F4B",
"V@	c #696A40",
"W@	c #4F5F33",
"X@	c #324E23",
"Y@	c #194214",
"Z@	c #014103",
"`@	c #295728",
" #	c #9AA297",
".#	c #EFEEF0",
"+#	c #E8E7E7",
"@#	c #616C6A",
"##	c #1A332D",
"$#	c #3A0C0F",
"%#	c #702121",
"&#	c #8E3730",
"*#	c #A04B3D",
"=#	c #A85D43",
"-#	c #A26A46",
";#	c #957044",
">#	c #83713E",
",#	c #6C6D35",
"'#	c #51632A",
")#	c #39591E",
"!#	c #285816",
"~#	c #195E0E",
"{#	c #095C08",
"]#	c #024B00",
"^#	c #7A8A77",
"/#	c #D0D1D1",
"(#	c #1C2F30",
"_#	c #35363F",
":#	c #3A0C0B",
"<#	c #73241A",
"[#	c #923A27",
"}#	c #A34F31",
"|#	c #A85F37",
"1#	c #A36B39",
"2#	c #957137",
"3#	c #827232",
"4#	c #6D6E2B",
"5#	c #576922",
"6#	c #43651A",
"7#	c #366C14",
"8#	c #276F0D",
"9#	c #187207",
"0#	c #096E01",
"a#	c #025401",
"b#	c #859B83",
"c#	c #F1EEF1",
"d#	c #E9E9E9",
"e#	c #899091",
"f#	c #282D38",
"g#	c #47314A",
"h#	c #2E0A08",
"i#	c #6D230F",
"j#	c #8C3A1B",
"k#	c #9E4E23",
"l#	c #A35F28",
"m#	c #A06B2B",
"n#	c #947129",
"o#	c #837425",
"p#	c #707220",
"q#	c #5C6F19",
"r#	c #4E7313",
"s#	c #437D0F",
"t#	c #358008",
"u#	c #258203",
"v#	c #168100",
"w#	c #077105",
"x#	c #025904",
"y#	c #859885",
"z#	c #FAF8F8",
"A#	c #111D25",
"B#	c #383048",
"C#	c #512A52",
"D#	c #4C1338",
"E#	c #5C1D00",
"F#	c #81350E",
"G#	c #934A14",
"H#	c #9C5B1A",
"I#	c #9C681D",
"J#	c #92711B",
"K#	c #83751A",
"L#	c #747616",
"M#	c #647811",
"N#	c #587F0B",
"O#	c #4E8907",
"P#	c #408F02",
"Q#	c #309102",
"R#	c #218E05",
"S#	c #118409",
"T#	c #07720B",
"U#	c #004C05",
"V#	c #CACCC9",
"W#	c #939697",
"X#	c #1E2337",
"Y#	c #432C53",
"Z#	c #58245D",
"`#	c #64125A",
" $	c #4A140E",
".$	c #6F2F08",
"+$	c #854408",
"@$	c #91550B",
"#$	c #93650D",
"$$	c #8E6F0E",
"%$	c #84760D",
"&$	c #787A09",
"*$	c #6B7F09",
"=$	c #618907",
"-$	c #579202",
";$	c #499905",
">$	c #3A9B08",
",$	c #2C990B",
"'$	c #1C930E",
")$	c #0E840F",
"!$	c #046A0F",
"~$	c #316137",
"{$	c #E6E5E6",
"]$	c #52575E",
"^$	c #2E2A4B",
"/$	c #47295C",
"($	c #5B1F67",
"_$	c #661069",
":$	c #58064C",
"<$	c #542405",
"[$	c #733B06",
"}$	c #834F03",
"|$	c #8A5F05",
"1$	c #886B0C",
"2$	c #827506",
"3$	c #7A7E03",
"4$	c #72870A",
"5$	c #68910A",
"6$	c #5D990B",
"7$	c #50A10F",
"8$	c #43A310",
"9$	c #34A313",
"0$	c #269E15",
"a$	c #159116",
"b$	c #077B16",
"c$	c #045815",
"d$	c #ACB5AE",
"e$	c #8A8D94",
"f$	c #2A224C",
"g$	c #482564",
"h$	c #591B70",
"i$	c #620E74",
"j$	c #61066F",
"k$	c #4E104E",
"l$	c #562B11",
"m$	c #72450E",
"n$	c #7F590E",
"o$	c #81680D",
"p$	c #7D720D",
"q$	c #787D0F",
"r$	c #748B11",
"s$	c #6C9513",
"t$	c #629F16",
"u$	c #56A518",
"v$	c #49A91A",
"w$	c #3BA91B",
"x$	c #2BA61E",
"y$	c #1D9A1D",
"z$	c #0D871D",
"A$	c #026C1B",
"B$	c #90A796",
"C$	c #A3A5AC",
"D$	c #251B4B",
"E$	c #432169",
"F$	c #501874",
"G$	c #580B79",
"H$	c #580679",
"I$	c #550E77",
"J$	c #4F1A71",
"K$	c #513025",
"L$	c #73521D",
"M$	c #7B641D",
"N$	c #776E1C",
"O$	c #737A1C",
"P$	c #6F861D",
"Q$	c #6A931F",
"R$	c #629F22",
"S$	c #58A623",
"T$	c #4CAB25",
"U$	c #3FAB25",
"V$	c #30AA26",
"W$	c #22A025",
"X$	c #138F24",
"Y$	c #057421",
"Z$	c #456B51",
"`$	c #EAEAEA",
" %	c #C8C9CA",
".%	c #0E0936",
"+%	c #381E66",
"@%	c #451573",
"#%	c #4A0C7B",
"$%	c #4E0382",
"%%	c #4F0B8C",
"&%	c #52199C",
"*%	c #522AB1",
"=%	c #4F3B8D",
"-%	c #53452E",
";%	c #6A652B",
">%	c #69732B",
",%	c #657D2A",
"'%	c #628A2B",
")%	c #5E962C",
"!%	c #57A12D",
"~%	c #4CA82F",
"{%	c #40AB2F",
"]%	c #33AA2F",
"^%	c #25A12E",
"/%	c #17922B",
"(%	c #077226",
"_%	c #3D6B4D",
":%	c #EBEAEB",
"<%	c #9695A4",
"[%	c #27165A",
"}%	c #36146F",
"|%	c #400D84",
"1%	c #470A98",
"2%	c #4B0CB1",
"3%	c #4B13D0",
"4%	c #4924F4",
"5%	c #554FFB",
"6%	c #C2C5E4",
"7%	c #4D4E3F",
"8%	c #556035",
"9%	c #597136",
"0%	c #577E35",
"a%	c #548A36",
"b%	c #4F9637",
"c%	c #489E37",
"d%	c #3DA338",
"e%	c #32A336",
"f%	c #249B35",
"g%	c #168A31",
"h%	c #086D29",
"i%	c #91A99A",
"j%	c #DEDEDF",
"k%	c #817F99",
"l%	c #2F1E83",
"m%	c #380DB0",
"n%	c #3F06E2",
"o%	c #3B00F6",
"p%	c #6F4FF7",
"q%	c #BAB3EB",
"r%	c #E8E8E4",
"s%	c #E6E6E5",
"t%	c #EFEFF0",
"u%	c #A0A59F",
"v%	c #53684E",
"w%	c #456D3A",
"x%	c #4B7F40",
"y%	c #46883E",
"z%	c #40913D",
"A%	c #38953D",
"B%	c #2E953C",
"C%	c #228F39",
"D%	c #147D34",
"E%	c #065A28",
"F%	c #CED0CF",
"G%	c #F1F1E8",
"H%	c #9FA1F4",
"I%	c #B9BCC9",
"J%	c #EDF1E3",
"K%	c #E9EAE4",
"L%	c #E4E4E5",
"M%	c #ECEBEC",
"N%	c #80988B",
"O%	c #497F57",
"P%	c #438B52",
"Q%	c #3C8F4D",
"R%	c #33924A",
"S%	c #298F47",
"T%	c #1B8440",
"U%	c #156E3C",
"V%	c #546F63",
"W%	c #EDECEC",
"X%	c #E7E7E4",
"Y%	c #D0D7D5",
"Z%	c #C6D5CD",
"`%	c #7CC7A4",
" &	c #80DBAC",
".&	c #76DAA6",
"+&	c #8ECFAD",
"@&	c #D0DAD5",
"    . + @ # $ % & * = - .                                       ",
"    ; > , ' ) ! ~ { ] ^ /           ( _ : < [ } .               ",
"    | 1 2 3 4 5 6 7 8 9 0 a b   c d e f g h i j k .             ",
"  . l m n o p q r s t u v w x y z A B C D E F G H c .           ",
"  I J K L M N O P Q R S T U V W X Y Z `  ...+.@.#.$.            ",
"  . %.&.*.=.-.;.>.,.'.).!.~.{.].^./.(._.:.<.[.}.|.1.            ",
"    2.3.4.5.6.7.8.9.0.a.b.c.d.e.f.g.h.i.j.k.l.m.n.o.            ",
"    p.q.r.s.t.u.v.w.x.y.z.A.B.C.D.E.F.G.H.I.J.K.L.M.            ",
"    N.O.P.Q.R.S.T.U.V.W.X.Y.Z.`. +.+++@+#+$+%+&+*+=+            ",
"    + -+;+>+,+'+)+!+~+{+]+^+/+(+_+:+<+[+}+|+1+2+3+4+            ",
"    .   5+6+7+8+9+0+a+b+c+d+e+f+g+h+i+j+k+l+m+n+o+p+.           ",
"        q+r+s+t+u+v+w+x+y+z+A+B+C+D+E+F+G+H+I+J+K++             ",
"            L+M+N+O+P+Q+R+S+T+U+V+W+X+Y+Z+`+ @.@-               ",
"          . +@@@#@$@%@&@*@=@-@;@>@,@'@)@!@~@{@                  ",
"                ]@^@/@(@_@:@<@[@}@|@1@2@3@4@5@}                 ",
"                . 6@7@8@9@0@a@b@c@d@e@f@g@h@+ .                 ",
"                  i@j@k@l@m@n@o@p@q@r@s@t@u@v@.                 ",
"                . w@x@y@z@A@B@C@D@E@F@G@H@I@J@K@                ",
"              . L@M@N@O@P@Q@R@S@T@U@V@W@X@Y@Z@`@ #.#.           ",
"              +#@###$#%#&#*#=#-#;#>#,#'#)#!#~#{#]#^#            ",
"            . /#(#_#:#<#[#}#|#1#2#3#4#5#6#7#8#9#0#a#b#c#        ",
"            d#e#f#g#h#i#j#k#l#m#n#o#p#q#r#s#t#u#v#w#x#y#  .     ",
"          . z#A#B#C#D#E#F#G#H#I#J#K#L#M#N#O#P#Q#R#S#T#U#V#+     ",
"            W#X#Y#Z#`# $.$+$@$#$$$%$&$*$=$-$;$>$,$'$)$!$~${$    ",
"            ]$^$/$($_$:$<$[$}$|$1$2$3$4$5$6$7$8$9$0$a$b$c$d$    ",
"            e$f$g$h$i$j$k$l$m$n$o$p$q$r$s$t$u$v$w$x$y$z$A$B$.   ",
"            C$D$E$F$G$H$I$J$K$L$M$N$O$P$Q$R$S$T$U$V$W$X$Y$Z$`$  ",
"             %.%+%@%#%$%%%&%*%=%-%;%>%,%'%)%!%~%{%]%^%/%(%_%:%  ",
"            I <%[%}%|%1%2%3%4%5%6%7%8%9%0%a%b%c%d%e%f%g%h%i%.   ",
"            . j%k%l%m%n%o%p%q%r%s%t%u%v%w%x%y%z%A%B%C%D%E%F%    ",
"              . ( G%H%I%J%K%L%        M%N%O%P%Q%R%S%T%U%V%W%    ",
"                  L%X%s%              . N.Y%Z%`% &.&+&@&N..     "};
