/* XPM */
static const char * WMEigenSystem_xpm[] = {
"32 32 107 2",
"  	c None",
". 	c #FFFFFF",
"+ 	c #FEFEFE",
"@ 	c #EBEBEB",
"# 	c #E6E6E6",
"$ 	c #F8F8F8",
"% 	c #101010",
"& 	c #757575",
"* 	c #525252",
"= 	c #5B5B5B",
"- 	c #474747",
"; 	c #7A7A7A",
"> 	c #E3E3E3",
", 	c #F5F5F5",
"' 	c #A2A2A2",
") 	c #656565",
"! 	c #2C2C2C",
"~ 	c #616161",
"{ 	c #F4F4F4",
"] 	c #B0B0B0",
"^ 	c #E1E1E1",
"/ 	c #777777",
"( 	c #383838",
"_ 	c #8E8E8E",
": 	c #414141",
"< 	c #D0D0D0",
"[ 	c #B5B5B5",
"} 	c #CACACA",
"| 	c #D7D7D7",
"1 	c #8D8D8D",
"2 	c #7B7B7B",
"3 	c #F2F2F2",
"4 	c #ACACAC",
"5 	c #828282",
"6 	c #ECECEC",
"7 	c #D4D4D4",
"8 	c #5C5C5C",
"9 	c #282828",
"0 	c #949494",
"a 	c #EAEAEA",
"b 	c #F6F6F6",
"c 	c #FDFDFD",
"d 	c #2F2F2F",
"e 	c #FCFCFC",
"f 	c #C1C1C1",
"g 	c #878787",
"h 	c #848484",
"i 	c #999999",
"j 	c #E9E9E9",
"k 	c #4B4B4B",
"l 	c #3A3A3A",
"m 	c #A4A4A4",
"n 	c #FBFBFB",
"o 	c #C4C4C4",
"p 	c #F1F1F1",
"q 	c #CFCFCF",
"r 	c #C8C8C8",
"s 	c #C7C7C7",
"t 	c #C3C3C3",
"u 	c #F7F7F7",
"v 	c #DDDDDD",
"w 	c #B7B7B7",
"x 	c #B1B1B1",
"y 	c #E5E5E5",
"z 	c #212121",
"A 	c #171717",
"B 	c #343434",
"C 	c #292929",
"D 	c #E0E0E0",
"E 	c #ADADAD",
"F 	c #040404",
"G 	c #404040",
"H 	c #686868",
"I 	c #252525",
"J 	c #181818",
"K 	c #1D1D1D",
"L 	c #090909",
"M 	c #A0A0A0",
"N 	c #FAFAFA",
"O 	c #626262",
"P 	c #000000",
"Q 	c #A8A8A8",
"R 	c #A7A7A7",
"S 	c #A1A1A1",
"T 	c #4A4A4A",
"U 	c #929292",
"V 	c #BFBFBF",
"W 	c #191919",
"X 	c #3F3F3F",
"Y 	c #313131",
"Z 	c #707070",
"` 	c #070707",
" .	c #7D7D7D",
"..	c #676767",
"+.	c #8F8F8F",
"@.	c #C5C5C5",
"#.	c #202020",
"$.	c #939393",
"%.	c #010101",
"&.	c #2D2D2D",
"*.	c #B2B2B2",
"=.	c #1A1A1A",
"-.	c #5E5E5E",
";.	c #0D0D0D",
">.	c #C9C9C9",
",.	c #B3B3B3",
"'.	c #CCCCCC",
". . . . . . . . . . . . . . . . . . . . . . . . . . . . . . . . ",
". . . . . . . . . . . . . . . . . . . . . . . . . . . . . . . . ",
". . . . . + . . + . . . . . . . . . . . . . . . . . . . . . . . ",
". . . . . . @ # . . . . . . . . . . . . . . . . . . . . . . . . ",
". . . . + $ % & . . . . . . . . . . . . . . . . . . . . . . . . ",
". . . . . * = - . . . . . . . . . . . . . . . . . . . . . . . . ",
". . . . + . ; > . . . . . . . . . . . . . . . . . + . . . . . . ",
". . . . . , ' . . . . . . . . . . . + . . . ) ! ~ . . . . . . . ",
". . . . + { ] . . . . . . . . . . . . ^ / ( _ : < . . . . . . . ",
". . . . . [ } . . . . + . . . | ] 1 ~ 2 | . 3 4 . . . . . . . . ",
". . . . . 5 6 . . . . . 7 8 9 0 a b c . . + . . + . . . . . . . ",
". . . . . d . e f g h / i j . . . + . . . . . . . . . . . . . . ",
". . . . $ d k l m n . . . . . . . . . . . . . . . . . . . . . . ",
". . . . a o p . . . + . . . . . . . . . . . . . . . . . . . . . ",
". . . . . . . . . . . . . . . . . . . . . . . . . . . . . . . . ",
". . . . . . . . . . . . . . . . . . . . . . . . . . . . . . . . ",
". . . . . . . . . . . . . . . . . . . . . . . . . . . . . . . . ",
". . . . . . . . . q r s s s t u . . v w x t y . . . . . . . . . ",
". . . . . . . . . z A B B B C D . E F G H I J b . . . . . . . . ",
". . . . . . . . . K H . . . . . . L M . . . < N . . . . . . . . ",
". . . . . . . . . K O . . . . . . P ^ . . . . . . . . . . . . . ",
". . . . . . . . . K : Q R R S . . T A U V 3 . . . . . . . . . . ",
". . . . . . . . . K W G X X Y . . N Z ` P P  .. . . . . . . . . ",
". . . . . . . . . K ... . . . . . . . . D +.P @.. . . . . . . . ",
". . . . . . . . . K O . . . . . . . . . . . #.$.. . . . . . . . ",
". . . . . . . . . K H . . . . . . m . . . b %.[ . . . . . . . . ",
". . . . . . . . . z A B B B &.*.. P =.~ -.;.d u . . . . . . . . ",
". . . . . . . . . q r s s s @.a . 3 >.*.,.'.+ . . . . . . . . . ",
". . . . . . . . . . . . . . . . . . . . . . . . . . . . . . . . ",
". . . . . . . . . . . . . . . . . . . . . . . . . . . . . . . . ",
". . . . . . . . . . . . . . . . . . . . . . . . . . . . . . . . ",
". . . . . . . . . . . . . . . . . . . . . . . . . . . . . . . . "};
