/* XPM */
static const char * WMSpatialDerivative_xpm[] = {
"32 32 113 2",
"  	c #FFFFFF",
". 	c #FEFEFE",
"+ 	c #FBFBFB",
"@ 	c #505050",
"# 	c #474747",
"$ 	c #D7D7D7",
"% 	c #7D7D7D",
"& 	c #000000",
"* 	c #E9E9E9",
"= 	c #A1A1A1",
"- 	c #F9F9F9",
"; 	c #303030",
"> 	c #717171",
", 	c #7C7C7C",
"' 	c #BBBBBB",
") 	c #F4F4F4",
"! 	c #E0E0E0",
"~ 	c #848484",
"{ 	c #D1D1D1",
"] 	c #FCFCFC",
"^ 	c #626262",
"/ 	c #232323",
"( 	c #515151",
"_ 	c #6B6B6B",
": 	c #9A9A9A",
"< 	c #373737",
"[ 	c #2C2C2C",
"} 	c #DDDDDD",
"| 	c #898989",
"1 	c #B2B2B2",
"2 	c #020202",
"3 	c #E4E4E4",
"4 	c #CBCBCB",
"5 	c #F1F1F1",
"6 	c #4E4E4E",
"7 	c #B1B1B1",
"8 	c #888888",
"9 	c #6F6F6F",
"0 	c #A8A8A8",
"a 	c #F5F5F5",
"b 	c #1E1E1E",
"c 	c #EEEEEE",
"d 	c #121212",
"e 	c #212121",
"f 	c #9D9D9D",
"g 	c #C3C3C3",
"h 	c #E6E6E6",
"i 	c #414141",
"j 	c #E5E5E5",
"k 	c #6E6E6E",
"l 	c #636363",
"m 	c #7E7E7E",
"n 	c #767676",
"o 	c #0D0D0D",
"p 	c #4C4C4C",
"q 	c #949494",
"r 	c #0B0B0B",
"s 	c #5A5A5A",
"t 	c #555555",
"u 	c #545454",
"v 	c #5B5B5B",
"w 	c #6D6D6D",
"x 	c #F8F8F8",
"y 	c #989898",
"z 	c #9E9E9E",
"A 	c #424242",
"B 	c #242424",
"C 	c #C6C6C6",
"D 	c #FDFDFD",
"E 	c #2A2A2A",
"F 	c #323232",
"G 	c #979797",
"H 	c #EDEDED",
"I 	c #E3E3E3",
"J 	c #868686",
"K 	c #171717",
"L 	c #747474",
"M 	c #8E8E8E",
"N 	c #262626",
"O 	c #252525",
"P 	c #B0B0B0",
"Q 	c #E1E1E1",
"R 	c #ADADAD",
"S 	c #858585",
"T 	c #090909",
"U 	c #ABABAB",
"V 	c #080808",
"W 	c #959595",
"X 	c #9C9C9C",
"Y 	c #A3A3A3",
"Z 	c #DCDCDC",
"` 	c #5C5C5C",
" .	c #686868",
"..	c #F3F3F3",
"+.	c #1B1B1B",
"@.	c #AAAAAA",
"#.	c #B6B6B6",
"$.	c #CFCFCF",
"%.	c #5F5F5F",
"&.	c #8F8F8F",
"*.	c #0E0E0E",
"=.	c #929292",
"-.	c #D0D0D0",
";.	c #D6D6D6",
">.	c #BDBDBD",
",.	c #010101",
"'.	c #7A7A7A",
").	c #BFBFBF",
"!.	c #9B9B9B",
"~.	c #151515",
"{.	c #D8D8D8",
"].	c #C4C4C4",
"^.	c #EFEFEF",
"                        .   .                                   ",
"                      .   +                                     ",
"                        @ #                                     ",
"                    . $ % & * .                                 ",
"                  .   = - ; >   .   .       .                   ",
"                      ,   ' & )       ! ~ {   . ~ ]             ",
"                    ^ *     / (       _ : <   + [ ]             ",
"                  } |   .   1 2 3   4 5 6 7   8 9               ",
"                . 0 a         b 8   . c d     e f               ",
"              .   ~           g & -   h i     & j               ",
"                k l m m m m m n o 6   h p   q r                 ",
"                s t u u u u u u v w x   y z A l                 ",
"              .                       B C D E x                 ",
"                                      F g G y                   ",
"                                      H 3 I   .                 ",
"                                                                ",
"            .                                         .         ",
"              J K K K K K K K K K K K K K K K K K K L           ",
"            .                                         .         ",
"                      .   .                                     ",
"                        = M                                     ",
"                    . ] N O 5 .                                 ",
"                      P Q 2 R                                   ",
"                      S   = T       . . . D . D D . .           ",
"                    U 7   h V W       Q X X @ Y e Z             ",
"                    @       ` / )      .  ..+.  { +             ",
"                . @.!         & #.    -   $.%.                  ",
"                  S ] .   .   &.*.  .     6 =.  a .             ",
"                -.m ;.;.;.;.;.>.,.z c '.  ,.).  !.]             ",
"                ,.& & & & & & & & ~.{.+.L ].@ w ^.              ",
"              D                                   .             ",
"                                                                "};
