/* XPM */
static const char * readMesh_xpm[] = {
"32 32 3 1",
" 	c None",
".	c #7F6DC5",
"+	c #000000",
"                                ",
"  ..                            ",
"  ......                .....   ",
"  ..........        ...... ..   ",
"  .....   .............    ..   ",
"  .. ...      .....        ..   ",
"   .   ..       ...        ..   ",
"   .    ..      ....       ..   ",
"   ..    ...    .. ...     ..   ",
"   ..     ...   ..  ...    ..   ",
"   ..       ..  ..   ...   ..   ",
"    .        ..  .     ..  ..   ",
"    .         ....      .. ..   ",
"    ..         ...       ....   ",
"    .........................   ",
"    ........   ...    .......   ",
"    ..         ...       ....   ",
"    ..        ....      .. ..   ",
"    .       ...  .     ..  ..   ",
"   ..      ...   .    ..  +..   ",
"   ..     ...   ..   ..   ++.   ",
"   ..    ..     ..  ..    +++   ",
"   .    ..      .. ..     ++++  ",
"   .   ..       +++++++++++++++ ",
"  .. ...        ++++++++++++++++",
"  .....         ++++++++++++++++",
"  ....     .....++++++++++++++++",
"  ..  ........  +++++++++++++++ ",
" ........                 ++++  ",
" ...                      +++   ",
"                          ++    ",
"                          +     "};
