/* XPM */
static const char * WMReadMesh_xpm[] = {
"32 32 3 1",
" 	c None",
".	c #000000",
"+	c #7F6DC5",
".........                       ",
"..........                      ",
"..++++++...             +++++   ",
"..+++++++..+        ++++++ ++   ",
"..+++++ ...++++++++++++    ++   ",
"..........    +++++        ++   ",
".........       +++        ++   ",
".. +  ..++      ++++       ++   ",
".. ++ ...+++    ++ +++     ++   ",
".. ++  ...+++   ++  +++    ++   ",
".. ++   ..  ++  ++   +++   ++   ",
"..  +   ...  ++  +     ++  ++   ",
"..  +    ...  ++++      ++ ++   ",
"    ++         +++       ++++   ",
"    +++++++++++++++++++++++++   ",
"    ++++++++   +++    +++++++   ",
"    ++         +++       ++++   ",
"    ++        ++++      ++ ++   ",
"    +       +++  +     ++  ++   ",
"   ++      +++   +    ++  .++   ",
"   ++     +++   ++   ++   ..+   ",
"   ++    ++     ++  ++    ...   ",
"   +    ++      ++ ++     ....  ",
"   +   ++       ............... ",
"  ++ +++        ................",
"  +++++         ................",
"  ++++     +++++................",
"  ++  ++++++++  ............... ",
" ++++++++                 ....  ",
" +++                      ...   ",
"                          ..    ",
"                          .     "};
