/* XPM */
static const char * WMButterfly_xpm[] = {
"32 32 3 1",
" 	c None",
".	c #000000",
"+	c #4040FF",
"..                            ..",
"...                          ...",
".. .                        . ..",
".   ..                    ..   .",
".     .                 ..     .",
".      ..              .       .",
".        .           ..        .",
".         ..        .          .",
".           .     ..           .",
".            .....             .",
".            .....             .",
".           ........           .",
".        ...   .    ...        .",
".      ..      .       ....    .",
".   ...      ..+..         .....",
"....         .+++.           ...",
"...         .+++++.          ...",
"....         .+++.         .. ..",
".   ..       ..+..       ..    .",
".     ..       .       ..      .",
".       ..     .     ..        .",
".         ..   .   ..          .",
".           .......            .",
".            .....             .",
".            .....             .",
".          ..     ..           .",
".        ..         ..         .",
".      ..             ..       .",
".    ..                 ..     .",
".. ..                     ..   .",
"...                         ....",
"..                            .."};
