/* XPM */
static const char * WMWebglSupport_xpm[] = {
"32 32 58 1",
" 	c None",
".	c #921414",
"+	c #971414",
"@	c #A21414",
"#	c #A51414",
"$	c #A41414",
"%	c #A31414",
"&	c #A01414",
"*	c #951414",
"=	c #931414",
"-	c #911414",
";	c #9F1414",
">	c #A11414",
",	c #9A1414",
"'	c #981414",
")	c #871414",
"!	c #881414",
"~	c #791414",
"{	c #721414",
"]	c #831414",
"^	c #701414",
"/	c #841414",
"(	c #8B1414",
"_	c #A61414",
":	c #9E1414",
"<	c #631414",
"[	c #9C1414",
"}	c #7B1414",
"|	c #7E1414",
"1	c #991414",
"2	c #781414",
"3	c #5D1414",
"4	c #8F1414",
"5	c #821414",
"6	c #901414",
"7	c #641414",
"8	c #8E1414",
"9	c #8C1414",
"0	c #7C1414",
"a	c #751414",
"b	c #9B1414",
"c	c #961414",
"d	c #9D1414",
"e	c #851414",
"f	c #7F1414",
"g	c #6E1414",
"h	c #621414",
"i	c #711414",
"j	c #891414",
"k	c #941414",
"l	c #861414",
"m	c #581414",
"n	c #7A1414",
"o	c #811414",
"p	c #6B1414",
"q	c #531414",
"r	c #761414",
"s	c #8D1414",
"                                ",
"                                ",
"                                ",
"                                ",
"                                ",
"                                ",
"            .+@#$%@%$#&*=       ",
"        -@;>>&>@%%&,===';%@%)   ",
"      .%>&&@>.!~           {)!] ",
"     &>&>>@)                   ^",
"   =@&>&&/                      ",
"  (>>>>>+   .@    _             ",
"  @&>&:<%   [>}   :      '      ",
" ;&&&>| 12  :34  .5      ,      ",
" ;>>&@  *=  6 :  ;7 ;4;  1!.'8  ",
" @>>>+   @ 90 >a ; b   + ,)  &  ",
" @>>>[   % ;  +c ' [   d b   [! ",
" ;>>&%   :5%   :c( [eeef b   d/ ",
" &&>>>6  (@*   @$g :   = [{  >h ",
"  @>>>>]  %i   9:  jc6+} ck6=l  ",
"  |>&>>&8            m          ",
"   ]&>>&%'                      ",
"     ;&>&&>&                   n",
"      |'$>&>@;,c            boi ",
"        p+;;>>>&>>%$#$$#$>:(q   ",
"            re6b&>>>;1soi       ",
"                                ",
"                                ",
"                                ",
"                                ",
"                                ",
"                                "};
