/* XPM */
static char * openwalnut_xpm[] = {
"32 32 141 2",
"  	c None",
". 	c #828282",
"+ 	c #5B5B5B",
"@ 	c #686868",
"# 	c #636363",
"$ 	c #626262",
"% 	c #6F6F6F",
"& 	c #878787",
"* 	c #727272",
"= 	c #7C7C7C",
"- 	c #6D6D6D",
"; 	c #8A8A8A",
"> 	c #858585",
", 	c #747474",
"' 	c #818181",
") 	c #7A7A7A",
"! 	c #5F5F5F",
"~ 	c #737373",
"{ 	c #787878",
"] 	c #757575",
"^ 	c #8D8D8D",
"/ 	c #696969",
"( 	c #6C6C6C",
"_ 	c #A5A5A5",
": 	c #7D7D7D",
"< 	c #797979",
"[ 	c #808080",
"} 	c #656565",
"| 	c #999999",
"1 	c #8F8F8F",
"2 	c #6E6E6E",
"3 	c #888888",
"4 	c #9C9C9C",
"5 	c #909090",
"6 	c #838383",
"7 	c #616161",
"8 	c #525252",
"9 	c #717171",
"0 	c #505050",
"a 	c #868686",
"b 	c #7B7B7B",
"c 	c #9E9E9E",
"d 	c #606060",
"e 	c #666666",
"f 	c #555555",
"g 	c #494949",
"h 	c #9D9D9D",
"i 	c #6A6A6A",
"j 	c #6B6B6B",
"k 	c #7E7E7E",
"l 	c #8E8E8E",
"m 	c #848484",
"n 	c #ADADAD",
"o 	c #5D5D5D",
"p 	c #8C8C8C",
"q 	c #898989",
"r 	c #A7A7A7",
"s 	c #646464",
"t 	c #9F9F9F",
"u 	c #3E3E3E",
"v 	c #929292",
"w 	c #7F7F7F",
"x 	c #707070",
"y 	c #8B8B8B",
"z 	c #595959",
"A 	c #5A5A5A",
"B 	c #BCBCBC",
"C 	c #4F4F4F",
"D 	c #676767",
"E 	c #515151",
"F 	c #565656",
"G 	c #979797",
"H 	c #5C5C5C",
"I 	c #A3A3A3",
"J 	c #A1A1A1",
"K 	c #545454",
"L 	c #5E5E5E",
"M 	c #777777",
"N 	c #4A4A4A",
"O 	c #4E4E4E",
"P 	c #4B4B4B",
"Q 	c #949494",
"R 	c #939393",
"S 	c #454545",
"T 	c #535353",
"U 	c #474747",
"V 	c #464646",
"W 	c #333333",
"X 	c #222222",
"Y 	c #585858",
"Z 	c #ACACAC",
"` 	c #A6A6A6",
" .	c #969696",
"..	c #4D4D4D",
"+.	c #4C4C4C",
"@.	c #262626",
"#.	c #A0A0A0",
"$.	c #BFBFBF",
"%.	c #AFAFAF",
"&.	c #9A9A9A",
"*.	c #989898",
"=.	c #9B9B9B",
"-.	c #363636",
";.	c #959595",
">.	c #A8A8A8",
",.	c #BEBEBE",
"'.	c #B9B9B9",
").	c #B8B8B8",
"!.	c #B1B1B1",
"~.	c #A2A2A2",
"{.	c #ABABAB",
"].	c #232323",
"^.	c #575757",
"/.	c #B2B2B2",
"(.	c #AAAAAA",
"_.	c #444444",
":.	c #2C2C2C",
"<.	c #919191",
"[.	c #B5B5B5",
"}.	c #767676",
"|.	c #181818",
"1.	c #B4B4B4",
"2.	c #A9A9A9",
"3.	c #B7B7B7",
"4.	c #2A2A2A",
"5.	c #202020",
"6.	c #2B2B2B",
"7.	c #282828",
"8.	c #B0B0B0",
"9.	c #404040",
"0.	c #2D2D2D",
"a.	c #242424",
"b.	c #272727",
"c.	c #3C3C3C",
"d.	c #3A3A3A",
"e.	c #393939",
"f.	c #323232",
"g.	c #252525",
"h.	c #1E1E1E",
"i.	c #171717",
"j.	c #2E2E2E",
"                                                                ",
"                                                                ",
"                                                                ",
"                                                                ",
"                                                                ",
"                                                                ",
"                              . + @                             ",
"                        # $ % & $ % * & = -                     ",
"                    ; > , . & ' ) @ ! , ~ { ] )                 ",
"                  ^ > > / ( > _ : < [ } | 1 [ 2 !               ",
"              / 3 4 5 6 } 7 8 9 9 ] 2 0 a b * 2 #               ",
"            # 2 < c . d e ) f g h = + ) ^ ] i - d j             ",
"          k ) - ! / ~ + = ) , f l b m n c o @ @ , % #           ",
"          { 1 p % $ e i q 9 r s t p u 2 m % ( ) v 5 w j         ",
"        e x w a w y z A B . _ 9 j f C D E F d - % G ~ (         ",
"        : ' & : o j , H I J > K L i * L w t v - M < , ,         ",
"      N e 7 j O P Q $ j - % ~ = < R t Q 6 3 D o y % , D g       ",
"    S E T C ! d # @ o i H L i { e ~ F A z x U U + f z V W X     ",
"      E @ $ Y $ = q Z n `  .9 ( % < i } 2 / # ..8 8 S +.C @.    ",
"      g 2 3 < x ~ m #.$.%.4 &.| 6 *.=.J #.c I J 1 H K # e       ",
"      -.( k l ;.3 m >.,.'.).!.~.>.{.=.4 ;.` !.J 3 } 7 $ #       ",
"      ].^.9 < 1 =.' w  ././.(.` !.Z c ~.t  .;.= 9 / { } _.      ",
"        :.@ { i * & ] ] = w <.%.~.[.>.>.c |  .^ > }.% 0         ",
"        |._.x { ( }.}.&.1.!.1.%.2.3.=.c #.` y ~ - ~ K -.        ",
"          4.^.< 5 h y s ~ a &.;.6 = ] $ }.* A @ [ T W           ",
"            5.6.S 9 | | <.[ b , D 8 7 6 R > . a +.7.            ",
"                |.u H # d o * ' ) p 8.3.y ( o 9.@.              ",
"                    S 0.a.b.U _.c.d.e.-.f.g.h.                  ",
"                            i.7.j.-.:.0.                        ",
"                                                                ",
"                                                                ",
"                                                                "};
