/* XPM */
static const char * lic_xpm[] = {
"32 32 35 1",
" 	c None",
".	c #A7A7A7",
"+	c #D5D5D5",
"@	c #AAAAAA",
"#	c #BDBDBD",
"$	c #CCCCCC",
"%	c #D3D3D3",
"&	c #CBCBCB",
"*	c #BABABA",
"=	c #AFAFAF",
"-	c #D0D0D0",
";	c #C9C9C9",
">	c #A8A8A8",
",	c #A9A9A9",
"'	c #CFCFCF",
")	c #C8C8C8",
"!	c #B1B1B1",
"~	c #B9B9B9",
"{	c #BEBEBE",
"]	c #BCBCBC",
"^	c #CACACA",
"/	c #B8B8B8",
"(	c #B5B5B5",
"_	c #B2B2B2",
":	c #D2D2D2",
"<	c #D4D4D4",
"[	c #D1D1D1",
"}	c #ABABAB",
"|	c #B3B3B3",
"1	c #BBBBBB",
"2	c #B4B4B4",
"3	c #C7C7C7",
"4	c #B0B0B0",
"5	c #C3C3C3",
"6	c #C6C6C6",
"................................",
"................................",
"................................",
"................................",
"................................",
"................................",
"................................",
"................................",
"................................",
"................................",
"................................",
"................................",
"................................",
"................................",
"................................",
"................................",
"................................",
"....++........++....@#$%%&*.....",
"....++........++...=-++++++;>...",
"....++........++..,'+)!>,~%+{...",
"....++........++..]+^...../+'...",
"....++........++..&+(......_@...",
"....++........++..:+@...........",
"....++........++..<+............",
"....++........++..[+}...........",
"....++........++..;+(......>|...",
"....++........++..1+;.....2%3...",
"....++........++..,-+3=.@/%+|...",
"....++++++++..++...4'++++++5....",
"....++++++++..++....>/6[%&*.....",
"................................",
"................................"};
