/* XPM */
const char * image_xpm[] = {
"48 48 842 2",
"  	c None",
". 	c #D3D7CF",
"+ 	c #D2D6CE",
"@ 	c #D1D5CD",
"# 	c #D0D4CC",
"$ 	c #CFD3CB",
"% 	c #CED2CB",
"& 	c #CED2CA",
"* 	c #CDD1C9",
"= 	c #CCD0C9",
"- 	c #CCD0C8",
"; 	c #CBCFC7",
"> 	c #CACEC7",
", 	c #CACEC6",
"' 	c #C9CDC5",
") 	c #CACDC6",
"! 	c #FCFCFC",
"~ 	c #FFFFFF",
"{ 	c #FBFBFB",
"] 	c #C7CBC4",
"^ 	c #F3F3F2",
"/ 	c #F3F3F1",
"( 	c #F2F2F1",
"_ 	c #F2F2F0",
": 	c #F1F1F0",
"< 	c #F1F1EF",
"[ 	c #F0F1EF",
"} 	c #F0F0EF",
"| 	c #EFF0EE",
"1 	c #EFEFEE",
"2 	c #EFEFED",
"3 	c #EEEEED",
"4 	c #EEEEEC",
"5 	c #C4C8C0",
"6 	c #C7C8C5",
"7 	c #B1B2AF",
"8 	c #B2B3B0",
"9 	c #B2B4B1",
"0 	c #B3B4B1",
"a 	c #B3B5B1",
"b 	c #C5C5C3",
"c 	c #EDEDEC",
"d 	c #C2C5BE",
"e 	c #AEAFAC",
"f 	c #8B8C8A",
"g 	c #8C8D8A",
"h 	c #8C8E8B",
"i 	c #8D8E8C",
"j 	c #8E8F8C",
"k 	c #8E908D",
"l 	c #8F908E",
"m 	c #90918E",
"n 	c #90928F",
"o 	c #EAEAE9",
"p 	c #C0C3BC",
"q 	c #ABACA8",
"r 	c #868884",
"s 	c #878885",
"t 	c #888986",
"u 	c #888A86",
"v 	c #898A87",
"w 	c #8A8C88",
"x 	c #8B8C89",
"y 	c #8C8E8A",
"z 	c #8D8E8B",
"A 	c #8E908C",
"B 	c #AFB0AD",
"C 	c #E9EAE8",
"D 	c #BEC1BA",
"E 	c #F0F0EE",
"F 	c #A7A9A5",
"G 	c #88867F",
"H 	c #89877F",
"I 	c #8A8780",
"J 	c #8B8981",
"K 	c #8B8982",
"L 	c #8D8B83",
"M 	c #8E8C85",
"N 	c #8F8D86",
"O 	c #908E87",
"P 	c #918E88",
"Q 	c #918F88",
"R 	c #929089",
"S 	c #AEAFAB",
"T 	c #E9E9E7",
"U 	c #BCBFB8",
"V 	c #A4A6A2",
"W 	c #8B8579",
"X 	c #858175",
"Y 	c #79756C",
"Z 	c #898378",
"` 	c #8E897D",
" .	c #8F8A7E",
"..	c #908A7F",
"+.	c #918C80",
"@.	c #918C81",
"#.	c #928D81",
"$.	c #938E83",
"%.	c #948F83",
"&.	c #959085",
"*.	c #959186",
"=.	c #969186",
"-.	c #979287",
";.	c #948F84",
">.	c #ACADAA",
",.	c #E8E8E6",
"'.	c #BABDB6",
").	c #A1A29E",
"!.	c #8D8574",
"~.	c #8E8675",
"{.	c #8F8776",
"].	c #908877",
"^.	c #736E63",
"/.	c #65625A",
"(.	c #817B6E",
"_.	c #948C7C",
":.	c #958D7D",
"<.	c #968F7F",
"[.	c #979080",
"}.	c #989081",
"|.	c #989181",
"1.	c #999282",
"2.	c #9A9383",
"3.	c #9A9484",
"4.	c #999283",
"5.	c #AAACA7",
"6.	c #E6E7E5",
"7.	c #B8BBB4",
"8.	c #ECECEB",
"9.	c #9EA09B",
"0.	c #91856F",
"a.	c #928670",
"b.	c #938771",
"c.	c #948873",
"d.	c #958974",
"e.	c #908572",
"f.	c #837A6A",
"g.	c #4E4C48",
"h.	c #524F4B",
"i.	c #918774",
"j.	c #9A8F7B",
"k.	c #9B907D",
"l.	c #9C917D",
"m.	c #9D927E",
"n.	c #9D927F",
"o.	c #9E937F",
"p.	c #938979",
"q.	c #9F9481",
"r.	c #9F9581",
"s.	c #9A907F",
"t.	c #9E9380",
"u.	c #A9AAA6",
"v.	c #E6E6E4",
"w.	c #B6B9B2",
"x.	c #ECECE9",
"y.	c #9B9C98",
"z.	c #948569",
"A.	c #94856A",
"B.	c #95866B",
"C.	c #96886C",
"D.	c #97896E",
"E.	c #988A6F",
"F.	c #95886E",
"G.	c #91846C",
"H.	c #93866F",
"I.	c #93876F",
"J.	c #948871",
"K.	c #6F685B",
"L.	c #90846F",
"M.	c #A0927A",
"N.	c #A0937A",
"O.	c #A1947C",
"P.	c #A2957C",
"Q.	c #8E8471",
"R.	c #9C8F7A",
"S.	c #A3967F",
"T.	c #A4977F",
"U.	c #A49880",
"V.	c #938975",
"W.	c #A3967E",
"X.	c #A2957D",
"Y.	c #A1947B",
"Z.	c #A7A8A4",
"`.	c #E5E5E3",
" +	c #B4B7B0",
".+	c #EAEAE8",
"++	c #979995",
"@+	c #988463",
"#+	c #998564",
"$+	c #9A8665",
"%+	c #9B8867",
"&+	c #9C8969",
"*+	c #9D8A6A",
"=+	c #9E8B6C",
"-+	c #9F8D6E",
";+	c #A08E6F",
">+	c #A18F71",
",+	c #A29073",
"'+	c #A39173",
")+	c #A39174",
"!+	c #686154",
"~+	c #8E816B",
"{+	c #A69578",
"]+	c #A79579",
"^+	c #A7967A",
"/+	c #7A7161",
"(+	c #A8987C",
"_+	c #A9987C",
":+	c #A9997D",
"<+	c #8A7F6C",
"[+	c #9B8D74",
"}+	c #A8967A",
"|+	c #A69478",
"1+	c #A6A8A2",
"2+	c #E3E4E2",
"3+	c #B2B5AE",
"4+	c #949691",
"5+	c #9D855D",
"6+	c #9E865F",
"7+	c #9F8760",
"8+	c #A08962",
"9+	c #A18A64",
"0+	c #A28B66",
"a+	c #A48D68",
"b+	c #A48D69",
"c+	c #A58F6B",
"d+	c #A6906C",
"e+	c #A7926E",
"f+	c #A8926F",
"g+	c #A99370",
"h+	c #AA9472",
"i+	c #A99473",
"j+	c #615B4F",
"k+	c #857862",
"l+	c #9D8B6E",
"m+	c #837762",
"n+	c #8E8069",
"o+	c #AF9B7A",
"p+	c #A79577",
"q+	c #AF9B7B",
"r+	c #7F7462",
"s+	c #897C67",
"t+	c #827764",
"u+	c #696256",
"v+	c #98886E",
"w+	c #847764",
"x+	c #AC9877",
"y+	c #AD9977",
"z+	c #AC9876",
"A+	c #AB9675",
"B+	c #A5A6A1",
"C+	c #E3E3E1",
"D+	c #B0B3AC",
"E+	c #E7E8E5",
"F+	c #91938E",
"G+	c #A28557",
"H+	c #A28558",
"I+	c #A3875A",
"J+	c #A4885C",
"K+	c #A58A5F",
"L+	c #A68B60",
"M+	c #A78D62",
"N+	c #A98E64",
"O+	c #A98F66",
"P+	c #AB9168",
"Q+	c #AB9269",
"R+	c #AC936B",
"S+	c #A78F69",
"T+	c #AE956E",
"U+	c #AF9670",
"V+	c #B09771",
"W+	c #AD9671",
"X+	c #3D3D3C",
"Y+	c #61594E",
"Z+	c #84765F",
"`+	c #B29B77",
" @	c #B49D78",
".@	c #B49D79",
"+@	c #AB9574",
"@@	c #9C8B6E",
"#@	c #716758",
"$@	c #B09977",
"%@	c #B39D79",
"&@	c #AB9674",
"*@	c #B09975",
"=@	c #B39B76",
"-@	c #B29A75",
";@	c #B19973",
">@	c #B09872",
",@	c #A3A49E",
"'@	c #E0E0DF",
")@	c #AEB1AA",
"!@	c #8E908B",
"~@	c #A78652",
"{@	c #A88652",
"]@	c #A98854",
"^@	c #AA8957",
"/@	c #AB8B59",
"(@	c #AC8C5B",
"_@	c #AD8E5D",
":@	c #AE8F5E",
"<@	c #AF9060",
"[@	c #B09162",
"}@	c #B19364",
"|@	c #B29466",
"1@	c #B39568",
"2@	c #AB9066",
"3@	c #9E8662",
"4@	c #B5996D",
"5@	c #B69A6E",
"6@	c #B79B70",
"7@	c #43413E",
"8@	c #B59A72",
"9@	c #B99E74",
"0@	c #B99F75",
"a@	c #BA9F76",
"b@	c #BAA077",
"c@	c #BBA178",
"d@	c #998769",
"e@	c #7D705C",
"f@	c #918066",
"g@	c #B89E75",
"h@	c #B99E75",
"i@	c #B89D72",
"j@	c #B4986B",
"k@	c #AF9161",
"l@	c #91928B",
"m@	c #DBDBD9",
"n@	c #ACAFA8",
"o@	c #C7CBC3",
"p@	c #8B8D88",
"q@	c #AE874C",
"r@	c #AF884E",
"s@	c #B08950",
"t@	c #B18B52",
"u@	c #B28C54",
"v@	c #B38E56",
"w@	c #B38F59",
"x@	c #B4915B",
"y@	c #B5925D",
"z@	c #B6935F",
"A@	c #B79561",
"B@	c #B89663",
"C@	c #B99865",
"D@	c #BA9967",
"E@	c #9F855E",
"F@	c #9B825D",
"G@	c #BD9D6D",
"H@	c #49453E",
"I@	c #B5986C",
"J@	c #BFA072",
"K@	c #C0A173",
"L@	c #C0A274",
"M@	c #C1A275",
"N@	c #C1A376",
"O@	c #7C6E59",
"P@	c #685E50",
"Q@	c #A98E65",
"R@	c #B38F58",
"S@	c #8E8F88",
"T@	c #DADAD7",
"U@	c #AAADA6",
"V@	c #C5C9C1",
"W@	c #E3E4E1",
"X@	c #888A85",
"Y@	c #B48946",
"Z@	c #B58A47",
"`@	c #B68C4A",
" #	c #B78D4D",
".#	c #B78E4E",
"+#	c #B88F50",
"@#	c #B99153",
"##	c #BA9355",
"$#	c #BB9457",
"%#	c #BC955A",
"&#	c #BD975C",
"*#	c #BD985D",
"=#	c #BF9A60",
"-#	c #BF9B62",
";#	c #C09C64",
">#	c #967C55",
",#	c #736249",
"'#	c #A0855C",
")#	c #C3A16C",
"!#	c #534C41",
"~#	c #B59668",
"{#	c #C5A471",
"]#	c #C6A572",
"^#	c #C6A673",
"/#	c #C7A674",
"(#	c #C7A774",
"_#	c #C7A775",
":#	c #BB9963",
"<#	c #2A271F",
"[#	c #69522E",
"}#	c #8C8C85",
"|#	c #D8D8D6",
"1#	c #A8ABA4",
"2#	c #C3C7BF",
"3#	c #BD8D46",
"4#	c #BE8F48",
"5#	c #BF904A",
"6#	c #C0914C",
"7#	c #C0934E",
"8#	c #C19551",
"9#	c #C29654",
"0#	c #C39756",
"a#	c #C49958",
"b#	c #C59A5A",
"c#	c #C59B5C",
"d#	c #C69D5F",
"e#	c #C79E61",
"f#	c #C39C61",
"g#	c #A58658",
"h#	c #BC9862",
"i#	c #CAA369",
"j#	c #76654C",
"k#	c #AA8C61",
"l#	c #615748",
"m#	c #B69768",
"n#	c #CDA972",
"o#	c #CEAA74",
"p#	c #BD8D45",
"q#	c #604723",
"r#	c #49361B",
"s#	c #BC8C45",
"t#	c #D7D8D5",
"u#	c #A6A9A2",
"v#	c #C1C5BD",
"w#	c #E2E2E0",
"x#	c #C69346",
"y#	c #C69548",
"z#	c #C7964B",
"A#	c #C8974D",
"B#	c #C99950",
"C#	c #C99A52",
"D#	c #CA9B54",
"E#	c #CB9D56",
"F#	c #CB9E59",
"G#	c #CC9F5B",
"H#	c #CDA15D",
"I#	c #CDA25F",
"J#	c #CEA361",
"K#	c #C89F61",
"L#	c #CFA666",
"M#	c #D0A768",
"N#	c #D1A86A",
"O#	c #CDA66B",
"P#	c #5E5546",
"Q#	c #544E44",
"R#	c #B0905E",
"S#	c #CDA15E",
"T#	c #C99A51",
"U#	c #C59345",
"V#	c #C59244",
"W#	c #81602D",
"X#	c #433217",
"Y#	c #C39143",
"Z#	c #8D8E86",
"`#	c #D8D9D7",
" $	c #A4A6A0",
".$	c #BFC3BB",
"+$	c #E1E1DF",
"@$	c #CF9946",
"#$	c #CF9A48",
"$$	c #D09B4B",
"%$	c #D19D4D",
"&$	c #D19E50",
"*$	c #D29F52",
"=$	c #D2A054",
"-$	c #D3A257",
";$	c #D4A359",
">$	c #D4A55B",
",$	c #D6A75E",
"'$	c #D7A960",
")$	c #D8AB62",
"!$	c #D8AC65",
"~$	c #D8AD67",
"{$	c #D8AC69",
"]$	c #D7AB66",
"^$	c #D5A55D",
"/$	c #B68B49",
"($	c #100D08",
"_$	c #453317",
":$	c #CE9743",
"<$	c #A07534",
"[$	c #402F15",
"}$	c #CA9442",
"|$	c #CF9845",
"1$	c #93948C",
"2$	c #DADAD9",
"3$	c #A2A49E",
"4$	c #BDC1B9",
"5$	c #898B86",
"6$	c #D89D46",
"7$	c #D89F49",
"8$	c #D9A04B",
"9$	c #D9A14D",
"0$	c #DAA24F",
"a$	c #DAA352",
"b$	c #DBA555",
"c$	c #DCA757",
"d$	c #DEAC5A",
"e$	c #E0B05C",
"f$	c #E1B25F",
"g$	c #E2B561",
"h$	c #E2B562",
"i$	c #E1B15B",
"j$	c #DFAB52",
"k$	c #DBA548",
"l$	c #D99E42",
"m$	c #D79B42",
"n$	c #8E672C",
"o$	c #000000",
"p$	c #88622A",
"q$	c #AE7D35",
"r$	c #3B2B12",
"s$	c #CC933F",
"t$	c #D79C44",
"u$	c #999992",
"v$	c #DBDBDA",
"w$	c #A0A29C",
"x$	c #BBBFB7",
"y$	c #E0E0DE",
"z$	c #E0A346",
"A$	c #E0A448",
"B$	c #E1A54B",
"C$	c #E1A64D",
"D$	c #E1A74F",
"E$	c #E2A851",
"F$	c #E4AE55",
"G$	c #E6B257",
"H$	c #E7B65A",
"I$	c #E8B756",
"J$	c #E8B753",
"K$	c #E7B54C",
"L$	c #E6B244",
"M$	c #E5B044",
"N$	c #E4AE44",
"O$	c #E3AA43",
"P$	c #E2A643",
"Q$	c #E0A242",
"R$	c #DFA041",
"S$	c #5E431B",
"T$	c #0B0803",
"U$	c #C28B39",
"V$	c #996E2D",
"W$	c #241A0A",
"X$	c #C9903B",
"Y$	c #DFA143",
"Z$	c #E1A64C",
"`$	c #E2AA55",
" %	c #9E9E97",
".%	c #DCDDDB",
"+%	c #9EA09A",
"@%	c #B9BCB5",
"#%	c #DFE0DD",
"$%	c #8A8C87",
"%%	c #E9A645",
"&%	c #E9A847",
"*%	c #E9A94A",
"=%	c #EAAA4D",
"-%	c #EAAB4F",
";%	c #ECAF4F",
">%	c #ECB24C",
",%	c #EDB549",
"'%	c #EDB644",
")%	c #F3C85B",
"!%	c #F6DA76",
"~%	c #FAE689",
"{%	c #F8DF7D",
"]%	c #F5D168",
"^%	c #EFBC48",
"/%	c #EDB744",
"(%	c #ECB443",
"_%	c #ECAF42",
":%	c #EAAB42",
"<%	c #E9A540",
"[%	c #E3A03E",
"}%	c #2F210D",
"|%	c #31230E",
"1%	c #573E18",
"2%	c #100C05",
"3%	c #C28935",
"4%	c #E8A440",
"5%	c #E8A542",
"6%	c #E9A94B",
"7%	c #EAAE54",
"8%	c #EBB25C",
"9%	c #A3A39D",
"0%	c #DEDEDC",
"a%	c #9C9E98",
"b%	c #B7BAB4",
"c%	c #DFDFDC",
"d%	c #F1AC45",
"e%	c #F2AC47",
"f%	c #F1AC46",
"g%	c #F1AB44",
"h%	c #F2AE41",
"i%	c #F3B241",
"j%	c #F3B643",
"k%	c #F4BE46",
"l%	c #FADE7B",
"m%	c #FEF39D",
"n%	c #FEF3A5",
"o%	c #FEF5AC",
"p%	c #FEF4A8",
"q%	c #FEF3A0",
"r%	c #FDEC91",
"s%	c #F7CB57",
"t%	c #F4BD44",
"u%	c #F3B943",
"v%	c #F2B441",
"w%	c #F2AF40",
"x%	c #F1A93F",
"y%	c #D29337",
"z%	c #0E0A04",
"A%	c #B57F2F",
"B%	c #F1AA41",
"C%	c #F2AE4A",
"D%	c #F2B253",
"E%	c #F3B65C",
"F%	c #F4BA65",
"G%	c #A9A9A3",
"H%	c #9A9C96",
"I%	c #B5B8B2",
"J%	c #F9AD3F",
"K%	c #F9AD3E",
"L%	c #F9AF3F",
"M%	c #FAB440",
"N%	c #F9B941",
"O%	c #FABE42",
"P%	c #FBDF79",
"Q%	c #FEF4A1",
"R%	c #FEF7B6",
"S%	c #FFF8BE",
"T%	c #FFF7BC",
"U%	c #FEEF96",
"V%	c #FBC84C",
"W%	c #FAC044",
"X%	c #F9BB42",
"Y%	c #FAB640",
"Z%	c #F9B13F",
"`%	c #30210C",
" &	c #E59F39",
".&	c #F9AE40",
"+&	c #F9B249",
"@&	c #FAB652",
"#&	c #FAB95B",
"$&	c #FABD64",
"%&	c #FAC16D",
"&&	c #AEAEA8",
"*&	c #EAEBE9",
"=&	c #90918D",
"-&	c #B3B6B0",
";&	c #DDDDDB",
">&	c #FBAE3E",
",&	c #FBB23F",
"'&	c #FCB840",
")&	c #FBBD43",
"!&	c #FDCD56",
"~&	c #FEF4A3",
"{&	c #FDE37C",
"]&	c #FBC444",
"^&	c #FBBF43",
"/&	c #FBBA41",
"(&	c #FBB440",
"_&	c #251A09",
":&	c #CC8D32",
"<&	c #FBAF40",
"[&	c #FBB349",
"}&	c #FBB752",
"|&	c #FCBA5B",
"1&	c #FCBE64",
"2&	c #FCC26D",
"3&	c #FCC575",
"4&	c #B3B2AD",
"5&	c #C0C1BE",
"6&	c #ADAEAB",
"7&	c #8B8C87",
"8&	c #B1B4AE",
"9&	c #DCDDDA",
"0&	c #FBB33F",
"a&	c #FDDA70",
"b&	c #FEF6B1",
"c&	c #FEEF95",
"d&	c #FCC745",
"e&	c #FBC244",
"f&	c #FBBC42",
"g&	c #FCB641",
"h&	c #FBAF3E",
"i&	c #1B1207",
"j&	c #B17B2C",
"k&	c #FABD63",
"l&	c #EDB96C",
"m&	c #E1B473",
"n&	c #C4A778",
"o&	c #858581",
"p&	c #AEB0AC",
"q&	c #A8A9A6",
"r&	c #AFB2AC",
"s&	c #DCDCDA",
"t&	c #FBB540",
"u&	c #FBBA42",
"v&	c #FBC044",
"w&	c #FCE27D",
"x&	c #FEF2A6",
"y&	c #FEF7BA",
"z&	c #FFF7BA",
"A&	c #FEF6BA",
"B&	c #FEF6B4",
"C&	c #FEF29B",
"D&	c #FDCC4D",
"E&	c #FBC344",
"F&	c #FBBD42",
"G&	c #FCB741",
"H&	c #FBB03E",
"I&	c #100B04",
"J&	c #966825",
"K&	c #F9BC64",
"L&	c #716F63",
"M&	c #6E6E66",
"N&	c #8B8A83",
"O&	c #A3A19B",
"P&	c #BDBEBA",
"Q&	c #CCCDCB",
"R&	c #92948E",
"S&	c #ADB0AA",
"T&	c #635438",
"U&	c #635439",
"V&	c #635539",
"W&	c #635538",
"X&	c #050403",
"Y&	c #030201",
"Z&	c #312B1C",
"`&	c #65563A",
" *	c #6C5E44",
".*	c #74664D",
"+*	c #7A6D56",
"@*	c #82765F",
"#*	c #847B68",
"$*	c #727470",
"%*	c #F9F9F9",
"&*	c #D5D6D3",
"**	c #C8C9C6",
"=*	c #ACADA9",
"-*	c #858782",
";*	c #ABAEA8",
">*	c #DADBD8",
",*	c #2E3436",
"'*	c #303638",
")*	c #3A4042",
"!*	c #44494B",
"~*	c #4D5254",
"{*	c #575C5D",
"]*	c #616567",
"^*	c #6B6E6E",
"/*	c #939491",
"(*	c #C4C5C1",
"_*	c #BFC1BE",
":*	c #B4B5B2",
"<*	c #868883",
"[*	c #A9ACA6",
"}*	c #6A6E70",
"|*	c #727574",
"1*	c #A8AAA6",
"2*	c #D2D3D0",
"3*	c #C0C2BF",
"4*	c #BCBDBA",
"5*	c #838580",
"6*	c #A7AAA4",
"7*	c #D9D9D7",
"8*	c #A3A4A1",
"9*	c #8F918C",
"0*	c #959692",
"a*	c #9A9B97",
"b*	c #9FA19D",
"c*	c #A5A6A3",
"d*	c #AAABA8",
"e*	c #A9ABA8",
"f*	c #7A7C78",
"g*	c #C8C8C6",
"h*	c #80827E",
"i*	c #A5A8A2",
"j*	c #D8D9D6",
"k*	c #D8D8D5",
"l*	c #D7D7D5",
"m*	c #D7D7D4",
"n*	c #D6D7D4",
"o*	c #D6D6D4",
"p*	c #D6D6D3",
"q*	c #D5D5D3",
"r*	c #D5D5D2",
"s*	c #D4D5D2",
"t*	c #D4D4D2",
"u*	c #D4D4D1",
"v*	c #D3D4D1",
"w*	c #D9DAD7",
"x*	c #DBDCD9",
"y*	c #E0E0DD",
"z*	c #DBDDDA",
"A*	c #A6A9A5",
"B*	c #BEBFBC",
"C*	c #C8C9C7",
"D*	c #777975",
"E*	c #A4A7A1",
"F*	c #F8F8F8",
"G*	c #F2F2F2",
"H*	c #B9BAB7",
"I*	c #A5A6A2",
"J*	c #9D9F9B",
"K*	c #81837D",
"L*	c #6D6F6A",
"M*	c #A1A49D",
"N*	c #9FA29C",
"O*	c #9EA19B",
"P*	c #9DA09A",
"Q*	c #9C9F99",
"R*	c #9C9E99",
"S*	c #9B9E98",
"T*	c #9A9D97",
"U*	c #9A9C97",
"V*	c #999C96",
"W*	c #999B95",
"X*	c #989A95",
"Y*	c #979A94",
"Z*	c #979993",
"`*	c #969893",
" =	c #959892",
".=	c #959791",
"+=	c #939690",
"@=	c #93958F",
"#=	c #92948F",
"$=	c #91948E",
"%=	c #90928D",
"&=	c #8F928C",
"*=	c #8D908A",
"==	c #8D8F8A",
"-=	c #8C8E89",
";=	c #8C8D89",
">=	c #898B87",
",=	c #7C7D79",
"                                                                                                ",
"                                                                                                ",
"                                                                                                ",
"                                                                                                ",
"                                                                                                ",
"                                                                                                ",
"    . + + + + + + + + + + + + + + + + + + + + + + + + + + + + + @ # # $ % & * = - ; > , ' )     ",
"  . ! ~ ~ ~ ~ ~ ~ ~ ~ ~ ~ ~ ~ ~ ~ ~ ~ ~ ~ ~ ~ ~ ~ ~ ~ ~ ~ ~ ~ ~ ~ ~ ~ ~ ~ ~ ~ ~ ~ ~ ~ ~ ~ { ]   ",
"  + ~ ^ ^ ^ / / / / / ( ( ( ( _ : : : : < < < < < [ } } } } | 1 1 1 1 | 1 1 1 2 3 3 3 3 4 ~ 5   ",
"  + ~ ( 6 7 7 7 7 7 7 7 7 7 7 7 7 7 7 7 7 7 7 7 7 8 8 8 9 9 0 0 a a a a a a a 0 0 9 9 b c ~ d   ",
"  + ~ ( e f f f f f f f f f f f f f f f f f g h i j k k l m m m n n n n n n n m m m l 7 o ~ p   ",
"  + ~ < q r r r r r r r r r r r r r r s t u v w w x g y z z j j j A A A A j j j z z y B C ~ D   ",
"  + ~ E F G G G G G G G G G G G G H I J K L L M N N O O P Q R R R R R R R R R Q Q P O S T ~ U   ",
"  + ~ 2 V W W W W W W W W W W X Y Z `  ...+.@.#.$.%.%.&.*.*.*.=.=.-.-.-.=.=.*.*.&.;.%.>.,.~ '.  ",
"  + ~ 4 ).!.!.!.!.!.!.!.!.!.~.{.].^./.(._.:.<.<.[.}.|.1.1.2.2.2.3.3.3.3.2.2.2.4.4.|.}.5.6.~ 7.  ",
"  + ~ 8.9.0.0.0.0.0.0.0.0.a.b.c.d.e.f.g.h.i.j.k.l.m.n.o.p.q.r.r.r.r.r.r.s.r.q.t.o.n.m.u.v.~ w.  ",
"  @ ~ x.y.z.z.z.z.z.z.A.B.C.D.E.F.G.H.I.J.K.L.M.N.O.P.Q.R.S.T.T.T.U.T.T.V.S.W.X.P.O.Y.Z.`.~  +  ",
"  $ ~ .+++@+@+@+@+@+#+$+%+&+*+=+-+;+>+,+'+)+!+~+{+]+^+/+(+_+_+_+:+:+:+_+<+_+(+[+}+]+|+1+2+~ 3+  ",
"  * ~ T 4+5+5+5+5+6+7+8+9+0+a+b+c+d+e+f+g+h+i+j+k+l+m+n+o+o+o+p+q+r+s+t+u+v+w+x+y+z+A+B+C+~ D+  ",
"  ; ~ E+F+G+G+G+H+I+J+K+L+M+N+O+P+Q+R+S+T+U+V+W+X+Y+Z+`+ @.@.@+@@@#@$@%@&@l+*@=@-@;@>@,@'@~ )@  ",
"  ' ~ v.!@~@~@{@]@^@/@(@_@:@<@[@}@|@1@2@3@4@5@6@7@8@9@0@a@b@b@c@d@e@f@b@g@0@h@i@j@k@/@l@m@~ n@  ",
"  o@~ `.p@q@q@r@s@t@u@v@w@x@y@z@A@B@C@D@E@F@G@G@H@I@J@K@L@M@N@N@N@O@P@T+Q@B@R@r@q@q@q@S@T@~ U@  ",
"  V@~ W@X@Y@Z@`@ #.#+#@###$#%#&#*#=#-#;#>#,#'#)#!#~#{#]#^#/#(#_#{#:#<#[#Y@Y@Y@Y@Y@Y@Y@}#|#~ 1#  ",
"  2#~ C+X@3#4#5#6#7#8#9#0#a#b#c#d#e#f#g#h#i#j#k#l#m#n#o#o#i#c#7#p#q#r#s#p#p#p#p#p#p#p#}#t#~ u#  ",
"  v#~ w#X@x#y#z#A#B#C#D#E#F#G#H#I#J#K#L#M#N#O#P#Q#R#S#T#U#V#V#V#W#X#Y#V#V#V#V#V#V#V#V#Z#`#~  $  ",
"  .$~ +$X@@$#$$$%$&$*$=$-$;$>$,$'$)$!$~${$]$^$/$($_$:$:$:$:$:$<$[$}$:$:$:$:$:$:$:$:$|$1$2$~ 3$  ",
"  4$~ +$5$6$7$8$9$0$a$b$c$d$e$f$g$h$i$j$k$l$m$m$n$o$p$m$m$m$q$r$s$m$m$m$m$m$m$m$m$t$9$u$v$~ w$  ",
"  x$~ y$5$z$A$B$C$D$E$F$G$H$I$J$K$L$L$M$N$O$P$Q$R$S$T$U$R$V$W$X$R$R$R$R$R$R$R$R$Y$Z$`$ %.%~ +%  ",
"  @%~ #%$%%%&%*%=%-%;%>%,%'%)%!%~%{%]%^%/%(%_%:%<%[%}%|%1%2%3%4%4%4%4%4%4%4%4%5%6%7%8%9%0%~ a%  ",
"  b%~ c%$%d%e%f%g%h%i%j%k%l%m%n%o%p%q%r%s%t%u%v%w%x%y%z%o$A%x%x%x%x%x%x%x%x%B%C%D%E%F%G%y$~ H%  ",
"  I%~ 0%5$J%K%K%L%M%N%O%P%Q%R%S%S%S%T%p%U%V%W%X%Y%Z%K%`%o$ &K%K%K%K%K%K%K%.&+&@&#&$&%&&&w#*&=&  ",
"  -&~ ;&X@>&>&>&,&'&)&!&m%R%S%S%S%S%S%T%~&{&]&^&/&(&>&_&o$:&>&>&>&>&>&>&<&[&}&|&1&2&3&4&5&6&7&  ",
"  8&~ 9&X@>&>&>&0&/&^&a&n%S%S%S%S%S%S%S%b&c&d&e&f&g&h&i&o$j&>&>&>&>&>&<&[&}&|&k&l&m&n&o&p&q&    ",
"  r&~ s&X@>&>&h&t&u&v&w&x&y&z&A&y&y&A&z&B&C&D&E&F&G&H&I&o$J&>&>&>&>&<&[&}&|&K&L&M&N&O&P&Q&R&    ",
"  S&~ m@X@T&T&T&T&T&U&V&V&T&W&W&W&W&T&W&W&V&V&U&T&T&T&X&Y&Z&T&T&T&`& *.*+*@*#*$*%*3 &***=*-*    ",
"  ;*~ >*X@,*,*,*,*,*,*,*,*,*,*,*,*,*,*,*,*,*,*,*,*,*,*,*,*,*,*,*'*)*!*~*{*]*^*/*c (*_*:*<*      ",
"  [*~ T@X@,*,*,*,*,*,*,*,*,*,*,*,*,*,*,*,*,*,*,*,*,*,*,*,*,*,*'*)*!*~*{*]*}*|*1*2*3*4*5*        ",
"  6*~ 7*8*X@X@X@X@X@X@X@X@X@X@X@X@X@X@X@X@X@X@X@X@X@X@X@X@X@5$9*0*a*b*c*d*e*f*g*Q&e h*          ",
"  i*~ j*|#|#k*t#t#t#l*m*n*n*o*o*p*&*&*q*q*r*s*s*t*u*v*v*v*t*p*t#w*x*;&y*z*A*B*C*=&D*            ",
"  E*F*~ ~ ~ ~ ~ ~ ~ ~ ~ ~ ~ ~ ~ ~ ~ ~ ~ ~ ~ ~ ~ ~ ~ ~ ~ ~ ~ ~ ~ ~ ~ ~ G*H*I*J*K*L*              ",
"    M*w$N*O*+%P*Q*R*S*T*U*V*W*X*Y*Z*`* =.=4++=@=#=$=F+%=&=9*!@*===-=p@;=>=,=                    ",
"                                                                                                ",
"                                                                                                ",
"                                                                                                ",
"                                                                                                ",
"                                                                                                ",
"                                                                                                ",
"                                                                                                "};
