/* XPM */
static const char * o_xpm[] = {
"16 16 17 1",
" 	c None",
".	c #B6B6B6",
"+	c #B0B0B0",
"@	c #B8B8B8",
"#	c #A6A6A6",
"$	c #969696",
"%	c #8C8C8C",
"&	c #9F9F9F",
"*	c #848484",
"=	c #6F6F6F",
"-	c #636363",
";	c #626262",
">	c #4A4A4A",
",	c #3E3E3E",
"'	c #2E2E2E",
")	c #1F1F1F",
"!	c #0D0D0D",
"                ",
"                ",
"      .++.      ",
"    @#$%%$#@    ",
"   @&*=--=*&@   ",
"   #*;>,,>;*#   ",
"  .$=>'))'>=$.  ",
"  +%-,)!!),-%+  ",
"  +%-,)!!),-%+  ",
"  .$=>'))'>=$.  ",
"   #*;>,,>;*#   ",
"   @&*=--=*&@   ",
"    @#$%%$#@    ",
"      .++.      ",
"                ",
"                "};
