/* XPM */
const char * preferences_xpm[] = {
"48 48 518 2",
"  	c None",
". 	c #8C8F89",
"+ 	c #92948E",
"@ 	c #D1D1CE",
"# 	c #9A9C97",
"$ 	c #565854",
"% 	c #585A56",
"& 	c #939590",
"* 	c #F7F7F6",
"= 	c #DCDDDA",
"- 	c #8D8F8A",
"; 	c #575956",
"> 	c #696B68",
", 	c #E1E2E1",
"' 	c #848683",
") 	c #8C8D88",
"! 	c #8B8D88",
"~ 	c #DCDCD9",
"{ 	c #FAFAFA",
"] 	c #E6E7E4",
"^ 	c #8C8F8A",
"/ 	c #5A5C59",
"( 	c #959693",
"_ 	c #D3D4D3",
": 	c #E0E1DF",
"< 	c #E0E0DF",
"[ 	c #91928D",
"} 	c #C8C9C6",
"| 	c #91938E",
"1 	c #F7F7F7",
"2 	c #CACBC8",
"3 	c #5F605C",
"4 	c #CECFCD",
"5 	c #E8E8E7",
"6 	c #D0D1D0",
"7 	c #626561",
"8 	c #8C8E89",
"9 	c #C7CAC4",
"0 	c #9D9F99",
"a 	c #8A8C87",
"b 	c #E7E8E6",
"c 	c #F4F4F4",
"d 	c #656764",
"e 	c #F6F6F6",
"f 	c #F0F1F0",
"g 	c #E9E9E8",
"h 	c #898A87",
"i 	c #8E918B",
"j 	c #DEE0DC",
"k 	c #DEDFDC",
"l 	c #8D8E8A",
"m 	c #8C8E88",
"n 	c #F3F4F2",
"o 	c #F4F5F4",
"p 	c #FBFBFB",
"q 	c #8E8F8A",
"r 	c #595B58",
"s 	c #6A6C68",
"t 	c #CBCCC9",
"u 	c #F8F8F7",
"v 	c #C4C4C3",
"w 	c #5A5C57",
"x 	c #D7D9D5",
"y 	c #ECEDEB",
"z 	c #A9ACA8",
"A 	c #8D8F89",
"B 	c #E7E8E5",
"C 	c #F6F6F5",
"D 	c #F9F9F9",
"E 	c #8D908A",
"F 	c #5B5C58",
"G 	c #6B6E69",
"H 	c #A4A5A1",
"I 	c #646560",
"J 	c #626461",
"K 	c #5D5E5A",
"L 	c #B8BAB5",
"M 	c #DBDDD9",
"N 	c #E5E6E3",
"O 	c #A5A6A1",
"P 	c #CECFCC",
"Q 	c #F3F3F2",
"R 	c #F0F1EF",
"S 	c #F0F0EF",
"T 	c #F5F5F4",
"U 	c #90928D",
"V 	c #5B5C59",
"W 	c #6C6E6B",
"X 	c #A9AAA5",
"Y 	c #646561",
"Z 	c #5A5B58",
"` 	c #8F918C",
" .	c #DFE1DE",
"..	c #CFD1CD",
"+.	c #E3E4E1",
"@.	c #EBEBE9",
"#.	c #E5E6E4",
"$.	c #EAEAE8",
"%.	c #F3F4F3",
"&.	c #EDEFEC",
"*.	c #DCDEDA",
"=.	c #6E706C",
"-.	c #ADAEAA",
";.	c #656662",
">.	c #5B5D58",
",.	c #9E9F99",
"'.	c #D6D8D5",
").	c #E4E5E2",
"!.	c #EDEEEC",
"~.	c #EAEBE7",
"{.	c #CFD3CC",
"].	c #C8CBC4",
"^.	c #EAEBE8",
"/.	c #B8BAB6",
"(.	c #8C8D87",
"_.	c #6F716D",
":.	c #B1B2AE",
"<.	c #666762",
"[.	c #5B5D5A",
"}.	c #92938E",
"|.	c #CACCC9",
"1.	c #DDDEDB",
"2.	c #E9EAE9",
"3.	c #F1F2F0",
"4.	c #EBECE9",
"5.	c #D2D5CF",
"6.	c #C8CCC4",
"7.	c #B8BBB4",
"8.	c #BDBFB9",
"9.	c #EDEDEC",
"0.	c #5A5D59",
"a.	c #70726E",
"b.	c #B5B6B3",
"c.	c #666864",
"d.	c #8C9089",
"e.	c #A8AAA6",
"f.	c #E6E7E5",
"g.	c #D7DAD4",
"h.	c #B2B5AE",
"i.	c #B8BBB5",
"j.	c #A5A8A3",
"k.	c #8B8D89",
"l.	c #5C5D5A",
"m.	c #717370",
"n.	c #BABBB7",
"o.	c #676865",
"p.	c #8D8F8B",
"q.	c #DADCD8",
"r.	c #B2B4AE",
"s.	c #ACAFA9",
"t.	c #BABDB7",
"u.	c #F1F1F0",
"v.	c #A9ABA7",
"w.	c #727571",
"x.	c #BEBEBB",
"y.	c #686966",
"z.	c #C5C7C3",
"A.	c #DBDCD9",
"B.	c #ADB0A9",
"C.	c #B6B9B4",
"D.	c #CBCDC9",
"E.	c #F5F6F4",
"F.	c #ACAEA9",
"G.	c #737572",
"H.	c #C2C3BF",
"I.	c #696A66",
"J.	c #8A8D88",
"K.	c #C1C3BF",
"L.	c #BFC1BD",
"M.	c #C9CBC7",
"N.	c #FAFAF9",
"O.	c #AFB0AD",
"P.	c #757773",
"Q.	c #C6C7C4",
"R.	c #696A67",
"S.	c #5D5F5A",
"T.	c #8B8C87",
"U.	c #C4C6C2",
"V.	c #D1D2D0",
"W.	c #DBDBDA",
"X.	c #EEEEED",
"Y.	c #FCFCFC",
"Z.	c #AFB1AD",
"`.	c #8E908C",
" +	c #767874",
".+	c #CBCBC8",
"++	c #6A6B68",
"@+	c #5D5F5B",
"#+	c #E4E4E4",
"$+	c #EAEAEA",
"%+	c #EEEEEE",
"&+	c #B0B0AD",
"*+	c #5D5E5C",
"=+	c #777975",
"-+	c #CFCFCC",
";+	c #6B6C68",
">+	c #CBCCCA",
",+	c #E5E5E5",
"'+	c #EAEAE9",
")+	c #AFB1AE",
"!+	c #8C8E8A",
"~+	c #787A77",
"{+	c #D3D4D0",
"]+	c #6C6D69",
"^+	c #8E908B",
"/+	c #CDCFCD",
"(+	c #E6E6E6",
"_+	c #F9F9F8",
":+	c #AEAFAB",
"<+	c #666764",
"[+	c #7A7C78",
"}+	c #D8D8D5",
"|+	c #6C6D6A",
"1+	c #8E918C",
"2+	c #DCDDDC",
"3+	c #DEDFDD",
"4+	c #8A8B89",
"5+	c #7C7E7B",
"6+	c #6D6E6B",
"7+	c #8D908B",
"8+	c #C9CAC7",
"9+	c #81827F",
"0+	c #7F817D",
"a+	c #DFDFDC",
"b+	c #6F706C",
"c+	c #616360",
"d+	c #C3C5C2",
"e+	c #888A87",
"f+	c #70716E",
"g+	c #838481",
"h+	c #828381",
"i+	c #7B7D7A",
"j+	c #7E807C",
"k+	c #777876",
"l+	c #A5A5A3",
"m+	c #D0D0CF",
"n+	c #AAACA9",
"o+	c #848580",
"p+	c #214987",
"q+	c #5E605D",
"r+	c #7B7D79",
"s+	c #6F706D",
"t+	c #80817F",
"u+	c #A0A19E",
"v+	c #AEB0AD",
"w+	c #D0D2CE",
"x+	c #A9AAA7",
"y+	c #838580",
"z+	c #224C89",
"A+	c #688DBA",
"B+	c #41689C",
"C+	c #515963",
"D+	c #6E6F6C",
"E+	c #61625F",
"F+	c #8E8F8D",
"G+	c #C9CAC8",
"H+	c #C6C8C4",
"I+	c #A7A9A5",
"J+	c #80817C",
"K+	c #214A87",
"L+	c #6286B5",
"M+	c #98B8DB",
"N+	c #779CC7",
"O+	c #6D87A5",
"P+	c #777974",
"Q+	c #B7B7B4",
"R+	c #C7C8C4",
"S+	c #C2C4C0",
"T+	c #C7C9C4",
"U+	c #ECECEA",
"V+	c #A6A8A4",
"W+	c #376199",
"X+	c #9AB9DA",
"Y+	c #5D89BD",
"Z+	c #4172AD",
"`+	c #4E7DB6",
" @	c #69829F",
".@	c #475361",
"+@	c #80827D",
"@@	c #B4B5B2",
"#@	c #E4E5E3",
"$@	c #C2C4BF",
"%@	c #BEC0BB",
"&@	c #C3C4C0",
"*@	c #E9EAE8",
"=@	c #A4A6A3",
"-@	c #7C7E79",
";@	c #224D89",
">@	c #88A9CE",
",@	c #6E95C4",
"'@	c #4272AE",
")@	c #4F7EB7",
"!@	c #5B88BE",
"~@	c #678AB9",
"{@	c #2A4B7B",
"]@	c #7C7F7B",
"^@	c #E1E2E0",
"/@	c #BEBFBB",
"(@	c #B9BBB6",
"_@	c #A3A4A1",
":@	c #7A7B77",
"<@	c #2B538F",
"[@	c #799CC5",
"}@	c #7FA2CC",
"|@	c #4574AF",
"1@	c #507FB7",
"2@	c #5988BE",
"3@	c #4872A8",
"4@	c #587AA9",
"5@	c #375787",
"6@	c #183561",
"7@	c #7C7E7A",
"8@	c #ACAEAA",
"9@	c #DEE0DD",
"0@	c #B9BCB6",
"a@	c #B5B7B2",
"b@	c #E4E6E3",
"c@	c #A2A4A1",
"d@	c #777A74",
"e@	c #204A87",
"f@	c #446CA1",
"g@	c #8EAFD1",
"h@	c #7299C5",
"i@	c #4776B0",
"j@	c #5180B8",
"k@	c #5986BB",
"l@	c #4E76A9",
"m@	c #5779A8",
"n@	c #2F5181",
"o@	c #173761",
"p@	c #797A76",
"q@	c #B5B8B2",
"r@	c #B0B3AD",
"s@	c #B4B7B1",
"t@	c #E1E2DF",
"u@	c #B3B5B2",
"v@	c #224D8A",
"w@	c #698DBA",
"x@	c #92B3D5",
"y@	c #6089BC",
"z@	c #4474AE",
"A@	c #5281B9",
"B@	c #5885BB",
"C@	c #577BAB",
"D@	c #4A6C9A",
"E@	c #1E3E6D",
"F@	c #173561",
"G@	c #777874",
"H@	c #A6A7A3",
"I@	c #D9DAD7",
"J@	c #E2E3E0",
"K@	c #CFCFCD",
"L@	c #7A7C77",
"M@	c #747772",
"N@	c #3C639A",
"O@	c #8BABD1",
"P@	c #85A9D0",
"Q@	c #527EB5",
"R@	c #4473AF",
"S@	c #5382B9",
"T@	c #5C89BE",
"U@	c #4F74A7",
"V@	c #406291",
"W@	c #183965",
"X@	c #747672",
"Y@	c #A2A5A0",
"Z@	c #D2D4D1",
"`@	c #B0B2AC",
" #	c #B9BBB5",
".#	c #D0D2CD",
"+#	c #E3E3E1",
"@#	c #DFE0DE",
"##	c #D3D4D1",
"$#	c #A1A39F",
"%#	c #5E82B3",
"&#	c #96B5D9",
"*#	c #729BC8",
"=#	c #4976B0",
"-#	c #4474AF",
";#	c #5F8DC1",
">#	c #446DA3",
",#	c #496B9C",
"'#	c #1C3B69",
")#	c #717470",
"!#	c #BBBCB9",
"~#	c #CECFCA",
"{#	c #CBCDC8",
"]#	c #D7D9D4",
"^#	c #E6E6E3",
"/#	c #E6E6E4",
"(#	c #E1E1DF",
"_#	c #737571",
":#	c #4B72A5",
"<#	c #92B3D7",
"[#	c #6591C3",
"}#	c #4271AC",
"|#	c #5382BA",
"1#	c #628FC3",
"2#	c #416BA2",
"3#	c #476B9D",
"4#	c #224371",
"5#	c #727370",
"6#	c #D6D7D4",
"7#	c #D5D6D2",
"8#	c #E1E1DE",
"9#	c #70736F",
"0#	c #345D96",
"a#	c #8EAED3",
"b#	c #6991C3",
"c#	c #4170AB",
"d#	c #5482BA",
"e#	c #6390C4",
"f#	c #446FA6",
"g#	c #3D6297",
"h#	c #2D4F80",
"i#	c #173460",
"j#	c #81837E",
"k#	c #E9E9E7",
"l#	c #EDEDEB",
"m#	c #EAEAE7",
"n#	c #F2F2F0",
"o#	c #E2E3E1",
"p#	c #B7B9B6",
"q#	c #CDCECB",
"r#	c #E8E9E7",
"s#	c #959691",
"t#	c #28508B",
"u#	c #80A3CA",
"v#	c #6E96C4",
"w#	c #4371AB",
"x#	c #6391C5",
"y#	c #4C78AE",
"z#	c #2F5790",
"A#	c #365A8D",
"B#	c #183562",
"C#	c #6F726D",
"D#	c #ECEDEC",
"E#	c #6E706B",
"F#	c #6A6C67",
"G#	c #CFD0CD",
"H#	c #6C90BC",
"I#	c #7499C6",
"J#	c #4573AD",
"K#	c #6391C4",
"L#	c #4E7AAF",
"M#	c #254E8A",
"N#	c #395D93",
"O#	c #1D3B69",
"P#	c #EFEFED",
"Q#	c #EEEEEC",
"R#	c #71736E",
"S#	c #6E706D",
"T#	c #DCDDDB",
"U#	c #6C6E69",
"V#	c #5379AB",
"W#	c #789CC6",
"X#	c #4675AD",
"Y#	c #4373AF",
"Z#	c #6291C3",
"`#	c #4470A7",
" $	c #355C93",
".$	c #224374",
"+$	c #16345E",
"@$	c #6C6E6A",
"#$	c #EBEBEA",
"$$	c #D3D3D2",
"%$	c #A7A8A3",
"&$	c #CED0CD",
"*$	c #656763",
"=$	c #234C89",
"-$	c #789BC4",
";$	c #4977AD",
">$	c #4373AE",
",$	c #618EC3",
"'$	c #3D67A0",
")$	c #2B538D",
"!$	c #345890",
"~$	c #696C67",
"{$	c #696B66",
"]$	c #90928E",
"^$	c #1F4783",
"/$	c #5C80AF",
"($	c #4373AD",
"_$	c #5E8CC0",
":$	c #356099",
"<$	c #2E558E",
"[$	c #2D538A",
"}$	c #1A3A66",
"|$	c #16335E",
"1$	c #6B6D68",
"2$	c #E3E3E2",
"3$	c #646662",
"4$	c #295086",
"5$	c #517FB6",
"6$	c #5A87BC",
"7$	c #325C96",
"8$	c #305790",
"9$	c #274C81",
"0$	c #193763",
"a$	c #6D6F6A",
"b$	c #DCDCDA",
"c$	c #DDDEDC",
"d$	c #626460",
"e$	c #1A3D6F",
"f$	c #23467A",
"g$	c #2F5389",
"h$	c #2E538A",
"i$	c #1F4173",
"j$	c #16335D",
"k$	c #5F605B",
"l$	c #A1A2A0",
"m$	c #90918E",
"n$	c #494A49",
"o$	c #183663",
"p$	c #132C50",
"q$	c #454743",
"r$	c #5A5C58",
"s$	c #4C4D4C",
"                                                                                                ",
"                  .                                                                             ",
"                + @ # .                                                               $ %       ",
"                  & * = -                                                         ; > , ' %     ",
"      )           ! ~ { ] ^                                                     / ( _ : < ;     ",
"    [ } -           | 1 * 2                                                   3 4 5 < 6 7       ",
"    8 9 0           a b c c 8                                                 d e f g h         ",
"    i j k l         m n o p q                                               r s t u v w         ",
"    ) x y z       A B C C D E                                             F G H I J K           ",
"      L M N O # P Q R S D T U                                           V W X Y Z               ",
"      `  ...+.@.#.+.$.%.&.*.x !                                       V =.-.;.>.                ",
"        ,.j x '.*.).!.~.{.].^./.(.                                  V _.:.<.[.                  ",
"          }.|.1.2.3.4.5.6.7.8.9.H                                 0.a.b.c.[.                    ",
"                d.8 e.f.g.7.h.i.y j.k.                          l.m.n.o.[.                      ",
"                      p.x q.r.s.t.u.v.k.                      l.w.x.y.[.                        ",
"                        ! z.A.B.C.D.E.F.A                   l.G.H.I.[.                          ",
"                          J.K.1.L.M.1.N.O.p.              l.P.Q.R.S.                            ",
"                            T.U.B V.W.X.Y.Z.`.          l. +.+++@+                              ",
"                              8 } u.#+$+%+p &+-       *+=+-+;+@+                                ",
"                                ^ >+{ $+,+'+{ )+!+  *+~+{+]+@+                                  ",
"                                  ^+/+D (+, f._+:+<+[+}+|+@+                                    ",
"                                    1+>+1 , 2+3+4+5+~ 6+@+                                      ",
"                                      7+8+T W.9+0+a+b+c+                                        ",
"                                        ! d+e+0+a+f+g+h+i+                                      ",
"                                          R.j+a+f+k+l+m+n+o+                                    ",
"                                  p+    q+r+a+s+t+u+v+w+S x+y+                                  ",
"                                z+A+B+C+r+a+D+E+F+G+t H+D.X.I+J+                                ",
"                              K+L+M+N+O+a+D+@+  P+Q+b R+S+T+U+V+j+                              ",
"                              W+X+Y+Z+`+ @.@      +@@@#@$@%@&@*@=@-@                            ",
"                            ;@>@,@'@)@!@~@{@        ]@Z.^@/@(@%@b _@:@                          ",
"                          <@[@}@|@1@2@3@4@5@6@        7@8@9@0@a@0@b@c@d@                        ",
"                      e@f@g@h@i@j@k@l@m@n@o@            p@v.= q@r@s@t@u@P+                      ",
"                    v@w@x@y@z@A@B@C@D@E@F@                G@H@I@r.s.i.J@K@L@M@a.                ",
"                K+N@O@P@Q@R@S@T@U@V@W@                      X@Y@Z@`@ #.#).3.+#@###$#G.          ",
"              e@%#&#*#=#-#S@;#>#,#'#                          )#!#~#{#]#^#/#N N /#X.(#_#        ",
"            e@:#<#[#}#-#|#1#2#3#4#                              5#6#7#B @./#8#t@b J@#@#@9#      ",
"            0#a#b#c#-#d#e#f#g#h#i#                                j#k#l#@.m#n#o#p#q#X.r#s#      ",
"          t#u#v#w#-#d#x#y#z#A#B#                                  C#D#U+X.@.7@E#  F#K.!.G#      ",
"        e@H#I#J#-#|#K#L#M#N#O#                                    f+P#l#Q#R#        S#y T#U#    ",
"      e@V#W#X#Y#S@Z#`#t# $.$+$                                    @$#$Q#$$c.          %$&$*$    ",
"      =$-$;$>$S@,$'$)$!$E@i#                                        } l#b ~$          {$]$      ",
"      ^$/$($A@_$:$<$[$}$|$                                          1$2$g H@            3$      ",
"        4$5$6$7$8$9$0$                                                a$b$c$d$                  ",
"        e$f$g$h$i$j$                                                    k$l$m$n$                ",
"            o$F@p$                                                        q$r$s$                ",
"                                                                                                ",
"                                                                                                ",
"                                                                                                "};
