/* XPM */
const char * remove_xpm[] = {
"32 32 230 2",
"  	c None",
". 	c #B55959",
"+ 	c #9A1B1B",
"@ 	c #8C0000",
"# 	c #8D0000",
"$ 	c #8E0000",
"% 	c #900000",
"& 	c #920000",
"* 	c #950000",
"= 	c #980000",
"- 	c #9B0000",
"; 	c #9F0000",
"> 	c #A30000",
", 	c #A70000",
"' 	c #AB0000",
") 	c #B00000",
"! 	c #B50000",
"~ 	c #BA0000",
"{ 	c #BF0000",
"] 	c #C50000",
"^ 	c #CA0000",
"/ 	c #D00000",
"( 	c #D70000",
"_ 	c #DF1919",
": 	c #EA5858",
"< 	c #BF6E6E",
"[ 	c #C07474",
"} 	c #9D2C2C",
"| 	c #810000",
"1 	c #820000",
"2 	c #830000",
"3 	c #850000",
"4 	c #860000",
"5 	c #890000",
"6 	c #8F0000",
"7 	c #930000",
"8 	c #960000",
"9 	c #9A0000",
"0 	c #A40000",
"a 	c #A80000",
"b 	c #AE0000",
"c 	c #B30000",
"d 	c #B90000",
"e 	c #C40000",
"f 	c #CB0000",
"g 	c #D10000",
"h 	c #DD2929",
"i 	c #EA7171",
"j 	c #EF6C6C",
"k 	c #9C1E1E",
"l 	c #AE5050",
"m 	c #C48484",
"n 	c #D39696",
"o 	c #C77272",
"p 	c #C87474",
"q 	c #C97474",
"r 	c #CA7474",
"s 	c #CC7474",
"t 	c #CD7474",
"u 	c #CE7474",
"v 	c #D07474",
"w 	c #D17474",
"x 	c #D37474",
"y 	c #D57474",
"z 	c #D67373",
"A 	c #D77373",
"B 	c #D97373",
"C 	c #DA7373",
"D 	c #DB7373",
"E 	c #DC7373",
"F 	c #DD7373",
"G 	c #DE7272",
"H 	c #DF7373",
"I 	c #DF7171",
"J 	c #E27272",
"K 	c #E89D9D",
"L 	c #EB8181",
"M 	c #EB4E4E",
"N 	c #ED1E1E",
"O 	c #8E0303",
"P 	c #931B1B",
"Q 	c #D09393",
"R 	c #C53C3C",
"S 	c #CA4343",
"T 	c #CD4343",
"U 	c #D04343",
"V 	c #D44343",
"W 	c #D64343",
"X 	c #D94343",
"Y 	c #DB4343",
"Z 	c #DE4343",
"` 	c #E04343",
" .	c #E14343",
"..	c #E24343",
"+.	c #E34343",
"@.	c #DE4444",
"#.	c #DC4444",
"$.	c #D73D3D",
"%.	c #D84949",
"&.	c #D86565",
"*.	c #B13A3A",
"=.	c #7E0000",
"-.	c #D37373",
";.	c #E31A1A",
">.	c #E90303",
",.	c #7D0000",
"'.	c #BD6666",
").	c #C33F3F",
"!.	c #C84545",
"~.	c #CC4545",
"{.	c #D04545",
"].	c #D34545",
"^.	c #D64545",
"/.	c #DA4545",
"(.	c #DC4545",
"_.	c #DF4545",
":.	c #E14545",
"<.	c #E34545",
"[.	c #E44545",
"}.	c #E54545",
"|.	c #E64646",
"1.	c #E54747",
"2.	c #E44343",
"3.	c #E13E3E",
"4.	c #E24848",
"5.	c #E46565",
"6.	c #DA6565",
"7.	c #BC3535",
"8.	c #9D0000",
"9.	c #C64B4B",
"0.	c #DE0000",
"a.	c #E70000",
"b.	c #7A0000",
"c.	c #B96161",
"d.	c #BF3B3B",
"e.	c #C54141",
"f.	c #C94040",
"g.	c #CD4040",
"h.	c #D14141",
"i.	c #D54040",
"j.	c #D84040",
"k.	c #DC4040",
"l.	c #DF4040",
"m.	c #E14040",
"n.	c #E33E3E",
"o.	c #E53C3C",
"p.	c #E63F3F",
"q.	c #E84949",
"r.	c #EA5959",
"s.	c #E96464",
"t.	c #E25959",
"u.	c #D33939",
"v.	c #BF0707",
"w.	c #970000",
"x.	c #880000",
"y.	c #C34646",
"z.	c #DC0000",
"A.	c #E50000",
"B.	c #780000",
"C.	c #A85050",
"D.	c #9E1414",
"E.	c #AF2323",
"F.	c #BB2B2B",
"G.	c #C43030",
"H.	c #CB3535",
"I.	c #D03636",
"J.	c #D53A3A",
"K.	c #D93C3C",
"L.	c #DD3E3E",
"M.	c #E04040",
"N.	c #E23A3A",
"O.	c #E03232",
"P.	c #DD2525",
"Q.	c #D70A0A",
"R.	c #D20000",
"S.	c #CE0000",
"T.	c #C20000",
"U.	c #B80000",
"V.	c #A20000",
"W.	c #840000",
"X.	c #DB0000",
"Y.	c #E30000",
"Z.	c #790000",
"`.	c #770B0B",
" +	c #9A4141",
".+	c #9B3B3B",
"++	c #9D3A3A",
"@+	c #A03939",
"#+	c #A43A3A",
"$+	c #A93A3A",
"%+	c #AC3A3A",
"&+	c #B13939",
"*+	c #B43838",
"=+	c #B83636",
"-+	c #BC3636",
";+	c #C13939",
">+	c #C73D3D",
",+	c #C93D3D",
"'+	c #CA3C3C",
")+	c #C93C3C",
"!+	c #C83C3C",
"~+	c #C63B3B",
"{+	c #C43B3B",
"]+	c #C13B3B",
"^+	c #C53F3F",
"/+	c #D60B0B",
"(+	c #DA0000",
"_+	c #E10000",
":+	c #6F0000",
"<+	c #650000",
"[+	c #620000",
"}+	c #640000",
"|+	c #660000",
"1+	c #6A0000",
"2+	c #6D0000",
"3+	c #710000",
"4+	c #750000",
"5+	c #7F0000",
"6+	c #940000",
"7+	c #A10000",
"8+	c #B40000",
"9+	c #BB0000",
"0+	c #D90000",
"a+	c #6C0000",
"b+	c #610000",
"c+	c #690000",
"d+	c #760000",
"e+	c #8A0000",
"f+	c #BC0000",
"g+	c #C30000",
"                                                                ",
"                                                                ",
"                                                                ",
"                                                                ",
"                                                                ",
"                                                                ",
"                                                                ",
"                                                                ",
"                                                                ",
"                                                                ",
"                                                                ",
"      . + @ @ @ # $ % & * = - ; > , ' ) ! ~ { ] ^ / ( _ :       ",
"    < [ } | 1 1 2 3 4 5 @ 6 7 8 9 ; 0 a b c d { e f g h i j     ",
"  k l m n o p q r s t u v w x y z A B C D E F G H I J K L M N   ",
"  O P Q R S T U V W X Y Z `  ...+.+.+...` @.#.$.%.&.*.=.-.;.>.  ",
"  5 ,.'.).!.~.{.].^./.(._.:.<.[.}.|.1.2.3.4.5.6.7.8.* 4 9.0.a.  ",
"  4 b.c.d.e.f.g.h.i.j.k.l.m.n.o.p.q.r.s.t.u.v.c b > w.x.y.z.A.  ",
"  3 B.C.D.E.F.G.H.I.J.K.L.M.3.N.O.P.Q.R.S.^ T.U.b V.* W.!.X.Y.  ",
"  W.Z.`. +.+++@+#+$+%+&+*+=+-+;+R >+,+'+'+'+)+!+~+{+]+^+/+(+_+  ",
"    B.:+<+[+[+[+}+|+1+2+3+4+Z.5+W.5 6 6+- 7+, b 8+9+T.^ R.0+    ",
"      a+<+[+b+[+}+|+c+2+3+d+b.5+W.e+6 * - 7+a b ! f+g+^ g       ",
"                                                                ",
"                                                                ",
"                                                                ",
"                                                                ",
"                                                                ",
"                                                                ",
"                                                                ",
"                                                                ",
"                                                                ",
"                                                                ",
"                                                                "};
