/* XPM */
static const char * openwalnut_16x16_xpm[] = {
"16 16 92 2",
"  	c None",
". 	c #507AA9",
"+ 	c #537CAB",
"@ 	c #517AAA",
"# 	c #547CAB",
"$ 	c #517BAA",
"% 	c #4F79A9",
"& 	c #4471A4",
"* 	c #7193BA",
"= 	c #84A1C3",
"- 	c #7495BB",
"; 	c #4672A4",
"> 	c #4D77A8",
", 	c #7E9DC0",
"' 	c #F9FAFC",
") 	c #FFFFFF",
"! 	c #FDFDFE",
"~ 	c #86A3C4",
"{ 	c #4B76A7",
"] 	c #4E79A9",
"^ 	c #819FC1",
"/ 	c #FEFEFE",
"( 	c #8DA8C7",
"_ 	c #4E78A9",
": 	c #4A75A6",
"< 	c #FCFDFD",
"[ 	c #8B8B8B",
"} 	c #6D6D6D",
"| 	c #C0C0C0",
"1 	c #C9C9C9",
"2 	c #747474",
"3 	c #808080",
"4 	c #FAFAFA",
"5 	c #4D78A8",
"6 	c #507AAA",
"7 	c #8AA8CA",
"8 	c #272523",
"9 	c #606060",
"0 	c #FDFDFD",
"a 	c #787878",
"b 	c #131211",
"c 	c #93AECD",
"d 	c #738498",
"e 	c #000000",
"f 	c #E0E0E0",
"g 	c #3D3D3D",
"h 	c #FCFCFC",
"i 	c #F6F6F6",
"j 	c #617081",
"k 	c #537CAA",
"l 	c #4A76A8",
"m 	c #445160",
"n 	c #D0D0D0",
"o 	c #BABABA",
"p 	c #343E4A",
"q 	c #4D79AB",
"r 	c #527BAA",
"s 	c #4C78A9",
"t 	c #3B4755",
"u 	c #CECECE",
"v 	c #28323C",
"w 	c #4F7BAE",
"x 	c #4C77A7",
"y 	c #596A7C",
"z 	c #EEEEEE",
"A 	c #090909",
"B 	c #4B5A6B",
"C 	c #8BA8C8",
"D 	c #060403",
"E 	c #AAAAAA",
"F 	c #1A1A1A",
"G 	c #BEBEBE",
"H 	c #8FA8C6",
"I 	c #DDDDDD",
"J 	c #1C1C1C",
"K 	c #838383",
"L 	c #575757",
"M 	c #5E5E5E",
"N 	c #828282",
"O 	c #1B1B1B",
"P 	c #D2D1D0",
"Q 	c #527CAB",
"R 	c #8FAAC8",
"S 	c #E3E3E3",
"T 	c #9CB4CE",
"U 	c #4A75A7",
"V 	c #8EA9C8",
"W 	c #98B0CD",
"X 	c #4874A6",
"Y 	c #83A0C2",
"Z 	c #91ABC9",
"` 	c #85A2C3",
"            . + @ # $           ",
"        @ % & * = - ; % @       ",
"      . > , ' ) ) ) ! ~ { %     ",
"    . ] ^ ) ) ) / ) ) ) ( _ $   ",
"    % : < [ } | ) 1 2 3 4 5 %   ",
"  @ 6 7 8 9 ) 0 ) 0 ) a b c 6 . ",
"  + > d e f ) ) g h ) i e j { + ",
"  k l m e ) ) n e o ) ) e p q % ",
"  r s t e ) ) f e u / ) e v w % ",
"  + x y e z ) ) A ) ) ) e B { + ",
"  6 6 C D E / ) F 4 / G e H 6 . ",
"    % > I J K L ) M N O P Q %   ",
"    $ _ R ) f ) / ) S ) T 5 $   ",
"      % U V ) ) ) ) ) W X %     ",
"        $ % { Y Z ` 5 ] @       ",
"            r . % % +           "};
