/* XPM */
static char *openwalnut[] = {
/* columns rows colors chars-per-pixel */
"32 32 141 2 ",
"   c gray9",
".  c #181818",
"X  c #1E1E1E",
"o  c #202020",
"O  c #222222",
"+  c #232323",
"@  c gray14",
"#  c #252525",
"$  c gray15",
"%  c #272727",
"&  c #282828",
"*  c #2A2A2A",
"=  c gray17",
"-  c #2C2C2C",
";  c #2D2D2D",
":  c gray18",
">  c #323232",
",  c gray20",
"<  c gray21",
"1  c #393939",
"2  c #3A3A3A",
"3  c #3C3C3C",
"4  c #3E3E3E",
"5  c gray25",
"6  c #444444",
"7  c gray27",
"8  c #464646",
"9  c gray28",
"0  c #494949",
"q  c gray29",
"w  c #4B4B4B",
"e  c #4C4C4C",
"r  c gray30",
"t  c #4E4E4E",
"y  c gray31",
"u  c #505050",
"i  c #515151",
"p  c gray32",
"a  c #535353",
"s  c gray33",
"d  c #555555",
"f  c #565656",
"g  c gray34",
"h  c #585858",
"j  c gray35",
"k  c #5A5A5A",
"l  c #5B5B5B",
"z  c gray36",
"x  c #5D5D5D",
"c  c gray37",
"v  c #5F5F5F",
"b  c #606060",
"n  c gray38",
"m  c #626262",
"M  c gray39",
"N  c #646464",
"B  c #656565",
"V  c gray40",
"C  c #676767",
"Z  c #686868",
"A  c DimGray",
"S  c #6A6A6A",
"D  c gray42",
"F  c #6C6C6C",
"G  c #6D6D6D",
"H  c gray43",
"J  c #6F6F6F",
"K  c gray44",
"L  c #717171",
"P  c #727272",
"I  c gray45",
"U  c #747474",
"Y  c gray46",
"T  c #767676",
"R  c #777777",
"E  c gray47",
"W  c #797979",
"Q  c gray48",
"!  c #7B7B7B",
"~  c #7C7C7C",
"^  c gray49",
"/  c #7E7E7E",
"(  c gray50",
")  c #808080",
"_  c #818181",
"`  c gray51",
"'  c #838383",
"]  c #848484",
"[  c gray52",
"{  c #868686",
"}  c gray53",
"|  c #888888",
" . c #898989",
".. c gray54",
"X. c #8B8B8B",
"o. c gray55",
"O. c #8D8D8D",
"+. c #8E8E8E",
"@. c gray56",
"#. c #909090",
"$. c gray57",
"%. c #929292",
"&. c #939393",
"*. c gray58",
"=. c #959595",
"-. c gray59",
";. c #979797",
":. c #989898",
">. c gray60",
",. c #9A9A9A",
"<. c #9B9B9B",
"1. c gray61",
"2. c #9D9D9D",
"3. c gray62",
"4. c #9F9F9F",
"5. c #A0A0A0",
"6. c gray63",
"7. c #A2A2A2",
"8. c gray64",
"9. c #A5A5A5",
"0. c gray65",
"q. c #A7A7A7",
"w. c gray66",
"e. c #A9A9A9",
"r. c #AAAAAA",
"t. c gray67",
"y. c #ACACAC",
"u. c gray68",
"i. c #AFAFAF",
"p. c gray69",
"a. c #B1B1B1",
"s. c #B2B2B2",
"d. c #B4B4B4",
"f. c gray71",
"g. c #B7B7B7",
"h. c gray72",
"j. c #B9B9B9",
"k. c #BCBCBC",
"l. c gray",
"z. c gray75",
"x. c None",
/* pixels */
"x.x.x.x.x.x.x.x.x.x.x.x.x.x.x.x.x.x.x.x.x.x.x.x.x.x.x.x.x.x.x.x.",
"x.x.x.x.x.x.x.x.x.x.x.x.x.x.x.x.x.x.x.x.x.x.x.x.x.x.x.x.x.x.x.x.",
"x.x.x.x.x.x.x.x.x.x.x.x.x.x.x.x.x.x.x.x.x.x.x.x.x.x.x.x.x.x.x.x.",
"x.x.x.x.x.x.x.x.x.x.x.x.x.x.x.x.x.x.x.x.x.x.x.x.x.x.x.x.x.x.x.x.",
"x.x.x.x.x.x.x.x.x.x.x.x.x.x.x.x.x.x.x.x.x.x.x.x.x.x.x.x.x.x.x.x.",
"x.x.x.x.x.x.x.x.x.x.x.x.x.x.x.x.x.x.x.x.x.x.x.x.x.x.x.x.x.x.x.x.",
"x.x.x.x.x.x.x.x.x.x.x.x.x.x.x.) v S x.x.x.x.x.x.x.x.x.x.x.x.x.x.",
"x.x.x.x.x.x.x.x.x.x.x.x.b V K | b F K | / F x.x.x.x.x.x.x.x.x.x.",
"x.x.x.x.x.x.x.x.x.x.| [ Y ) | ) E S v Y Y Y Y / x.x.x.x.x.x.x.x.",
"x.x.x.x.x.x.x.x.x.o.[ [ S F [ 8./ E ) V >.%./ F b x.x.x.x.x.x.x.",
"x.x.x.x.x.x.x.S [ 4.%.[ V b i K K Y F i [ E K K b x.x.x.x.x.x.x.",
"x.x.x.x.x.x.V F E 4.) v V E f 0 4./ k / o.Y S F b F x.x.x.x.x.x.",
"x.x.x.x.x./ / F b S K k / E Y f o./ [ y.4.v V S Y F V x.x.x.x.x.",
"x.x.x.x.x.E o.o.K b V S | K w.V 4.| 4 F [ F F E %.%./ F x.x.x.x.",
"x.x.x.x.V K / [ ) | k k l.) 8.K F f i V i f b F F >.K F x.x.x.x.",
"x.x.x.x./ ) | / v S Y v 8.7.[ f v S K v / 7.*.F E E Y Y x.x.x.x.",
"x.x.x.e V b F e 0 *.b S F F Y / E *.7.%.) | S v | F Y V 0 x.x.x.",
"x.x.9 i f i b b V S v S v v S E V K f k k K 9 9 v f k 9 , O x.x.",
"x.x.x.i V b k b E | y.y.8.>.K F K E S V F S b e i i 9 0 e $ x.x.",
"x.x.x.0 F | E K Y [ 7.l.y.4.>.>.) >.>.7.7.4.8.7.o.v i V S x.x.x.",
"x.x.x.< S / o.*.| [ w.l.h.h.s.8.w.y.>.4.*.8.s.7.| V b b b x.x.x.",
"x.x.x.O k K E %.>.) ) *.s.s.w.8.s.y.4.7.4.>.*./ K S E V 9 x.x.x.",
"x.x.x.x.; V E F K [ Y Y / / %.y.7.f.w.8.4.>.>.o.[ Y F i x.x.x.x.",
"x.x.x.x.. 9 K E F Y Y 4.f.s.f.s.w.h.4.4.4.8.| Y F Y f < x.x.x.x.",
"x.x.x.x.x.& k E o.4.| V Y [ >.*.) / Y V E K k S ) f , x.x.x.x.x.",
"x.x.x.x.x.x.O ; 9 K >.>.%.) E Y S i b ) *.[ ) [ e $ x.x.x.x.x.x.",
"x.x.x.x.x.x.x.x.. 4 v b b v K ) E o.s.f.| F v 4 $ x.x.x.x.x.x.x.",
"x.x.x.x.x.x.x.x.x.x.9 ; $ $ 9 6 4 2 2 < , $ X x.x.x.x.x.x.x.x.x.",
"x.x.x.x.x.x.x.x.x.x.x.x.x.x.  & ; < ; ; x.x.x.x.x.x.x.x.x.x.x.x.",
"x.x.x.x.x.x.x.x.x.x.x.x.x.x.x.x.x.x.x.x.x.x.x.x.x.x.x.x.x.x.x.x.",
"x.x.x.x.x.x.x.x.x.x.x.x.x.x.x.x.x.x.x.x.x.x.x.x.x.x.x.x.x.x.x.x.",
"x.x.x.x.x.x.x.x.x.x.x.x.x.x.x.x.x.x.x.x.x.x.x.x.x.x.x.x.x.x.x.x."
};
