/* XPM */
static const char *openwalnut_32x32_xpm[] = {
/* columns rows colors chars-per-pixel */
"32 32 232 2 ",
"   c #040609",
".  c #0B0B0B",
"X  c #0E1318",
"o  c #111111",
"O  c #111213",
"+  c #171716",
"@  c #131619",
"#  c #181818",
"$  c #1C1B1B",
"%  c gray11",
"&  c #1D1C1C",
"*  c #1E1E1E",
"=  c #1A1F24",
"-  c #1E2125",
";  c #1F2327",
":  c #1F252C",
">  c #202021",
",  c gray13",
"<  c #232323",
"1  c #232426",
"2  c gray14",
"3  c #262625",
"4  c gray15",
"5  c #262727",
"6  c #272727",
"7  c #24262B",
"8  c #25282B",
"9  c gray16",
"0  c #2A2A29",
"q  c #282A2B",
"w  c gray17",
"e  c #2C2C2C",
"r  c #2D2D2D",
"t  c gray18",
"y  c #2F2F2F",
"u  c #292F37",
"i  c gray19",
"p  c #303131",
"a  c #313131",
"s  c gray20",
"d  c #343434",
"f  c #353535",
"g  c gray21",
"h  c #373737",
"j  c #303338",
"k  c #30353A",
"l  c #363A3F",
"z  c gray22",
"x  c #393939",
"c  c #3A3A3A",
"v  c #3C3C3C",
"b  c gray24",
"n  c #3E3E3E",
"m  c #3F3F3F",
"M  c #2C3541",
"N  c #343A40",
"B  c #3E4041",
"V  c #3E4042",
"C  c #3B4147",
"Z  c #37414E",
"A  c gray25",
"S  c #414141",
"D  c gray26",
"F  c #424344",
"G  c #444444",
"H  c gray27",
"J  c #464646",
"K  c gray28",
"L  c #42474C",
"P  c #43484D",
"I  c #44484C",
"U  c #484848",
"Y  c #494949",
"T  c #4A4949",
"R  c gray29",
"E  c #4B4B4B",
"W  c #494B4F",
"Q  c #4C4C4C",
"!  c #4D4C4C",
"~  c gray30",
"^  c #4E4E4E",
"/  c gray31",
"(  c #4B4E51",
")  c #4A4E54",
"_  c #444F5B",
"`  c #505050",
"'  c #515151",
"]  c gray32",
"[  c #535353",
"{  c gray33",
"}  c #555555",
"|  c #565656",
" . c gray34",
".. c #555759",
"X. c #51575E",
"o. c #585858",
"O. c gray35",
"+. c #5A5A5A",
"@. c #5B5B5B",
"#. c gray36",
"$. c #5D5D5C",
"%. c #5D5D5D",
"&. c gray37",
"*. c #5F5F5F",
"=. c #60605F",
"-. c #5B5D60",
";. c #5E6267",
":. c #5D6268",
">. c #5C656F",
",. c #606060",
"<. c gray38",
"1. c #626262",
"2. c gray39",
"3. c #646464",
"4. c #656565",
"5. c gray40",
"6. c #676767",
"7. c #64686B",
"8. c #686868",
"9. c DimGray",
"0. c #6A6A69",
"q. c #6A6A6A",
"w. c gray42",
"e. c #6C6C6C",
"r. c #6D6D6D",
"t. c gray43",
"y. c #6F6F6F",
"u. c #686D73",
"i. c #6E6F70",
"p. c #6B7074",
"a. c #6D747E",
"s. c gray44",
"d. c #717171",
"f. c #707172",
"g. c #727272",
"h. c gray45",
"j. c #747474",
"k. c gray46",
"l. c #767676",
"z. c #777777",
"x. c #787777",
"c. c #74777B",
"v. c #75787B",
"b. c gray47",
"n. c #797979",
"m. c gray48",
"M. c #7A7B7B",
"N. c #7B7B7B",
"B. c #7C7C7C",
"V. c gray49",
"C. c #7E7E7E",
"Z. c gray50",
"A. c #808080",
"S. c #818180",
"D. c #818181",
"F. c gray51",
"G. c #838383",
"H. c #848484",
"J. c #858484",
"K. c gray52",
"L. c #868686",
"P. c gray53",
"I. c #888888",
"U. c #898989",
"Y. c gray54",
"T. c #8B8B8B",
"R. c gray55",
"E. c #8D8D8E",
"W. c #8E8E8E",
"Q. c gray56",
"!. c #909090",
"~. c gray57",
"^. c #929292",
"/. c #939393",
"(. c gray58",
"). c #959594",
"_. c #959595",
"`. c #949697",
"'. c gray59",
"]. c #979797",
"[. c #989898",
"{. c gray60",
"}. c #9A9A9A",
"|. c #9B9B9B",
" X c gray61",
".X c #9D9D9D",
"XX c gray62",
"oX c #9F9F9F",
"OX c #A0A0A0",
"+X c gray63",
"@X c #A2A2A2",
"#X c gray64",
"$X c #A4A4A4",
"%X c #A5A5A5",
"&X c #A7A7A7",
"*X c gray66",
"=X c #A9A9A9",
"-X c #AAAAAA",
";X c gray67",
":X c #ACACAC",
">X c gray68",
",X c #AEAEAE",
"<X c #AFAFAF",
"1X c gray69",
"2X c #B1B1B1",
"3X c #B2B2B2",
"4X c gray70",
"5X c #B4B4B4",
"6X c gray71",
"7X c #B6B6B6",
"8X c #B7B7B7",
"9X c gray72",
"0X c #B9B9B9",
"qX c gray73",
"wX c #BBBBBB",
"eX c gray74",
"rX c gray",
"tX c #C1C1C1",
"yX c gray76",
"uX c #C3C3C3",
"iX c gray77",
"pX c #C5C5C5",
"aX c #C6C6C6",
"sX c gray79",
"dX c #CACACA",
"fX c #CBCBCB",
"gX c gray80",
"hX c #D0D0D0",
"jX c LightGray",
"kX c #DADADA",
"lX c #DDDDDD",
"zX c None",
/* pixels */
"zXzXzXzXzXzXzXzXzXzXzXzXzXzXzXzXzXzXzXzXzXzXzXzXzXzXzXzXzXzXzXzX",
"zXzXzXzXzXzXzXzXzXzXzXzXzXzXzXzXzXzXzXzXzXzXzXzXzXzXzXzXzXzXzXzX",
"zXzXzXzXzXzXzXzXzXzXzXzXzXzXzXzXzXzXzXzXzXzXzXzXzXzXzXzXzXzXzXzX",
"zXzXzXzXzXzXzXzXzXzXzXzXzXzXzX7.X.c.zXzXzXzXzXzXzXzXzXzXzXzXzXzX",
"zXzXzXzXzXzXzXzXzXzXzXzX>.3.J.[.@.q.g.W.c.zXzXzXzXzXzXzXzXzXzXzX",
"zXzXzXzXzXzXzXzXzXzX`.} b.r.Z.r.h.D q.h.q.q.i.zXzXzXzXzXzXzXzXzX",
"zXzXzXzXzXzXzXzXp.n.S.e.Q. XsXR.l.@.] L.I.l.~.<.u.zXzXzXzXzXzXzX",
"zXzXzXzXzXzXa.W.*XL.2X&.-.x XXG.C.n.L.K 7Xl.C.5.I.W zXzXzXzXzXzX",
"zXzXzXzXzX-.P.g.&Xn.L.] 3Xd &.E l.2.5.] q.#XW.@.&.Y ( zXzXzXzXzX",
"zXzXzXzX..&.L.g.~.C.J @.1.<.K { 4X@.<.n.G.W.5.n.5.r.y.L zXzXzXzX",
"zXzXzX:.~.n.5.] } #Xf ).x.].5.` l.q.n.kX2X} b.#.<.).~ M.zXzXzXzX",
"zXzXzX~.r.,Xg.~.&.S.D oXE qXm.r.jXq.w Q n.Z.r.n.L.&XW.S.V zXzXzX",
"zXzXP r.} #X#.).,X6.b gXR.S.lX .g.= r.B.i A D L.e `.).{ <.zXzXzX",
"zXzX).g. Xn.W.p Q T.x eX3X>XE 1.<.S.&.E I.sX&X~.<.W.&.S.&._ zXzX",
"zXzXS.I.g.).f 3.9XG !  X$.m.5. Xr.iX-X3XB.r.Q } ,Xb.C.S.@.Z zXzX",
") @.@.] ] ~ b J N 3 ' z z A  .i b  .A A J 8.f 6 b D e Y Y e w zX",
"zXK 6.} b 2.B./.I.4X&X#X2X#Xr.q.r.{ d G K { K 3 < K &.2 A Q 1 zX",
"zXQ 8.).R.e.@.b.C.>X>X&X#Xn. XS.G.{.].].$XG.*XG.>XZ.#.8.Z.o.zXzX",
"zX8 l.Z.C.R.W.b.[.[.gX7X4X4X[.oX.X%X].$X~.*X$X3X!.b.o.H @.b.zXzX",
"zXM { C.P.).$X/.&.,XeX0XtXiX*X,XiX6XR.].]. X3X$XR.0.o.P.8.N zXzX",
"zXzX< Z.} #.h.~.oX2.@.~.).W.I.0X].XX-X3X3X!.m.x.5.L.C.q.W zXzXzX",
"zXzX@ e C.oXM.&.S.L. XG.q.#X0X*X3XhX{.*X!.-X X].W.r.g.q.D zXzXzX",
"zXzXzXO h.} i.Z.} #.!.wX>XiX,X#X=X).R.%X~.$Xj.,.&.C.q.i zXzXzXzX",
"zXzXzXzX> o.).sX7X#X6.c J I.I. XZ.j.O.a 0.$.x $.*X<.d k zXzXzXzX",
"zXzXzXzXzX1 o . b #X*X,X*X,Xl.r.<.5.[.7X4X0Xl.).5.$ l zXzXzXzXzX",
"zXzXzXzXzXzXzX= =.<.b J q.x r.r.@.eXiXiXg.q.@.w w u zXzXzXzXzXzX",
"zXzXzXzXzXzXzXzXzXC q w $ Y S.x f 4 % # 4 + 7 : zXzXzXzXzXzXzXzX",
"zXzXzXzXzXzXzXzXzXzXzXzXzX  X q 1 P j V zXzXzXzXzXzXzXzXzXzXzXzX",
"zXzXzXzXzXzXzXzXzXzXzXzXzXzXzXzXzXzXzXzXzXzXzXzXzXzXzXzXzXzXzXzX",
"zXzXzXzXzXzXzXzXzXzXzXzXzXzXzXzXzXzXzXzXzXzXzXzXzXzXzXzXzXzXzXzX",
"zXzXzXzXzXzXzXzXzXzXzXzXzXzXzXzXzXzXzXzXzXzXzXzXzXzXzXzXzXzXzXzX",
"zXzXzXzXzXzXzXzXzXzXzXzXzXzXzXzXzXzXzXzXzXzXzXzXzXzXzXzXzXzXzXzX"
};
