/* XPM */
static char * openwalnut_xpm[] = {
"32 32 160 2",
"  	c None",
". 	c #BABABA",
"+ 	c #9A9A9A",
"@ 	c #C0C0C0",
"# 	c #949494",
"$ 	c #979797",
"% 	c #ADADAD",
"& 	c #969696",
"* 	c #808080",
"= 	c #A5A5A5",
"- 	c #B0B0B0",
"; 	c #BEBEBE",
"> 	c #B5B5B5",
", 	c #9C9C9C",
"' 	c #BDBDBD",
") 	c #656565",
"! 	c #767676",
"~ 	c #8B8B8B",
"{ 	c #C3C3C3",
"] 	c #818181",
"^ 	c #8D8D8D",
"/ 	c #A1A1A1",
"( 	c #A4A4A4",
"_ 	c #C9C9C9",
": 	c #C7C7C7",
"< 	c #B9B9B9",
"[ 	c #909090",
"} 	c #B4B4B4",
"| 	c #757575",
"1 	c #898989",
"2 	c #626262",
"3 	c #878787",
"4 	c #838383",
"5 	c #6D6D6D",
"6 	c #6E6E6E",
"7 	c #8C8C8C",
"8 	c #7A7A7A",
"9 	c #848484",
"0 	c #A3A3A3",
"a 	c #B2B2B2",
"b 	c #BBBBBB",
"c 	c #D4D4D4",
"d 	c #CFCFCF",
"e 	c #828282",
"f 	c #9D9D9D",
"g 	c #686868",
"h 	c #6C6C6C",
"i 	c #919191",
"j 	c #7C7C7C",
"k 	c #747474",
"l 	c #5E5E5E",
"m 	c #616161",
"n 	c #989898",
"o 	c #636363",
"p 	c #525252",
"q 	c #707070",
"r 	c #999999",
"s 	c #C6C6C6",
"t 	c #BCBCBC",
"u 	c #797979",
"v 	c #676767",
"w 	c #6F6F6F",
"x 	c #737373",
"y 	c #6B6B6B",
"z 	c #5C5C5C",
"A 	c #5A5A5A",
"B 	c #4F4F4F",
"C 	c #505050",
"D 	c #646464",
"E 	c #777777",
"F 	c #717171",
"G 	c #929292",
"H 	c #BFBFBF",
"I 	c #B7B7B7",
"J 	c #9B9B9B",
"K 	c #959595",
"L 	c #A2A2A2",
"M 	c #7E7E7E",
"N 	c #494949",
"O 	c #484848",
"P 	c #535353",
"Q 	c #4C4C4C",
"R 	c #7B7B7B",
"S 	c #ABABAB",
"T 	c #AAAAAA",
"U 	c #DCDCDC",
"V 	c #B6B6B6",
"W 	c #8E8E8E",
"X 	c #888888",
"Y 	c #575757",
"Z 	c #555555",
"` 	c #515151",
" .	c #4D4D4D",
"..	c #5B5B5B",
"+.	c #5F5F5F",
"@.	c #C1C1C1",
"#.	c #B3B3B3",
"$.	c #939393",
"%.	c #858585",
"&.	c #606060",
"*.	c #4A4A4A",
"=.	c #474747",
"-.	c #5D5D5D",
";.	c #A8A8A8",
">.	c #CECECE",
",.	c #CACACA",
"'.	c #AFAFAF",
").	c #696969",
"!.	c #7D7D7D",
"~.	c #6A6A6A",
"{.	c #FEFEFE",
"].	c #C4C4C4",
"^.	c #B1B1B1",
"/.	c #9E9E9E",
"(.	c #595959",
"_.	c #545454",
":.	c #EEEEEE",
"<.	c #FAFAFA",
"[.	c #7F7F7F",
"}.	c #3F3F3F",
"|.	c #9F9F9F",
"1.	c #CBCBCB",
"2.	c #A9A9A9",
"3.	c #A0A0A0",
"4.	c #F4F4F4",
"5.	c #F5F5F5",
"6.	c #FBFBFB",
"7.	c #FFFFFF",
"8.	c #3C3C3C",
"9.	c #666666",
"0.	c #868686",
"a.	c #E9E9E9",
"b.	c #DDDDDD",
"c.	c #C2C2C2",
"d.	c #E0E0E0",
"e.	c #8F8F8F",
"f.	c #E3E3E3",
"g.	c #F7F7F7",
"h.	c #434343",
"i.	c #424242",
"j.	c #8A8A8A",
"k.	c #CDCDCD",
"l.	c #D0D0D0",
"m.	c #AEAEAE",
"n.	c #B8B8B8",
"o.	c #3D3D3D",
"p.	c #787878",
"q.	c #727272",
"r.	c #4B4B4B",
"s.	c #4E4E4E",
"t.	c #D3D3D3",
"u.	c #ACACAC",
"v.	c #585858",
"w.	c #464646",
"x.	c #565656",
"y.	c #D6D6D6",
"z.	c #A6A6A6",
"A.	c #C5C5C5",
"B.	c #444444",
"C.	c #E7E7E7",
"                                                                ",
"                                                                ",
"                                                                ",
"                                                                ",
"                            .                                   ",
"                  +   @ # $ % & * =   -                         ",
"                ; > @ , ' ) ! % ~ { ] ^ / ( _                   ",
"            . : < [ } | 1 2 > 3 4 5 6 7 / 8 9 0 a b             ",
"          c a 0 d e f g h e i j k l m n o p 6 / q 9 0 r         ",
"        b s t * i u v w x 7 6 ^ m y z A B C D / h E F G H       ",
"      I ' J K L k x 3 M 5 k 1 u M F C N N O p k P Q R S T ^     ",
"    b U b V W X * [ } X 5 5 q o z Y P Z `  .` ..A +.~ e 4 _     ",
"  @.  #.$.$ $ f L %.e %.] &.A z Y P `  .*.=.C A -.m ) h t ;.>.  ",
"  ,.;.#.r '.< 0 E ).!.~.7 {.T Z p ` z &.l ) D C Y ).-.) F u ].  ",
"  ^.@.i /.3 ( # v F (.h _.x :.<.; < K ] ^.[.}.B _.|.$ &.9 $.@   ",
"    < > 1.2.3.i + n [.j 6 C X 4.5.6.7.7.y 8.9.0.9 G ~ & - a.  b.",
"c.@ } S d.^.~ ^.,.j e.w | Q z f.7.c g.].h.i., j.= 0 3.( k.^.;.  ",
"{ l.m.n.S e a W ] F Y y Z ' 7.a   , %.!./.o.N ` ~./.p.{ * @.    ",
"  < m.'.b 0 1 i 8 q q.w k.1 2 r.s.C Z Z -.v P  ...7 l M 9.'.<   ",
"  |.t.  u.X e 8 [.R ] g (.v.-._.s.Q *.w.i.O p Y x.(.y $ #   H   ",
"    % > r [.8 6 +.6 x g 6 D 2 Y P p x.l x.=. .9.9.+.T !.y.      ",
"    @.m.* z.2.~.o 5 v -.u ).M m j q.x -.P N N 1 3.8 h D % A.    ",
"      ( J . |.m 5 h h q j 9 D z 2 O B.r.Y Q s.F ; 0 } r a       ",
"        b } [ * j.4 [ 5 h ! 4 P _.x.%.g M p x.|   A.H |.        ",
"          < / - %.J u 0.7 8 = v.f m e.R 3 !.# e.[ C.            ",
"            C.  J V w |., n ] g /.[ ~ - V   f.                  ",
"                    > 3.J / / I                                 ",
"                                                                ",
"                                                                ",
"                                                                ",
"                                                                ",
"                                                                "};
