/* XPM */
static const char * openwalnut_32x32_xpm[] = {
"32 32 226 2",
"  	c None",
". 	c #5B82AF",
"+ 	c #5981AE",
"@ 	c #557DAC",
"# 	c #537CAB",
"$ 	c #5A81AF",
"% 	c #5A81AE",
"& 	c #567FAD",
"* 	c #547DAC",
"= 	c #4F79A9",
"- 	c #557EAC",
"; 	c #507AAA",
"> 	c #4E79A9",
", 	c #4E78A9",
"' 	c #4D78A8",
") 	c #4874A6",
"! 	c #8EA9C8",
"~ 	c #B0C4D9",
"{ 	c #C1CFE1",
"] 	c #C2D1E2",
"^ 	c #B3C5DA",
"/ 	c #94AECB",
"( 	c #6086B1",
"_ 	c #557DAB",
": 	c #577FAD",
"< 	c #B6C8DC",
"[ 	c #FFFFFF",
"} 	c #C6D4E3",
"| 	c #5C84B0",
"1 	c #527BAB",
"2 	c #4F7AAA",
"3 	c #809EC1",
"4 	c #F0F4F7",
"5 	c #FFFEFF",
"6 	c #F7F9FB",
"7 	c #4C77A8",
"8 	c #5880AE",
"9 	c #7193BA",
"0 	c #86A3C3",
"a 	c #688BB5",
"b 	c #FAFBFC",
"c 	c #FEFEFE",
"d 	c #7596BC",
"e 	c #517BAA",
"f 	c #F4F4F4",
"g 	c #A3A3A3",
"h 	c #686868",
"i 	c #484848",
"j 	c #DBDBDB",
"k 	c #F8F8F8",
"l 	c #464646",
"m 	c #606060",
"n 	c #979797",
"o 	c #E9E9E9",
"p 	c #D1DCE9",
"q 	c #4F79AA",
"r 	c #668BB5",
"s 	c #C9C9C9",
"t 	c #4C4C4C",
"u 	c #000000",
"v 	c #3C3C3C",
"w 	c #B7B7B7",
"x 	c #FBFBFB",
"y 	c #C8C8C8",
"z 	c #545454",
"A 	c #3A3A3A",
"B 	c #B4B4B4",
"C 	c #7092BA",
"D 	c #567EAC",
"E 	c #A5BBD5",
"F 	c #B3B1B0",
"G 	c #050505",
"H 	c #747474",
"I 	c #A0A0A0",
"J 	c #030303",
"K 	c #8E8D8C",
"L 	c #BACBDE",
"M 	c #4A75A7",
"N 	c #4672A5",
"O 	c #D1D8DF",
"P 	c #1F1E1E",
"Q 	c #2F2F2F",
"R 	c #F6F6F6",
"S 	c #FCFCFC",
"T 	c #4B4B4B",
"U 	c #0C0B0B",
"V 	c #D2D4D6",
"W 	c #537EAE",
"X 	c #A19F9C",
"Y 	c #898989",
"Z 	c #B8B8B8",
"` 	c #939393",
" .	c #B0B0B0",
"..	c #6F6C6A",
"+.	c #6A90BB",
"@.	c #5D84B0",
"#.	c #7D9FC6",
"$.	c #393735",
"%.	c #C6C6C6",
"&.	c #DCDCDC",
"*.	c #0A0A0A",
"=.	c #C3C3C3",
"-.	c #EDEDED",
";.	c #090705",
">.	c #8FADCE",
",.	c #5780AD",
"'.	c #90ADCF",
").	c #E5E5E5",
"!.	c #7F7F7F",
"~.	c #768FAA",
"{.	c #4E79AA",
"].	c #547DAB",
"^.	c #7893B1",
"/.	c #F2F2F2",
"(.	c #878787",
"_.	c #5F5F5F",
":.	c #0B0B0B",
"<.	c #586E87",
"[.	c #4F7BAC",
"}.	c #6D87A5",
"|.	c #F3F3F3",
"1.	c #9E9E9E",
"2.	c #787878",
"3.	c #0D0D0D",
"4.	c #4C627A",
"5.	c #507BAD",
"6.	c #5982AE",
"7.	c #7A97B7",
"8.	c #EEEEEE",
"9.	c #BDBDBD",
"0.	c #070707",
"a.	c #A4A4A4",
"b.	c #5A728C",
"c.	c #4F7AAC",
"d.	c #82A3C9",
"e.	c #0C0A08",
"f.	c #DADADA",
"g.	c #171717",
"h.	c #0F0F0F",
"i.	c #D0D0D0",
"j.	c #7C98B9",
"k.	c #4D78A9",
"l.	c #5E87B5",
"m.	c #686663",
"n.	c #ACACAC",
"o.	c #424242",
"p.	c #202020",
"q.	c #D7D7D7",
"r.	c #32302E",
"s.	c #769AC3",
"t.	c #4E78A8",
"u.	c #5B83AF",
"v.	c #4773A6",
"w.	c #BEC3C7",
"x.	c #050404",
"y.	c #6C6C6C",
"z.	c #1B1B1B",
"A.	c #949494",
"B.	c #B1B1B2",
"C.	c #4C77A9",
"D.	c #4B76A7",
"E.	c #AEC2D7",
"F.	c #676664",
"G.	c #2E2E2E",
"H.	c #EFEFEF",
"I.	c #C7C7C7",
"J.	c #333333",
"K.	c #AAAAAA",
"L.	c #F9F9F9",
"M.	c #494847",
"N.	c #BDCADB",
"O.	c #4975A6",
"P.	c #6D91B9",
"Q.	c #F7F7F7",
"R.	c #454545",
"S.	c #757575",
"T.	c #C1C1C1",
"U.	c #CDCDCD",
"V.	c #E6E6E6",
"W.	c #2D2D2D",
"X.	c #A6A6A6",
"Y.	c #969696",
"Z.	c #222222",
"`.	c #EAE9E8",
" +	c #7B9BBF",
".+	c #D0DCE8",
"++	c #707070",
"@+	c #020202",
"#+	c #090909",
"$+	c #111111",
"%+	c #CCCCCC",
"&+	c #E8E8E8",
"*+	c #212121",
"=+	c #4D4D4D",
"-+	c #FDFDFD",
";+	c #DBE4EE",
">+	c #7797BD",
",+	c #E0E0E0",
"'+	c #BFBFBF",
")+	c #D4D4D4",
"!+	c #86A4C4",
"~+	c #8FAAC8",
"{+	c #A9BED5",
"]+	c #99B1CD",
"^+	c #FDFDFE",
"/+	c #AABED6",
"(+	c #567EAD",
"_+	c #688CB6",
":+	c #DFE6F0",
"<+	c #FEFEFF",
"[+	c #ECF0F5",
"}+	c #7495BC",
"|+	c #7697BD",
"1+	c #AFC2D8",
"2+	c #CCD8E6",
"3+	c #D3DEE9",
"4+	c #D4DEEA",
"5+	c #CDD9E7",
"6+	c #B5C6DA",
"7+	c #7F9EC1",
"8+	c #4974A6",
"9+	c #5C83AF",
"0+	c #537DAB",
"a+	c #517AAA",
"b+	c #527BAA",
"c+	c #5C83B0",
"                          . + @ # $ %                           ",
"                  & * = = = = = = = = = = # -                   ",
"                = = ; ; = > , ' ' , , = = ; = =                 ",
"            & ; ; ; ; ) + ! ~ { ] ^ / ( ) = ; ; = -             ",
"          _ = ; ; = : < [ [ [ [ [ [ [ [ } | = ; ; ; 1           ",
"        . 2 ; ; ' 3 4 [ [ [ [ [ [ [ [ 5 [ 6 ! 7 ; ; = 8         ",
"        > ; = ' 9 [ [ [ [ [ [ [ [ [ [ [ [ [ [ 0 7 = ; >         ",
"      ; = ; > a b [ [ [ [ [ [ c c [ [ [ [ [ c [ d , ; ; =       ",
"      = ; ; e } [ [ f g h i j [ [ k l m n o [ [ p - ; ; q       ",
"    - ; ; = r [ s t u v w x [ c c [ [ y z u A B [ C = ; ; D     ",
"    1 ; ; 7 E F G u H [ [ [ c c [ c [ [ [ I u J K L M ; ; =     ",
"    = ; ; N O P u Q R c [ [ c [ [ c [ [ c S T u U V ) = ; =     ",
"    = ; = W X u u Y [ [ [ [ [ Z ` [ [ [ [ [  .u u ..+., ; = @.  ",
"  . = ; ' #.$.u u %.[ [ [ [ &.*.J =.[ [ [ [ -.u u ;.>.7 ; = ,.  ",
"  . = ; 7 '.u u u ).[ [ [ [ g u u !.[ [ [ [ [ u u u ~.{.; = ;   ",
"  ].= ; {.^.u u u /.[ [ [ [ (.u u _.[ [ [ c [ :.u u <.[.; ; ;   ",
"  # = ; {.}.u u u |.[ [ [ [ 1.u u 2.[ [ [ [ [ 3.u u 4.5.; ; ;   ",
"  6.= ; , 7.u u u 8.[ [ [ [ 9.0.u a.[ [ [ [ [ 0.u u b.c.; = ;   ",
"  . = ; ' d.e.u u f.[ [ [ [ o g.h.i.[ [ [ [ [ u u u j.k.; = :   ",
"    = ; = l.m.u u n.[ [ [ [ [ o.p.[ [ [ [ [ q.u u r.s.t.; = u.  ",
"    = ; ; v.w.x.u y.[ [ [ [ [ v z.c [ [ [ [ A.u u B.C.= ; =     ",
"    ; ; ; D.E.F.u G.H.[ c [ I.J._.K.[ [ [ L.l u M.N.O.; ; =     ",
"    - ; ; = P.Q.R.u S.[ [ T.G.U.V.W.X.[ [ Y.u Z.`. +> ; ; *     ",
"      ; ; ; @ .+[ ++@+#+$+3.%+[ [ &+*+:.h.u =+-+;++ ; ; ;       ",
"      = ; ; , >+[ [ ,+n.'+[ [ c c [ [ y K.)+[ [ !+, ; ; =       ",
"        > ; = D.~+[ [ [ [ [ c [ [ c [ [ [ [ [ {+M = ; = @.      ",
"        : = ; ; D.]+^+[ c [ [ [ [ [ [ c [ [ /+M ; ; = (+        ",
"          1 ; ; ; = _+:+[ [ c <+[ c [ [ [+}+= ; ; ; e           ",
"            * = ; ; > ) |+1+2+3+4+5+6+7+8+, ; ; = #             ",
"              9+= ; ; = = , = # # ; , = = ; ; = 8               ",
"                  0+a+= = = ; ; ; ; = = = a+#                   ",
"                        . * = ; ; = b+c+                        "};
