/* XPM */
static const char* const logoIcon_xpm[] = {
/* columns rows colors chars-per-pixel */
"32 32 166 2",
"   c gray25",
".  c #434343",
"X  c #444444",
"o  c #464646",
"O  c gray28",
"+  c #484848",
"@  c #494949",
"#  c gray29",
"$  c #4B4B4B",
"%  c #4C4C4C",
"&  c gray30",
"*  c #4E4E4E",
"=  c gray31",
"-  c #505050",
";  c #515151",
":  c gray32",
">  c #535353",
",  c gray33",
"<  c #555555",
"1  c #565656",
"2  c gray34",
"3  c #585858",
"4  c gray35",
"5  c #5A5A5A",
"6  c #5B5B5B",
"7  c gray36",
"8  c #5D5D5D",
"9  c gray37",
"0  c #5F5F5F",
"q  c #606060",
"w  c #626262",
"e  c gray39",
"r  c #646464",
"t  c gray40",
"y  c #676767",
"u  c #686868",
"i  c DimGray",
"p  c #6A6A6A",
"a  c gray42",
"s  c #6C6C6C",
"d  c #6D6D6D",
"f  c gray43",
"g  c #6F6F6F",
"h  c gray44",
"j  c #717171",
"k  c #727272",
"l  c gray45",
"z  c #747474",
"x  c gray46",
"c  c #767676",
"v  c #777777",
"b  c gray47",
"n  c #797979",
"m  c gray48",
"M  c #7B7B7B",
"N  c #7C7C7C",
"B  c gray49",
"V  c #7E7E7E",
"C  c #7F7F7F",
"Z  c #808080",
"A  c #818181",
"S  c gray51",
"D  c #838383",
"F  c #848484",
"G  c gray52",
"H  c #868686",
"J  c gray53",
"K  c #888888",
"L  c #898989",
"P  c gray54",
"I  c gray55",
"U  c #8D8D8D",
"Y  c #8E8E8E",
"T  c gray56",
"R  c #909090",
"E  c gray57",
"W  c #929292",
"Q  c #939393",
"!  c gray58",
"~  c #959595",
"^  c gray59",
"/  c #979797",
"(  c #989898",
")  c gray60",
"_  c #9B9B9B",
"`  c gray61",
"'  c #9D9D9D",
"]  c gray62",
"[  c #9F9F9F",
"{  c #A0A0A0",
"}  c gray63",
"|  c #A2A2A2",
" . c gray64",
".. c #A4A4A4",
"X. c #A5A5A5",
"o. c gray65",
"O. c #A7A7A7",
"+. c gray66",
"@. c #A9A9A9",
"#. c #AAAAAA",
"$. c gray67",
"%. c #ACACAC",
"&. c gray68",
"*. c #AEAEAE",
"=. c #AFAFAF",
"-. c gray69",
";. c #B1B1B1",
":. c #B2B2B2",
">. c gray70",
",. c #B4B4B4",
"<. c gray71",
"1. c #B6B6B6",
"2. c #B7B7B7",
"3. c gray72",
"4. c #B9B9B9",
"5. c gray73",
"6. c #BBBBBB",
"7. c #BCBCBC",
"8. c gray74",
"9. c gray",
"0. c gray75",
"q. c #C0C0C0",
"w. c gray76",
"e. c #C3C3C3",
"r. c gray77",
"t. c #C5C5C5",
"y. c #C6C6C6",
"u. c gray78",
"i. c #C8C8C8",
"p. c gray79",
"a. c #CACACA",
"s. c #CBCBCB",
"d. c gray80",
"f. c #CDCDCD",
"g. c #CECECE",
"h. c gray81",
"j. c #D0D0D0",
"k. c gray82",
"l. c #D2D2D2",
"z. c LightGray",
"x. c #D5D5D5",
"c. c gray84",
"v. c #D8D8D8",
"b. c gray85",
"n. c #DADADA",
"m. c gray86",
"M. c gainsboro",
"N. c #DDDDDD",
"B. c gray87",
"V. c #DFDFDF",
"C. c #E1E1E1",
"Z. c gray89",
"A. c #E4E4E4",
"S. c gray90",
"D. c #E6E6E6",
"F. c gray91",
"G. c #E9E9E9",
"H. c #EAEAEA",
"J. c gray92",
"K. c #ECECEC",
"L. c #EEEEEE",
"P. c #F1F1F1",
"I. c #F4F4F4",
"U. c #F6F6F6",
"Y. c gray100",
"T. c None",
/* pixels */
"T.T.T.T.T.T.T.T.T.T.T.T.T.T.T.T.T.T.T.T.T.T.T.T.T.T.T.T.T.T.T.T.",
"T.T.T.T.T.T.T.T.T.T.T.T.T.T.T.T.T.T.T.T.T.T.T.T.T.T.T.T.T.T.T.T.",
"T.T.T.T.T.T.T.T.T.T.T.T.T.T.T.T.T.T.T.T.T.T.T.T.T.T.T.T.T.T.T.T.",
"T.T.T.T.T.T.T.T.T.T.T.T.T.T.T.T.T.T.T.T.T.T.T.T.T.T.T.T.T.T.T.T.",
"T.T.T.T.T.T.T.T.T.T.T.T.T.T.T.T.T.T.T.T.T.T.T.T.T.T.T.T.T.T.T.T.",
"T.T.T.T.T.T.T.T.T.T.K.b.y.9.,.q.6.h.T.T.T.T.T.T.T.T.T.T.T.T.T.T.",
"T.T.T.T.T.T.T.T.Z.:.w.+.4.G K { L *.~ } f.k.T.T.T.T.T.T.T.T.T.T.",
"T.T.T.T.T.T.A.l.4.' 2.G +.y J ` U P M S  .T { t.j.T.T.T.T.T.T.T.",
"T.T.T.T.T.C.s.&.k.^ @.z k z o.F N e y ^ j 9 M { F ! p.T.T.T.T.T.",
"T.T.T.T.m.e.>.I _ T d g h U b G u e e p > < k Q B x L W T.T.T.T.",
"T.T.T.T.2.<.@.=.C c x v f x D C M k : & $ & 6 m 4 1 Y e.O.T.T.T.",
"T.T.T.l.s.4.[ K A G o.} z j c a e 9 , > & # , 8 3 0 K J R N.T.T.",
"T.T.c.C.` R ( / ~ I L P z r 0 8 5 < > : - * ; 4 8 p a J =.z.H.T.",
"T.T.4.@.{ { 0.O.E h B l F B.! 9 ; : 5 8 3 7 9 , 7 r 9 v A ! l.T.",
"T.n.a.o.^ / Q #.h s q a 7 F G.D.#.( S n _ M @ : t @.l d Z ` k.T.",
"T.T.q.1.;.0.[ _ I ) M N h > H K.A.U.Y.I.x   p C S _ A { y.l.F.T.",
"T.7.y.%.k.t.} } 3.' U v b 2 V >.5.v.P.3.# o ^ I X.{ } u.d.l.j.T.",
"T.c.r.s.,./ } | A V 8 u e Z C.8.2.X.~ -.F . < 5 b Q I :.! b.Z.T.",
"T.x.j...4.%.P ( N z k j O.~ j , : : > 1 w 9 : & i A a c V k.A.T.",
"T.S.q.L.f.R G N V B V g w 7 8 < = & # O X % > 3 3 0 N W ;.V.T.T.",
"T.T.l.2.$.F G l r p l i j e u 5 2 2 8 0 < + ; f u j ` R P.A.T.T.",
"T.T.T.3.Y Q 6.m y i p q x k c t v p i 4 : # : U X.v z B =.T.T.T.",
"T.T.T.J.@. .p.f f f k d B C h 5 8 $ $ > 5 ; , V z. .>.[ n.T.T.T.",
"T.T.T.T.Z.;. .I W H K v k b J 3 0 8 G h M 2 q S M.5.i.T.T.T.T.T.",
"T.T.T.T.T.T.*.] { _ N Z E D [ q Q h K K G Y / %.x.T.T.T.T.T.T.T.",
"T.T.T.T.T.T.T.T.8.:.I R O.! W l  .=.%.d.g.A.T.T.T.T.T.T.T.T.T.T.",
"T.T.T.T.T.T.T.T.T.T.x.g.G.K.T.T.T.T.T.T.T.T.T.T.T.T.T.T.T.T.T.T.",
"T.T.T.T.T.T.T.T.T.T.T.T.T.T.T.T.T.T.T.T.T.T.T.T.T.T.T.T.T.T.T.T.",
"T.T.T.T.T.T.T.T.T.T.T.T.T.T.T.T.T.T.T.T.T.T.T.T.T.T.T.T.T.T.T.T.",
"T.T.T.T.T.T.T.T.T.T.T.T.T.T.T.T.T.T.T.T.T.T.T.T.T.T.T.T.T.T.T.T.",
"T.T.T.T.T.T.T.T.T.T.T.T.T.T.T.T.T.T.T.T.T.T.T.T.T.T.T.T.T.T.T.T.",
"T.T.T.T.T.T.T.T.T.T.T.T.T.T.T.T.T.T.T.T.T.T.T.T.T.T.T.T.T.T.T.T."
};
