/* XPM */
const char * moduleCrashed_xpm[] = {
"32 32 506 2",
"  	c None",
". 	c #BD0100",
"+ 	c #BE0201",
"@ 	c #BF0201",
"# 	c #C00201",
"$ 	c #C00100",
"% 	c #BE0100",
"& 	c #BF0302",
"* 	c #BD0000",
"= 	c #BC0000",
"- 	c #BE0000",
"; 	c #BF0000",
"> 	c #C00000",
", 	c #C20302",
"' 	c #C20201",
") 	c #C20200",
"! 	c #CE3939",
"~ 	c #E47F7E",
"{ 	c #F1B0AE",
"] 	c #F7C5C3",
"^ 	c #F8CBC9",
"/ 	c #F8CAC8",
"( 	c #F6C4C2",
"_ 	c #F1AFAD",
": 	c #E4807E",
"< 	c #D03A39",
"[ 	c #C10000",
"} 	c #C30100",
"| 	c #C40302",
"1 	c #C40301",
"2 	c #C00202",
"3 	c #DE6E6C",
"4 	c #F6C5C3",
"5 	c #F1B1B0",
"6 	c #EFABAA",
"7 	c #EFAAA8",
"8 	c #EFA8A6",
"9 	c #EEA6A4",
"0 	c #EEA4A2",
"a 	c #EDA19F",
"b 	c #EEA5A3",
"c 	c #F3B9B7",
"d 	c #F6C0BE",
"e 	c #E16F6E",
"f 	c #C40201",
"g 	c #C60302",
"h 	c #C60301",
"i 	c #C10201",
"j 	c #D14140",
"k 	c #F6C2C1",
"l 	c #F1B2B0",
"m 	c #EFA9A8",
"n 	c #EDA2A0",
"o 	c #EDA09E",
"p 	c #ED9E9C",
"q 	c #EC9C9A",
"r 	c #EC9B99",
"s 	c #EB9896",
"t 	c #EA9391",
"u 	c #D74342",
"v 	c #C60000",
"w 	c #C80301",
"x 	c #E17573",
"y 	c #F3B8B6",
"z 	c #EDA3A1",
"A 	c #ED9F9D",
"B 	c #EC9D9B",
"C 	c #EA9694",
"D 	c #EB9492",
"E 	c #E99290",
"F 	c #EA9492",
"G 	c #EA918F",
"H 	c #E9908E",
"I 	c #E98D8B",
"J 	c #E98C8A",
"K 	c #E88684",
"L 	c #E47574",
"M 	c #C70000",
"N 	c #CA0300",
"O 	c #E37A79",
"P 	c #EEA7A5",
"Q 	c #EC9E9C",
"R 	c #EC9C9B",
"S 	c #EA9795",
"T 	c #E48D8B",
"U 	c #FDFFFF",
"V 	c #FCFEFE",
"W 	c #E28381",
"X 	c #E88987",
"Y 	c #E88785",
"Z 	c #E88583",
"` 	c #E78381",
" .	c #E7817F",
"..	c #E7807E",
"+.	c #E78280",
"@.	c #E57977",
"#.	c #C90000",
"$.	c #CB0300",
"%.	c #C30201",
"&.	c #D95655",
"*.	c #EC9A99",
"=.	c #EA9290",
"-.	c #E88E8C",
";.	c #D97A78",
">.	c #FBFDFD",
",.	c #FAF9F9",
"'.	c #FBFEFE",
").	c #D77270",
"!.	c #E6817E",
"~.	c #E67E7C",
"{.	c #E67D7A",
"].	c #E67B78",
"^.	c #E57976",
"/.	c #E57774",
"(.	c #E57673",
"_.	c #E67875",
":.	c #DE5856",
"<.	c #CC0100",
"[.	c #CD0400",
"}.	c #C50402",
"|.	c #C91615",
"1.	c #EEA3A1",
"2.	c #E9918F",
"3.	c #E98F8D",
"4.	c #E88B89",
"5.	c #E88886",
"6.	c #E78583",
"7.	c #CE6A69",
"8.	c #FAFDFD",
"9.	c #F9F8F8",
"0.	c #CC625F",
"a.	c #E47875",
"b.	c #E47472",
"c.	c #E47270",
"d.	c #E4706E",
"e.	c #E46F6C",
"f.	c #E36D6A",
"g.	c #E46B68",
"h.	c #E77E7B",
"i.	c #D21C1B",
"j.	c #CE0501",
"k.	c #C60200",
"l.	c #C40000",
"m.	c #E47877",
"n.	c #E67F7D",
"o.	c #E57C7A",
"p.	c #C35A59",
"q.	c #F8FBFB",
"r.	c #F7F6F6",
"s.	c #C25351",
"t.	c #E26F6C",
"u.	c #E36E6B",
"v.	c #E36C69",
"w.	c #E36A67",
"x.	c #E36865",
"y.	c #E26663",
"z.	c #E26461",
"A.	c #E2625F",
"B.	c #E15B58",
"C.	c #E67270",
"D.	c #CE0000",
"E.	c #D00400",
"F.	c #C70402",
"G.	c #CB1413",
"H.	c #EA908E",
"I.	c #E78482",
"J.	c #E6807E",
"K.	c #E67C7A",
"L.	c #E57A78",
"M.	c #E57876",
"N.	c #E57674",
"O.	c #E37471",
"P.	c #B94D4B",
"Q.	c #F7FAFA",
"R.	c #F5F5F5",
"S.	c #B84543",
"T.	c #E16764",
"U.	c #E26562",
"V.	c #E26360",
"W.	c #E2615E",
"X.	c #E25F5C",
"Y.	c #E25D5A",
"Z.	c #E15A56",
"`.	c #E05855",
" +	c #E56D6A",
".+	c #D51D1C",
"++	c #D10501",
"@+	c #C70200",
"#+	c #D84644",
"$+	c #E57C79",
"%+	c #E57875",
"&+	c #E47471",
"*+	c #E4726F",
"=+	c #E16B69",
"-+	c #AF403D",
";+	c #F6F8F8",
">+	c #F3F3F3",
",+	c #F6F9F9",
"'+	c #AE3937",
")+	c #E05E5B",
"!+	c #E15C59",
"~+	c #E15956",
"{+	c #E05754",
"]+	c #E05552",
"^+	c #E15350",
"/+	c #E1514E",
"(+	c #E04F4C",
"_+	c #DF4C49",
":+	c #E25552",
"<+	c #D20200",
"[+	c #C90200",
"}+	c #C80000",
"|+	c #E06562",
"1+	c #E47371",
"2+	c #E47370",
"3+	c #E4716F",
"4+	c #E36F6D",
"5+	c #E36D6B",
"6+	c #E36B69",
"7+	c #E26A66",
"8+	c #E36765",
"9+	c #E0625F",
"0+	c #A63432",
"a+	c #F4F7F8",
"b+	c #F2F1F1",
"c+	c #F4F7F7",
"d+	c #A52E2C",
"e+	c #DE5552",
"f+	c #E05451",
"g+	c #E0524F",
"h+	c #DF504D",
"i+	c #DF4E4B",
"j+	c #E04C49",
"k+	c #E04A47",
"l+	c #DF4845",
"m+	c #DF4743",
"n+	c #DE3F3B",
"o+	c #E87471",
"p+	c #D20000",
"q+	c #D40400",
"r+	c #CA0000",
"s+	c #E36C6A",
"t+	c #E36B68",
"u+	c #E26966",
"v+	c #E26764",
"w+	c #E15D5A",
"x+	c #DE5A57",
"y+	c #9E2A28",
"z+	c #F3F5F5",
"A+	c #F0F0F0",
"B+	c #F3F5F6",
"C+	c #9D2422",
"D+	c #DD4C4A",
"E+	c #DF4B48",
"F+	c #E04A46",
"G+	c #DF4844",
"H+	c #DF4642",
"I+	c #DE4441",
"J+	c #DE433F",
"K+	c #DF403C",
"L+	c #DF3E3B",
"M+	c #DE3834",
"N+	c #EA7B77",
"O+	c #D40000",
"P+	c #D60500",
"Q+	c #CC0400",
"R+	c #E26865",
"S+	c #E16461",
"T+	c #E1605D",
"U+	c #E15E5B",
"V+	c #E15D59",
"W+	c #E05B57",
"X+	c #E15955",
"Y+	c #E05753",
"Z+	c #DD514E",
"`+	c #96201F",
" @	c #F1F4F4",
".@	c #EEEEEE",
"+@	c #F1F4F5",
"@@	c #951C1A",
"#@	c #DC4541",
"$@	c #DE443F",
"%@	c #DE423E",
"&@	c #DF3E3A",
"*@	c #DE3C38",
"=@	c #DE3A36",
"-@	c #DE3833",
";@	c #DE3631",
">@	c #DE322D",
",@	c #EA7B78",
"'@	c #D60401",
")@	c #D70500",
"!@	c #CD0100",
"~@	c #E05B58",
"{@	c #E05A56",
"]@	c #E15855",
"^@	c #E05653",
"/@	c #DF524F",
"(@	c #DF504C",
"_@	c #E04E4B",
":@	c #DC4946",
"<@	c #911A18",
"[@	c #EFF2F3",
"}@	c #EDECEC",
"|@	c #EFF3F3",
"1@	c #901614",
"2@	c #DB3C38",
"3@	c #DE3B37",
"4@	c #DE3934",
"5@	c #DE3733",
"6@	c #DD3631",
"7@	c #DE3530",
"8@	c #DE312C",
"9@	c #DC2924",
"0@	c #DC2620",
"a@	c #EF928F",
"b@	c #D70200",
"c@	c #D80500",
"d@	c #CE0400",
"e@	c #E05652",
"f@	c #DF4C48",
"g@	c #DF4A47",
"h@	c #DE4845",
"i@	c #DE4744",
"j@	c #DE4440",
"k@	c #DB413E",
"l@	c #901615",
"m@	c #EEF1F1",
"n@	c #EBEBEB",
"o@	c #90110F",
"p@	c #DA302C",
"q@	c #DC2C27",
"r@	c #DC2B25",
"s@	c #DD2D28",
"t@	c #DF3732",
"u@	c #E24843",
"v@	c #E55652",
"w@	c #E65E59",
"x@	c #E4524D",
"y@	c #E03735",
"z@	c #D90A07",
"A@	c #D90500",
"B@	c #D10A08",
"C@	c #D51716",
"D@	c #D82622",
"E@	c #DB312E",
"F@	c #DC3A37",
"G@	c #E04945",
"H@	c #DD4744",
"I@	c #961D1B",
"J@	c #ECEFF0",
"K@	c #EAE9E9",
"L@	c #ECEFEF",
"M@	c #97201D",
"N@	c #E04D49",
"O@	c #E34D48",
"P@	c #E24641",
"Q@	c #E13C37",
"R@	c #DD2B2A",
"S@	c #DB1513",
"T@	c #D80100",
"U@	c #D70000",
"V@	c #DA0600",
"W@	c #DA0700",
"X@	c #DB0600",
"Y@	c #D10400",
"Z@	c #D20400",
"`@	c #D20500",
" #	c #D20300",
".#	c #D20100",
"+#	c #D30000",
"@#	c #D30100",
"##	c #D40300",
"$#	c #D30601",
"%#	c #980000",
"&#	c #EAEEEE",
"*#	c #E8E6E6",
"=#	c #970000",
"-#	c #D80200",
";#	c #DC0700",
">#	c #D20401",
",#	c #D30500",
"'#	c #D40500",
")#	c #D50500",
"!#	c #D50600",
"~#	c #9F0000",
"{#	c #EAF3F3",
"]#	c #E8ECEC",
"^#	c #A00000",
"/#	c #DC0600",
"(#	c #DD0700",
"_#	c #D60600",
":#	c #D70600",
"<#	c #B30400",
"[#	c #A40000",
"}#	c #A50000",
"|#	c #B40400",
"1#	c #DE0700",
"2#	c #DE0600",
"3#	c #D80600",
"4#	c #BC0500",
"5#	c #AF0000",
"6#	c #B00000",
"7#	c #BD0500",
"8#	c #DF0700",
"9#	c #DF0600",
"0#	c #E00600",
"a#	c #DA0500",
"b#	c #D90700",
"c#	c #BB0000",
"d#	c #E4EEEE",
"e#	c #E3E7E7",
"f#	c #DD0600",
"g#	c #E10700",
"h#	c #DB0700",
"i#	c #C50000",
"j#	c #E0E5E5",
"k#	c #E0DEDE",
"l#	c #DD0801",
"m#	c #CF0100",
"n#	c #E0E4E5",
"o#	c #DFDEDE",
"p#	c #D10200",
"q#	c #DF0802",
"r#	c #E00700",
"s#	c #E10600",
"t#	c #E20800",
"u#	c #DD0701",
"v#	c #DE0C05",
"w#	c #DF120B",
"x#	c #E01812",
"y#	c #E21E18",
"z#	c #E2231D",
"A#	c #DD201A",
"B#	c #DFE8E8",
"C#	c #DFE2E2",
"D#	c #DEE2E2",
"E#	c #DF221B",
"F#	c #E4261F",
"G#	c #E5211A",
"H#	c #E31C14",
"I#	c #E3150E",
"J#	c #E21008",
"K#	c #E10A02",
"L#	c #E32620",
"M#	c #E43029",
"N#	c #E53832",
"O#	c #E73F3A",
"P#	c #E84540",
"Q#	c #E84A45",
"R#	c #E94943",
"S#	c #E94B45",
"T#	c #E94A44",
"U#	c #E94D47",
"V#	c #E84842",
"W#	c #E8433C",
"X#	c #E73C35",
"Y#	c #E6342D",
"Z#	c #E52B24",
"`#	c #E4211A",
" $	c #E10B03",
".$	c #E20700",
"+$	c #E42721",
"@$	c #E84843",
"#$	c #E9524D",
"$$	c #EB5C57",
"%$	c #EC6560",
"&$	c #ED6C67",
"*$	c #ED726E",
"=$	c #EE7570",
"-$	c #EE7671",
";$	c #ED746F",
">$	c #ED6F6A",
",$	c #ED6964",
"'$	c #EC615B",
")$	c #EA5751",
"!$	c #EA4E48",
"~$	c #E73932",
"{$	c #E20F08",
"]$	c #E31911",
"^$	c #EF7E79",
"/$	c #F08884",
"($	c #F1928E",
"_$	c #F29996",
":$	c #F39A97",
"<$	c #F29592",
"[$	c #F18D89",
"}$	c #F0827E",
"|$	c #EE7772",
"1$	c #EB5D58",
"2$	c #E10801",
"3$	c #E10500",
"4$	c #E31710",
"5$	c #E83E38",
"6$	c #EC6561",
"7$	c #EF817E",
"8$	c #F29490",
"9$	c #F29794",
"0$	c #F08A86",
"a$	c #EE726D",
"b$	c #E94E48",
"c$	c #E4241D",
"d$	c #E10400",
"e$	c #E10902",
"f$	c #E10903",
"g$	c #E00400",
"                        . + + @ @ @ # $                         ",
"                  % + & * = * - ; - - > , ' )                   ",
"              + & % * ! ~ { ] ^ / ( _ : < [ } | 1               ",
"            @ 2 # 3 4 ( 5 6 7 8 9 0 a b c d e f g h             ",
"          i ; j k l m 7 8 9 0 n o p q r s t r c u v w           ",
"        ' ; x y b b z a A B s C D E F G H I J K p L M N         ",
"      ' [ O P a Q R r s S T U V V U W X Y Z `  ...+.@.#.$.      ",
"    %.} &.n *.s C F =.H -.;.>.,.,.'.).!.~.{.].^./.(._.:.<.[.    ",
"    }.|.1.t 2.3.I 4.X 5.6.7.8.9.9.8.0.a.(.b.c.d.e.f.g.h.i.j.    ",
"  k.l.m.4.4.X Y 6.`  .n.o.p.q.r.r.q.s.t.u.v.w.x.y.z.A.B.C.D.E.  ",
"  F.G.H.I.+.J.~.K.L.M.N.O.P.Q.R.R.Q.S.T.U.V.W.X.Y.B.Z.`. +.+++  ",
"  @+#+~.$+@.%+(.&+*+d.u.=+-+;+>+>+,+'+)+!+B.~+{+]+^+/+(+_+:+<+  ",
"[+}+|+1+2+3+4+5+6+7+8+y.9+0+a+b+b+c+d+e+f+g+h+i+j+k+l+m+n+o+p+q+",
"N r+s+v.t+u+v+U.V.W.X.w+x+y+z+A+A+B+C+D+E+F+G+H+I+J+K+L+M+N+O+P+",
"Q+<.R+S+A.T+U+V+W+X+Y+f+Z+`+ @.@.@+@@@#@$@%@K+&@*@=@-@;@>@,@'@)@",
"[.!@T+~@{@]@^@f+/@(@_@_+:@<@[@}@}@|@1@2@3@4@5@6@7@8@9@0@8@a@b@c@",
"d@D.e@e@g+i+f@g@h@i@H+j@k@l@m@n@n@m@o@p@q@r@s@t@u@v@w@x@y@z@A@A@",
"E.E.B@C@D@E@F@%@H+G+G@G@H@I@J@K@K@L@M@N@O@P@Q@R@S@T@U@T@V@W@V@X@",
"Y@Z@`@`@Z@ #.#+#+#@###q+$#%#&#*#*#&#=#O+U@-#A@W@V@V@V@X@X@X@;#;#",
">#,#,#'#'#'#)#)#)#P+P+P+!#~#{#]#]#{#^#)@A@V@V@X@X@X@/#;#;#(#(#(#",
"  '#)#!#!#_#_#_#:#:#:#)@c@<#[#[#}#}#|#V@X@X@/#;#;#(#(#(#1#1#2#  ",
"  )#_#_#:#:#:#3#3#c@A@A@A@4#5#5#5#6#7#/#/#/#(#(#1#1#1#8#8#9#0#  ",
"  :#:#:#3#c@A@A@A@a#V@V@b#c#d#e#e#d#= /#f#1#1#1#8#9#0#0#0#g#g#  ",
"    c@A@A@A@V@V@X@X@X@/#h#i#j#k#k#j#v 1#9#9#9#0#0#0#g#g#g#g#    ",
"    V@V@V@X@X@/#/#/#/#f#l#m#n#o#o#n#p#q#r#0#g#s#g#t#g#g#t#t#    ",
"      X@;#;#/#u#v#w#x#y#z#A#B#C#D#B#E#F#G#H#I#J#K#g#g#t#t#      ",
"        (#f#2#x#L#M#N#O#P#Q#R#S#S#T#U#V#W#X#Y#Z#`# $g#.$        ",
"          9#9#8#+$@$#$$$%$&$*$=$-$;$>$,$'$)$!$~${$g#g#          ",
"            r#g#s#]$U#>$^$/$($_$:$<$[$}$|$1$Z#2$g#g#            ",
"              g#g#g#3$4$5$6$7$8$9$0$a$b$c$2$s#g#g#              ",
"                  .$g#g#3$d$3$e$f$g#g$d$g#g#g#                  ",
"                        0#g#g#g#g#g#g#g#                        "};
