/* XPM */
const char * popup_more_xpm[] = {
"16 16 52 1",
" 	c None",
".	c #BCBEB8",
"+	c #B6BAB4",
"@	c #A5A7A2",
"#	c #A0A39D",
"$	c #BBBDB7",
"%	c #FBFBFA",
"&	c #F7F7F7",
"*	c #AAAEA7",
"=	c #CACBC9",
"-	c #FDFDFC",
";	c #FBFAFA",
">	c #7F827B",
",	c #B2B6AF",
"'	c #EEEEED",
")	c #F2F2F0",
"!	c #FFFFFF",
"~	c #A6A7A3",
"{	c #B3B5B2",
"]	c #FCFCFB",
"^	c #EFEFED",
"/	c #C8CAC7",
"(	c #7E7F7A",
"_	c #A4A6A1",
":	c #F8F8F8",
"<	c #9C9F9B",
"[	c #C8CAC6",
"}	c #FBFBFB",
"|	c #F1F0EF",
"1	c #CCCECA",
"2	c #9DA19B",
"3	c #E9E9E7",
"4	c #EFEFEE",
"5	c #FFFFFE",
"6	c #AFB1AD",
"7	c #F9FAF9",
"8	c #E7E8E6",
"9	c #CACBC8",
"0	c #72746F",
"a	c #949892",
"b	c #E7E7E5",
"c	c #E7E8E5",
"d	c #F6F6F6",
"e	c #EAEBE8",
"f	c #C7C9C5",
"g	c #8F918C",
"h	c #DFDFDD",
"i	c #E1E2DF",
"j	c #C4C5C2",
"k	c #6D6F6B",
"l	c #878A84",
"m	c #B5B7B3",
"                ",
"                ",
"                ",
"                ",
"   .+       @#  ",
"  $%&*     =-;> ",
"  ,')!~   {]^/( ",
"   _'):< [}|1   ",
"    234567890   ",
"     abcdef     ",
"      ghijk     ",
"       lm       ",
"        0       ",
"                ",
"                ",
"                "};
