/* XPM */
const char * popup_close_xpm[] = {
"16 16 61 1",
" 	c None",
".	c #AEB1A9",
"+	c #E0E1DF",
"@	c #8B8F88",
"#	c #8B8E88",
"$	c #DFE0DF",
"%	c #F0F1EC",
"&	c #F0F0EC",
"*	c #8F928D",
"=	c #8D928A",
"-	c #ECEDEA",
";	c #F2F5EF",
">	c #EEF0ED",
",	c #EEF0EA",
"'	c #F1F1F0",
")	c #90918C",
"!	c #90938C",
"~	c #EFF0EE",
"{	c #F1F4EE",
"]	c #F0F2EE",
"^	c #8D908A",
"/	c #F0F0EF",
"(	c #F2F4EE",
"_	c #F2F5F2",
":	c #F2F4F0",
"<	c #F6F7F2",
"[	c #EFF0EF",
"}	c #91928B",
"|	c #F5F7F1",
"1	c #F7F9F4",
"2	c #91938C",
"3	c #8F918B",
"4	c #F2F2EE",
"5	c #F2F4EF",
"6	c #F3F5F0",
"7	c #8F918C",
"8	c #8E928B",
"9	c #F1F2F0",
"0	c #ECEEEA",
"a	c #EFF1EE",
"b	c #F0F2EC",
"c	c #8F928A",
"d	c #8C8F88",
"e	c #EDEFEB",
"f	c #E7E9E3",
"g	c #90928B",
"h	c #EAEDE8",
"i	c #EEF0EC",
"j	c #8C8E88",
"k	c #E1E2E0",
"l	c #E9ECE7",
"m	c #EEF0EB",
"n	c #8B9089",
"o	c #8B8D87",
"p	c #EBECE9",
"q	c #EEF1EB",
"r	c #A8AAA2",
"s	c #868983",
"t	c #878983",
"u	c #DEDFDE",
"v	c #ACAFA9",
"                ",
"                ",
"                ",
"   .+@    #$.   ",
"   +%&*  =-;+   ",
"   #>,')!~{]@   ",
"    ^/(_:<[=    ",
"     }]|1:2     ",
"     3456:7     ",
"    890]ab'c    ",
"   def93g[hij   ",
"   klmn  opq+   ",
"   r+s    tuv   ",
"                ",
"                ",
"                "};
