/* XPM */
static const char * projSave_xpm[] = {
"16 16 7 1",
" 	c None",
".	c #4650FF",
"+	c #000000",
"@	c #FFFF00",
"#	c #E0E0E0",
"$	c #FFFFFF",
"%	c #C0C0C0",
"..+++++++++++.. ",
"..@@@@@@@@@@@.. ",
"..###########.. ",
"..$$$$$$$$$$$.. ",
"..###########.. ",
"..$$$$$$$$$$$.. ",
"..###########.. ",
"..$$$$$$$$$$$.. ",
"............... ",
"....%%%%%%%.... ",
"....%..%%%%.... ",
"....%..%%%%.... ",
"....%..%%%%.... ",
"....%..%%%%.... ",
" ...%%%%%%%.... ",
"                "};
