/* XPM */
const char * QuestionMarks_xpm[] = {
"32 32 3 1",
" 	c None",
".	c #000000",
"+	c #7C0000",
"                                ",
"                        ....    ",
"                       ......   ",
"     ......            .   ...  ",
"   .........                ..  ",
"  ...........               ..  ",
"  ...    .....             ..   ",
"  .       ....            ..    ",
"           ...           ..     ",
"           ...           ..     ",
"          ...            ..     ",
"         ....   +++++           ",
"        ....   +++++++   ..     ",
"        ...   ++    +++  ..     ",
"       ...    +      ++         ",
"      ...            ++         ",
"      ...            ++         ",
"      ...           ++          ",
"      ...          +++          ",
"                  +++           ",
"                 +++            ",
"      ...        ++             ",
"      ...        ++             ",
"      ...        ++             ",
"      ...                       ",
"                                ",
"                 ++             ",
"                 ++             ",
"                 ++             ",
"                                ",
"                                ",
"                                "};
