/* XPM */
const char * undo_xpm[] = {
"16 16 57 1",
" 	c None",
".	c #C3A000",
"+	c #C4A000",
"@	c #DDC76A",
"#	c #FDFBF4",
"$	c #C29E00",
"%	c #DBC666",
"&	c #FEFEFB",
"*	c #C09E00",
"=	c #BC9900",
"-	c #D5BF58",
";	c #FDFBED",
">	c #BB9900",
",	c #BA9B0E",
"'	c #FAF6D4",
")	c #FAF2AF",
"!	c #F7EB89",
"~	c #F5E985",
"{	c #DFCB57",
"]	c #C3A71E",
"^	c #B59400",
"/	c #AE9000",
"(	c #C8AF36",
"_	c #F6EFB0",
":	c #AF8F00",
"<	c #B49607",
"[	c #CEB528",
"}	c #EDDB50",
"|	c #BEA213",
"1	c #A98B00",
"2	c #C1A924",
"3	c #F2E682",
"4	c #A98900",
"5	c #A98A00",
"6	c #C8AE12",
"7	c #D6BD19",
"8	c #A58400",
"9	c #BBA015",
"0	c #CEB629",
"a	c #A48500",
"b	c #AE8F01",
"c	c #E9D004",
"d	c #9E8000",
"e	c #C3A80C",
"f	c #D4BA11",
"g	c #9D7F00",
"h	c #9C7F00",
"i	c #A38704",
"j	c #C5AB16",
"k	c #EED92C",
"l	c #B0940B",
"m	c #F9E648",
"n	c #FAE747",
"o	c #F7E445",
"p	c #D8C12D",
"q	c #B19610",
"r	c #9B8000",
"                ",
"                ",
"   .+           ",
"  .@#+          ",
" $%&%*          ",
"=-;->>>>>>>>>   ",
",')!!!!!!!!~{]^ ",
"/(_(:::::::<[}| ",
" 12324      5675",
"  890a       bca",
"   dd       defd",
"         ghijkl ",
"         mnopqr ",
"         ghhh   ",
"                ",
"                "};
