/* XPM */
static const char * WMReadRawData_xpm[] = {
"32 32 3 1",
" 	c None",
".	c #000000",
"+	c #313196",
".........                       ",
"..........                      ",
"..      ...                     ",
".. ++++++..+++++++++++++++++++++",
".. +   +...+   +   +   +   +   +",
".......... +   +   +   +   +   +",
".........  +   +   +   +   +   +",
".. +++..++++++++++++++++++++++++",
".. +  ...  +   +   +   +   +   +",
".. +   ... +   +   +   +   +   +",
".. +   +.. +   +   +   +   +   +",
".. +++++...+++++++++++++++++++++",
".. +   + ...   +   +   +   +   +",
"   +   +   +   +   +   +   +   +",
"   +   +   +   +   +   +   +   +",
"   +++++++++++++++++++++++++++++",
"   +   +   +   +   +   +   +   +",
"   +   +   +   +   +   +   +   +",
"   +   +   +   +   +   +   +   +",
"   +++++++++++++++++++++++++++++",
"   +   +   +   +   +   +   +   +",
"   +   +   +   +   +   +   +   +",
"   +   +   +   +   +   +   +   +",
"   +++++++++++++++++++++++++++++",
"   +   +   +   +   +   +   +   +",
"   +   +   +   +   +   +   +   +",
"   +   +   +   +   +   +   +   +",
"   +++++++++++++++++++++++++++++",
"   +   +   +   +   +   +   +   +",
"   +   +   +   +   +   +   +   +",
"   +   +   +   +   +   +   +   +",
"   +++++++++++++++++++++++++++++"};
