/* XPM */
static const char * probtractdisplay_xpm[] = {
"32 32 606 2",
"  	c None",
". 	c #E6E6E6",
"+ 	c #E6E7E7",
"@ 	c #E5E6E6",
"# 	c #D2B7C0",
"$ 	c #DFA1A2",
"% 	c #D2AAB3",
"& 	c #DFDADD",
"* 	c #E3E3E4",
"= 	c #E7EAE9",
"- 	c #E5E5E5",
"; 	c #DFD8DB",
"> 	c #D49CA7",
", 	c #DABCC2",
"' 	c #D5BAC1",
") 	c #BF3D55",
"! 	c #EE2F20",
"~ 	c #F44126",
"{ 	c #D30C1D",
"] 	c #DD1318",
"^ 	c #C53D50",
"/ 	c #C87E8E",
"( 	c #E11413",
"_ 	c #E5201E",
": 	c #C86878",
"< 	c #E8ECEB",
"[ 	c #E6E5E5",
"} 	c #E7E8E8",
"| 	c #CD3F4D",
"1 	c #EC2A1F",
"2 	c #F9512A",
"3 	c #F03D26",
"4 	c #AF0023",
"5 	c #FB572C",
"6 	c #FB5D2D",
"7 	c #C63A49",
"8 	c #E7EDEC",
"9 	c #D19AA6",
"0 	c #CA0A22",
"a 	c #F8502A",
"b 	c #C51024",
"c 	c #B71735",
"d 	c #E03A35",
"e 	c #BB445A",
"f 	c #E6EAE9",
"g 	c #D6B4BE",
"h 	c #D7BDC4",
"i 	c #D0A1AC",
"j 	c #9F2D4C",
"k 	c #BC3D58",
"l 	c #ED3722",
"m 	c #FD612F",
"n 	c #FC6230",
"o 	c #EB3123",
"p 	c #DA1B22",
"q 	c #FD8439",
"r 	c #FD6C32",
"s 	c #DB4549",
"t 	c #E6ECEC",
"u 	c #DCD0D4",
"v 	c #BD001E",
"w 	c #FB7034",
"x 	c #F44B2A",
"y 	c #E21D1F",
"z 	c #F54829",
"A 	c #AA0010",
"B 	c #B5667D",
"C 	c #E11716",
"D 	c #C91A2C",
"E 	c #E0E3E4",
"F 	c #D28895",
"G 	c #DCD2D5",
"H 	c #9B0428",
"I 	c #B66379",
"J 	c #CB0920",
"K 	c #FC6F33",
"L 	c #FC582C",
"M 	c #EB2F23",
"N 	c #DF181E",
"O 	c #FA622F",
"P 	c #FD893B",
"Q 	c #D7252C",
"R 	c #C95163",
"S 	c #E7ECEB",
"T 	c #D4B5BE",
"U 	c #DD141C",
"V 	c #FD853A",
"W 	c #FB542B",
"X 	c #E32520",
"Y 	c #CAAAB4",
"Z 	c #C90419",
"` 	c #B22E4A",
" .	c #E4E4E4",
"..	c #BF2F42",
"+.	c #F23E1F",
"@.	c #CEB4BD",
"#.	c #DDCFD3",
"$.	c #EDF8F5",
"%.	c #8C0026",
"&.	c #CE0A20",
"*.	c #FD7C36",
"=.	c #F23F26",
"-.	c #D10F21",
";.	c #FA6230",
">.	c #FD9D42",
",.	c #DE412E",
"'.	c #930329",
").	c #BD8292",
"!.	c #D497A3",
"~.	c #E51F1E",
"{.	c #F84C29",
"].	c #FC7334",
"^.	c #FD7C37",
"/.	c #F5512B",
"(.	c #B45A70",
"_.	c #BE8796",
":.	c #9B001D",
"<.	c #C9A1AC",
"[.	c #9E1638",
"}.	c #F34829",
"|.	c #C71121",
"1.	c #D9CBCF",
"2.	c #B94B65",
"3.	c #E7E9E8",
"4.	c #DBCACE",
"5.	c #CF1225",
"6.	c #FB7635",
"7.	c #FC6A32",
"8.	c #FC873B",
"9.	c #FFA044",
"0.	c #EB3924",
"a.	c #9D062A",
"b.	c #8C0023",
"c.	c #9B0E31",
"d.	c #D4B7BE",
"e.	c #D1A4AF",
"f.	c #D30D1F",
"g.	c #CA0922",
"h.	c #EB2B21",
"i.	c #FD7936",
"j.	c #FD8B3C",
"k.	c #CE1623",
"l.	c #BC798D",
"m.	c #960024",
"n.	c #A60023",
"o.	c #F34D2B",
"p.	c #CE1518",
"q.	c #D1B4BD",
"r.	c #C75668",
"s.	c #CA9FAB",
"t.	c #E9EFED",
"u.	c #9A2646",
"v.	c #E8EBEA",
"w.	c #AA5169",
"x.	c #CF0A1E",
"y.	c #FB8A3D",
"z.	c #FDA948",
"A.	c #FEA244",
"B.	c #AF071B",
"C.	c #D1AFBA",
"D.	c #CCAAB4",
"E.	c #8F0329",
"F.	c #9F1134",
"G.	c #BF8595",
"H.	c #E5E7E7",
"I.	c #BA2A42",
"J.	c #B41534",
"K.	c #AE1737",
"L.	c #F7532C",
"M.	c #FC933F",
"N.	c #F5592B",
"O.	c #E32321",
"P.	c #F44227",
"Q.	c #DF3028",
"R.	c #D5B6BE",
"S.	c #E7E9E9",
"T.	c #E9F0EE",
"U.	c #C21931",
"V.	c #A31B3C",
"W.	c #AA3F5A",
"X.	c #EBF3F1",
"Y.	c #AF4962",
"Z.	c #ED2D21",
"`.	c #FEAD4E",
" +	c #FDAF50",
".+	c #C93B45",
"++	c #E9F1F0",
"@+	c #E2DFE0",
"#+	c #D6C1C8",
"$+	c #9D2141",
"%+	c #960025",
"&+	c #DFD8DA",
"*+	c #C79EAA",
"=+	c #C08696",
"-+	c #CDB5BD",
";+	c #C20B1D",
">+	c #FC6931",
",+	c #FC943F",
"'+	c #FEAB48",
")+	c #FA7135",
"!+	c #F84C2B",
"~+	c #D9BCC2",
"{+	c #E6E8E8",
"]+	c #C38F9E",
"^+	c #C40822",
"/+	c #E9EEEC",
"(+	c #E4E3E3",
"_+	c #C9919E",
":+	c #F24025",
"<+	c #FECE6A",
"[+	c #EA6732",
"}+	c #DFDDDF",
"|+	c #B44C66",
"1+	c #C4001D",
"2+	c #BD0121",
"3+	c #C796A3",
"4+	c #E1DBDC",
"5+	c #E6E7E6",
"6+	c #9F3552",
"7+	c #AF2947",
"8+	c #F64026",
"9+	c #FD8138",
"0+	c #FEB04B",
"a+	c #FD873B",
"b+	c #F5482B",
"c+	c #E4D8DA",
"d+	c #D9C5CA",
"e+	c #A80025",
"f+	c #BF2F49",
"g+	c #A52947",
"h+	c #F44627",
"i+	c #FED775",
"j+	c #E8582C",
"k+	c #DAD1D5",
"l+	c #AD5970",
"m+	c #C10321",
"n+	c #CC0922",
"o+	c #AE0226",
"p+	c #DAC8CD",
"q+	c #E9EEED",
"r+	c #B44C65",
"s+	c #C20621",
"t+	c #F9582D",
"u+	c #FEB04E",
"v+	c #FD9240",
"w+	c #F5472B",
"x+	c #E6DEDE",
"y+	c #CAA4AF",
"z+	c #AB0024",
"A+	c #B9001C",
"B+	c #D7BEC5",
"C+	c #D2B5BD",
"D+	c #AE1B3B",
"E+	c #F44728",
"F+	c #FED977",
"G+	c #F87435",
"H+	c #A52546",
"I+	c #AD4C65",
"J+	c #CA0620",
"K+	c #B50324",
"L+	c #D7C3C9",
"M+	c #D4B9C1",
"N+	c #D2B7BF",
"O+	c #E5E6E5",
"P+	c #CEA9B3",
"Q+	c #CB0B23",
"R+	c #FD9744",
"S+	c #FEAF52",
"T+	c #F84727",
"U+	c #B31F3A",
"V+	c #C297A3",
"W+	c #A30022",
"X+	c #C10526",
"Y+	c #CEA8B3",
"Z+	c #CFADB6",
"`+	c #BC0023",
" @	c #F34126",
".@	c #FEDA79",
"+@	c #FE9942",
"@@	c #E22923",
"#@	c #AF0021",
"$@	c #BC0929",
"%@	c #C69BA8",
"&@	c #CDA5AF",
"*@	c #C89DA9",
"=@	c #E4E2E3",
"-@	c #A53655",
";@	c #F66530",
">@	c #FECE67",
",@	c #F9532B",
"'@	c #DC131E",
")@	c #A4183A",
"!@	c #CB051E",
"~@	c #A83653",
"{@	c #E4E3E4",
"]@	c #CEA5AF",
"^@	c #980024",
"/@	c #F24E2B",
"(@	c #FEDC7D",
"_@	c #FD9644",
":@	c #EE3524",
"<@	c #BD0628",
"[@	c #AE4E67",
"}@	c #E8EAEA",
"|@	c #BD8091",
"1@	c #E0D6D9",
"2@	c #D2B8C0",
"3@	c #EE4825",
"4@	c #FED46E",
"5@	c #FD8C3D",
"6@	c #D91521",
"7@	c #B30325",
"8@	c #CA2D41",
"9@	c #A73350",
"0@	c #A60425",
"a@	c #FA6931",
"b@	c #FED97A",
"c@	c #FEB75B",
"d@	c #DB2027",
"e@	c #DFD1D5",
"f@	c #E0D9DB",
"g@	c #C698A5",
"h@	c #EAF2F0",
"i@	c #E3E0E1",
"j@	c #9B1439",
"k@	c #F45A2E",
"l@	c #FED471",
"m@	c #FEC460",
"n@	c #EF3A25",
"o@	c #96072D",
"p@	c #AD062A",
"q@	c #D9C9CE",
"r@	c #E8EDEB",
"s@	c #B02946",
"t@	c #B40021",
"u@	c #EC3023",
"v@	c #FB582C",
"w@	c #FECB6A",
"x@	c #F87336",
"y@	c #AE324F",
"z@	c #E4E2E2",
"A@	c #A8445E",
"B@	c #A90429",
"C@	c #A54F68",
"D@	c #BA4963",
"E@	c #E02725",
"F@	c #FE9A40",
"G@	c #FED87A",
"H@	c #FDC763",
"I@	c #FC602F",
"J@	c #C97685",
"K@	c #970015",
"L@	c #D3B9C0",
"M@	c #E8EDEC",
"N@	c #AC1636",
"O@	c #D51121",
"P@	c #FD6531",
"Q@	c #F33B24",
"R@	c #FD9F49",
"S@	c #FDE184",
"T@	c #FEC25E",
"U@	c #F3502C",
"V@	c #B02D4B",
"W@	c #C04559",
"X@	c #C594A2",
"Y@	c #EBF4F1",
"Z@	c #B21F3F",
"`@	c #A30128",
" #	c #C91C25",
".#	c #FE923E",
"+#	c #FEB956",
"@#	c #FDE287",
"##	c #FDAA4D",
"$#	c #FC522B",
"%#	c #BE081E",
"&#	c #B00022",
"*#	c #D5BBC2",
"=#	c #E8EEEC",
"-#	c #BA122D",
";#	c #E42220",
">#	c #FD7135",
",#	c #F84929",
"'#	c #F8512A",
")#	c #FEBC5B",
"!#	c #FEE187",
"~#	c #FEB552",
"{#	c #F85A2D",
"]#	c #E1201F",
"^#	c #B6657B",
"/#	c #D5BDC3",
"(#	c #C92F35",
"_#	c #FE9A41",
":#	c #FEA646",
"<#	c #FDD87A",
"[#	c #FED778",
"}#	c #FC7C37",
"|#	c #F84528",
"1#	c #D71C22",
"2#	c #9D0021",
"3#	c #C18393",
"4#	c #E8EEED",
"5#	c #B20B2D",
"6#	c #D20C20",
"7#	c #FE6B31",
"8#	c #FC5D2E",
"9#	c #EA271F",
"0#	c #F64D2A",
"a#	c #FEBE5C",
"b#	c #FEB351",
"c#	c #FA7034",
"d#	c #BF132B",
"e#	c #CD7A8C",
"f#	c #DCD1D6",
"g#	c #E7F0F0",
"h#	c #BA768A",
"i#	c #BD223C",
"j#	c #F25A2F",
"k#	c #FEA045",
"l#	c #FEA847",
"m#	c #FDD678",
"n#	c #FEDF80",
"o#	c #FD7A37",
"p#	c #F54227",
"q#	c #E22623",
"r#	c #A30026",
"s#	c #B00025",
"t#	c #AC2545",
"u#	c #B64C65",
"v#	c #EBF6F4",
"w#	c #ECF5F3",
"x#	c #CDA8B2",
"y#	c #991337",
"z#	c #F34C29",
"A#	c #FD7736",
"B#	c #DD1B20",
"C#	c #AA1534",
"D#	c #EB3A22",
"E#	c #FEBC5C",
"F#	c #FEE389",
"G#	c #FDBD59",
"H#	c #FF9E43",
"I#	c #FC873A",
"J#	c #F58442",
"K#	c #F68A47",
"L#	c #F37D38",
"M#	c #FF9D43",
"N#	c #FEA747",
"O#	c #FDA947",
"P#	c #FED97C",
"Q#	c #FFD777",
"R#	c #E24125",
"S#	c #CB0E1F",
"T#	c #FE6E33",
"U#	c #FB592D",
"V#	c #C11D25",
"W#	c #9B1538",
"X#	c #D00C22",
"Y#	c #D00C20",
"Z#	c #CC081F",
"`#	c #9F0017",
" $	c #8E0020",
".$	c #B66177",
"+$	c #E3DFE0",
"@$	c #DED6DA",
"#$	c #DA332C",
"$$	c #FD8339",
"%$	c #D11C23",
"&$	c #D4C3CA",
"*$	c #BF798B",
"=$	c #E43622",
"-$	c #FEB658",
";$	c #FEE58C",
">$	c #FEC563",
",$	c #FDA746",
"'$	c #FEA546",
")$	c #FEA547",
"!$	c #FDA345",
"~$	c #FDAD4C",
"{$	c #FFDE81",
"]$	c #FBB96B",
"^$	c #D76968",
"/$	c #DCD4DA",
"($	c #BF4B61",
"_$	c #FD6530",
":$	c #FD7535",
"<$	c #C94046",
"[$	c #AE576F",
"}$	c #B92B47",
"|$	c #C8162C",
"1$	c #BF122E",
"2$	c #A20025",
"3$	c #9A1033",
"4$	c #D2BBC2",
"5$	c #E6EDEC",
"6$	c #E04F4C",
"7$	c #D73639",
"8$	c #E8F3F1",
"9$	c #E8F5F4",
"0$	c #DE4E47",
"a$	c #FEA74D",
"b$	c #FFE48F",
"c$	c #FEDA7D",
"d$	c #FEC05D",
"e$	c #FEB152",
"f$	c #FECA6B",
"g$	c #FFDF83",
"h$	c #FFE997",
"i$	c #F7AC65",
"j$	c #B8526B",
"k$	c #D797A2",
"l$	c #FB4C28",
"m$	c #FD8238",
"n$	c #DE8281",
"o$	c #E7EEEC",
"p$	c #AE0025",
"q$	c #95183A",
"r$	c #DC4C4A",
"s$	c #D33239",
"t$	c #E8F2F0",
"u$	c #D07681",
"v$	c #F66030",
"w$	c #FEC262",
"x$	c #FECE70",
"y$	c #FFC568",
"z$	c #FEAC50",
"A$	c #FF9547",
"B$	c #D14C4C",
"C$	c #D9BBC0",
"D$	c #CC92A0",
"E$	c #E72420",
"F$	c #FD7F38",
"G$	c #BB293A",
"H$	c #A5183A",
"I$	c #DED6D8",
"J$	c #E7EEED",
"K$	c #D6454A",
"L$	c #FE7836",
"M$	c #C52839",
"N$	c #E9F2F0",
"O$	c #CFA2AF",
"P$	c #D55A62",
"Q$	c #E32016",
"R$	c #F53922",
"S$	c #D9151F",
"T$	c #CD8494",
"U$	c #E0DDDF",
"V$	c #DFDCDE",
"W$	c #D50D1A",
"X$	c #FD6B31",
"Y$	c #C60414",
"Z$	c #E9F6F4",
"`$	c #DACCD0",
" %	c #DCD2D6",
".%	c #C4152A",
"+%	c #FD6630",
"@%	c #BE273B",
"#%	c #EBF7F4",
"$%	c #E8EFEE",
"%%	c #D3BBC4",
"&%	c #C84A5F",
"*%	c #BA788B",
"=%	c #E6E8E7",
"-%	c #D4BBC3",
";%	c #DC171C",
">%	c #FC5F2F",
",%	c #C10516",
"'%	c #EAF6F4",
")%	c #D8C6CB",
"!%	c #8D0429",
"~%	c #BC7285",
"{%	c #DA131F",
"]%	c #F54628",
"^%	c #D7181D",
"/%	c #BF7C8E",
"(%	c #D5C1C7",
"_%	c #BD0D25",
":%	c #E02623",
"<%	c #D61216",
"[%	c #E6F3F2",
"}%	c #9D2948",
"|%	c #CB707F",
"1%	c #D11120",
"2%	c #AE001D",
"3%	c #FA4C29",
"4%	c #C3152B",
"5%	c #ECF7F4",
"6%	c #ECF6F3",
"7%	c #B11130",
"8%	c #F63F25",
"9%	c #D81821",
"0%	c #9B2143",
"a%	c #E8231F",
"b%	c #B26179",
"c%	c #E2DCDE",
"d%	c #CB5D6D",
"e%	c #AD1636",
"f%	c #DEDADC",
"g%	c #D6262A",
"h%	c #AC1332",
"i%	c #B4314B",
"j%	c #F03623",
"k%	c #E4251F",
"l%	c #BC7084",
"m%	c #E1E0E1",
"n%	c #D52A32",
"o%	c #C95666",
". . . . . . . . . . . . . . . . . . . . . . . . . . . . . . . . ",
". . . . . . . . . . . . . . . . . . . . . . . . . . . . . . . . ",
". . . . . . . . . . . . . . . . . . . . . . . . . . . . . . . . ",
". . . . . . . . . . . . . . . . . . . . . . . . . . . . . . . . ",
". . . . . . . + @ # $ % & * = - - ; > , + . . . . . . . . . . . ",
". . . . . . . ' ) ! ~ { ] ^ / = ; ( _ : < + + [ . . - . . . . . ",
". . . . . } < | 1 2 3 4 5 6 7 8 9 0 a b c d e f g h . . . . . . ",
". . . = i j k l m n o p q r s t u v w x y z A B C D + E F < - . ",
". . . G H I J K L M N O P Q R S T U K V W X + Y Z `  ...+.@.. #.",
". . . . $.%.&.*.=.-.;.>.,.'.).= !.~.{.].^./.(._.:.<.[.}.|.1.. 2.",
". . 3.- . 4.5.6.7.8.9.0.a.b.c.d.e.f.g.h.i.j.k.l.m.n.o.p.q.. - r.",
"s.t.u.@ v.w.x.y.z.A.B.C.D.E.F.G.H.I.J.K.L.M.V N.O.P.Q.R.S.- T.U.",
"V.W.X.. < Y.Z.`. +.+++@+#+$+%+&+} *+=+-+;+>+,+'+)+!+~+{+. . ]+^+",
"/+D.(+. } _+:+<+[+}+3.|+1+2+3+} . 4+5+6+7+8+9+0+a+b+c+- . d+e+f+",
"- . . . t.g+h+i+j+k+l+m+n+o+p+. - . - q+r+s+t+u+v+w+x+5+y+z+A+B+",
". . . . C+D+E+F+G+H+I+J+K+L+. - M+N+. - O+P+Q+R+S+T+U+V+W+X+Y+S.",
". . . . Z+`+ @.@+@@@#@$@%@- . . &@*@+ . . =@-@;@>@,@'@)@!@~@{@. ",
". . . . ]@^@/@(@_@:@<@[@q+. . . }@|@1@- . . 2@3@4@5@6@7@8@T.- . ",
". . - < 9@0@a@b@c@d@e@(+- . . . . f@g@h@. i@j@k@l@m@n@o@p@q@. . ",
". . r@s@t@u@v@w@b@x@y@T.q+} - . . z@A@B@C@D@E@F@G@H@I@J@K@L@. . ",
". . M@N@O@P@Q@R@S@T@U@V@W@X@. . . - Y@Z@`@ #.#+#@###$#%#&#*#. . ",
". . =#-#;#>#,#'#)#!#~#{#]#^#+ . - . i@/#(#_#:#<#[#}#|#1#2#3#z@+ ",
". . 4#5#6#7#8#9#0#a#!#b#c#d#e#f#g#h#i#j#k#l#m#n#o#7.p#q#r#s#t#u#",
"v#w#= x#y#z#A#B#C#D#E#F#G#H#I#J#K#L#M#N#O#P#Q#R#S#T#U#V#W#X#Y#Z#",
"`# $.$+$@$#$$$%$&$*$=$-$;$>$,$'$)$!$!$~${$]$^$/$($_$:$<$[$}$|$1$",
"2$3$4$} 5$6$q 7$8$+ 9$0$a$b$c$d$e$f$g$h$i$j$@ - k$l$m$n$S.= o$=#",
"p$q$+ - t r$m$s$t$. - f@u$v$w$x$y$z$A$B$C$+ . . D$E$F$G$h@. . . ",
"H$I$. . J$K$L$M$N$. . . 8 O$P$Q$R$S$T$U$+ . . . V$W$X$Y$Z$- } `$",
"u - . -  %.%+%@%#%- . . . . $%%%&%*%=%- . . . } -%;%>%,%'%. )%!%",
". . . 3.~%{%]%^%/%. . . . . . . . . . . . . . (%_%Q@:%<%[%- < }%",
". . . = |%1%2%3%4%5%- . . . . . . . . . . - 6%7%8%9%0%a%b%. . c%",
". . . < d%e%f%g%8+h%(+. . . . . . . . . . {@i%j%k%l%m%n%o%. . . "};
