/* XPM */
static const char * WMWriteTracts_xpm[] = {
"16 16 88 1",
" 	c None",
".	c #000000",
"+	c #8162D6",
"@	c #7568DD",
"#	c #6366D8",
"$	c #8479E0",
"%	c #8699DF",
"&	c #827CD8",
"*	c #7C71D9",
"=	c #6251D2",
"-	c #6C69D7",
";	c #7673DD",
">	c #9089E1",
",	c #8B9ADF",
"'	c #74C08A",
")	c #6597C1",
"!	c #6883CB",
"~	c #698ECE",
"{	c #6B71D1",
"]	c #828CBA",
"^	c #997DBA",
"/	c #8795E4",
"(	c #8BA5C4",
"_	c #7CB0AF",
":	c #85BD95",
"<	c #6B96B4",
"[	c #53BF8A",
"}	c #6A8BBB",
"|	c #7E98BB",
"1	c #6C9B9F",
"2	c #4A8984",
"3	c #5E8E8B",
"4	c #8879AE",
"5	c #948EC5",
"6	c #8BA7BA",
"7	c #6DC298",
"8	c #60C673",
"9	c #66CC6D",
"0	c #7CABBA",
"a	c #63AC9D",
"b	c #6CC963",
"c	c #91AA8A",
"d	c #8DA984",
"e	c #8C9BB5",
"f	c #4C63C8",
"g	c #7D6FE5",
"h	c #9FA3BF",
"i	c #6BBC8E",
"j	c #4DBE84",
"k	c #66C476",
"l	c #62CC5F",
"m	c #6DC353",
"n	c #71B792",
"o	c #7DC669",
"p	c #53BE78",
"q	c #6D9E97",
"r	c #85AE81",
"s	c #8A987F",
"t	c #8488AB",
"u	c #917CE0",
"v	c #78C4A4",
"w	c #77C84D",
"x	c #67B650",
"y	c #7BA364",
"z	c #74BC56",
"A	c #58C24C",
"B	c #70C669",
"C	c #83B282",
"D	c #65A18E",
"E	c #58C96D",
"F	c #7FB194",
"G	c #5BC580",
"H	c #63B76E",
"I	c #70B974",
"J	c #74B76F",
"K	c #6FBD57",
"L	c #69BD5E",
"M	c #60B364",
"N	c #53BF53",
"O	c #6DC468",
"P	c #54A9A1",
"Q	c #63AFA2",
"R	c #6DAE8C",
"S	c #6FAE9C",
"T	c #81C869",
"U	c #81C664",
"V	c #61AA82",
"W	c #8D8F99",
".  .  .         ",
". ... .         ",
". . . .         ",
". . . .         ",
"... ...         ",
" .   .          ",
"      +@#$      ",
"    %&*=-;>,    ",
"   ')!~{]^/(_:  ",
"  <[}|123456789 ",
" 0abcdefghijklm ",
" nopqrstuvwxyzA ",
" BCDEFGHIJKLMNO ",
"      PQRS      ",
"    TUVW        ",
"                "};
