/* XPM */
static const char * WMWriteTracts_xpm[] = {
"32 32 348 2",
"  	c None",
". 	c #000000",
"+ 	c #000001",
"@ 	c #040206",
"# 	c #7D5BCC",
"$ 	c #8566E0",
"% 	c #7C69DF",
"& 	c #7069DC",
"* 	c #6365D8",
"= 	c #6869D9",
"- 	c #7E75DE",
"; 	c #887BE0",
"> 	c #8467DA",
", 	c #7D63D6",
"' 	c #7562D9",
") 	c #6C63DA",
"! 	c #6463D8",
"~ 	c #6969D9",
"{ 	c #7A74DE",
"] 	c #8379E0",
"^ 	c #899AE4",
"/ 	c #8895E0",
"( 	c #8987E0",
"_ 	c #8679DE",
": 	c #8170DA",
"< 	c #7865D7",
"[ 	c #6A57D5",
"} 	c #6455D4",
"| 	c #6660D7",
"1 	c #6B69DA",
"2 	c #7270DE",
"3 	c #7C77E0",
"4 	c #8B82E0",
"5 	c #918DE0",
"6 	c #8C96E0",
"7 	c #8A9AE2",
"8 	c #7F9DD5",
"9 	c #7F93D9",
"0 	c #7D83D6",
"a 	c #7B7AD6",
"b 	c #7A7AD7",
"c 	c #726FD7",
"d 	c #665AD3",
"e 	c #6458D2",
"f 	c #6D69D1",
"g 	c #7472D2",
"h 	c #7972D4",
"i 	c #8179D9",
"j 	c #8B85E0",
"k 	c #8E90E1",
"l 	c #8C99DC",
"m 	c #8A9ED7",
"n 	c #78C581",
"o 	c #74B798",
"p 	c #6DA1BC",
"q 	c #6B91CC",
"r 	c #6B83CE",
"s 	c #6C80D0",
"t 	c #6C87D2",
"u 	c #6B81D4",
"v 	c #696CD7",
"w 	c #6E6CD2",
"x 	c #7A7EC7",
"y 	c #8584C0",
"z 	c #907CBF",
"A 	c #917EC9",
"B 	c #8A8CE0",
"C 	c #8897E2",
"D 	c #8A9FD2",
"E 	c #88A5C4",
"F 	c #80AAB8",
"G 	c #7EB2A8",
"H 	c #85BA9B",
"I 	c #8ABD96",
"J 	c #6DC089",
"K 	c #6BB893",
"L 	c #649EB2",
"M 	c #638DC4",
"N 	c #6887C7",
"O 	c #6A89C7",
"P 	c #6891C4",
"Q 	c #668DC2",
"R 	c #637CC1",
"S 	c #687CBB",
"T 	c #748BAF",
"U 	c #838CAB",
"V 	c #937EAF",
"W 	c #967EBE",
"X 	c #8D8CD8",
"Y 	c #8A98DC",
"Z 	c #8DA1CA",
"` 	c #88A9BB",
" .	c #7CB0B0",
"..	c #79B6A3",
"+.	c #7CBC94",
"@.	c #7DC08B",
"#.	c #6D8EBA",
"$.	c #679FAB",
"%.	c #5BBA90",
"&.	c #59B694",
"*.	c #6196B3",
"=.	c #6A88C3",
"-.	c #758FC4",
";.	c #7694BD",
">.	c #6D99AD",
",.	c #6295A0",
"'.	c #538A93",
").	c #52888C",
"!.	c #5C908A",
"~.	c #6C8B93",
"{.	c #827AA5",
"].	c #8F79B7",
"^.	c #9385CA",
"/.	c #9492CF",
"(.	c #929EC5",
"_.	c #88ABB8",
":.	c #77B9A7",
"<.	c #6CC096",
"[.	c #69C282",
"}.	c #66C577",
"|.	c #65CA71",
"1.	c #65CD6D",
"2.	c #6B97B5",
"3.	c #64A1A7",
"4.	c #58BB89",
"5.	c #5ABA87",
"6.	c #6B9AA5",
"7.	c #788FB3",
"8.	c #8199B1",
"9.	c #819EAC",
"0.	c #799EA5",
"a.	c #68969C",
"b.	c #4D868F",
"c.	c #48818D",
"d.	c #578695",
"e.	c #6B859F",
"f.	c #8480AC",
"g.	c #8F83B4",
"h.	c #8E90B8",
"i.	c #899BB8",
"j.	c #82A6B3",
"k.	c #79B2A9",
"l.	c #6EBF98",
"m.	c #65C686",
"n.	c #5EC773",
"o.	c #5EC869",
"p.	c #65CA68",
"q.	c #68CA67",
"r.	c #7FAAC0",
"s.	c #76A7B9",
"t.	c #67A3AE",
"u.	c #61AC97",
"v.	c #63C272",
"w.	c #6FC26D",
"x.	c #84AC89",
"y.	c #8EA294",
"z.	c #8CA58E",
"A.	c #8BA495",
"B.	c #8BA1AB",
"C.	c #7790B6",
"D.	c #5071B8",
"E.	c #4A66C0",
"F.	c #666ECE",
"G.	c #807BD0",
"H.	c #988FC4",
"I.	c #979FB5",
"J.	c #7EACA3",
"K.	c #6AB499",
"L.	c #5BB795",
"M.	c #58BC8E",
"N.	c #62C383",
"O.	c #65C876",
"P.	c #60CB68",
"Q.	c #62CA5E",
"R.	c #6AC65A",
"S.	c #6EC458",
"T.	c #7BACB6",
"U.	c #76ADAD",
"V.	c #6BB09B",
"W.	c #65B883",
"X.	c #65C669",
"Y.	c #6FC368",
"Z.	c #85AF82",
"`.	c #8FA789",
" +	c #8DAB7F",
".+	c #8EA886",
"++	c #92A0A0",
"@+	c #828DB3",
"#+	c #6070C0",
"$+	c #5C63D2",
"%+	c #7866E9",
"&+	c #8C7AE6",
"*+	c #989ECB",
"=+	c #91B5AB",
"-+	c #76BF88",
";+	c #60C276",
">+	c #50BF75",
",+	c #51BD74",
"'+	c #64BC72",
")+	c #6BBF6B",
"!+	c #67C760",
"~+	c #66C857",
"{+	c #68C351",
"]+	c #68C14D",
"^+	c #73B1A1",
"/+	c #74B695",
"(+	c #78BF7B",
"_+	c #70C46D",
":+	c #5BC56D",
"<+	c #5BBA79",
"[+	c #6EA490",
"}+	c #7C9F93",
"|+	c #84AA83",
"1+	c #8AA97E",
"2+	c #8E9C84",
"3+	c #8A8E93",
"4+	c #7D81AA",
"5+	c #7E77C5",
"6+	c #8C70E5",
"7+	c #8E82E3",
"8+	c #85AFC1",
"9+	c #7DC697",
"0+	c #77C868",
"a+	c #6EC551",
"b+	c #62BC55",
"c+	c #63B25B",
"d+	c #73A964",
"e+	c #79AC65",
"f+	c #76BA5B",
"g+	c #6DC153",
"h+	c #5FC14C",
"i+	c #58C249",
"j+	c #6EBA88",
"k+	c #74BC80",
"l+	c #7FC26F",
"m+	c #78C16C",
"n+	c #5DBA78",
"o+	c #54B283",
"p+	c #5FA98C",
"q+	c #6DA78E",
"r+	c #7DAD88",
"s+	c #84AD81",
"t+	c #81A57A",
"u+	c #809E7F",
"v+	c #809791",
"w+	c #838FA8",
"x+	c #8B87C4",
"y+	c #8794C3",
"z+	c #79B7A7",
"A+	c #73C882",
"B+	c #76C858",
"C+	c #73C346",
"D+	c #6ABB4B",
"E+	c #6BB154",
"F+	c #74A65F",
"G+	c #76A761",
"H+	c #71B558",
"I+	c #69BE53",
"J+	c #5EC151",
"K+	c #59C251",
"L+	c #6EC46E",
"M+	c #74C171",
"N+	c #80BA78",
"O+	c #7DB180",
"P+	c #68A789",
"Q+	c #5CAA86",
"R+	c #59BB77",
"S+	c #62BE79",
"T+	c #7AB38B",
"U+	c #7DB28E",
"V+	c #6BBB81",
"W+	c #63BB79",
"X+	c #68B275",
"Y+	c #6EAD79",
"Z+	c #75AC85",
"`+	c #77B086",
" @	c #75B77C",
".@	c #73BC6D",
"+@	c #71BF59",
"@@	c #6FBF52",
"#@	c #6ABD57",
"$@	c #68B85C",
"%@	c #66B062",
"&@	c #62B160",
"*@	c #5ABA55",
"=@	c #5CC055",
"-@	c #65C25F",
";@	c #69C463",
">@	c #6EC962",
",@	c #74C36A",
"'@	c #81B67C",
")@	c #7FA989",
"!@	c #6E9E90",
"~@	c #60A788",
"{@	c #54C46E",
"]@	c #5DCA70",
"^@	c #79B58E",
"/@	c #76B396",
"(@	c #5CBF8C",
"_@	c #55C182",
":@	c #5BBB78",
"<@	c #63B972",
"[@	c #6ABA71",
"}@	c #6FB972",
"|@	c #72B576",
"1@	c #72B470",
"2@	c #6FB95E",
"3@	c #6DBD56",
"4@	c #6ABE5C",
"5@	c #66BB61",
"6@	c #60B564",
"7@	c #59B560",
"8@	c #50BC54",
"9@	c #55C156",
"0@	c #68C365",
"a@	c #71C46C",
"b@	c #53AE9D",
"c@	c #54B09B",
"d@	c #5BB399",
"e@	c #62B392",
"f@	c #6AB287",
"g@	c #6EB087",
"h@	c #6FAF90",
"i@	c #70AF90",
"j@	c #56A898",
"k@	c #5AA69E",
"l@	c #67A6A3",
"m@	c #6DA8A0",
"n@	c #6DAB92",
"o@	c #6DAD90",
"p@	c #6EAD9B",
"q@	c #6EACA3",
"r@	c #82C869",
"s@	c #82C866",
"t@	c #84C960",
"u@	c #77BF6A",
"v@	c #61AF80",
"w@	c #64A38E",
"x@	c #7D9898",
"y@	c #87949C",
"z@	c #81C869",
"A@	c #81C867",
"B@	c #82C863",
"C@	c #7AC168",
"D@	c #65B277",
"E@	c #6AA186",
"F@	c #879194",
"G@	c #95889A",
". .         . .         . .                                     ",
". .         . .         . .                                     ",
". .     . . . . . .     . .                                     ",
". .     . . . . . .     . .                                     ",
". .     . .     . .     . .                                     ",
". .     . .     . .     . .                                     ",
". .     . .     . .     . .                                     ",
". .     . .     . .     . .                                     ",
". . . . . .     . . . . . .                                     ",
". . . . . .     . . . . . .                                     ",
"    . .             + .                                         ",
"    . .             . @                                         ",
"                        # $ % & * = - ;                         ",
"                        > , ' ) ! ~ { ]                         ",
"                ^ / ( _ : < [ } | 1 2 3 4 5 6 7                 ",
"                8 9 0 a b c d e f g h i j k l m                 ",
"            n o p q r s t u v w x y z A B C D E F G H I         ",
"            J K L M N O P Q R S T U V W X Y Z `  ...+.@.        ",
"        #.$.%.&.*.=.-.;.>.,.'.).!.~.{.].^./.(._.:.<.[.}.|.1.    ",
"        2.3.4.5.6.7.8.9.0.a.b.c.d.e.f.g.h.i.j.k.l.m.n.o.p.q.    ",
"    r.s.t.u.v.w.x.y.z.A.B.C.D.E.F.G.H.I.J.K.L.M.N.O.P.Q.R.S.    ",
"    T.U.V.W.X.Y.Z.`. +.+++@+#+$+%+&+*+=+-+;+>+,+'+)+!+~+{+]+    ",
"    ^+/+(+_+:+<+[+}+|+1+2+3+4+5+6+7+8+9+0+a+b+c+d+e+f+g+h+i+    ",
"    j+k+l+m+n+o+p+q+r+s+t+u+v+w+x+y+z+A+B+C+D+E+F+G+H+I+J+K+    ",
"    L+M+N+O+P+Q+R+S+T+U+V+W+X+Y+Z+`+ @.@+@@@#@$@%@&@*@=@-@;@    ",
"    >@,@'@)@!@~@{@]@^@/@(@_@:@<@[@}@|@1@2@3@4@5@6@7@8@9@0@a@    ",
"                        b@c@d@e@f@g@h@i@                        ",
"                        j@k@l@m@n@o@p@q@                        ",
"                r@s@t@u@v@w@x@y@                                ",
"                z@A@B@C@D@E@F@G@                                ",
"                                                                ",
"                                                                "};
