/* XPM */
static const char * WMSurfaceParameterAnimator_xpm[] = {
"32 32 477 2",
"  	c None",
". 	c #3131FF",
"+ 	c #3535FF",
"@ 	c #3939FF",
"# 	c #3C3CFF",
"$ 	c #4040FF",
"% 	c #4444FF",
"& 	c #4848FF",
"* 	c #4B4BFF",
"= 	c #4F4FFF",
"- 	c #5252FF",
"; 	c #5656FF",
"> 	c #5A5AFF",
", 	c #5D5EFF",
"' 	c #6161FF",
") 	c #6565FF",
"! 	c #6868FF",
"~ 	c #6C6CFF",
"{ 	c #706FFF",
"] 	c #7473FF",
"^ 	c #7777FF",
"/ 	c #7B7BFF",
"( 	c #7E7FFF",
"_ 	c #8282FF",
": 	c #8686FF",
"< 	c #8A8AFF",
"[ 	c #8D8DFF",
"} 	c #9191FF",
"| 	c #9594FF",
"1 	c #9999FF",
"2 	c #9C9BFF",
"3 	c #A0A0FF",
"4 	c #3D3CFF",
"5 	c #4747FF",
"6 	c #4A4BFF",
"7 	c #595AFF",
"8 	c #5D5DFF",
"9 	c #6869FF",
"0 	c #7474FF",
"a 	c #7F7FFF",
"b 	c #8685FF",
"c 	c #898AFF",
"d 	c #9898FF",
"e 	c #9F9FFF",
"f 	c #A3A3FF",
"g 	c #3435FF",
"h 	c #3838FF",
"i 	c #3F40FF",
"j 	c #4343FF",
"k 	c #4E4EFF",
"l 	c #5555FF",
"m 	c #5959FF",
"n 	c #6464FF",
"o 	c #6F6FFF",
"p 	c #7373FF",
"q 	c #7677FF",
"r 	c #7B7AFF",
"s 	c #7E7DFF",
"t 	c #8988FF",
"u 	c #9090FF",
"v 	c #9494FF",
"w 	c #9798FF",
"x 	c #9C9CFF",
"y 	c #A2A2FF",
"z 	c #A7A6FF",
"A 	c #3839FF",
"B 	c #403FFF",
"C 	c #4647FF",
"D 	c #5152FF",
"E 	c #5655FF",
"F 	c #5D5CFF",
"G 	c #6060FF",
"H 	c #6C6BFF",
"I 	c #7372FF",
"J 	c #7A7AFF",
"K 	c #7E7EFF",
"L 	c #8181FF",
"M 	c #8585FF",
"N 	c #8989FF",
"O 	c #8D8CFF",
"P 	c #9393FF",
"Q 	c #9B9BFF",
"R 	c #9E9FFF",
"S 	c #A3A2FF",
"T 	c #A6A6FF",
"U 	c #AAA9FF",
"V 	c #3B3BFF",
"W 	c #3F3FFF",
"X 	c #5151FF",
"Y 	c #5C5CFF",
"Z 	c #6767FF",
"` 	c #6B6BFF",
" .	c #7273FF",
"..	c #8281FF",
"+.	c #8889FF",
"@.	c #8C8CFF",
"#.	c #908FFF",
"$.	c #9493FF",
"%.	c #9897FF",
"&.	c #9E9EFF",
"*.	c #AEAEFF",
"=.	c #4342FF",
"-.	c #4A4AFF",
";.	c #4D4EFF",
">.	c #5251FF",
",.	c #5859FF",
"'.	c #605FFF",
").	c #6364FF",
"!.	c #6E6EFF",
"~.	c #7272FF",
"{.	c #7676FF",
"].	c #7A79FF",
"^.	c #7D7DFF",
"/.	c #8485FF",
"(.	c #9797FF",
"_.	c #9A9AFF",
":.	c #A5A5FF",
"<.	c #A9A9FF",
"[.	c #ADADFF",
"}.	c #B0B1FF",
"|.	c #4646FF",
"1.	c #4A49FF",
"2.	c #4D4DFF",
"3.	c #5958FF",
"4.	c #5F60FF",
"5.	c #6363FF",
"6.	c #7575FF",
"7.	c #7979FF",
"8.	c #8180FF",
"9.	c #8484FF",
"0.	c #8888FF",
"a.	c #8B8CFF",
"b.	c #9696FF",
"c.	c #A1A1FF",
"d.	c #ACACFF",
"e.	c #B1B0FF",
"f.	c #B4B4FF",
"g.	c #494AFF",
"h.	c #5454FF",
"i.	c #5858FF",
"j.	c #6A6AFF",
"k.	c #8F8FFF",
"l.	c #9392FF",
"m.	c #A9A8FF",
"n.	c #ADACFF",
"o.	c #B0B0FF",
"p.	c #B4B3FF",
"q.	c #B8B8FF",
"r.	c #4949FF",
"s.	c #5150FF",
"t.	c #5455FF",
"u.	c #5C5BFF",
"v.	c #5F5FFF",
"w.	c #6766FF",
"x.	c #7172FF",
"y.	c #7675FF",
"z.	c #7D7CFF",
"A.	c #8080FF",
"B.	c #8788FF",
"C.	c #8B8BFF",
"D.	c #9A99FF",
"E.	c #9D9EFF",
"F.	c #AFB0FF",
"G.	c #B3B4FF",
"H.	c #B7B7FF",
"I.	c #BABBFF",
"J.	c #4C4DFF",
"K.	c #5050FF",
"L.	c #5757FF",
"M.	c #5B5CFF",
"N.	c #6D6EFF",
"O.	c #7475FF",
"P.	c #8483FF",
"Q.	c #8787FF",
"R.	c #8E8EFF",
"S.	c #9596FF",
"T.	c #9D9DFF",
"U.	c #A1A0FF",
"V.	c #A5A4FF",
"W.	c #A8A8FF",
"X.	c #B3B3FF",
"Y.	c #BEBEFF",
"Z.	c #5353FF",
"`.	c #5151DD",
" +	c #484990",
".+	c #3C3C42",
"++	c #33330C",
"@+	c #393929",
"#+	c #474765",
"$+	c #6161CC",
"%+	c #7171FF",
"&+	c #7878FF",
"*+	c #7C7CFF",
"=+	c #313100",
"-+	c #393917",
";+	c #4A4A43",
">+	c #7D7DC2",
",+	c #A4A4FF",
"'+	c #A7A7F8",
")+	c #3A3A13",
"!+	c #393911",
"~+	c #B2B2F7",
"{+	c #BBBBFF",
"]+	c #C2C2FF",
"^+	c #4D4DBC",
"/+	c #313102",
"(+	c #7574FF",
"_+	c #807FFF",
":+	c #313101",
"<+	c #8282C0",
"[+	c #ABABFF",
"}+	c #8282A4",
"|+	c #8787A1",
"1+	c #C2C1FF",
"2+	c #C5C5FF",
"3+	c #393936",
"4+	c #3B3B39",
"5+	c #5555B1",
"6+	c #6565ED",
"7+	c #6464DF",
"8+	c #5A5AA4",
"9+	c #3F3F37",
"0+	c #8383FF",
"a+	c #9190FE",
"b+	c #7F7FC7",
"c+	c #4D4D47",
"d+	c #4C4C3F",
"e+	c #A7A7FF",
"f+	c #AFAFFF",
"g+	c #4F4F3C",
"h+	c #51513A",
"i+	c #C8C9FF",
"j+	c #333310",
"k+	c #5A5ACC",
"l+	c #6969FF",
"m+	c #6D6DFF",
"n+	c #7070FF",
"o+	c #8382FF",
"p+	c #8786FF",
"q+	c #9291FF",
"r+	c #9595FF",
"s+	c #8888CE",
"t+	c #393913",
"u+	c #A8A7FF",
"v+	c #9D9DD5",
"w+	c #4E4E37",
"x+	c #505039",
"y+	c #AAAAD3",
"z+	c #C8C8FF",
"A+	c #CCCCFF",
"B+	c #5E5EFF",
"C+	c #42425B",
"D+	c #4A4A73",
"E+	c #6565E1",
"F+	c #7877FF",
"G+	c #9899FF",
"H+	c #8A8ACE",
"I+	c #AFAEFF",
"J+	c #B2B2FF",
"K+	c #6A6A6E",
"L+	c #858599",
"M+	c #8C8BA2",
"N+	c #70706C",
"O+	c #CFCFFF",
"P+	c #5858C3",
"Q+	c #393922",
"R+	c #49495B",
"S+	c #6363AD",
"T+	c #7E7EFC",
"U+	c #8888CA",
"V+	c #515149",
"W+	c #4E4F3F",
"X+	c #B1B1F6",
"Y+	c #393910",
"Z+	c #36360A",
"`+	c #B8B8F1",
" @	c #BFBFF7",
".@	c #3C3C13",
"+@	c #3A3A0F",
"@@	c #C8C8F5",
"#@	c #D3D3FF",
"$@	c #6465FF",
"%@	c #5F5FC7",
"&@	c #454553",
"*@	c #34340F",
"=@	c #43433B",
"-@	c #8080EF",
";@	c #8A89FF",
">@	c #9190FF",
",@	c #8F8FC0",
"'@	c #B1B2FF",
")@	c #B5B5FF",
"!@	c #85859F",
"~@	c #65655D",
"{@	c #C4C4FF",
"]@	c #C8C7FF",
"^@	c #757572",
"/@	c #95959E",
"(@	c #D7D6FF",
"_@	c #7575FC",
":@	c #6E6DD4",
"<@	c #56577F",
"[@	c #39391A",
"}@	c #66669A",
"|@	c #3B3B16",
"1@	c #505043",
"2@	c #8F8FC1",
"3@	c #B1B1FF",
"4@	c #B8B9FF",
"5@	c #4F4E37",
"6@	c #9F9FBF",
"7@	c #C7C7FF",
"8@	c #CBCBFF",
"9@	c #B8B7DA",
"0@	c #545437",
"a@	c #DAD9FF",
"b@	c #6F70FF",
"c@	c #6E6EBB",
"d@	c #4B4B4A",
"e@	c #ADAEFF",
"f@	c #B9B9FF",
"g@	c #A2A2D0",
"h@	c #BDBDD0",
"i@	c #7474C5",
"j@	c #36360F",
"k@	c #9B9AFF",
"l@	c #A5A6FF",
"m@	c #BBBCFF",
"n@	c #6B6B69",
"o@	c #797969",
"p@	c #3D3D2F",
"q@	c #59598F",
"r@	c #6E6ED0",
"s@	c #7C7CF0",
"t@	c #7B7BE2",
"u@	c #6B6BAB",
"v@	c #41412F",
"w@	c #464637",
"x@	c #A9AAFF",
"y@	c #B4B5FF",
"z@	c #BCBCFF",
"A@	c #B8B8F3",
"B@	c #39390E",
"C@	c #323202",
"D@	c #B9B8E2",
"E@	c #CECDFF",
"F@	c #D1D2FF",
"G@	c #D5D6FF",
"H@	c #D9D9FF",
"I@	c #C9C9E2",
"J@	c #3A3A0E",
"K@	c #323204",
"L@	c #7C7CBC",
"M@	c #A2A1FF",
"N@	c #BFBFFF",
"O@	c #88889A",
"P@	c #5C5C48",
"Q@	c #D1D1FF",
"R@	c #D5D5FF",
"S@	c #DDDCFF",
"T@	c #DFE0FF",
"U@	c #626247",
"V@	c #6F6ED2",
"W@	c #565577",
"X@	c #414133",
"Y@	c #373712",
"Z@	c #34340B",
"`@	c #3F3F26",
" #	c #54545C",
".#	c #8382CD",
"+#	c #9E9DFF",
"@#	c #4E4E33",
"##	c #9999AA",
"$#	c #D5D4FF",
"%#	c #D9D8FF",
"&#	c #DCDCFF",
"*#	c #E0E0FF",
"=#	c #E3E3FF",
"-#	c #AAAAAA",
";#	c #8384FF",
">#	c #9293FF",
",#	c #A8A9FF",
"'#	c #B8B7FF",
")#	c #BBBAFF",
"!#	c #C6C6FF",
"~#	c #C9C9FF",
"{#	c #CDCDFF",
"]#	c #D4D5FF",
"^#	c #D8D8FF",
"/#	c #DBDBFF",
"(#	c #E3E4FF",
"_#	c #E7E7FF",
":#	c #EAEBFF",
"<#	c #EEEEFF",
"[#	c #8F8EFF",
"}#	c #9292FF",
"|#	c #B7B6FF",
"1#	c #CAC9FF",
"2#	c #D4D4FF",
"3#	c #DBDCFF",
"4#	c #DFDFFF",
"5#	c #EAEAFF",
"6#	c #EEEDFF",
"7#	c #F2F1FF",
"8#	c #B0AFFF",
"9#	c #CCCDFF",
"0#	c #E2E3FF",
"a#	c #E6E7FF",
"b#	c #EDEEFF",
"c#	c #F1F1FF",
"d#	c #F5F4FF",
"e#	c #8A8BFF",
"f#	c #A0A1FF",
"g#	c #B2B3FF",
"h#	c #B6B6FF",
"i#	c #BABAFF",
"j#	c #C1C1FF",
"k#	c #D0D0FF",
"l#	c #D4D3FF",
"m#	c #D7D7FF",
"n#	c #E2E2FF",
"o#	c #E6E6FF",
"p#	c #EAE9FF",
"q#	c #F4F5FF",
"r#	c #F9F8FF",
"s#	c #9D9CFF",
"t#	c #AEAFFF",
"u#	c #B9BAFF",
"v#	c #BEBDFF",
"w#	c #C4C5FF",
"x#	c #C9C8FF",
"y#	c #D7D8FF",
"z#	c #DEDFFF",
"A#	c #E9EAFF",
"B#	c #EDEDFF",
"C#	c #F0F1FF",
"D#	c #F8F8FF",
"E#	c #FCFCFF",
"F#	c #8E8DFF",
"G#	c #9998FF",
"H#	c #A3A4FF",
"I#	c #A7A8FF",
"J#	c #D0CFFF",
"K#	c #DEDEFF",
"L#	c #E6E5FF",
"M#	c #F4F4FF",
"N#	c #FBFBFF",
"O#	c #FFFFFF",
"P#	c #AAABFF",
"Q#	c #B3B2FF",
"R#	c #B6B5FF",
"S#	c #BDBDFF",
"T#	c #CFD0FF",
"U#	c #DADAFF",
"V#	c #E5E6FF",
"W#	c #E9E9FF",
"X#	c #EDECFF",
"Y#	c #F7F7FF",
"Z#	c #A4A3FF",
"`#	c #ABAAFF",
" $	c #C0C0FF",
".$	c #C7C8FF",
"+$	c #CCCBFF",
"@$	c #E1E1FF",
"#$	c #E5E5FF",
"$$	c #ECECFF",
"%$	c #F0F0FF",
"&$	c #F8F7FF",
"*$	c #9FA0FF",
"=$	c #AAAAFF",
"-$	c #BDBCFF",
";$	c #CBCCFF",
">$	c #D2D2FF",
",$	c #D6D6FF",
"'$	c #DEDDFF",
")$	c #ECEDFF",
"!$	c #F4F3FF",
". . + @ # $ % & * = - ; > , ' ) ! ~ { ] ^ / ( _ : < [ } | 1 2 3 ",
". + @ 4 $ % 5 6 = - ; 7 8 ' ) 9 ~ { 0 ^ / a _ b c [ } | d 2 e f ",
"g h # i j 5 * k - l m 8 ' n ! ~ o p q r s _ b t [ u v w x e y z ",
"A # B j C 6 k D E 7 F G n ! H o I q J K L M N O u P w Q R S T U ",
"V W j C 6 k X l m Y G n Z ` o  .q J K ..M +.@.#.$.%.Q &.y T U *.",
"W =.C -.;.>.l ,.Y '.).Z ` !.~.{.].^.L /.t @.#.P (._.&.y :.<.[.}.",
"=.|.1.2.X l 3.Y 4.5.Z ` !.~.6.7.^.8.9.0.a.u P b._.&.c.:.<.d.e.f.",
"|.g.2.X h.i.Y '.5.Z j.!.~.6.7.^.8.9.0.a.k.l.b._.&.c.:.m.n.o.p.q.",
"r.2.s.t.i.u.v.5.w.j.!.x.y.7.z.A.9.B.C.k.P b.D.E.c.:.m.n.F.G.H.I.",
"J.K.h.L.M.v.5.w.j.N.~.O.7.z.A.P.Q.C.R.l.S._.T.U.V.W.d.F.X.H.I.Y.",
"K.Z.`. +.+++@+#+$+%+O.&+*+=+=+=+=+-+;+>+_.T.U.,+W.'+)+!+~+{+Y.]+",
"Z.^+/+=+=+=+=+=+=+(+&+*+_+=+=+=+=+=+=+:+<+3 ,+W.[+}+=+=+|+Y.1+2+",
"L.3+=+4+5+6+7+8+9+&+/ _+0+=+=+R.a+b+c+=+d+,+e+[+f+g+=+=+h+]+2+i+",
"> j+=+k+l+m+n+0 &+/ a o+p+=+=+q+r+1 s+=+t+u+[+f+v+=+w+x+=+y+z+A+",
"B+C+=+D+E+n+0 F+/ K 0+: < =+=+| G+x H+=+t+[+I+J+K+=+L+M+=+N+A+O+",
"' P+:+=+=+Q+R+S+T+_ : < [ =+=+d x U+V+=+W+*.J+X+Y+Z+`+ @.@+@@@#@",
"$@9 %@&@*@=+=+=+=@-@;@[ >@=+=+=+=+=+=+:+,@'@)@!@=+~@{@]@^@=+/@(@",
"! ~ o I _@:@<@[@=+}@O u v =+=+=+=+|@1@2@3@)@4@5@=+6@7@8@9@:+0@a@",
"` b@ .^ J K L c@=+d@u $.(.=+=+S T U e@3@)@f@g@=+=+=+=+=+=+=+=+h@",
"o ~.{.J K L M i@=+j@P (.k@=+=+l@U e@3@f.q.m@n@=+=+=+=+=+=+=+=+o@",
"p p@q@r@s@t@u@v@=+w@(.k@&.=+=+x@[.o.y@q.z@A@B@C@D@E@F@G@H@I@C@J@",
"{.=+=+=+=+=+=+=+K@L@k@&.M@=+=+n.o.f.q.m@N@O@=+P@E@Q@R@H@S@T@U@=+",
"7.V@W@X@Y@Z@`@ #.#_.+#y :.=+=+o.G.H.{+N@]+@#=+##Q@$#%#&#*#=#-#=+",
"^.8.;#0.C.k.>#b._.E.c.:.,#d.o.p.'#)#Y.]+!#~#{#Q@]#^#/#T@(#_#:#<#",
"A.;#Q.C.[#}#b._.E.c.:.,#d.F.p.|#)#Y.1+!#1#{#Q@2#^#3#4#=#_#5#6#7#",
"0+Q.< R.}#b.1 T.U.V.W.d.8#X.H.I.Y.]+2+~#9#Q@2#^#3#4#0#a#5#b#c#d#",
"Q.e#R.}#b.1 T.f#,+W.[+f+g#h#i#Y.j#2+~#{#k#l#m#/#4#n#o#p#<#c#q#r#",
"e#R.q+r+G+s#f#,+u+[+t#g#h#u#v#j#w#x#A+O+2#y#/#z#n#o#A#B#C#q#D#E#",
"F#} r+G#x 3 H#I#[+f+J+h#i#v#j#w#z+A+J##@m#/#K#n#L#A#B#c#M#D#N#O#",
"} | G#x 3 H#e+P#*.Q#R#f@S#j#w#z+8@T##@m#U#K#n#V#W#X#C#M#Y#N#O#O#",
"r+d x 3 Z#z `#*.J+R#f@S# ${@.$+$O+#@m#U#K#@$#$W#$$%$M#&$N#O#O#O#",
"d 2 *$f T =$*.J+)@4@-$ ${@]@;$O+>$,$U#'$n##$W#)$%$!$Y#N#O#O#O#O#"};
