/* XPM */
static const char * WMFiberCreator_xpm[] = {
"16 16 58 1",
" 	c None",
".	c #8162D6",
"+	c #7568DD",
"@	c #6366D8",
"#	c #8479E0",
"$	c #8699DF",
"%	c #2227DB",
"&	c #7C71D9",
"*	c #6251D2",
"=	c #6C69D7",
"-	c #7673DD",
";	c #9089E1",
">	c #8B9ADF",
",	c #22DB4E",
"'	c #6597C1",
")	c #698ECE",
"!	c #6B71D1",
"~	c #828CBA",
"{	c #000000",
"]	c #8795E4",
"^	c #8BA5C4",
"/	c #7CB0AF",
"(	c #85BD95",
"_	c #6B96B4",
":	c #6A8BBB",
"<	c #6C9B9F",
"[	c #4A8984",
"}	c #948EC5",
"|	c #8BA7BA",
"1	c #6DC298",
"2	c #60C673",
"3	c #66CC6D",
"4	c #7CABBA",
"5	c #63AC9D",
"6	c #9FA3BF",
"7	c #6BBC8E",
"8	c #DB2222",
"9	c #62CC5F",
"0	c #6DC353",
"a	c #71B792",
"b	c #7DC669",
"c	c #53BE78",
"d	c #85AE81",
"e	c #917CE0",
"f	c #7BA364",
"g	c #74BC56",
"h	c #58C24C",
"i	c #70C669",
"j	c #83B282",
"k	c #65A18E",
"l	c #6FBD57",
"m	c #69BD5E",
"n	c #60B364",
"o	c #53BF53",
"p	c #6DC468",
"q	c #6DAE8C",
"r	c #6FAE9C",
"s	c #81C869",
"                ",
"                ",
"                ",
"      .+@#      ",
"    $%&*=-;>    ",
"   ,'%)!~{]^/(  ",
"  _,:%<[{{}|123 ",
" 45,,%%{{678890 ",
" abc,d%{e888fgh ",
" ijk,,%{88lmnop ",
"      %{qr      ",
"    s,,{        ",
"                ",
"                ",
"                ",
"                "};
