/* XPM */
static const char * imageExtractor_xpm[] = {
"32 32 5 1",
"   c #FFFFFF",
".  c #D2D2D2",
"+  c #9C9C9C",
"@  c #6C6C6C",
"#  c #3C3C3C",
"                                ",
"       ..............           ",
"       ..............           ",
"       ..............           ",
"      ++++++++++++++.           ",
"      ++++++++++++++.           ",
"      ++++++++++++++.           ",
"      ++++++++++++++.           ",
"      ++++++++++++++.           ",
"      ++++++++++++++.           ",
"      ++++++++++++++.           ",
"      +++++++++@@@@@@@@@@@@@@   ",
"    ##############@@@@@@@@@@@   ",
"    ##############@@@@@@@@@@@   ",
"    ##############@@@@@@@@@@@   ",
"    ##############@@@@@@@@@@@   ",
"    ##############@@@@@@@@@@@   ",
"    ##############@@@@@@@@@@@   ",
"    ##############@@@@@@@@@@@   ",
"    ##############@@@@@@@@@@@   ",
"    ##############@@@@@@@@@@@   ",
"    ##############@@@@@@@@@@@   ",
"    ##############@@@@@@@@@@@   ",
"    ##############@@@@@@@@@@@   ",
"    ##############@@@@@@@@@@@   ",
"    ##############@@@@@@@@@@@   ",
"    ##############@@@@@@@@@@@   ",
"    ##############@@@@@@@@@@@   ",
"    ##############@@@@@@@@@@@   ",
"    ##############@@@@@@@@@@@   ",
"    ##############@@@@@@@@@@@   ",
"    ##############              "};
