/* XPM */
static const char * WMData_xpm[] = {
"32 32 2 1",
" 	c None",
".	c #000000",
"                                ",
"                                ",
"  .   ....    ....   .   ....   ",
"  .  ..      ..      .  ..      ",
"  .  .    .  .    .  .  .    .  ",
"  .  .    .  .    .  .  .    .  ",
"  .  .    .  .    .  .  .    .  ",
"  .   .  ..   .  ..  .   .  ..  ",
"  .   ....    ....   .   ....   ",
"                                ",
"                                ",
"   ....    ....    ....   .   ..",
"  ..      ..      ..      .  .. ",
"  .    .  .    .  .    .  .  .  ",
"  .    .  .    .  .    .  .  .  ",
"  .    .  .    .  .    .  .  .  ",
"   .  ..   .  ..   .  ..  .   . ",
"   ....    ....    ....   .   ..",
"                                ",
"                                ",
"  .  .   ....   .   ....    ....",
"  .  .  ..      .  ..      ..   ",
"  .  .  .    .  .  .    .  .    ",
"  .  .  .    .  .  .    .  .    ",
"  .  .  .    .  .  .    .  .    ",
"  .  .   .  ..  .   .  ..   .  .",
"  .  .   ....   .   ....    ....",
"                                ",
"                                ",
"  .   ....    ....   .  .   ....",
"  .  ..      ..      .  .  ..   ",
"  .  .    .  .    .  .  .  .    "};
