/* XPM */
static const char * WMReadSphericalHarmonics_xpm[] = {
"32 32 539 2",
"  	c None",
". 	c #000000",
"+ 	c #DCDFDF",
"@ 	c #839397",
"# 	c #BEC2C3",
"$ 	c #88A39A",
"% 	c #7BA99D",
"& 	c #7CACA6",
"* 	c #7BACAB",
"= 	c #7AA9AE",
"- 	c #768C97",
"; 	c #889298",
"> 	c #C3C5C5",
", 	c #B2B3C1",
"' 	c #757590",
") 	c #757698",
"! 	c #75799C",
"~ 	c #8B92A9",
"{ 	c #B4B7C0",
"] 	c #7FA797",
"^ 	c #82B1A4",
"/ 	c #83B4AE",
"( 	c #83B4B5",
"_ 	c #81B0B9",
": 	c #7EACB9",
"< 	c #7798AF",
"[ 	c #7B90A5",
"} 	c #7C8695",
"| 	c #87888D",
"1 	c #A2A2B0",
"2 	c #79799D",
"3 	c #7B7EAB",
"4 	c #7B84B5",
"5 	c #7A88B9",
"6 	c #788BBB",
"7 	c #768CB5",
"8 	c #7788A8",
"9 	c #A9ACB6",
"0 	c #ABB9B2",
"a 	c #82AB99",
"b 	c #88B6A8",
"c 	c #89B8B1",
"d 	c #89B6B9",
"e 	c #88B4BD",
"f 	c #799CBB",
"g 	c #7793B4",
"h 	c #7788A4",
"i 	c #767B8F",
"j 	c #757589",
"k 	c #7B769E",
"l 	c #807EAE",
"m 	c #8285BA",
"n 	c #828BC3",
"o 	c #8091C7",
"p 	c #7E94C8",
"q 	c #7995C2",
"r 	c #7693B7",
"s 	c #75839B",
"t 	c #CBCCCE",
"u 	c #85A4C8",
"v 	c #819CC3",
"w 	c #7C91BB",
"x 	c #7A83A4",
"y 	c #7B7997",
"z 	c #8077A0",
"A 	c #847EAE",
"B 	c #8884BA",
"C 	c #898BC4",
"D 	c #8892CB",
"E 	c #8797CE",
"F 	c #839ACD",
"G 	c #7E9BC6",
"H 	c #7897BB",
"I 	c #7891A9",
"J 	c #9EA4AE",
"K 	c #90ACC9",
"L 	c #8DA4CB",
"M 	c #889CC8",
"N 	c #838DB9",
"O 	c #7F7D9F",
"P 	c #81769D",
"Q 	c #867BA7",
"R 	c #8B82B4",
"S 	c #8F8AC0",
"T 	c #9092CB",
"U 	c #8F98D0",
"V 	c #8D9DD2",
"W 	c #87A0CF",
"X 	c #819FC7",
"Y 	c #7B9CBB",
"Z 	c #7695AB",
"` 	c #9EA7AF",
" .	c #85A38D",
"..	c #90B39D",
"+.	c #95B7A9",
"@.	c #99B2C3",
"#.	c #97ADC8",
"$.	c #94A4CB",
"%.	c #8F98C7",
"&.	c #8786B1",
"*.	c #83799B",
"=.	c #8779A1",
"-.	c #8D7EAE",
";.	c #9287BB",
">.	c #958FC6",
",.	c #9797CF",
"'.	c #959ED2",
").	c #91A2D2",
"!.	c #8BA4CD",
"~.	c #84A2C4",
"{.	c #7C9EB8",
"].	c #7796A7",
"^.	c #9EA7AC",
"/.	c #93A395",
"(.	c #8DAB92",
"_.	c #95B4A1",
":.	c #9EACC5",
"<.	c #9AA2C8",
"[.	c #9595C3",
"}.	c #8880A6",
"|.	c #86779A",
"1.	c #8D7BA5",
"2.	c #9583B2",
"3.	c #9A8DBF",
"4.	c #9D95CA",
"5.	c #9D9DD0",
"6.	c #9AA2D2",
"7.	c #95A6D0",
"8.	c #8DA7CA",
"9.	c #85A4BF",
"0.	c #7D9FB2",
"a.	c #7793A0",
"b.	c #AEB5B8",
"c.	c #88A089",
"d.	c #95B097",
"e.	c #9BB4A4",
"f.	c #A0A2C3",
"g.	c #9791BB",
"h.	c #887B9A",
"i.	c #8B779A",
"j.	c #9580A9",
"k.	c #9D88B7",
"l.	c #A292C3",
"m.	c #A39ACB",
"n.	c #A2A2D0",
"o.	c #9DA7D0",
"p.	c #97A9CB",
"q.	c #8FA8C3",
"r.	c #86A4B9",
"s.	c #7E9EAC",
"t.	c #758A91",
"u.	c #C0C8C0",
"v.	c #8BA288",
"w.	c #9AB09A",
"x.	c #9FB1A4",
"y.	c #A4A0BD",
"z.	c #998DAF",
"A.	c #867790",
"B.	c #917A9C",
"C.	c #9C84AC",
"D.	c #A48EBA",
"E.	c #A897C4",
"F.	c #A99FCB",
"G.	c #A7A6CD",
"H.	c #A0A9CB",
"I.	c #99AAC5",
"J.	c #90A8BC",
"K.	c #86A4B1",
"L.	c #7B9AA2",
"M.	c #A1AFB1",
"N.	c #C1C9BF",
"O.	c #8EA288",
"P.	c #9CAD97",
"Q.	c #9A8CA7",
"R.	c #88778C",
"S.	c #977E9F",
"T.	c #A388AF",
"U.	c #AB93BB",
"V.	c #AE9CC4",
"W.	c #AEA4C8",
"X.	c #AAA9C9",
"Y.	c #A2ABC5",
"Z.	c #9AABBD",
"`.	c #8FA7B4",
" +	c #85A0A7",
".+	c #7B9597",
"++	c #D0D5D5",
"@+	c #BDC5B9",
"#+	c #90A186",
"$+	c #9DA994",
"%+	c #8D798E",
"&+	c #9F83A2",
"*+	c #AC8DB1",
"=+	c #B297BD",
"-+	c #B5A0C3",
";+	c #B2A8C5",
">+	c #ACACC3",
",+	c #A3ADBE",
"'+	c #99A9B4",
")+	c #8DA4AB",
"!+	c #839C9E",
"~+	c #8E9D9C",
"{+	c #CCD2C9",
"]+	c #9FAC95",
"^+	c #97A189",
"/+	c #A2A097",
"(+	c #9C8D96",
"_+	c #977B92",
":+	c #A887A4",
"<+	c #B392B1",
"[+	c #B99DBB",
"}+	c #B9A4BF",
"|+	c #B5ABC0",
"1+	c #AEADBC",
"2+	c #A3ACB6",
"3+	c #97A7AC",
"4+	c #8BA1A0",
"5+	c #809592",
"6+	c #B5C0AB",
"7+	c #A0A98B",
"8+	c #968B88",
"9+	c #A28097",
"0+	c #B18CA4",
"a+	c #BB97B0",
"b+	c #BFA2B8",
"c+	c #BDA8BB",
"d+	c #B7ACB9",
"e+	c #AEAEB4",
"f+	c #A2ABAD",
"g+	c #95A5A2",
"h+	c #889B95",
"i+	c #BDC3C2",
"j+	c #C0C6BF",
"k+	c #8C7B80",
"l+	c #AA8598",
"m+	c #B890A4",
"n+	c #C09CAE",
"o+	c #C3A4B4",
"p+	c #C0ABB5",
"q+	c #B9AEB3",
"r+	c #AEAEAD",
"s+	c #A1AAA4",
"t+	c #93A29A",
"u+	c #86978E",
"v+	c #91A099",
"w+	c #9C7B88",
"x+	c #B28897",
"y+	c #BE95A2",
"z+	c #C6A0AA",
"A+	c #C8A8AE",
"B+	c #C2AEAE",
"C+	c #BAAFAB",
"D+	c #AEAEA5",
"E+	c #A1A99E",
"F+	c #8F9E90",
"G+	c #A4ADA7",
"H+	c #D9DCDB",
"I+	c #848784",
"J+	c #A7808B",
"K+	c #B98D96",
"L+	c #C3989F",
"M+	c #CBA3A5",
"N+	c #CAABA9",
"O+	c #C4AFA7",
"P+	c #BBB0A4",
"Q+	c #AEAE9E",
"R+	c #9FA997",
"S+	c #8F9D8C",
"T+	c #7F8F80",
"U+	c #A9B2A9",
"V+	c #9AA6A2",
"W+	c #8D8785",
"X+	c #AE8389",
"Y+	c #BE9093",
"Z+	c #C89C9B",
"`+	c #CEA5A0",
" @	c #CCADA2",
".@	c #C5B1A1",
"+@	c #BBB19E",
"@@	c #AEAE97",
"#@	c #A0A991",
"$@	c #909F88",
"%@	c #839980",
"&@	c #769877",
"*@	c #8BA48B",
"=@	c #C8CDC7",
"-@	c #A9B0AE",
";@	c #83918D",
">@	c #957B7E",
",@	c #B28787",
"'@	c #C2938F",
")@	c #CC9E96",
"!@	c #D0A79A",
"~@	c #CDAE9B",
"{@	c #C5B29A",
"]@	c #BCB297",
"^@	c #B0B092",
"/@	c #A1AB8C",
"(@	c #94A585",
"_@	c #8BA481",
":@	c #83A87D",
"<@	c #7AA779",
"[@	c #769E75",
"}@	c #B7C0B6",
"|@	c #848F8F",
"1@	c #929297",
"2@	c #957B7B",
"3@	c #B48883",
"4@	c #C4958B",
"5@	c #CDA090",
"6@	c #D0A993",
"7@	c #CDAF94",
"8@	c #C5B293",
"9@	c #BBB390",
"0@	c #B0B18D",
"a@	c #A4AE88",
"b@	c #9AAC83",
"c@	c #92B080",
"d@	c #8BB17C",
"e@	c #82B379",
"f@	c #7AB176",
"g@	c #76A276",
"h@	c #BDC9BC",
"i@	c #BFC3C3",
"j@	c #8B8D93",
"k@	c #9C909D",
"l@	c #8E7B79",
"m@	c #B0887E",
"n@	c #C19584",
"o@	c #CB9F88",
"p@	c #CDA98B",
"q@	c #CCAF8D",
"r@	c #C5B28B",
"s@	c #BCB489",
"t@	c #B2B386",
"u@	c #A7B183",
"v@	c #9FB480",
"w@	c #9AB97E",
"x@	c #92BB79",
"y@	c #89BB77",
"z@	c #81BB75",
"A@	c #79B278",
"B@	c #76A577",
"C@	c #BDC8BD",
"D@	c #7E8589",
"E@	c #938F9C",
"F@	c #A18CA2",
"G@	c #9E8093",
"H@	c #A78575",
"I@	c #BB927D",
"J@	c #C59D80",
"K@	c #CAA783",
"L@	c #CAAE85",
"M@	c #C4B284",
"N@	c #BCB483",
"O@	c #B4B581",
"P@	c #ABB67E",
"Q@	c #A4BA7B",
"R@	c #9FBF79",
"S@	c #97C376",
"T@	c #8FC376",
"U@	c #87C278",
"V@	c #7EBD7A",
"W@	c #79B37B",
"X@	c #759E78",
"Y@	c #C5C6C7",
"Z@	c #858893",
"`@	c #9A8DA2",
" #	c #A488A7",
".#	c #AB7FA6",
"+#	c #9D807D",
"@#	c #B18F79",
"##	c #BD9A79",
"$#	c #C3A37B",
"%#	c #C5AC7C",
"&#	c #C2B17D",
"*#	c #BDB57C",
"=#	c #B6B77A",
"-#	c #AFBA7A",
";#	c #A9BF79",
">#	c #A4C476",
",#	c #9DC878",
"'#	c #95C979",
")#	c #8DC87B",
"!#	c #84C57D",
"~#	c #7DBD7E",
"{#	c #77AE7E",
"]#	c #90A993",
"^#	c #A2A4A8",
"/#	c #8E8C9E",
"(#	c #9C8BA7",
"_#	c #A786AD",
":#	c #AC7EAE",
"<#	c #A4799E",
"[#	c #A28878",
"}#	c #B49579",
"|#	c #BCA077",
"1#	c #C0A978",
"2#	c #BFAF7B",
"3#	c #BBB479",
"4#	c #B7B977",
"5#	c #B3BE7B",
"6#	c #AEC37B",
"7#	c #A7C87B",
"8#	c #A0CC7E",
"9#	c #9ACD7E",
"0#	c #91CD80",
"a#	c #8ACB80",
"b#	c #80C381",
"c#	c #79B881",
"d#	c #77A480",
"e#	c #D2D7D3",
"f#	c #C0C1C5",
"g#	c #8C889E",
"h#	c #9C89AB",
"i#	c #A584B2",
"j#	c #AA7DB4",
"k#	c #A979B1",
"l#	c #9F7E9F",
"m#	c #A48D7E",
"n#	c #B39A7D",
"o#	c #BAA57D",
"p#	c #BBAE7C",
"q#	c #B9B37C",
"r#	c #B6B97E",
"s#	c #B4C07E",
"t#	c #B0C580",
"u#	c #AACB81",
"v#	c #A4CE82",
"w#	c #9DD083",
"x#	c #95D084",
"y#	c #8DCF85",
"z#	c #85C885",
"A#	c #7CBE85",
"B#	c #76B084",
"C#	c #C3D0C6",
"D#	c #CDCED2",
"E#	c #89849E",
"F#	c #9A87AE",
"G#	c #A082B4",
"H#	c #A47BB6",
"I#	c #A479B6",
"J#	c #A37DB6",
"K#	c #A083B2",
"L#	c #A18F89",
"M#	c #B4A285",
"N#	c #B8AB85",
"O#	c #B6B184",
"P#	c #B4B784",
"Q#	c #B1BE85",
"R#	c #AEC586",
"S#	c #AACB88",
"T#	c #A4CF88",
"U#	c #9ED289",
"V#	c #97D289",
"W#	c #8FD18A",
"X#	c #88CC89",
"Y#	c #80C388",
"Z#	c #78B487",
"`#	c #9AAFA1",
" $	c #7D7A92",
".$	c #9385AC",
"+$	c #9A80B4",
"@$	c #9D7BB8",
"#$	c #9F77BB",
"$$	c #A07BC1",
"%$	c #A283CA",
"&$	c #A28CD5",
"*$	c #A095C1",
"=$	c #A29A8E",
"-$	c #AEAC8D",
";$	c #AEB48D",
">$	c #ACB98C",
",$	c #AAC08D",
"'$	c #A8C68D",
")$	c #A4CC8D",
"!$	c #9ED08F",
"~$	c #97D28F",
"{$	c #91D18F",
"]$	c #89CC8E",
"^$	c #82C48D",
"/$	c #79B38A",
"($	c #96AF9F",
"_$	c #C6C5CE",
":$	c #8B81A6",
"<$	c #9280B1",
"[$	c #977CBD",
"}$	c #9C7BC8",
"|$	c #9E7BD5",
"1$	c #9E80E6",
"2$	c #9D88F9",
"3$	c #A3A0FD",
"4$	c #DEDFF1",
"5$	c #9F9F97",
"6$	c #A3A992",
"7$	c #A5B292",
"8$	c #A4B992",
"9$	c #A2C092",
"0$	c #A0C693",
"a$	c #9CCB93",
"b$	c #96CD93",
"c$	c #90CD92",
"d$	c #88C992",
"e$	c #81C090",
"f$	c #79B08B",
"g$	c #C3D0C8",
"h$	c #BBBAC8",
"i$	c #8F85BC",
"j$	c #937CD5",
"k$	c #9779EF",
"l$	c #9575FA",
"m$	c #B1A0FB",
"n$	c #DAD6F4",
"o$	c #CCCECB",
"p$	c #A2AE9F",
"q$	c #9AB095",
"r$	c #9EBA97",
"s$	c #9BBF97",
"t$	c #97C396",
"u$	c #93C596",
"v$	c #8EC595",
"w$	c #88C394",
"x$	c #80B991",
"y$	c #79A68B",
"z$	c #CBCCF9",
"A$	c #D9DBE2",
"B$	c #BBC8C0",
"C$	c #9DBAA4",
"D$	c #9AC0A2",
"E$	c #95C39F",
"F$	c #91C49D",
"G$	c #8BC39C",
"H$	c #84BD97",
"I$	c #80B195",
"J$	c #A2B1AB",
"K$	c #B9E1CE",
"L$	c #BBECD2",
"M$	c #B5EBCF",
"N$	c #C2E5D2",
". . . . . . . . . +                                             ",
". . . . . . . . . . @ #                                         ",
". .   $ % & * = . . . - ; >         , ' ) ! ~ {                 ",
". .   ] ^ / ( _ : . . < [ } |   1 2 3 4 5 6 7 8 9               ",
". . 0 a b c d e . . . f g h i j k l m n o p q r s t             ",
". . . . . . . . . . u v w x y z A B C D E F G H I J             ",
". . . . . . . . . K L M N O P Q R S T U V W X Y Z `             ",
". .    ...+.. . @.#.$.%.&.*.=.-.;.>.,.'.).!.~.{.].^.            ",
". .   /.(._.. . . :.<.[.}.|.1.2.3.4.5.6.7.8.9.0.a.b.            ",
". .     c.d.e.. . . f.g.h.i.j.k.l.m.n.o.p.q.r.s.t.              ",
". .     u.v.w.x.. . y.z.A.B.C.D.E.F.G.H.I.J.K.L.M.              ",
". .       N.O.P.. . . Q.R.S.T.U.V.W.X.Y.Z.`. +.+++              ",
". .         @+#+$+. . . %+&+*+=+-+;+>+,+'+)+!+~+                ",
"              {+]+^+/+(+_+:+<+[+}+|+1+2+3+4+5+                  ",
"                  6+7+8+9+0+a+b+c+d+e+f+g+h+i+                  ",
"                    j+k+l+m+n+o+p+q+r+s+t+u+                    ",
"                    v+w+x+y+z+A+B+C+D+E+F+G+                    ",
"                  H+I+J+K+L+M+N+O+P+Q+R+S+T+U+                  ",
"                  V+W+X+Y+Z+`+ @.@+@@@#@$@%@&@*@=@              ",
"                -@;@>@,@'@)@!@~@{@]@^@/@(@_@:@<@[@}@            ",
"                |@1@2@3@4@5@6@7@8@9@0@a@b@c@d@e@f@g@h@          ",
"              i@j@k@l@m@n@o@p@q@r@s@t@u@v@w@x@y@z@A@B@C@        ",
"              D@E@F@G@H@I@J@K@L@M@N@O@P@Q@R@S@T@U@V@W@X@        ",
"            Y@Z@`@ #.#+#@###$#%#&#*#=#-#;#>#,#'#)#!#~#{#]#      ",
"            ^#/#(#_#:#<#[#}#|#1#2#3#4#5#6#7#8#9#0#a#b#c#d#e#    ",
"            f#g#h#i#j#k#l#m#n#o#p#q#r#s#t#u#v#w#x#y#z#A#B#C#    ",
"            D#E#F#G#H#I#J#K#L#M#N#O#P#Q#R#S#T#U#V#W#X#Y#Z#`#    ",
"               $.$+$@$#$$$%$&$*$=$-$;$>$,$'$)$!$~${$]$^$/$($    ",
"              _$:$<$[$}$|$1$2$3$4$5$6$7$8$9$0$a$b$c$d$e$f$g$    ",
"                h$i$j$k$l$m$n$      o$p$q$r$s$t$u$v$w$x$y$      ",
"                    z$A$                B$C$D$E$F$G$H$I$J$      ",
"                                              K$L$M$N$          "};
