/* XPM */
static const char * WMTransferFunctionColorBar_xpm[] = {
"32 32 53 1",
" 	c None",
".	c #797979",
"+	c #00FF40",
"@	c #00FF3F",
"#	c #000000",
"$	c #00FF58",
"%	c #00FF59",
"&	c #00FF71",
"*	c #00FF72",
"=	c #00FF8A",
"-	c #00FF89",
";	c #00FFA3",
">	c #00FFBB",
",	c #00FFBC",
"'	c #00FFD5",
")	c #00FFD4",
"!	c #00FFD3",
"~	c #00FFED",
"{	c #00F8FF",
"]	c #00F9FF",
"^	c #00DFFF",
"/	c #00E0FF",
"(	c #00C7FF",
"_	c #00C8FF",
":	c #00AEFF",
"<	c #00AFFF",
"[	c #0096FF",
"}	c #0095FF",
"|	c #007DFF",
"1	c #007EFF",
"2	c #0064FF",
"3	c #0065FF",
"4	c #004BFF",
"5	c #004CFF",
"6	c #0033FF",
"7	c #001AFF",
"8	c #001BFF",
"9	c #0002FF",
"0	c #0001FF",
"a	c #1700FF",
"b	c #1600FF",
"c	c #2F00FF",
"d	c #4900FF",
"e	c #4800FF",
"f	c #6100FF",
"g	c #6000FF",
"h	c #7A00FF",
"i	c #7900FF",
"j	c #9300FF",
"k	c #9200FF",
"l	c #AB00FF",
"m	c #C400FF",
"n	c #C300FF",
"................................",
"................................",
"................................",
".....++@++.#####................",
".....$%%%%.#####................",
".....&&&&*......................",
".....===-=......................",
".....;;;;;......................",
".....>,>>>......................",
".....')))!......................",
".....~~~~~......................",
".....{{{]].#####................",
".....^////.#####................",
".....((__(......................",
".....::::<......................",
".....[}[[[......................",
".....||111......................",
".....22323......................",
".....44555......................",
".....66666......................",
".....77888.#####................",
".....90999.#####................",
".....aaaba......................",
".....ccccc......................",
".....deeee......................",
".....ffgff......................",
".....hihih......................",
".....jkjjk......................",
".....lllll.#####................",
".....mmmnn.#####................",
"................................",
"................................"};
