/* XPM */
static const char * WMSlices_xpm[] = {
"32 32 131 2",
"  	c #FFFFFF",
". 	c #FDFDFD",
"+ 	c #EFEFEF",
"@ 	c #303030",
"# 	c #000000",
"$ 	c #CDCDCD",
"% 	c #D6D6D6",
"& 	c #DEDEDE",
"* 	c #DFDFDF",
"= 	c #E8E8E8",
"- 	c #EBEBEB",
"; 	c #FAFAFA",
"> 	c #CACACA",
", 	c #F5F5F5",
"' 	c #B4B4B4",
") 	c #FCFCFC",
"! 	c #D1D1D1",
"~ 	c #E3E3E3",
"{ 	c #C7C7C7",
"] 	c #40CA4A",
"^ 	c #80DC86",
"/ 	c #B2B2B2",
"( 	c #888888",
"_ 	c #969696",
": 	c #F7F7F7",
"< 	c #CDF1D0",
"[ 	c #01B80E",
"} 	c #5DD265",
"| 	c #C3C3C3",
"1 	c #8F8F8F",
"2 	c #DADADA",
"3 	c #E0E0E0",
"4 	c #98E29D",
"5 	c #E6F8E7",
"6 	c #00B80D",
"7 	c #E5E5E5",
"8 	c #28C333",
"9 	c #32C63C",
"0 	c #15BE21",
"a 	c #20C12C",
"b 	c #DDDDDD",
"c 	c #FEFEFE",
"d 	c #F9F9F9",
"e 	c #D4D4D4",
"f 	c #04B910",
"g 	c #6ED775",
"h 	c #D0D0D0",
"i 	c #F1F1F1",
"j 	c #E2E2E2",
"k 	c #D7D7D7",
"l 	c #FBFBFB",
"m 	c #C1C1C1",
"n 	c #CBCBCB",
"o 	c #EEEEEE",
"p 	c #53CF5C",
"q 	c #CCCCCC",
"r 	c #08BA15",
"s 	c #F2F2F2",
"t 	c #C5C5C5",
"u 	c #D5D5D5",
"v 	c #D9D9D9",
"w 	c #F3F3F3",
"x 	c #C9C9C9",
"y 	c #C6C6C6",
"z 	c #E7E7E7",
"A 	c #D8D8D8",
"B 	c #E1E1E1",
"C 	c #AFAFAF",
"D 	c #D3D3D3",
"E 	c #EDEDED",
"F 	c #CECECE",
"G 	c #F8F8F8",
"H 	c #FFD3D3",
"I 	c #BFB9B9",
"J 	c #BABABA",
"K 	c #FF1E1E",
"L 	c #FF9A9A",
"M 	c #FF5E5E",
"N 	c #BB8F8F",
"O 	c #F0F0F0",
"P 	c #B8B8B8",
"Q 	c #F3C7C7",
"R 	c #FFF9F9",
"S 	c #FF3232",
"T 	c #FFCDCD",
"U 	c #FF2525",
"V 	c #B6B6B6",
"W 	c #E6E6E6",
"X 	c #BEBEBE",
"Y 	c #FD3030",
"Z 	c #FF2323",
"` 	c #FFAFAF",
" .	c #C2C2C2",
"..	c #B5B5B5",
"+.	c #C0C0C0",
"@.	c #FF8080",
"#.	c #FF2020",
"$.	c #FFAAAA",
"%.	c #FF7D7D",
"&.	c #C8C8C8",
"*.	c #909090",
"=.	c #FF0000",
"-.	c #FF2121",
";.	c #BCBCBC",
">.	c #FF9494",
",.	c #FF7E7E",
"'.	c #DCDCDC",
").	c #B9B9B9",
"!.	c #E4E4E4",
"~.	c #B7B7B7",
"{.	c #949494",
"].	c #E9E9E9",
"^.	c #FFBEBE",
"/.	c #FF5555",
"(.	c #AAAAAA",
"_.	c #7F7F7F",
":.	c #A1A1A1",
"<.	c #FFE6E6",
"[.	c #FF7373",
"}.	c #F9CDCD",
"|.	c #F4F4F4",
"1.	c #B1B1B1",
"2.	c #EAEAEA",
"3.	c #C4C4C4",
"4.	c #ABABAB",
"5.	c #FF4C4C",
"6.	c #C9C3C3",
"7.	c #FFA5A5",
"8.	c #FE8080",
"9.	c #BBBBBB",
"0.	c #ECECEC",
"  .                   + @ #                                     ",
"  $ % & * =             #     -                                 ",
"; >     , '             #     )                                 ",
"! ~       { &           # #                                     ",
"  ] ^     / ( _ +       . #         : -                         ",
"< [ }     | _ 1 2         #     # # # # # 3                     ",
"  4 5     6     3 7       #   # #       # # *                   ",
"8 9     0 a     - b       #   # c       d # # e                 ",
"8 <   9 f g     h         # i # d           # # j               ",
"6     a 8     k 3         #   l #             # # .             ",
"  ^           m           #     #               # # .           ",
"6 ^           n         o #   # #                 # #           ",
"9 < ^ p       q         #     # #                   # #         ",
"    6 r     % s       ) #     # t       u v           #         ",
"  ] 6     w x         # o   # #       y z * A         # B       ",
"  ] ^     C :       # D   # # ,   E F w     m c       # #       ",
"      G { +       # # # # #   c F %       H I -       # #       ",
"      ! c       c # # # %   ) J o     K L M N G         #       ",
"    & O       x # # 2     ; P Q R S T K U l V         # #       ",
"    |       w # #       W X Y Z `   T   G | d         # -       ",
"     .      l       w ..+.@.#.$.%.@.S d +.)         s #         ",
"    &.            &.*.B   =.-.M   ) h ;.d         # # #         ",
"    +.        ) ;.1 E   >.,.R H '.).!.          # # i           ",
"    ~.m c + x {.{.].M H ^./.  q =               # !.      . W E ",
"  ; (.+ = _.:.b <.[.H R M }.$ |.                # # # # # # # # ",
"  i 1.2.3.4.c S =.5.  @.Q 6.c                 #                 ",
"    - 1.C l   7.S     8.m                                       ",
"          M H         > E                                       ",
"          H R       i {                                 !.'.j . ",
"                  ; 9..                         2 > F n w   0.&.",
"                ; ..|.                        7 ).          i D ",
"                9.i                             x &.        n   "};
