/* XPM */
static const char * WNoIconDefault_xpm[] = {
"32 32 124 2",
"  	c None",
". 	c #FFFFFF",
"+ 	c #FE5252",
"@ 	c #FF0000",
"# 	c #FEA9A9",
"$ 	c #FEA5A5",
"% 	c #FE5656",
"& 	c #FEE6E6",
"* 	c #FE1010",
"= 	c #FE1616",
"- 	c #FEEDED",
"; 	c #FE1212",
"> 	c #FE1717",
", 	c #FEECEC",
"' 	c #FE9D9D",
") 	c #FE5D5D",
"! 	c #FE4B4B",
"~ 	c #FEAFAF",
"{ 	c #FE4444",
"] 	c #FEB7B7",
"^ 	c #FE9E9E",
"/ 	c #FE5C5C",
"( 	c #FEDEDE",
"_ 	c #FE0B0B",
": 	c #FE1E1E",
"< 	c #FEF3F3",
"[ 	c #FEE3E3",
"} 	c #FE0F0F",
"| 	c #FE1A1A",
"1 	c #FEEEEE",
"2 	c #FE8F8F",
"3 	c #FE6B6B",
"4 	c #FE4646",
"5 	c #FEB4B4",
"6 	c #FEFDFD",
"7 	c #FE3838",
"8 	c #FE0101",
"9 	c #FEC4C4",
"0 	c #FE9898",
"a 	c #FE6161",
"b 	c #FED5D5",
"c 	c #FE0606",
"d 	c #FE2727",
"e 	c #FEF8F8",
"f 	c #FEDFDF",
"g 	c #FE0C0C",
"h 	c #FE1D1D",
"i 	c #FEF0F0",
"j 	c #FE8181",
"k 	c #FE7A7A",
"l 	c #FEFEFE",
"m 	c #FE4141",
"n 	c #FEBABA",
"o 	c #FEFAFA",
"p 	c #FE2D2D",
"q 	c #FE0404",
"r 	c #FED0D0",
"s 	c #FE9292",
"t 	c #FE6767",
"u 	c #FECACA",
"v 	c #FE0303",
"w 	c #FE3333",
"x 	c #FEFCFC",
"y 	c #FEDBDB",
"z 	c #FE0A0A",
"A 	c #FE2020",
"B 	c #FE7272",
"C 	c #FE8888",
"D 	c #FE3B3B",
"E 	c #FEBEBE",
"F 	c #FEF5F5",
"G 	c #FE2323",
"H 	c #FE0808",
"I 	c #FE6C6C",
"J 	c #FEBDBD",
"K 	c #FE2424",
"L 	c #FE6464",
"M 	c #FE0202",
"N 	c #FEC3C3",
"O 	c #FEB0B0",
"P 	c #FEF7F7",
"Q 	c #FEF9F9",
"R 	c #FE1818",
"S 	c #FE8C8C",
"T 	c #FE1414",
"U 	c #FEEBEB",
"V 	c #FEC9C9",
"W 	c #FE5959",
"X 	c #FE2929",
"Y 	c #FEB3B3",
"Z 	c #FE7474",
"` 	c #FE1C1C",
" .	c #FEF1F1",
"..	c #FEC5C5",
"+.	c #FE2F2F",
"@.	c #FE2525",
"#.	c #FE0505",
"$.	c #FE3C3C",
"%.	c #FEC0C0",
"&.	c #FE6E6E",
"*.	c #FE8282",
"=.	c #FED8D8",
"-.	c #FEF6F6",
";.	c #FEBFBF",
">.	c #FEFBFB",
",.	c #FE8686",
"'.	c #FE7575",
").	c #FE2121",
"!.	c #FE0707",
"~.	c #FED4D4",
"{.	c #FE3131",
"].	c #FECCCC",
"^.	c #FE6868",
"/.	c #FECECE",
"(.	c #FE7878",
"_.	c #FE8383",
":.	c #FE0909",
"<.	c #FE2626",
"[.	c #FED6D6",
"}.	c #FE8E8E",
"|.	c #FE3A3A",
"1.	c #FEB5B5",
"2.	c #FE6A6A",
"3.	c #FE9191",
". . + @ @ @ @ @ # . . . . . . . . . . . . . . . $ @ @ @ @ @ % . ",
". . & * @ @ @ @ = - . . . . . . . . . . . . . & ; @ @ @ @ > , . ",
". . . ' @ @ @ @ @ ) . . . . . . . . . . . . . ! @ @ @ @ @ ~ . . ",
". . . . { @ @ @ @ @ ] . . . . . . . . . . . ^ @ @ @ @ @ / . . . ",
". . . . ( _ @ @ @ @ : < . . . . . . . . . [ } @ @ @ @ | 1 . . . ",
". . . . . 2 @ @ @ @ @ 3 . . . . . . . . . 4 @ @ @ @ @ 5 . . . . ",
". . . . . 6 7 @ @ @ @ 8 9 . . . . . . . 0 @ @ @ @ @ a . . . . . ",
". . . . . . b c @ @ @ @ d e . . . . . f g @ @ @ @ h i . . . . . ",
". . . . . . . j @ @ @ @ @ k . . . . l m @ @ @ @ @ n . . . . . . ",
". . . . . . . o p @ @ @ @ q r . . . s @ @ @ @ @ t . . . . . . . ",
". . . . . . . . u v @ @ @ @ w x . y z @ @ @ @ A < . . . . . . . ",
". . . . . . . . . B @ @ @ @ @ C 6 D @ @ @ @ 8 E . . . . . . . . ",
". . . . . . . . . F G @ @ @ @ H 3 @ @ @ @ @ I . . . . . . . . . ",
". . . . . . . . . . J @ @ @ @ @ @ @ @ @ @ K F . . . . . . . . . ",
". . . . . . . . . . . L @ @ @ @ @ @ @ @ M N . . . . . . . . . . ",
". . . . . . . . . . . i | @ @ @ @ @ @ @ B . . . . . . . . . . . ",
". . . . . . . . . . . . O @ @ @ @ @ @ d P . . . . . . . . . . . ",
". . . . . . . . . . . . Q R @ @ @ @ @ S . . . . . . . . . . . . ",
". . . . . . . . . . . . k @ @ @ @ @ @ T U . . . . . . . . . . . ",
". . . . . . . . . . . V v @ @ @ @ @ @ @ W . . . . . . . . . . . ",
". . . . . . . . . . P X @ @ @ @ @ @ @ @ @ Y . . . . . . . . . . ",
". . . . . . . . . . Z @ @ @ @ @ @ @ @ @ @ `  .. . . . . . . . . ",
". . . . . . . . . ..M @ @ @ @ +.2 @ @ @ @ @ t . . . . . . . . . ",
". . . . . . . . F @.@ @ @ @ #.r l $.@ @ @ @ 8 %.. . . . . . . . ",
". . . . . . . . &.@ @ @ @ @ *.. . =.H @ @ @ @ @.-.. . . . . . . ",
". . . . . . . ;.8 @ @ @ @ w >.. . . ,.@ @ @ @ @ '.. . . . . . . ",
". . . . . . < ).@ @ @ @ !.~.. . . . >.{.@ @ @ @ v ].. . . . . . ",
". . . . . . ^.@ @ @ @ @ C . . . . . . /.q @ @ @ @ +.o . . . . . ",
". . . . . n @ @ @ @ @ 7 x . . . . . . . (.@ @ @ @ @ _.. . . . . ",
". . . .  .h @ @ @ @ :.=.. . . . . . . . P <.@ @ @ @ !.[.. . . . ",
". . . . a @ @ @ @ @ }.. . . . . . . . . . N 8 @ @ @ @ |.6 . . . ",
". . . 1.@ @ @ @ @ $.6 . . . . . . . . . . . 2.@ @ @ @ @ 3.. . . "};
