/* XPM */
static const char * coordinateHUD_xpm[] = {
"16 16 5 1",
" 	c None",
".	c #FF0000",
"+	c #0072FF",
"@	c #000000",
"#	c #12FF00",
"..            ++",
"..            ++",
"..          ++  ",
"..          ++  ",
"..        ++    ",
"..        ++    ",
"..      ++      ",
"..      ++      ",
"..    ++        ",
"..    ++        ",
".@@ @+@@ @ @@@@ ",
".@@ @+@@ @ @@ @@",
".@@@@ @@ @ @@  @",
".@@+@ @@ @ @@ @@",
".@@#@#@@@@#@@@@#",
"..##############"};
