/* XPM */
static const char * option_1_xpm[] = {
"16 16 4 1",
" 	c None",
".	c #FF0000",
"+	c #0072FF",
"@	c #12FF00",
"..            ++",
"..            ++",
"..          ++  ",
"..          ++  ",
"..        ++    ",
"..        ++    ",
"..      ++      ",
"..      ++      ",
"..    ++        ",
"..    ++        ",
"..  ++          ",
"..  ++          ",
"..++            ",
"..++            ",
"..@@@@@@@@@@@@@@",
"..@@@@@@@@@@@@@@"};
