/* XPM */
static const char * option_4_xpm[] = {
"16 16 4 1",
" 	c None",
".	c #646464",
"+	c #BABABA",
"@	c #363636",
"                ",
"                ",
"                ",
"   ...........  ",
"  ...........+  ",
" ...........++  ",
"...........+++  ",
"@@@@@@@@@@++++  ",
"@@@@@@@@@@++++  ",
"@@@@@@@@@@++++  ",
"@@@@@@@@@@++++  ",
"@@@@@@@@@@++++  ",
"@@@@@@@@@@++++  ",
"@@@@@@@@@@+++   ",
"@@@@@@@@@@++    ",
"@@@@@@@@@@+     "};
