/* XPM */
static const char * apply_mask_xpm[] = {
"25 25 2 1",
" 	c None",
".	c #000000",
"                         ",
"                         ",
"                         ",
"            .....        ",
"        ..........       ",
"      ..............     ",
"    .................    ",
"   ...................   ",
"  .....................  ",
" ....................... ",
" ....................... ",
" ........................",
" ........................",
" ........................",
" ........................",
"  .......................",
"    ...   .............. ",
"            ............ ",
"             ..........  ",
"              ........   ",
"               ......    ",
"                ...      ",
"                         ",
"                         ",
"                         "};
