/* XPM */
static const char * WMGridRenderer_xpm[] = {
"32 32 3 1",
" 	c None",
".	c #7D7D7D",
"+	c #000000",
"                                ",
" .............................. ",
" .............................. ",
" .............................. ",
" ... +   +   +   +   +   +  ... ",
" ... +   +   +   +   +   +  ... ",
" ...++++++++++++++++++++++++... ",
" ... +   +   +   +   +   +  ... ",
" ... +   +   +   +   +   +  ... ",
" ... +   +   +   +   +   +  ... ",
" ...++++++++++++++++++++++++... ",
" ... +   +   +   +   +   +  ... ",
" ... +   +   +   +   +   +  ... ",
" ... +   +   +   +   +   +  ... ",
" ...++++++++++++++++++++++++... ",
" ... +   +   +   +   +   +  ... ",
" ... +   +   +   +   +   +  ... ",
" ... +   +   +   +   +   +  ... ",
" ...++++++++++++++++++++++++... ",
" ... +   +   +   +   +   +  ... ",
" ... +   +   +   +   +   +  ... ",
" ... +   +   +   +   +   +  ... ",
" ...++++++++++++++++++++++++... ",
" ... +   +   +   +   +   +  ... ",
" ... +   +   +   +   +   +  ... ",
" ... +   +   +   +   +   +  ... ",
" ...++++++++++++++++++++++++... ",
" ... +   +   +   +   +   +  ... ",
" .............................. ",
" .............................. ",
" .............................. ",
"                                "};
