/* XPM */
static const char * WMGridRenderer_boundary_xpm[] = {
"32 32 2 1",
" 	c None",
".	c #7D7D7D",
"                                ",
" .............................. ",
" .............................. ",
" .............................. ",
" ...                        ... ",
" ...                        ... ",
" ...                        ... ",
" ...                        ... ",
" ...                        ... ",
" ...                        ... ",
" ...                        ... ",
" ...                        ... ",
" ...                        ... ",
" ...                        ... ",
" ...                        ... ",
" ...                        ... ",
" ...                        ... ",
" ...                        ... ",
" ...                        ... ",
" ...                        ... ",
" ...                        ... ",
" ...                        ... ",
" ...                        ... ",
" ...                        ... ",
" ...                        ... ",
" ...                        ... ",
" ...                        ... ",
" ...                        ... ",
" .............................. ",
" .............................. ",
" .............................. ",
"                                "};
