/* XPM */
static const char * WMWriteTransferFunction_xpm[] = {
"32 32 308 2",
"  	c None",
". 	c #000000",
"+ 	c #000001",
"@ 	c #040206",
"# 	c #0C000D",
"$ 	c #F900D0",
"% 	c #FF00AF",
"& 	c #F00070",
"* 	c #480015",
"= 	c #690084",
"- 	c #ED00F3",
"; 	c #FF00D8",
"> 	c #FE00A6",
", 	c #FF0077",
"' 	c #EC0044",
") 	c #010300",
"! 	c #153800",
"~ 	c #072000",
"{ 	c #110029",
"] 	c #7A00C8",
"^ 	c #CF00FF",
"/ 	c #F700FE",
"( 	c #FF00D7",
"_ 	c #FF00A7",
": 	c #FF0048",
"< 	c #BF0012",
"[ 	c #102200",
"} 	c #67FF00",
"| 	c #32F700",
"1 	c #06AE00",
"2 	c #000B00",
"3 	c #1B0068",
"4 	c #6500F9",
"5 	c #9800FF",
"6 	c #C700FE",
"7 	c #FF0078",
"8 	c #FE0048",
"9 	c #FF0017",
"0 	c #79D200",
"a 	c #65FF00",
"b 	c #35FE00",
"c 	c #06FF01",
"d 	c #00FF29",
"e 	c #008A2F",
"f 	c #000609",
"g 	c #010007",
"h 	c #3900FF",
"i 	c #6700FE",
"j 	c #9700FF",
"k 	c #C700FF",
"l 	c #F600FE",
"m 	c #FF00A8",
"n 	c #FF0079",
"o 	c #FF0049",
"p 	c #374C00",
"q 	c #9CFF00",
"r 	c #65FE00",
"s 	c #36FF00",
"t 	c #07FF00",
"u 	c #00FB57",
"v 	c #000C06",
"w 	c #00C2D7",
"x 	c #00B4FB",
"y 	c #0064B5",
"z 	c #0700C6",
"A 	c #3700FF",
"B 	c #6600FF",
"C 	c #9600FF",
"D 	c #C600FF",
"E 	c #FF00D9",
"F 	c #FF00A9",
"G 	c #FF004A",
"H 	c #FF0018",
"I 	c #020200",
"J 	c #98CB00",
"K 	c #95FE00",
"L 	c #66FF00",
"M 	c #00FF28",
"N 	c #00FF58",
"O 	c #00E478",
"P 	c #00CB92",
"Q 	c #00E4D0",
"R 	c #00ECFF",
"S 	c #00B7FE",
"T 	c #008AFF",
"U 	c #005EFF",
"V 	c #002AFF",
"W 	c #0700FF",
"X 	c #3600FE",
"Y 	c #9500FF",
"Z 	c #C500FE",
"` 	c #F600FF",
" .	c #FF00DA",
"..	c #FF007A",
"+.	c #131600",
"@.	c #D1FF00",
"#.	c #96FF00",
"$.	c #37FF00",
"%.	c #08FF00",
"&.	c #00FF27",
"*.	c #00FF57",
"=.	c #00FF87",
"-.	c #00FFB6",
";.	c #00FFE7",
">.	c #00E9FF",
",.	c #00B8FF",
"'.	c #0088FF",
").	c #0059FF",
"!.	c #0029FF",
"~.	c #3500FF",
"{.	c #6500FF",
"].	c #C400FF",
"^.	c #F500FF",
"/.	c #FF00AA",
"(.	c #FF004B",
"_.	c #FF0019",
":.	c #DFE600",
"<.	c #C8FF00",
"[.	c #98FF00",
"}.	c #38FF00",
"|.	c #00FF26",
"1.	c #00FF86",
"2.	c #00FFE6",
"3.	c #00EAFF",
"4.	c #0089FF",
"5.	c #0601FF",
"6.	c #3400FF",
"7.	c #9400FF",
"8.	c #FF00DB",
"9.	c #FF00AB",
"0.	c #FF007B",
"a.	c #FF001A",
"b.	c #4E4600",
"c.	c #FAFF00",
"d.	c #C7FF00",
"e.	c #97FF00",
"f.	c #68FF00",
"g.	c #00FF25",
"h.	c #00FF56",
"i.	c #00FF85",
"j.	c #00FFB5",
"k.	c #00B9FF",
"l.	c #005BFF",
"m.	c #6400FF",
"n.	c #9300FF",
"o.	c #C300FF",
"p.	c #F300FF",
"q.	c #FF00DC",
"r.	c #FF00AC",
"s.	c #FF007C",
"t.	c #FF004C",
"u.	c #BEA400",
"v.	c #F7FE00",
"w.	c #69FF00",
"x.	c #39FF00",
"y.	c #00FF55",
"z.	c #00FF84",
"A.	c #00FFB4",
"B.	c #00FFE5",
"C.	c #00EBFF",
"D.	c #00BAFF",
"E.	c #005AFF",
"F.	c #002BFF",
"G.	c #0501FF",
"H.	c #3300FF",
"I.	c #6300FF",
"J.	c #C200FF",
"K.	c #F200FF",
"L.	c #FF00DD",
"M.	c #FF007D",
"N.	c #FF004D",
"O.	c #FF001B",
"P.	c #1E1500",
"Q.	c #FFE200",
"R.	c #F8FE00",
"S.	c #99FF00",
"T.	c #3AFF00",
"U.	c #09FF00",
"V.	c #00FF24",
"W.	c #00FF54",
"X.	c #00BBFF",
"Y.	c #008BFF",
"Z.	c #0502FF",
"`.	c #6200FF",
" +	c #9200FF",
".+	c #FF00AD",
"++	c #FF004E",
"@+	c #FF001C",
"#+	c #F39F00",
"$+	c #FFD500",
"%+	c #C9FF00",
"&+	c #9AFF00",
"*+	c #6AFF00",
"=+	c #0AFF00",
"-+	c #00FF23",
";+	c #00FF83",
">+	c #00FFB3",
",+	c #00FFE4",
"'+	c #008CFF",
")+	c #005CFF",
"!+	c #002CFF",
"~+	c #3200FF",
"{+	c #C100FF",
"]+	c #F100FF",
"^+	c #FF00DE",
"/+	c #FF007E",
"(+	c #FF004F",
"_+	c #FF001D",
":+	c #402200",
"<+	c #FEA400",
"[+	c #F8FD00",
"}+	c #CAFF00",
"|+	c #3BFF00",
"1+	c #00FF53",
"2+	c #00FFB2",
"3+	c #00FFE3",
"4+	c #00EDFF",
"5+	c #00BCFF",
"6+	c #005DFF",
"7+	c #002DFF",
"8+	c #0503FF",
"9+	c #3100FF",
"0+	c #6100FF",
"a+	c #9100FF",
"b+	c #FF007F",
"c+	c #E76A00",
"d+	c #FFA500",
"e+	c #FFD400",
"f+	c #F9FD00",
"g+	c #9BFF00",
"h+	c #6BFF00",
"i+	c #3CFF00",
"j+	c #0CFF00",
"k+	c #00FF22",
"l+	c #00FF52",
"m+	c #00FF82",
"n+	c #00FFE2",
"o+	c #00EEFF",
"p+	c #008DFF",
"q+	c #0402FF",
"r+	c #6000FF",
"s+	c #9000FF",
"t+	c #C000FF",
"u+	c #F000FF",
"v+	c #FF00DF",
"w+	c #FF0050",
"x+	c #FF001E",
"y+	c #FF7A00",
"z+	c #FFD300",
"A+	c #CBFF00",
"B+	c #6CFF00",
"C+	c #00FFB1",
"D+	c #00BDFF",
"E+	c #008EFF",
"F+	c #002EFF",
"G+	c #0403FF",
"H+	c #3000FF",
"I+	c #8F00FF",
"J+	c #BF00FF",
"K+	c #EF00FF",
"L+	c #FF00E0",
"M+	c #FF00B0",
"N+	c #FF0080",
"O+	c #0A0000",
"P+	c #471300",
"Q+	c #FF7700",
"R+	c #FFA300",
"S+	c #CCFF00",
"T+	c #3DFF00",
"U+	c #0DFF00",
"V+	c #00FF21",
"W+	c #00FF51",
"X+	c #00FF81",
"Y+	c #00FFB0",
"Z+	c #00FFE1",
"`+	c #00EFFF",
" @	c #00BEFF",
".@	c #002FFF",
"+@	c #5F00FF",
"@@	c #BE00FF",
"#@	c #EE00FF",
"$@	c #FF0081",
"%@	c #FF0051",
"&@	c #FF001F",
"*@	c #E30F00",
"=@	c #FF4400",
"-@	c #FE7200",
";@	c #FFA200",
">@	c #FFD200",
",@	c #F9FC00",
"'@	c #CDFF00",
")@	c #9DFF00",
"!@	c #6DFF00",
"~@	c #3EFF00",
"{@	c #00FF20",
"]@	c #00FF50",
"^@	c #00FF80",
"/@	c #00FFE0",
"(@	c #00F0FF",
"_@	c #008FFF",
":@	c #005FFF",
"<@	c #0304FF",
"[@	c #2F00FF",
"}@	c #5E00FF",
"|@	c #8E00FF",
"1@	c #BD00FF",
"2@	c #FF00E1",
"3@	c #FF0020",
". .         . .         . .                                     ",
". .         . .         . .                                     ",
". .     . . . . . .     . .                                     ",
". .     . . . . . .     . .                                     ",
". .     . .     . .     . .                                     ",
". .     . .     . .     . .                                     ",
". .     . .     . .     . .                                     ",
". .     . .     . .     . .                                     ",
". . . . . .     . . . . . .                                     ",
". . . . . .     . . . . . .                                     ",
"    . .             + .                                         ",
"    . .             . @                               . . .     ",
"                                                    . . . . .   ",
"            . . .                                 . . . . . . . ",
"            . . . .                             . . # $ % & * . ",
"            . . . . .                       . . . = - ; > , ' . ",
"            . ) ! ~ . . .             . . . . { ] ^ / ( _ , : < ",
"            . [ } | 1 2 . . . . . . . . . . 3 4 5 6 / ; _ 7 8 9 ",
"          . . 0 a b c d e . . . . . f . . g h i j k l ; m n o 9 ",
"        . . p q r s t d u v . . w x y . . z A B C D l E F n G H ",
"        . I J K L s t M N O P Q R S T U V W X B Y Z `  .F ..G H ",
"      . . +.@.#.L $.%.&.*.=.-.;.>.,.'.).!.W ~.{.Y ].^. ./...(._.",
"      . . :.<.[.} }.%.|.*.1.-.2.3.,.4.).V 5.6.{.7.].^.8.9.0.(.a.",
"      . b.c.d.e.f.}.%.g.h.i.j.2.3.k.T l.V 5.6.m.n.o.p.q.r.s.t.a.",
"    . . u.v.<.[.w.x.%.g.y.z.A.B.C.D.T E.F.G.H.I.n.J.K.L.r.M.N.O.",
"  . . P.Q.R.<.S.w.T.U.V.W.z.A.B.C.X.Y.l.F.Z.H.`. +J.K.L..+M.++@+",
"  . . #+$+R.%+&+*+T.=+-+W.;+>+,+R X.'+)+!+Z.~+`. +{+]+^+.+/+(+_+",
". . :+<+$+[+}+&+*+|+=+-+1+;+2+3+4+5+'+6+7+8+9+0+a+{+]+^+% b+(+_+",
". . c+d+e+f+}+g+h+i+j+k+l+m+2+n+o+5+p+6+7+q+9+r+s+t+u+v+% b+w+x+",
". . y+<+z+f+A+g+B+i+j+k+l+m+C+n+o+D+E+U F+G+H+r+I+J+K+L+M+N+w+x+",
"O+P+Q+R+z+f+S+q B+T+U+V+W+X+Y+Z+`+ @E+U .@G+H++@I+@@#@L+M+$@%@&@",
"*@=@-@;@>@,@'@)@!@~@U+{@]@^@Y+/@(@ @_@:@.@<@[@}@|@1@#@2@M+$@%@3@"};
