/* XPM */
static const char * WMHARDIToSphericalHarmonics_xpm[] = {
"16 16 10 1",
" 	c None",
".	c #B1B1B1",
"+	c #FAFCCC",
"@	c #E6F314",
"#	c #959595",
"$	c #E6F400",
"%	c #F40000",
"&	c #E9EBBC",
"*	c #151D87",
"=	c #1E2682",
"                ",
"                ",
"                ",
"                ",
"                ",
"                ",
"         .+@.   ",
"       #$$%%%$# ",
"       $$$%%%%$ ",
"      .$$$%%%%$.",
"      &$$$%%%%%&",
"      &$$$$$$$$&",
"      .**$$$$$$.",
"       *****$$$ ",
"       #*****$# ",
"         .*=.   "};
