/* XPM */
static const char * coordinateSystem_xpm[] = {
"32 32 10 1",
" 	c None",
".	c #000000",
"+	c #0000FF",
"@	c #00FF00",
"#	c #007500",
"$	c #007B00",
"%	c #000A00",
"&	c #004000",
"*	c #00F600",
"=	c #FF0000",
"        ..... +++       .   .   ",
"            . +++       .   .   ",
"           .  +++       .. .    ",
"          .   +++        . .    ",
"         .    +++        ...    ",
"         .    +++         .  @@@",
"        ..... +++         .@@@@@",
"              +++        #$@@@@@",
"              +++       %&*@@@@ ",
"              +++     @@@@@@@   ",
"              +++    @@@@@@     ",
"              +++  @@@@@@@      ",
"              +++@@@@@@@        ",
"              +++@@@@@@         ",
"==============@@@===============",
"=============@@@@===============",
"===========@@@@@@===============",
"         @@@@@@@+               ",
"        @@@@@@+++        .    . ",
"      @@@@@@@ +++         .  .  ",
"     @@@@@@   +++            .  ",
"   @@@@@@@    +++          ..   ",
" @@@@@@@      +++          ..   ",
"@@@@@@@       +++            .  ",
"@@@@@         +++         .  .  ",
"@@@           +++        .    . ",
"              +++               ",
"              +++               ",
"              +++               ",
"              +++               ",
"              +++               ",
"              +++               "};
