/* XPM */
static char const * WMHistogramView_xpm[] = {
"32 32 4 1",
" 	c None",
".	c #000000",
"+	c #2BBA32",
"@	c #1F2BCD",
"                                ",
"                                ",
"                                ",
"                                ",
"                                ",
"  .                             ",
"  .                             ",
"  .                             ",
"  .                  ++         ",
"  .                  ++         ",
"  .                  ++         ",
"  .                  ++         ",
"  .                  ++++       ",
"  .  ++              ++++       ",
"  .  ++++            ++++       ",
"  .  @@++            ++++       ",
"  .++@@++            ++++       ",
"  .++@@@@            ++++       ",
"  .++@@@@            ++++       ",
"  .@@@@@@            ++++       ",
"  .@@@@@@++        ++++++       ",
"  .@@@@@@++        ++++++++     ",
"  .@@@@@@++        ++++++++     ",
"  .@@@@@@@@        ++++++++     ",
"  .@@@@@@@@++      ++++++++++   ",
"  .@@@@@@@@++      ++++++++++   ",
"  .@@@@@@@@++++++++++++++++++   ",
"  .@@@@@@@@@@++++++++++++++++   ",
"  .@@@@@@@@@@@@@@@@@@@@@@@@++   ",
"  ...........................   ",
"                                ",
"                                "};
