/* XPM */
static const char * WMImageSpaceLIC_xpm[] = {
"32 32 90 1",
" 	c None",
".	c #A7A7A7",
"+	c #FF0000",
"@	c #BD7C7C",
"#	c #E62E2E",
"$	c #F90B0B",
"%	c #FD0202",
"&	c #F41414",
"*	c #DE3E3E",
"=	c #BB8080",
"-	c #C27171",
";	c #FE0101",
">	c #F01C1C",
",	c #E43232",
"'	c #B58C8C",
")	c #A8A4A4",
"!	c #AE9999",
"~	c #C46E6E",
"{	c #E92929",
"]	c #FD0303",
"^	c #AC9B9B",
"/	c #F31414",
"(	c #D15656",
"_	c #AD9B9B",
":	c #C86767",
"<	c #FE0000",
"[	c #F21717",
"}	c #E03838",
"|	c #C66B6B",
"1	c #A8A3A3",
"2	c #FB0707",
"3	c #EE1F1F",
"4	c #AE9898",
"5	c #A8A5A5",
"6	c #B58B8B",
"7	c #CA6363",
"8	c #F21616",
"9	c #DF3C3C",
"0	c #B39090",
"a	c #F80C0C",
"b	c #AD9999",
"c	c #EC2323",
"d	c #CB6262",
"e	c #B48C8C",
"f	c #A9A2A2",
"g	c #A9A3A3",
"h	c #B88585",
"i	c #E72C2C",
"j	c #F01B1B",
"k	c #C37070",
"l	c #B88484",
"m	c #D84848",
"n	c #EF1E1E",
"o	c #FB0505",
"p	c #F51111",
"q	c #E23636",
"r	c #BB7F7F",
"s	c #D5D5D5",
"t	c #AAAAAA",
"u	c #BDBDBD",
"v	c #CCCCCC",
"w	c #D3D3D3",
"x	c #CBCBCB",
"y	c #BABABA",
"z	c #AFAFAF",
"A	c #D0D0D0",
"B	c #C9C9C9",
"C	c #A8A8A8",
"D	c #A9A9A9",
"E	c #CFCFCF",
"F	c #C8C8C8",
"G	c #B1B1B1",
"H	c #B9B9B9",
"I	c #BEBEBE",
"J	c #BCBCBC",
"K	c #CACACA",
"L	c #B8B8B8",
"M	c #B5B5B5",
"N	c #B2B2B2",
"O	c #D2D2D2",
"P	c #D4D4D4",
"Q	c #D1D1D1",
"R	c #ABABAB",
"S	c #B3B3B3",
"T	c #BBBBBB",
"U	c #B4B4B4",
"V	c #C7C7C7",
"W	c #B0B0B0",
"X	c #C3C3C3",
"Y	c #C6C6C6",
"................................",
"................................",
".........++....@#$%&*=..........",
".........++...-;++++++..........",
".........++...>+,')!~{..........",
".........++...]+^...............",
".........++.../+(_..............",
".........++...:++<[}|1..........",
".........++....@,2+++34.........",
".........++......5678+9.........",
".........++.........0+a.........",
".........++.........b+].........",
".........++...cdefghi+j.........",
".........++...+++++++;k.........",
".........++...lmno]pqr..........",
"................................",
"................................",
"....ss........ss....tuvwwxy.....",
"....ss........ss...zAssssssBC...",
"....ss........ss..DEsFGCDHwsI...",
"....ss........ss..JsK.....LsE...",
"....ss........ss..xsM......Nt...",
"....ss........ss..Ost...........",
"....ss........ss..Ps............",
"....ss........ss..QsR...........",
"....ss........ss..BsM......CS...",
"....ss........ss..TsB.....UwV...",
"....ss........ss..DAsVz.tLwsS...",
"....ssssssss..ss...WEssssssX....",
"....ssssssss..ss....CLYQwxy.....",
"................................",
"................................"};
