/* XPM */
static const char * moriTracking_xpm[] = {
"32 32 4 1",
" 	c None",
".	c #0000FF",
"+	c #AAAAFF",
"@	c #000000",
"                                ",
"                                ",
"                 ...         ...",
"        ... ++++.....       ....",
"       .....++++.....      +....",
"       .....++++.....     ++....",
"      +.....++   ...++   ++++...",
"      ++...       +++++ +++++   ",
"      +++          +++...+++    ",
"     ++++           +.....+     ",
"     ++++            .....      ",
"    ++++             .....      ",
"    ...+              ...       ",
"   .....                        ",
"   .....                        ",
"   .....                        ",
"   +...                         ",
"   +++           @@@       @@@  ",
"   +++           @@@@     @@@@  ",
"   +++           @@@@     @@@@  ",
"   +++           @@@@     @@@@  ",
"   +++           @@ @@   @@ @@  ",
"  ++++           @@ @@   @@ @@  ",
"  ++++           @@ @@   @@ @@  ",
"  +++            @@  @   @  @@  ",
"  +++            @@  @@ @@  @@  ",
"  ...            @@  @@ @@  @@  ",
" .....           @@  @@@@@  @@  ",
" .....           @@   @@@   @@  ",
" .....           @@   @@@   @@  ",
"  ...                           ",
"                                "};
