/* XPM */
static const char * arbitraryPlane_xpm[] = {
"32 32 83 1",
" 	c None",
".	c #FFFFFF",
"+	c #FEFEFE",
"@	c #FCFCFC",
"#	c #C4C4C4",
"$	c #FDFDFD",
"%	c #F2F2F2",
"&	c #E5E5E5",
"*	c #F5F5F5",
"=	c #D9D9D9",
"-	c #BDBDBD",
";	c #CBCBCB",
">	c #E7E7E7",
",	c #F8F8F8",
"'	c #C5C5C5",
")	c #ECECEC",
"!	c #C2C2C2",
"~	c #C1C1C1",
"{	c #C0C0C0",
"]	c #D4D4D4",
"^	c #E8E8E8",
"/	c #FBFBFB",
"(	c #D1D1D1",
"_	c #C3C3C3",
":	c #A9A9A9",
"<	c #F3F3F3",
"[	c #989898",
"}	c #CDCDCD",
"|	c #DDDDDD",
"1	c #F7F7F7",
"2	c #C6C6C6",
"3	c #999999",
"4	c #E4E4E4",
"5	c #D8D8D8",
"6	c #CFCFCF",
"7	c #EFEFEF",
"8	c #F0F0F0",
"9	c #D6D6D6",
"0	c #F9F9F9",
"a	c #DFDFDF",
"b	c #CCCCCC",
"c	c #A8A8A8",
"d	c #E3E3E3",
"e	c #E1E1E1",
"f	c #BCBCBC",
"g	c #D0D0D0",
"h	c #F6F6F6",
"i	c #E2E2E2",
"j	c #B2B2B2",
"k	c #F1F1F1",
"l	c #C9C9C9",
"m	c #BFBFBF",
"n	c #C7C7C7",
"o	c #B8B8B8",
"p	c #B3B3B3",
"q	c #B7B7B7",
"r	c #B4B4B4",
"s	c #B1B1B1",
"t	c #EEEEEE",
"u	c #B5B5B5",
"v	c #B6B6B6",
"w	c #BBBBBB",
"x	c #B9B9B9",
"y	c #C8C8C8",
"z	c #BABABA",
"A	c #BEBEBE",
"B	c #A3A3A3",
"C	c #AFAFAF",
"D	c #ACACAC",
"E	c #FAFAFA",
"F	c #A5A5A5",
"G	c #A6A6A6",
"H	c #9C9C9C",
"I	c #9B9B9B",
"J	c #D5D5D5",
"K	c #DCDCDC",
"L	c #959595",
"M	c #EBEBEB",
"N	c #E6E6E6",
"O	c #CACACA",
"P	c #F4F4F4",
"Q	c #EAEAEA",
"R	c #D2D2D2",
"..........+...+.@#..............",
".........+.+$...@#..............",
"...........%&*+.@#..............",
"........+.@=-;>,+'..............",
".........+)#!~{]^!..+...........",
"........./({__!{!:<...+.........",
".......+.&~!____{[}|1...........",
"........,2!_____~3'_}4+.+.......",
"......+.5~______~32!!'67..+.....",
"..+..+.8!!______~[2__!_'90..+...",
"{a.....b!__!!!!!~c'!!!!!_2d+.++.",
".efgh.i_____####_j'######_!}8@@7",
"...kl'm~!###_###_j'####_##_{{n#(",
"..+..|opqm{_###__j'#_###{mfrs6+.",
"..+.tl#'muvwf~##_j'#'!--qux#y8..",
".+./9!__#'_zqxzf#p2Azxoq~'#!|@.+",
"...^'_###_##'AwwuBvwzA#'#_!b<.+.",
"+.,g!####__'2'zrCcjjA'2#__'i..+.",
".$4!_##_#2nqDuf{~p_{zr:'n'gE.+..",
"+*2___#n2F[GA!#'#p2'__wHIq7..+..",
"+<b~'yu33q__#'''#p2#''#!!vAJ$...",
"..@KGLc#''#'''''#p2''''#2*.M_!<+",
"0^{lN=y##'''''''#p2'''##a.+..+}{",
"25....M6n##'''''#p2'''#O+...+...",
"..+++..+i}'##'''#p2''##).+......",
"......+..hK;_#''#p2''!9++.......",
"...........t52_##p2'#nP++.......",
".........+../QR!_p2#!e$.........",
"..........++..1Nlj2_6h..........",
"............+..$Pz2#>..+........",
"..............+.@#*d0.+.........",
"................@#.++.+........."};
