/* XPM */
static const char * WMReadAmiraMesh_xpm[] = {
"32 32 441 2",
"  	c None",
". 	c #010101",
"+ 	c #000000",
"@ 	c #181818",
"# 	c #D2D2D2",
"$ 	c #FDFDFD",
"% 	c #FCFCFC",
"& 	c #FEFDFD",
"* 	c #FDFDFC",
"= 	c #FDFCFD",
"- 	c #FDFDFE",
"; 	c #030303",
"> 	c #1B1B1B",
", 	c #222121",
"' 	c #1E1E1E",
") 	c #242424",
"! 	c #151515",
"~ 	c #262626",
"{ 	c #D0D0D0",
"] 	c #F7F7F7",
"^ 	c #F7F6F7",
"/ 	c #F7F7F6",
"( 	c #F7F6F6",
"_ 	c #F6F6F6",
": 	c #F6F6F7",
"< 	c #1A1A1A",
"[ 	c #BABABB",
"} 	c #E0DFE0",
"| 	c #D0D0CF",
"1 	c #D1D1D1",
"2 	c #DEDDDE",
"3 	c #C8C8C9",
"4 	c #383839",
"5 	c #2A2A2A",
"6 	c #DBDBDB",
"7 	c #EEEEEE",
"8 	c #EDEEEE",
"9 	c #EEEEED",
"0 	c #EDEDEE",
"a 	c #EEEDED",
"b 	c #EDEDED",
"c 	c #EEEDEE",
"d 	c #232323",
"e 	c #E1E1E1",
"f 	c #E7E6E7",
"g 	c #E7E6E6",
"h 	c #E6E6E7",
"i 	c #E6E6E6",
"j 	c #B6B6B6",
"k 	c #020202",
"l 	c #C1C1C1",
"m 	c #E5E5E5",
"n 	c #E6E6E5",
"o 	c #E5E6E6",
"p 	c #E5E5E6",
"q 	c #E6E5E6",
"r 	c #B0AFAF",
"s 	c #D2D1D1",
"t 	c #C3C3C3",
"u 	c #CECECE",
"v 	c #BBBBBB",
"w 	c #353535",
"x 	c #272727",
"y 	c #CCCCCC",
"z 	c #DEDEDE",
"A 	c #DEDEDD",
"B 	c #DEDDDD",
"C 	c #DDDDDD",
"D 	c #0D0D0D",
"E 	c #101010",
"F 	c #0F0F0F",
"G 	c #1F1F1F",
"H 	c #111111",
"I 	c #1D1D1D",
"J 	c #D6D6D5",
"K 	c #D6D6D6",
"L 	c #D6D5D6",
"M 	c #D5D5D6",
"N 	c #D5D6D5",
"O 	c #D5D5D5",
"P 	c #0C0C0C",
"Q 	c #101110",
"R 	c #2F2F2F",
"S 	c #B4B4B4",
"T 	c #CECECD",
"U 	c #CCCBCC",
"V 	c #CDCECE",
"W 	c #CDCECD",
"X 	c #CECDCE",
"Y 	c #CDCDCD",
"Z 	c #9D9D9D",
"` 	c #BBBBBC",
" .	c #9A9A9A",
"..	c #050505",
"+.	c #9E9E9E",
"@.	c #C6C6C6",
"#.	c #C2C1C2",
"$.	c #C6C5C6",
"%.	c #C5C6C5",
"&.	c #C5C6C6",
"*.	c #C5C5C6",
"=.	c #C5C5C5",
"-.	c #B2B2B2",
";.	c #BEBEBE",
">.	c #B7B7B7",
",.	c #2B2B2A",
"'.	c #A2A2A2",
").	c #BEBEBD",
"!.	c #BEBDBD",
"~.	c #BEBDBE",
"{.	c #BDBEBE",
"].	c #BDBDBD",
"^.	c #BDBEBD",
"/.	c #BDBDBE",
"(.	c #BDBDBC",
"_.	c #BDBCBC",
":.	c #161616",
"<.	c #9F9F9F",
"[.	c #B5B5B5",
"}.	c #989898",
"|.	c #AFAEAF",
"1.	c #B3B3B3",
"2.	c #B5B6B5",
"3.	c #B6B6B5",
"4.	c #B6B5B6",
"5.	c #B5B6B6",
"6.	c #B5B5B6",
"7.	c #B5B4B5",
"8.	c #B4B5B5",
"9.	c #B4B5B4",
"0.	c #B4B4B5",
"a.	c #999999",
"b.	c #AEAEAE",
"c.	c #ABABAB",
"d.	c #ADAEAE",
"e.	c #8D8E8E",
"f.	c #8F8F8F",
"g.	c #AEADAE",
"h.	c #ADADAE",
"i.	c #ACABAC",
"j.	c #AEADAD",
"k.	c #ADADAD",
"l.	c #ADACAD",
"m.	c #ACADAD",
"n.	c #ADADAC",
"o.	c #0B0B0B",
"p.	c #909090",
"q.	c #A6A6A6",
"r.	c #A5A5A5",
"s.	c #A4A4A4",
"t.	c #7A7B7B",
"u.	c #A6A5A5",
"v.	c #A5A5A6",
"w.	c #A5A6A5",
"x.	c #A4A5A5",
"y.	c #A5A4A5",
"z.	c #A4A4A5",
"A.	c #A4A5A4",
"B.	c #222222",
"C.	c #8D8D8D",
"D.	c #9E9D9D",
"E.	c #9E9D9E",
"F.	c #828181",
"G.	c #929192",
"H.	c #9D9E9E",
"I.	c #9C9C9C",
"J.	c #9D9C9D",
"K.	c #9C9D9C",
"L.	c #9C9D9D",
"M.	c #828282",
"N.	c #868686",
"O.	c #949494",
"P.	c #969696",
"Q.	c #969595",
"R.	c #8A8A8A",
"S.	c #7C7C7C",
"T.	c #7B7B7B",
"U.	c #959696",
"V.	c #959595",
"W.	c #959695",
"X.	c #949594",
"Y.	c #959594",
"Z.	c #949595",
"`.	c #959494",
" +	c #8E8E8E",
".+	c #8D8E8D",
"++	c #8C8C8C",
"@+	c #8B8B8B",
"#+	c #8E8D8D",
"$+	c #8E8D8E",
"%+	c #8B8C8B",
"&+	c #8D8D8E",
"*+	c #8D8D8C",
"=+	c #8C8D8C",
"-+	c #8D8C8C",
";+	c #8C8D8D",
">+	c #858585",
",+	c #868685",
"'+	c #868586",
")+	c #858686",
"!+	c #858685",
"~+	c #858586",
"{+	c #848585",
"]+	c #858485",
"^+	c #858484",
"/+	c #848584",
"(+	c #848485",
"_+	c #848484",
":+	c #7E7E7D",
"<+	c #7E7E7E",
"[+	c #7E7D7E",
"}+	c #7D7E7D",
"|+	c #7D7D7D",
"1+	c #7D7D7E",
"2+	c #7E7D7D",
"3+	c #7C7D7D",
"4+	c #7C7D7C",
"5+	c #7C7C7D",
"6+	c #7D7C7C",
"7+	c #767576",
"8+	c #767575",
"9+	c #757676",
"0+	c #767676",
"a+	c #757575",
"b+	c #757576",
"c+	c #747575",
"d+	c #747574",
"e+	c #757475",
"f+	c #757574",
"g+	c #747474",
"h+	c #747475",
"i+	c #757474",
"j+	c #6E6E6E",
"k+	c #6E6D6E",
"l+	c #6D6D6D",
"m+	c #6D6E6D",
"n+	c #6D6E6E",
"o+	c #6E6D6D",
"p+	c #6D6D6E",
"q+	c #6C6D6D",
"r+	c #6D6D6C",
"s+	c #6C6C6D",
"t+	c #6D6C6C",
"u+	c #6C6C6C",
"v+	c #6C6D6C",
"w+	c #666665",
"x+	c #666565",
"y+	c #656665",
"z+	c #656565",
"A+	c #656566",
"B+	c #646565",
"C+	c #656465",
"D+	c #646564",
"E+	c #646465",
"F+	c #656464",
"G+	c #646464",
"H+	c #5E5E5D",
"I+	c #5D5E5D",
"J+	c #5D5D5D",
"K+	c #5E5D5D",
"L+	c #5C5D5D",
"M+	c #5D5D5C",
"N+	c #5D5C5C",
"O+	c #5C5C5C",
"P+	c #565656",
"Q+	c #565655",
"R+	c #555655",
"S+	c #555556",
"T+	c #555555",
"U+	c #545554",
"V+	c #555455",
"W+	c #555554",
"X+	c #545555",
"Y+	c #555454",
"Z+	c #545454",
"`+	c #545455",
" @	c #4D4E4E",
".@	c #4D4E4D",
"+@	c #4D4D4E",
"@@	c #4D4D4D",
"#@	c #4D4C4D",
"$@	c #4C4D4D",
"%@	c #4D4D4C",
"&@	c #565F4F",
"*@	c #4C4D4C",
"=@	c #4C4C4D",
"-@	c #4C4C4C",
";@	c #454546",
">@	c #454545",
",@	c #444545",
"'@	c #454445",
")@	c #444445",
"!@	c #454444",
"~@	c #85B759",
"{@	c #444444",
"]@	c #3D3D3E",
"^@	c #3D3D3D",
"/@	c #40423E",
"(@	c #536245",
"_@	c #4B5542",
":@	c #41453F",
"<@	c #4F5D44",
"[@	c #4B5642",
"}@	c #42463F",
"|@	c #526245",
"1@	c #3E403D",
"2@	c #3C3C3D",
"3@	c #3D3C3D",
"4@	c #43473F",
"5@	c #3D3C3C",
"6@	c #3D3D3C",
"7@	c #40433D",
"8@	c #536445",
"9@	c #464D40",
"0@	c #444A3F",
"a@	c #3C3C3C",
"b@	c #3B3B3C",
"c@	c #3C3C3B",
"d@	c #78A353",
"e@	c #5C7546",
"f@	c #7CA855",
"g@	c #607D48",
"h@	c #353435",
"i@	c #77A253",
"j@	c #759E52",
"k@	c #80B257",
"l@	c #5D7747",
"m@	c #6F954F",
"n@	c #64824A",
"o@	c #85B859",
"p@	c #353534",
"q@	c #343434",
"r@	c #85B85A",
"s@	c #45503B",
"t@	c #80B058",
"u@	c #70964F",
"v@	c #66854B",
"w@	c #3E4639",
"x@	c #6E934E",
"y@	c #5D7646",
"z@	c #47543D",
"A@	c #2D2D2D",
"B@	c #2E2E2D",
"C@	c #2D2D2C",
"D@	c #84B75A",
"E@	c #2C2D2D",
"F@	c #2C2C2C",
"G@	c #76A052",
"H@	c #4C5E3C",
"I@	c #414C37",
"J@	c #7FAF57",
"K@	c #3A4333",
"L@	c #2C2C2D",
"M@	c #3E4835",
"N@	c #84B859",
"O@	c #2C2D2C",
"P@	c #2C2B2C",
"Q@	c #414F37",
"R@	c #70974E",
"S@	c #2C2C2B",
"T@	c #252525",
"U@	c #75A151",
"V@	c #7AA853",
"W@	c #78A453",
"X@	c #252524",
"Y@	c #75A252",
"Z@	c #394430",
"`@	c #252425",
" #	c #394330",
".#	c #759F51",
"+#	c #76A151",
"@#	c #38432F",
"##	c #242524",
"$#	c #252424",
"%#	c #39432F",
"&#	c #30362A",
"*#	c #7DAD55",
"=#	c #79A653",
"-#	c #7DAB55",
";#	c #70994E",
">#	c #242324",
",#	c #4F6839",
"'#	c #5B7A41",
")#	c #1C1D1D",
"!#	c #75A050",
"~#	c #333D29",
"{#	c #1C1C1D",
"]#	c #323D29",
"^#	c #759F4F",
"/#	c #1D1C1C",
"(#	c #1C1C1C",
"_#	c #1C1D1C",
":#	c #84B759",
"<#	c #323D2A",
"[#	c #74A04F",
"}#	c #719A4D",
"|#	c #38462C",
"1#	c #2D3626",
"2#	c #1C1B1C",
"3#	c #415530",
"4#	c #76A251",
"5#	c #58783F",
"6#	c #141415",
"7#	c #77A351",
"8#	c #2D3923",
"9#	c #2E3924",
"0#	c #141414",
"a#	c #2D3823",
"b#	c #141314",
"c#	c #658A46",
"d#	c #54713C",
"e#	c #171916",
"f#	c #739F4E",
"g#	c #729C4E",
"h#	c #141313",
"i#	c #141413",
"j#	c #496333",
"k#	c #699147",
"l#	c #1B2115",
"m#	c #6C944A",
"n#	c #0C0B0C",
"o#	c #527039",
"p#	c #1E2517",
"q#	c #0B0C0B",
"r#	c #0B0C0C",
"s#	c #1D2516",
"t#	c #6D964A",
"u#	c #1D2416",
"v#	c #0E0F0D",
"w#	c #5A7B3E",
"x#	c #5F8342",
"y#	c #222C1A",
"z#	c #516F38",
"A#	c #0B0B0A",
"B#	c #050506",
"C#	c #050606",
"D#	c #040505",
"E#	c #040504",
"F#	c #040404",
"G#	c #040403",
"H#	c #030404",
". + + + + + + + @ # $ $ % $ $ $ $ $ $ $ $ & & $ $ * * = - $ $ $ ",
"+ ; > , ' ' ) ! + ~ { ] ] ] ] ] ] ^ ] / ( ( _ _ ( _ _ _ : : _ _ ",
"+ < [ } | 1 2 3 4 + 5 6 7 7 8 7 7 7 7 9 9 0 0 0 a b 8 b b c c b ",
"+ d e f g h h i j k + l i m i i i n i n o p p q q m m m m m q m ",
"+ @ r s t t u v w + x y z A 2 z A B B z 2 z z A A C C C C C C C ",
". k D E D F G H + I j J K J K K K J J L M M N N O O O O O N O O ",
". k P F Q P + + R S u T U V u W T u X u Y Y V Y Y T Y Y Y Y Y Y ",
"+ ! Z [ `  ...; +.@.@.#.$.@.%.$.$.&.*.=.=.=.=.&.=.=.=.=.=.=.=.=.",
"+ < -.;.;.>.d + ,.'.;.;.;.).!.~.~.{.{.{.].!.^.].]./.].].].].(._.",
"+ :.<.j [.j }.I + ) |.j 1.2.3.4.[.3.5.6.6.[.[.[.[.[.[.7.8.9.0.0.",
"+ :.a.b.c.d.d.e.. . f.g.h.i.b.j.j.j.k.k.h.h.k.k.k.k.l.k.k.m.n.l.",
"+ o.p.q.r.s.q.<.d + E t.r.u.r.v.r.r.v.v.r.v.w.r.r.r.x.x.y.z.r.A.",
"o.B.C.+.D.E.E.+.F.> + 5 G.H.I.E.D.Z Z Z Z Z Z Z J.K.Z Z L.Z L.L.",
"M.N.O.P.P.P.O.Q.Q.R.S.T.p.P.U.V.V.W.W.V.V.V.V.V.V.X.Y.V.Z.`.O.Y.",
" + +.+++ + +e.@+#+$+$+e.C.%+&+C.C.C.C.C.C.*+C.C.*+=+*+*+C.-+-+;+",
">+,+N.N.'+)+!+!+)+~+{+~+~+>+~+>+>+>+>+]+>+>+>+^+^+{+>+>+/+(+>+_+",
":+<+[+[+<+}+}+|+1+1+}+|+1+|+2+|+|+|+|+|+|+|+3+|+4+S.5+5+6+3+|+S.",
"7+8+7+9+0+0+a+8+b+0+8+a+a+a+a+a+a+c+d+a+e+c+c+a+f+d+g+h+i+i+c+h+",
"j+k+l+m+n+l+l+o+l+p+l+l+l+l+l+l+q+q+q+r+s+q+l+t+r+t+s+u+v+v+u+u+",
"w+w+x+y+y+y+y+w+z+A+z+z+z+z+z+B+B+C+z+D+D+E+E+D+F+F+C+F+D+D+G+G+",
"H+H+H+I+J+J+J+J+K+J+J+J+J+J+J+J+L+J+M+N+N+L+N+M+L+O+O+O+M+O+O+O+",
"P+Q+R+S+T+T+T+T+T+T+T+T+T+T+T+T+U+V+W+W+W+X+Y+W+T+Y+Z+X+`+Z+Z+Z+",
" @.@+@@@@@@@@@@@@@@@@@@@@@@@#@$@%@%@$@&@*@*@%@#@=@-@*@*@-@-@-@-@",
";@>@>@>@>@>@>@>@>@,@>@>@>@'@'@'@)@)@!@~@,@,@!@{@)@{@{@{@{@{@{@{@",
"]@^@^@/@(@_@^@^@^@:@^@<@[@^@}@|@1@2@3@4@5@6@7@7@8@5@9@|@0@a@b@c@",
"w w w d@e@f@g@h@w i@j@e@k@l@m@n@o@p@q@r@h@s@t@u@v@w@x@y@o@z@q@q@",
"A@A@B@A@C@A@D@E@F@G@H@A@I@r@A@A@J@K@F@~@L@M@N@C@O@F@P@F@Q@R@S@F@",
"T@T@T@U@V@W@N@X@T@Y@Z@`@ #.#T@`@+#@###~@$#%#U@) ) &#*#=#-#;#) >#",
"I I ,#'#I I r@I )#!#~#{#]#^#/#(#!#]#_#:#(#<#[#(#(#}#|#(#1#[#(#2#",
"! ! 3#4#! 5#r@6#! 7#8#! 9#7#0#0#7#8#0#:#0#a#7#0#b#c#d#e#f#g#h#i#",
"P P P j#k#l#m#n#P o#p#P p#o#q#r#o#s#o.t#o.u#o#o.o.v#w#x#y#z#A#o.",
"B#B#B#C#B#..............D#..........E#E#F#F#F#F#F#E#G#F#H#F#G#F#"};
