/* XPM */
static const char * WMPickingDVR_xpm[] = {
"32 32 467 2",
"  	c None",
". 	c #E5E5E5",
"+ 	c #E4E4E4",
"@ 	c #E3E3E3",
"# 	c #DDDCDC",
"$ 	c #DADADA",
"% 	c #0000FF",
"& 	c #000000",
"* 	c #E0E0E0",
"= 	c #DCDBDB",
"- 	c #C1BEBE",
"; 	c #A59696",
"> 	c #D0CDCD",
", 	c #E6E6E6",
"' 	c #D6D5D5",
") 	c #FFFFFF",
"! 	c #E2E3E3",
"~ 	c #DCDCDC",
"{ 	c #D1D0D0",
"] 	c #B8B4B4",
"^ 	c #9C9090",
"/ 	c #918282",
"( 	c #8E6868",
"_ 	c #A99696",
": 	c #E1E2E2",
"< 	c #E3E4E4",
"[ 	c #BEB8B8",
"} 	c #B3A8A8",
"| 	c #A79F9F",
"1 	c #938282",
"2 	c #6B4A4A",
"3 	c #765858",
"4 	c #794141",
"5 	c #967777",
"6 	c #866868",
"7 	c #968787",
"8 	c #E2E2E2",
"9 	c #E3E2E2",
"0 	c #C6C5C5",
"a 	c #C3C1C1",
"b 	c #998A8A",
"c 	c #947979",
"d 	c #998686",
"e 	c #947D7D",
"f 	c #623737",
"g 	c #693C3C",
"h 	c #723636",
"i 	c #9D8383",
"j 	c #7B3131",
"k 	c #774141",
"l 	c #815F5F",
"m 	c #C5C2C2",
"n 	c #E1E1E1",
"o 	c #E5E6E6",
"p 	c #A09A9A",
"q 	c #A79A9A",
"r 	c #8A7777",
"s 	c #7C5656",
"t 	c #7E5D5D",
"u 	c #784B4B",
"v 	c #683D3D",
"w 	c #754E4E",
"x 	c #6E3434",
"y 	c #936F6F",
"z 	c #724040",
"A 	c #794040",
"B 	c #824D4D",
"C 	c #8B6B6B",
"D 	c #968989",
"E 	c #A09393",
"F 	c #CFCECE",
"G 	c #E1E0E0",
"H 	c #BBB7B7",
"I 	c #968888",
"J 	c #856A6A",
"K 	c #826666",
"L 	c #6A3C3C",
"M 	c #7B5050",
"N 	c #836565",
"O 	c #6D5050",
"P 	c #806060",
"Q 	c #6F3838",
"R 	c #7C3B3B",
"S 	c #8F7878",
"T 	c #D1D1D1",
"U 	c #ACA4A4",
"V 	c #8D7D7D",
"W 	c #764747",
"X 	c #753D3D",
"Y 	c #693333",
"Z 	c #7E5757",
"` 	c #847070",
" .	c #7E6060",
"..	c #764C4C",
"+.	c #672C2C",
"@.	c #AEA8A8",
"#.	c #938484",
"$.	c #836B6B",
"%.	c #784545",
"&.	c #743E3E",
"*.	c #7C5353",
"=.	c #8C7171",
"-.	c #866E6E",
";.	c #856464",
">.	c #693737",
",.	c #7D5A5A",
"'.	c #7B5454",
").	c #C8C7C7",
"!.	c #978989",
"~.	c #795A5A",
"{.	c #785656",
"].	c #764F4F",
"^.	c #7D5656",
"/.	c #8A6B6B",
"(.	c #917B7B",
"_.	c #9F9595",
":.	c #8F8686",
"<.	c #8E7C7C",
"[.	c #815757",
"}.	c #7C6565",
"|.	c #9A8B8B",
"1.	c #806262",
"2.	c #856B6B",
"3.	c #703434",
"4.	c #7D4D4D",
"5.	c #7C5050",
"6.	c #866969",
"7.	c #E6E7E7",
"8.	c #B7B2B2",
"9.	c #887777",
"0.	c #7A5654",
"a.	c #775252",
"b.	c #725959",
"c.	c #8C7373",
"d.	c #8E7777",
"e.	c #9E9292",
"f.	c #776969",
"g.	c #7E6666",
"h.	c #6E4343",
"i.	c #7E4E4E",
"j.	c #7F5F5F",
"k.	c #7E6C6C",
"l.	c #8A6C6C",
"m.	c #794646",
"n.	c #7E4545",
"o.	c #C2C0C0",
"p.	c #9D8D8B",
"q.	c #838B9F",
"r.	c #754646",
"s.	c #7A5454",
"t.	c #755151",
"u.	c #846A6A",
"v.	c #897373",
"w.	c #897070",
"x.	c #775E5E",
"y.	c #847171",
"z.	c #703C3C",
"A.	c #7E5151",
"B.	c #7B5C5C",
"C.	c #8D7070",
"D.	c #753939",
"E.	c #764B4B",
"F.	c #C3BEBE",
"G.	c #907474",
"H.	c #7D595A",
"I.	c #6E4242",
"J.	c #783636",
"K.	c #6E3B3B",
"L.	c #755F5F",
"M.	c #A19494",
"N.	c #827171",
"O.	c #826969",
"P.	c #7F4E4E",
"Q.	c #744A4A",
"R.	c #805656",
"S.	c #867575",
"T.	c #877A7A",
"U.	c #806565",
"V.	c #6E3D3D",
"W.	c #6D3535",
"X.	c #754D4D",
"Y.	c #907D7D",
"Z.	c #897777",
"`.	c #774D4D",
" +	c #6D3A3A",
".+	c #6E4040",
"++	c #835858",
"@+	c #816C6C",
"#+	c #613D3D",
"$+	c #CDCBCB",
"%+	c #CACACA",
"&+	c #8D8484",
"*+	c #7A4747",
"=+	c #7D4040",
"-+	c #6F4040",
";+	c #7A5C5C",
">+	c #8E8080",
",+	c #967F7F",
"'+	c #683333",
")+	c #642020",
"!+	c #795050",
"~+	c #8B7878",
"{+	c #663C3C",
"]+	c #572020",
"^+	c #998383",
"/+	c #CCC9C9",
"(+	c #D3D1D1",
"_+	c #744D4D",
":+	c #714646",
"<+	c #714747",
"[+	c #6E5151",
"}+	c #7D6F6F",
"|+	c #938585",
"1+	c #806464",
"2+	c #672F2F",
"3+	c #6D2727",
"4+	c #764545",
"5+	c #745757",
"6+	c #692F2F",
"7+	c #631717",
"8+	c #632C2C",
"9+	c #734545",
"0+	c #765454",
"a+	c #713A3A",
"b+	c #714444",
"c+	c #886868",
"d+	c #BDB9B9",
"e+	c #E2E1E1",
"f+	c #B7B7B7",
"g+	c #B0B0B0",
"h+	c #A6A3A3",
"i+	c #A09B9B",
"j+	c #9A9292",
"k+	c #9A9191",
"l+	c #9A9393",
"m+	c #9B9292",
"n+	c #999090",
"o+	c #9E9797",
"p+	c #9F9A9A",
"q+	c #9D9797",
"r+	c #9B8A8A",
"s+	c #9C9393",
"t+	c #9C9696",
"u+	c #988B8B",
"v+	c #988A8A",
"w+	c #9B8C8C",
"x+	c #9D9191",
"y+	c #9C9191",
"z+	c #9A8F8F",
"A+	c #9A8D8D",
"B+	c #9A8E8E",
"C+	c #9B9191",
"D+	c #9E9494",
"E+	c #A19B9B",
"F+	c #B2B1B1",
"G+	c #B2B2B2",
"H+	c #A5A3A3",
"I+	c #A19D9D",
"J+	c #9E9898",
"K+	c #9D9696",
"L+	c #9E9999",
"M+	c #999292",
"N+	c #978D8D",
"O+	c #9B9595",
"P+	c #9C9292",
"Q+	c #9B9393",
"R+	c #988C8C",
"S+	c #968D8D",
"T+	c #9B8F8F",
"U+	c #998C8C",
"V+	c #9B9090",
"W+	c #9D9292",
"X+	c #9F9696",
"Y+	c #A9A7A7",
"Z+	c #B6B6B6",
"`+	c #B4B4B4",
" @	c #A7A5A5",
".@	c #9F9B9B",
"+@	c #9C9595",
"@@	c #998D8D",
"#@	c #988D8D",
"$@	c #9A8C8C",
"%@	c #998E8E",
"&@	c #9B9494",
"*@	c #998F8F",
"=@	c #978C8C",
"-@	c #958B8B",
";@	c #9D9494",
">@	c #A09898",
",@	c #A09C9C",
"'@	c #ACABAB",
")@	c #82FE82",
"!@	c #82FF82",
"~@	c #82FA82",
"{@	c #88E286",
"]@	c #94A48E",
"^@	c #978B8B",
"/@	c #998888",
"(@	c #85EC83",
"_@	c #92BC8D",
":@	c #998989",
"<@	c #84F283",
"[@	c #8FAA86",
"}@	c #82FD82",
"|@	c #83F682",
"1@	c #8BDE89",
"2@	c #A5AFA4",
"3@	c #8DE38C",
"4@	c #8BE189",
"5@	c #85EC84",
"6@	c #82F882",
"7@	c #949A8B",
"8@	c #8CC585",
"9@	c #87DB84",
"0@	c #94A289",
"a@	c #83F782",
"b@	c #978B89",
"c@	c #88DA83",
"d@	c #89DC86",
"e@	c #8ADF88",
"f@	c #84F383",
"g@	c #8EE68E",
"h@	c #B4B3B3",
"i@	c #A1A09E",
"j@	c #A19C9C",
"k@	c #8ED38C",
"l@	c #8AD287",
"m@	c #929E88",
"n@	c #978E89",
"o@	c #8DC586",
"p@	c #89D284",
"q@	c #978E8E",
"r@	c #989593",
"s@	c #9D9999",
"t@	c #A09E9E",
"u@	c #999E93",
"v@	c #B3B7B2",
"w@	c #A7A8A6",
"x@	c #A2A0A0",
"y@	c #9D9898",
"z@	c #A1AA9F",
"A@	c #84F483",
"B@	c #85ED83",
"C@	c #96BA92",
"D@	c #9E9696",
"E@	c #86EA85",
"F@	c #93B08B",
"G@	c #A3A1A1",
"H@	c #85F685",
"I@	c #B2BEB2",
"J@	c #0505FB",
"K@	c #1B1BF1",
"L@	c #5452CC",
"M@	c #99959A",
"N@	c #83F683",
"O@	c #90CE8D",
"P@	c #8EDC8C",
"Q@	c #9D99A1",
"R@	c #5258CA",
"S@	c #1830E6",
"T@	c #0509F9",
"U@	c #0404FB",
"V@	c #1110F2",
"W@	c #2549DA",
"X@	c #9E9A98",
"Y@	c #9CC49B",
"Z@	c #86F886",
"`@	c #9798C1",
" #	c #1414F6",
".#	c #0202FD",
"+#	c #A4A6BB",
"@#	c #4040E4",
"##	c #4442D0",
"$#	c #9DB19A",
"%#	c #7BE889",
"&#	c #1F1EEB",
"*#	c #0304FB",
"=#	c #478CB9",
"-#	c #7CC194",
";#	c #9E99A2",
">#	c #7873B3",
",#	c #264BD9",
"'#	c #7C9DB8",
")#	c #0B0BF9",
"!#	c #0909FA",
"~#	c #8282CA",
"{#	c #B6B8B6",
"]#	c #A7A7BB",
"^#	c #0F0EF5",
"/#	c #A3A0A0",
"(#	c #86F085",
"_#	c #3970C7",
":#	c #4572C4",
"<#	c #97B893",
"[#	c #9F9797",
"}#	c #7484C6",
"|#	c #1515F5",
"1#	c #9696C2",
"2#	c #A7A7BC",
"3#	c #1010F6",
"4#	c #83F783",
"5#	c #90D08D",
"6#	c #0E1DEF",
"7#	c #70D992",
"8#	c #83F983",
"9#	c #A2A29F",
"0#	c #9E9595",
"a#	c #A6A4A2",
"b#	c #4B94B5",
"c#	c #0101FD",
"d#	c #2626EE",
"e#	c #A5A5BC",
"f#	c #435DD1",
"g#	c #8EDA8D",
"h#	c #A29D9D",
"i#	c #A1B89F",
"j#	c #0205FB",
"k#	c #7DF785",
"l#	c #8EDD8D",
"m#	c #ABA9A9",
"n#	c #B0B2B0",
"o#	c #6D94BB",
"p#	c #0407FA",
"q#	c #1623ED",
"r#	c #477BC2",
"s#	c #7EF984",
"t#	c #84FA84",
"u#	c #A6B4A4",
"v#	c #AEADAD",
"w#	c #ADACAC",
"x#	c #0F1BF0",
"y#	c #70DC92",
"z#	c #9CC19B",
"A#	c #B4B6B4",
"B#	c #5C79C7",
"C#	c #0001FD",
"D#	c #0305FB",
"E#	c #7881C8",
"F#	c #91E991",
"G#	c #ADC3AD",
"H#	c #425FD1",
"I#	c #427EBF",
"J#	c #AEB1AE",
"K#	c #B5B5B5",
"L#	c #5C97B6",
"M#	c #0204FC",
"N#	c #0102FC",
"O#	c #7474D0",
"P#	c #AAAAB9",
"Q#	c #1F1FEF",
"R#	c #6464D3",
"S#	c #A4A4BC",
"T#	c #AAAABB",
"U#	c #8888C8",
"V#	c #3737E8",
"W#	c #8181CB",
"X#	c #0606FB",
"Y#	c #0000FD",
"Z#	c #6B6BD3",
"`#	c #ACACB6",
" $	c #5B5BD6",
".$	c #2020F0",
"+$	c #0404FC",
"@$	c #1111F7",
"#$	c #3333E9",
"$$	c #8B8BC7",
"%$	c #0A0AF9",
". . . . . . . + . . . . . @ # + . . $ % % % & & & % % % . . . . ",
". . . . . . . . . . . * = - ; > , ' % ) ) ) & & & + . . % . . . ",
". . . . . + . . ! ~ { ] ^ / ( _ : % ) ) & & & & & & & . . % . . ",
". . . . + . < { [ } | 1 2 3 4 5 % ) ) & 6 7 & & & 8 . & . . % . ",
". . . . . 9 0 a b c d e f g h i % ) & j k l & & & m n o & . % . ",
". . . + , ' p q r s t u v w x y % ) & z A B C & D E F G & + % . ",
". . . . o H I J K L M N O P Q & & & & & & R ) ) ) S & & & & & & ",
". + . 8 T U V W X Y Z `  ...+.& & & & & & & ) & ) & & & & & & & ",
". . , ' @.#.$.%.&.*.=.r -.;.>.& & & & & & ,.) ) ) '.& & & & & & ",
". . . ).!.~.{.].^./.(._.:.<.v [.% ) & }.|.1.2.& 3.4.5.6.& ) % + ",
". . 7.8.9.0.a.b.c.d.1.e.f.g.h.i.% ) & j.k.l.& & & m.n.6.& ) % . ",
". . * o.p.q.r.s.t.u.v.w.x.y.z.A.% ) ) & B.C.& & & D.E.& ) ) % . ",
". . . F.G.H.I.J.K.L.M.N.O.P.Q.R.S.% ) ) & & & & & & & ) ) % < . ",
"+ . . - T.U.~.V.W.X.Y.Z.`. +.+++@+#+% ) ) ) & & & ) ) ) % $+. . ",
". + , %+&+-.*+=+-+;+>+,+B.'+)+!+~+{+]+% % % & & & % % % ^+/+. . ",
". @ (+] 9._+ +:+<+[+}+|+1+2+3+4+5+6+7+8+9+0+& & & a+b+c+1 d+e+. ",
"f+f+g+h+i+j+k+l+m+n+o+p+q+|.r+s+t+u+v+w+x+y+z+A+B+C+D+E+h+F+f+f+",
"f+f+G+H+I+J+K+L+M+N+m+O+P+B+u+y+Q+R+S+A+z+T+u+U+V+W+X+E+Y+G+Z+f+",
"f+f+`+ @I+.@+@t+Q+B+@@#@n+$@%@T+&@*@=@-@%@=@R+$@;@W+>@J+,@'@Z+f+",
"f+f+)@!@!@!@~@{@]@^@/@(@!@_@:@A+m+^@<@!@[@}@!@!@!@)@|@1@2@`+f+f+",
"f+f+)@!@3@4@5@!@6@7@7 8@!@9@!.z+s+0@!@a@b@}@!@c@d@e@f@!@g@h@f+f+",
"f+f+)@!@i@j@.@k@!@l@=@m@!@~@n@V+P+o@!@p@q@}@!@r@s@t@u@}@)@v@f+f+",
"f+f+)@!@w@x@y@z@!@A@%@u+B@!@C@>@D@E@!@F@z+}@!@i@G@G@j@H@!@I@f+f+",
"% % % % J@K@L@M@N@!@% % O@!@P@Q@R@S@T@U@V@W@!@X@% % Y@!@Z@`@ #.#",
"% % )@!@+#@#% ##<@!@% % $#!@%#&#*#=#-#;#>#,#!@!@% % !@}@'#)#!#~#",
"% % )@!@{#]#% ^#N@!@% % /#(#_#% :#!@<#[#p+}@!@4@% % Z@}#J@|#1#f+",
"% % )@!@{#2#% 3#!@4#% % D@5#6#% 7#8#9#i+0#}@!@a#% % b#c#d#e#f+f+",
"% % )@!@+#@#% f#!@g#% % h#i#j#% k#l#m#G@H+}@!@n#% % % % o#f+f+f+",
"% % % % p#q#r#s#t#u#% % v#w#x#% y#z#G+v#g+)@!@A#% % B#C#D#E#f+f+",
"% % )@!@!@!@t#F#G#`+% % Z+`+H#% I#J#K#K#f+)@!@{#% % f+L#M#N#O#f+",
"% % f+f+f+f+f+f+f+f+% % f+f+P#Q#U@R#S#T#U#V#f+f+% % f+f+W#X#Y#Z#",
"% % f+f+f+f+f+f+f+f+% % f+f+Z+`# $.$X#+$@$#$f+f+% % f+f+f+$$%$% "};
