/* XPM */
static const char * WMTransferFunction1D_xpm[] = {
"32 32 306 2",
"  	c None",
". 	c #000000",
"+ 	c #0C000D",
"@ 	c #F900D0",
"# 	c #FF00AF",
"$ 	c #F00070",
"% 	c #480015",
"& 	c #690084",
"* 	c #ED00F3",
"= 	c #FF00D8",
"- 	c #FE00A6",
"; 	c #FF0077",
"> 	c #EC0044",
", 	c #010300",
"' 	c #153800",
") 	c #072000",
"! 	c #110029",
"~ 	c #7A00C8",
"{ 	c #CF00FF",
"] 	c #F700FE",
"^ 	c #FF00D7",
"/ 	c #FF00A7",
"( 	c #FF0048",
"_ 	c #BF0012",
": 	c #102200",
"< 	c #67FF00",
"[ 	c #32F700",
"} 	c #06AE00",
"| 	c #000B00",
"1 	c #1B0068",
"2 	c #6500F9",
"3 	c #9800FF",
"4 	c #C700FE",
"5 	c #FF0078",
"6 	c #FE0048",
"7 	c #FF0017",
"8 	c #79D200",
"9 	c #65FF00",
"0 	c #35FE00",
"a 	c #06FF01",
"b 	c #00FF29",
"c 	c #008A2F",
"d 	c #000609",
"e 	c #010007",
"f 	c #3900FF",
"g 	c #6700FE",
"h 	c #9700FF",
"i 	c #C700FF",
"j 	c #F600FE",
"k 	c #FF00A8",
"l 	c #FF0079",
"m 	c #FF0049",
"n 	c #374C00",
"o 	c #9CFF00",
"p 	c #65FE00",
"q 	c #36FF00",
"r 	c #07FF00",
"s 	c #00FB57",
"t 	c #000C06",
"u 	c #00C2D7",
"v 	c #00B4FB",
"w 	c #0064B5",
"x 	c #0700C6",
"y 	c #3700FF",
"z 	c #6600FF",
"A 	c #9600FF",
"B 	c #C600FF",
"C 	c #FF00D9",
"D 	c #FF00A9",
"E 	c #FF004A",
"F 	c #FF0018",
"G 	c #020200",
"H 	c #98CB00",
"I 	c #95FE00",
"J 	c #66FF00",
"K 	c #00FF28",
"L 	c #00FF58",
"M 	c #00E478",
"N 	c #00CB92",
"O 	c #00E4D0",
"P 	c #00ECFF",
"Q 	c #00B7FE",
"R 	c #008AFF",
"S 	c #005EFF",
"T 	c #002AFF",
"U 	c #0700FF",
"V 	c #3600FE",
"W 	c #9500FF",
"X 	c #C500FE",
"Y 	c #F600FF",
"Z 	c #FF00DA",
"` 	c #FF007A",
" .	c #131600",
"..	c #D1FF00",
"+.	c #96FF00",
"@.	c #37FF00",
"#.	c #08FF00",
"$.	c #00FF27",
"%.	c #00FF57",
"&.	c #00FF87",
"*.	c #00FFB6",
"=.	c #00FFE7",
"-.	c #00E9FF",
";.	c #00B8FF",
">.	c #0088FF",
",.	c #0059FF",
"'.	c #0029FF",
").	c #3500FF",
"!.	c #6500FF",
"~.	c #C400FF",
"{.	c #F500FF",
"].	c #FF00AA",
"^.	c #FF004B",
"/.	c #FF0019",
"(.	c #DFE600",
"_.	c #C8FF00",
":.	c #98FF00",
"<.	c #38FF00",
"[.	c #00FF26",
"}.	c #00FF86",
"|.	c #00FFE6",
"1.	c #00EAFF",
"2.	c #0089FF",
"3.	c #0601FF",
"4.	c #3400FF",
"5.	c #9400FF",
"6.	c #FF00DB",
"7.	c #FF00AB",
"8.	c #FF007B",
"9.	c #FF001A",
"0.	c #4E4600",
"a.	c #FAFF00",
"b.	c #C7FF00",
"c.	c #97FF00",
"d.	c #68FF00",
"e.	c #00FF25",
"f.	c #00FF56",
"g.	c #00FF85",
"h.	c #00FFB5",
"i.	c #00B9FF",
"j.	c #005BFF",
"k.	c #6400FF",
"l.	c #9300FF",
"m.	c #C300FF",
"n.	c #F300FF",
"o.	c #FF00DC",
"p.	c #FF00AC",
"q.	c #FF007C",
"r.	c #FF004C",
"s.	c #BEA400",
"t.	c #F7FE00",
"u.	c #69FF00",
"v.	c #39FF00",
"w.	c #00FF55",
"x.	c #00FF84",
"y.	c #00FFB4",
"z.	c #00FFE5",
"A.	c #00EBFF",
"B.	c #00BAFF",
"C.	c #005AFF",
"D.	c #002BFF",
"E.	c #0501FF",
"F.	c #3300FF",
"G.	c #6300FF",
"H.	c #C200FF",
"I.	c #F200FF",
"J.	c #FF00DD",
"K.	c #FF007D",
"L.	c #FF004D",
"M.	c #FF001B",
"N.	c #1E1500",
"O.	c #FFE200",
"P.	c #F8FE00",
"Q.	c #99FF00",
"R.	c #3AFF00",
"S.	c #09FF00",
"T.	c #00FF24",
"U.	c #00FF54",
"V.	c #00BBFF",
"W.	c #008BFF",
"X.	c #0502FF",
"Y.	c #6200FF",
"Z.	c #9200FF",
"`.	c #FF00AD",
" +	c #FF004E",
".+	c #FF001C",
"++	c #F39F00",
"@+	c #FFD500",
"#+	c #C9FF00",
"$+	c #9AFF00",
"%+	c #6AFF00",
"&+	c #0AFF00",
"*+	c #00FF23",
"=+	c #00FF83",
"-+	c #00FFB3",
";+	c #00FFE4",
">+	c #008CFF",
",+	c #005CFF",
"'+	c #002CFF",
")+	c #3200FF",
"!+	c #C100FF",
"~+	c #F100FF",
"{+	c #FF00DE",
"]+	c #FF007E",
"^+	c #FF004F",
"/+	c #FF001D",
"(+	c #402200",
"_+	c #FEA400",
":+	c #F8FD00",
"<+	c #CAFF00",
"[+	c #3BFF00",
"}+	c #00FF53",
"|+	c #00FFB2",
"1+	c #00FFE3",
"2+	c #00EDFF",
"3+	c #00BCFF",
"4+	c #005DFF",
"5+	c #002DFF",
"6+	c #0503FF",
"7+	c #3100FF",
"8+	c #6100FF",
"9+	c #9100FF",
"0+	c #FF007F",
"a+	c #E76A00",
"b+	c #FFA500",
"c+	c #FFD400",
"d+	c #F9FD00",
"e+	c #9BFF00",
"f+	c #6BFF00",
"g+	c #3CFF00",
"h+	c #0CFF00",
"i+	c #00FF22",
"j+	c #00FF52",
"k+	c #00FF82",
"l+	c #00FFE2",
"m+	c #00EEFF",
"n+	c #008DFF",
"o+	c #0402FF",
"p+	c #6000FF",
"q+	c #9000FF",
"r+	c #C000FF",
"s+	c #F000FF",
"t+	c #FF00DF",
"u+	c #FF0050",
"v+	c #FF001E",
"w+	c #FF7A00",
"x+	c #FFD300",
"y+	c #CBFF00",
"z+	c #6CFF00",
"A+	c #00FFB1",
"B+	c #00BDFF",
"C+	c #008EFF",
"D+	c #002EFF",
"E+	c #0403FF",
"F+	c #3000FF",
"G+	c #8F00FF",
"H+	c #BF00FF",
"I+	c #EF00FF",
"J+	c #FF00E0",
"K+	c #FF00B0",
"L+	c #FF0080",
"M+	c #0A0000",
"N+	c #471300",
"O+	c #FF7700",
"P+	c #FFA300",
"Q+	c #CCFF00",
"R+	c #3DFF00",
"S+	c #0DFF00",
"T+	c #00FF21",
"U+	c #00FF51",
"V+	c #00FF81",
"W+	c #00FFB0",
"X+	c #00FFE1",
"Y+	c #00EFFF",
"Z+	c #00BEFF",
"`+	c #002FFF",
" @	c #5F00FF",
".@	c #BE00FF",
"+@	c #EE00FF",
"@@	c #FF0081",
"#@	c #FF0051",
"$@	c #FF001F",
"%@	c #E30F00",
"&@	c #FF4400",
"*@	c #FE7200",
"=@	c #FFA200",
"-@	c #FFD200",
";@	c #F9FC00",
">@	c #CDFF00",
",@	c #9DFF00",
"'@	c #6DFF00",
")@	c #3EFF00",
"!@	c #00FF20",
"~@	c #00FF50",
"{@	c #00FF80",
"]@	c #00FFE0",
"^@	c #00F0FF",
"/@	c #008FFF",
"(@	c #005FFF",
"_@	c #0304FF",
":@	c #2F00FF",
"<@	c #5E00FF",
"[@	c #8E00FF",
"}@	c #BD00FF",
"|@	c #FF00E1",
"1@	c #FF0020",
"                                                                ",
"                                                                ",
"                                                                ",
"                                                                ",
"                                                                ",
"                                                                ",
"                                                                ",
"                                                                ",
"                                                                ",
"                                                                ",
"                                                                ",
"                                                      . . .     ",
"                                                    . . . . .   ",
"            . . .                                 . . . . . . . ",
"            . . . .                             . . + @ # $ % . ",
"            . . . . .                       . . . & * = - ; > . ",
"            . , ' ) . . .             . . . . ! ~ { ] ^ / ; ( _ ",
"            . : < [ } | . . . . . . . . . . 1 2 3 4 ] = / 5 6 7 ",
"          . . 8 9 0 a b c . . . . . d . . e f g h i j = k l m 7 ",
"        . . n o p q r b s t . . u v w . . x y z A B j C D l E F ",
"        . G H I J q r K L M N O P Q R S T U V z W X Y Z D ` E F ",
"      . .  ...+.J @.#.$.%.&.*.=.-.;.>.,.'.U ).!.W ~.{.Z ].` ^./.",
"      . . (._.:.< <.#.[.%.}.*.|.1.;.2.,.T 3.4.!.5.~.{.6.7.8.^.9.",
"      . 0.a.b.c.d.<.#.e.f.g.h.|.1.i.R j.T 3.4.k.l.m.n.o.p.q.r.9.",
"    . . s.t._.:.u.v.#.e.w.x.y.z.A.B.R C.D.E.F.G.l.H.I.J.p.K.L.M.",
"  . . N.O.P._.Q.u.R.S.T.U.x.y.z.A.V.W.j.D.X.F.Y.Z.H.I.J.`.K. +.+",
"  . . ++@+P.#+$+%+R.&+*+U.=+-+;+P V.>+,+'+X.)+Y.Z.!+~+{+`.]+^+/+",
". . (+_+@+:+<+$+%+[+&+*+}+=+|+1+2+3+>+4+5+6+7+8+9+!+~+{+# 0+^+/+",
". . a+b+c+d+<+e+f+g+h+i+j+k+|+l+m+3+n+4+5+o+7+p+q+r+s+t+# 0+u+v+",
". . w+_+x+d+y+e+z+g+h+i+j+k+A+l+m+B+C+S D+E+F+p+G+H+I+J+K+L+u+v+",
"M+N+O+P+x+d+Q+o z+R+S+T+U+V+W+X+Y+Z+C+S `+E+F+ @G+.@+@J+K+@@#@$@",
"%@&@*@=@-@;@>@,@'@)@S+!@~@{@W+]@^@Z+/@(@`+_@:@<@[@}@+@|@K+@@#@1@"};
