/* XPM */
static const char * WMEffectiveConnectivityCluster_xpm[] = {
"32 32 38 1",
" 	c None",
".	c #FFB3B3",
"+	c #000000",
"@	c #AEAEAE",
"#	c #070707",
"$	c #B4B4B4",
"%	c #575757",
"&	c #0A0A0A",
"*	c #2A2A2A",
"=	c #D7D7D7",
"-	c #050505",
";	c #6D6D6D",
">	c #B5B5B5",
",	c #929292",
"'	c #3B3B3B",
")	c #1A1A1A",
"!	c #E4E4E4",
"~	c #CCCCCC",
"{	c #171717",
"]	c #181818",
"^	c #B8B8B8",
"/	c #242424",
"(	c #B3B3B3",
"_	c #1D1D1D",
":	c #8A8A8A",
"<	c #030303",
"[	c #040404",
"}	c #6B6B6B",
"|	c #B2B2B2",
"1	c #7E7E7E",
"2	c #484848",
"3	c #232323",
"4	c #494949",
"5	c #080808",
"6	c #323232",
"7	c #DDDDDD",
"8	c #161616",
"9	c #B6B6B6",
"................................",
"................................",
"................................",
"................................",
"................................",
"................................",
"................................",
"................................",
"................................",
"................................",
"................................",
"................................",
"................................",
"................................",
"................................",
"................................",
"................................",
"................................",
"................................",
"................................",
"................................",
"................................",
"................................",
"+++++..@#$.%&*=.........%&*=..+.",
"+......-@.;>.,'........;>.,'..+.",
"+.....+++.)!..~..${]^..)!..~..+.",
"+++++..+..-....../>(/..-......+.",
"+......+.._!..:..<..[.._!..:..+.",
"+......+..}|.12..3>>/..}|.12..+.",
"+++++..+.. 4567..(8]9.. 4567..+.",
"................................",
"................................"};
