/* XPM */
static const char * WMEffectiveConnectivityCluster_xpm[] = {
"32 32 46 1",
" 	c None",
".	c #FFFFFF",
"+	c #000000",
"@	c #AEAEAE",
"#	c #070707",
"$	c #B4B4B4",
"%	c #F3F3F3",
"&	c #575757",
"*	c #0A0A0A",
"=	c #2A2A2A",
"-	c #D7D7D7",
";	c #050505",
">	c #FEFEFE",
",	c #6D6D6D",
"'	c #B5B5B5",
")	c #FBFBFB",
"!	c #929292",
"~	c #3B3B3B",
"{	c #1A1A1A",
"]	c #E4E4E4",
"^	c #CCCCCC",
"/	c #171717",
"(	c #181818",
"_	c #B8B8B8",
":	c #FCFCFC",
"<	c #242424",
"[	c #B3B3B3",
"}	c #1D1D1D",
"|	c #8A8A8A",
"1	c #030303",
"2	c #F9F9F9",
"3	c #F8F8F8",
"4	c #040404",
"5	c #6B6B6B",
"6	c #B2B2B2",
"7	c #FAFAFA",
"8	c #7E7E7E",
"9	c #484848",
"0	c #232323",
"a	c #EFEFEF",
"b	c #494949",
"c	c #080808",
"d	c #323232",
"e	c #DDDDDD",
"f	c #161616",
"g	c #B6B6B6",
"................................",
"................................",
"................................",
"................................",
"................................",
"................................",
"................................",
"................................",
"................................",
"................................",
"................................",
"................................",
"................................",
"................................",
"................................",
"................................",
"................................",
"................................",
"................................",
"................................",
"................................",
"................................",
"................................",
"+++++..@#$%&*=-........%&*=-..+.",
"+......;@>,')!~........,')!~..+.",
"+.....+++.{].)^..$/(_..{].)^..+.",
"+++++..+..;:.....<'[<..;:.....+.",
"+......+..}].%|..1234..}].%|..+.",
"+......+..56789..0''<..56789..+.",
"+++++..+..abcde..[f(g..abcde..+.",
"................................",
"................................"};
