/* XPM */
static const char * WMWriteGeometry_xpm[] = {
"32 32 27 1",
" 	c None",
".	c #CDCDCD",
"+	c #CECECE",
"@	c #F8F8F8",
"#	c #F9F9F9",
"$	c #D1D1D1",
"%	c #FFFFFF",
"&	c #D2D2D2",
"*	c #FEFEFE",
"=	c #000000",
"-	c #636363",
";	c #D9D9D9",
">	c #646464",
",	c #616161",
"'	c #6B6B6B",
")	c #9A9A9A",
"!	c #8B8B8B",
"~	c #6C6C6C",
"{	c #5A5A5A",
"]	c #5C5C5C",
"^	c #626262",
"/	c #5D5D5D",
"(	c #5E5E5E",
"_	c #686868",
":	c #858585",
"<	c #7C7C7C",
"[	c #D7D7D7",
"                                ",
"                                ",
"                                ",
"       .................+       ",
"       @@@@@@@@@@@@@@@#@$       ",
"                       %&       ",
"                       *&       ",
"                       *&       ",
"                       *&       ",
"                       *&       ",
"     ========          *&       ",
"   ===========         *&       ",
"  ====      ==         *&  --   ",
"  ===                  %;  >>-  ",
" ===             >>>>,')!~,>->> ",
" ===    ======    >>>>-{]^>>>>->",
" ==     ======    >>>>-/(->>>>>>",
" ==      = ===   ->>-^_:<_^>>>> ",
" ===       ===         %[  >>-  ",
" ===       ===         *&  >>   ",
"  ===      ===         *&       ",
"  ====     ===         *&       ",
"   ==========          *&       ",
"     ======            *&       ",
"                       *&       ",
"                       %&       ",
"       @@@@@@@@@@@@@@@#@$       ",
"       .................+       ",
"                                ",
"                                ",
"                                ",
"                                "};
