/* XPM */
static const char * WMScreenCapture_xpm[] = {
"32 32 14 1",
" 	c None",
".	c #0B0B0B",
"+	c #000000",
"@	c #050505",
"#	c #030303",
"$	c #060606",
"%	c #010101",
"&	c #020202",
"*	c #101010",
"=	c #040404",
"-	c #070707",
";	c #0D0D0D",
">	c #080808",
",	c #0F0F0F",
"                                ",
"                                ",
"                                ",
".++@@+#$%+@@+#$%+@@+&$%+@@+%$&+*",
"+$@%&==+=@%&@@+@=%%=@+@=%%=@+-&%",
"+                              +",
"+         %%+                  %",
"+        +%%++                 +",
"+       %%++%%+                +",
"+       %%++%%+    &%          +",
"+       ++%%++     ++;         +",
"+        +%%+%    %+%%         %",
"+         ++     ++%++$        +",
"+                %%+%%%        %",
"+         %     +%%++%++       +",
"+        %++    %++%%+%%%      +",
"+       #%++%  %%++%%+%%+      +",
"+       ++%%++&++%%++%++%#     +",
"+      %%+%%+%+%+%%+%+%+%%     %",
"+     %+%%++&++%%++&++%%++#    +",
"+    %%+%+%%+%+%+%%+%%%+%%+.   %",
"+    ++%++%%++%++%%++%++%%++   +",
"+   +%%+%%++%%+%%++%%+%%++%%+  +",
"+  ++%%+%%++%%+%%++%%+%%++%%+  +",
"+ +%%++%++%%++%++%%++%++%%++%+ +",
"+&+%%+%+%+%%+%%%+%%+%%%+%%+%%%+%",
"+%%++&++%%++&++%%++%++%%++%%++%+",
"+%+%%+%+%+%%+%+%+%%+%+%+%%+%+%+%",
">&+@=+==%+@@+==&+@=+#=&+@@+#=#+,",
"                                ",
"                                ",
"                                "};
