/* XPM */
static const char * WMProjectionsAsContext_xpm[] = {
"32 32 184 2",
"  	c None",
". 	c #FFFFFF",
"+ 	c #E9E9E9",
"@ 	c #D1D1D1",
"# 	c #A2A2A2",
"$ 	c #545454",
"% 	c #333333",
"& 	c #ADADAD",
"* 	c #EDEDED",
"= 	c #C3C3C3",
"- 	c #676767",
"; 	c #232323",
"> 	c #121212",
", 	c #040404",
"' 	c #000000",
") 	c #010101",
"! 	c #111111",
"~ 	c #6E6E6E",
"{ 	c #DEDEDE",
"] 	c #BBBBBB",
"^ 	c #848484",
"/ 	c #3E3E3E",
"( 	c #030303",
"_ 	c #7E7E7E",
": 	c #D7D7D7",
"< 	c #080808",
"[ 	c #020202",
"} 	c #060606",
"| 	c #303030",
"1 	c #323232",
"2 	c #171717",
"3 	c #070707",
"4 	c #424242",
"5 	c #E8E8E8",
"6 	c #535353",
"7 	c #666666",
"8 	c #7F7F7F",
"9 	c #696969",
"0 	c #0D0D0D",
"a 	c #050505",
"b 	c #2C2C2C",
"c 	c #565656",
"d 	c #3A3A3A",
"e 	c #141414",
"f 	c #BCBCBC",
"g 	c #626262",
"h 	c #919191",
"i 	c #9B9B9B",
"j 	c #7D7D7D",
"k 	c #575757",
"l 	c #242424",
"m 	c #777777",
"n 	c #8F8F8F",
"o 	c #828282",
"p 	c #585858",
"q 	c #252525",
"r 	c #1B1B1B",
"s 	c #C0C0C0",
"t 	c #0C0C0C",
"u 	c #5E5E5E",
"v 	c #858585",
"w 	c #8D8D8D",
"x 	c #929292",
"y 	c #8E8E8E",
"z 	c #707070",
"A 	c #2F2F2F",
"B 	c #606060",
"C 	c #969696",
"D 	c #939393",
"E 	c #787878",
"F 	c #757575",
"G 	c #313131",
"H 	c #868686",
"I 	c #949494",
"J 	c #A0A0A0",
"K 	c #8B8B8B",
"L 	c #898989",
"M 	c #464646",
"N 	c #151515",
"O 	c #9E9E9E",
"P 	c #6D6D6D",
"Q 	c #616161",
"R 	c #2E2E2E",
"S 	c #131313",
"T 	c #747474",
"U 	c #808080",
"V 	c #9A9A9A",
"W 	c #A1A1A1",
"X 	c #7B7B7B",
"Y 	c #7C7C7C",
"Z 	c #4B4B4B",
"` 	c #353535",
" .	c #909090",
"..	c #737373",
"+.	c #6B6B6B",
"@.	c #6C6C6C",
"#.	c #1C1C1C",
"$.	c #3D3D3D",
"%.	c #9D9D9D",
"&.	c #9F9F9F",
"*.	c #797979",
"=.	c #515151",
"-.	c #525252",
";.	c #8C8C8C",
">.	c #727272",
",.	c #717171",
"'.	c #656565",
").	c #636363",
"!.	c #7A7A7A",
"~.	c #5A5A5A",
"{.	c #A6A6A6",
"].	c #AAAAAA",
"^.	c #888888",
"/.	c #979797",
"(.	c #5D5D5D",
"_.	c #8A8A8A",
":.	c #878787",
"<.	c #818181",
"[.	c #4E4E4E",
"}.	c #494949",
"|.	c #989898",
"1.	c #686868",
"2.	c #6A6A6A",
"3.	c #3F3F3F",
"4.	c #959595",
"5.	c #4D4D4D",
"6.	c #1A1A1A",
"7.	c #646464",
"8.	c #767676",
"9.	c #838383",
"0.	c #414141",
"a.	c #191919",
"b.	c #5C5C5C",
"c.	c #3B3B3B",
"d.	c #222222",
"e.	c #0F0F0F",
"f.	c #5F5F5F",
"g.	c #4F4F4F",
"h.	c #5B5B5B",
"i.	c #555555",
"j.	c #373737",
"k.	c #090909",
"l.	c #272727",
"m.	c #505050",
"n.	c #3C3C3C",
"o.	c #474747",
"p.	c #6F6F6F",
"q.	c #4C4C4C",
"r.	c #444444",
"s.	c #383838",
"t.	c #404040",
"u.	c #2A2A2A",
"v.	c #262626",
"w.	c #363636",
"x.	c #454545",
"y.	c #1D1D1D",
"z.	c #1E1E1E",
"A.	c #434343",
"B.	c #343434",
"C.	c #282828",
"D.	c #2B2B2B",
"E.	c #0B0B0B",
"F.	c #161616",
"G.	c #0A0A0A",
"H.	c #212121",
"I.	c #0E0E0E",
"J.	c #393939",
"K.	c #101010",
"L.	c #202020",
"M.	c #B9B9B9",
"N.	c #595959",
"O.	c #FEFEFE",
"P.	c #EFEFEF",
"Q.	c #DADADA",
"R.	c #FCFCFC",
"S.	c #2D2D2D",
"T.	c #484848",
"U.	c #EBEBEB",
"V.	c #F2F2F2",
"W.	c #9C9C9C",
"X.	c #1F1F1F",
"Y.	c #C7C7C7",
"Z.	c #B2B2B2",
"`.	c #F1F1F1",
". . . . . . . . . . . + @ # $ % & * . . . . . . . . . . . . . . ",
". . . . . . . . = - ; > , ' ) ' ' ! ~ . . . . . . . . . . . . . ",
". . . { ] ^ / ' ' ' ) ( ( ( , ' ( ( ' ' _ : . . . . . . . . . . ",
". . > < ( ) [ } | 1 2 [ , , , ' , ( [ ( ) 3 4 5 . . . . . . . . ",
". . ' ( ( ( 2 6 7 8 9 4 0 , a ' a ) b c d e ' ' 6 f . . . . . . ",
". . ) , ( ! g h 8 i j ~ k < } ' a l m n o p q [ [ ' r s . . . . ",
". . ) a t u v w x y y o z A } ' 3 B C D E F B G a ( ' ' 1 . . . ",
". . ) ( 4 H 8 I J K L E F M a ' N j O K j P 9 Q R ) ( , ' . . . ",
". . ) S T 8 x U V W X Y F Z a ' `  .w ..F +.B @.~ #., a ' . . . ",
". . ' $.Y U F U %.&.w *.F =.3 ' -.I ;.>.,.7 '.).!.~.3 } ' . . . ",
". . ' p H ^ X U {.].^.>.z k #.' k I /.U Y *.P @.9 j > a ' . . . ",
". . ' (._.K :.y &.H <.<.P [.#.' }.|._.y Y 1.2.2.+._ 3.( ' . . . ",
". . ' 6 K 4.<.H |.;.Y U 9 5.6.' G y _.2.2.B 7.T @.Y 8.[ ' . . . ",
". . , Z :.;._ L V 9.,.T B 0.#.' a.;.^.9 b.'.).,.7.8 I ) ) . . . ",
". . < c.^._.j E L T +.B p 4 d.' e.F ^.f.u g.h.g g @.i ) ) . . . ",
". . < R Y ^.F ..<.8.u i.h.j.k.' } g X $ (.g.c 9 m o B ! ) . . . ",
". . < l.9 8.>.>.2.g $ $ m.; < ' ( n.- i.M [.o.7 p.j g.< ) . . . ",
". . } | =.Q ).(.h.q./ r.s.e a ' ( e m.g.4 }./ Z 7.7 $.3 ) . . . ",
". . [ k.s.6 }.t.c.% b u.v.} , ' ( [ w.j.w.c.t.x.(.[.r.y.[ . . . ",
". . [ a z.A.B.C.q v.y.z.S ( , ' ( ) ; ; D.C.s.0.f.p }.% ) . . . ",
". . ) a E.R l.r d.z.F.S G., , ' ( [ 2 H.d.H.b w.g.g.j./ ) . . . ",
". . ) , ( e #.F.e S I.E.} ( [ ' ( [ e.e r r l.D.c.J.d.n.) . . . ",
". . ) , , 3 K.I.t E.< , ) ' ' ) ' ) k.0 S e N ; C.L.! ) ' . . . ",
". . ) ( ( ( 3 , ) ' ' ' ' ' ' ' ) ' ' , G.0 I.F.e S } , ' . . . ",
". . ' ) ' ' ) ' 2 M T H :.j T '.=.| e k.) ( 3 E.I.G., , ' . . . ",
". . ` ' , a ) q.Y K i V w _.o m @.2.(.5.6.[ ' ) } 3 ( , ) . . . ",
". . . M.}.( ' N.9.o v j *.!...m - Q b.).h.d < ( ' ' ) [ ) . . . ",
". . . . O.P.$ , m.>...~ 1.2.(.9 z 2.1.1.>.,.4 a < < ' ' ' . . . ",
". . . . . . . Q...; v.4 f.,.+.9 ..8._.n w z R < 3 ) ' a.}.. . . ",
". . . . . . . . . R.v [ a ! S.T.k -.-.5.c o.} 3 R ;.U.. . . . . ",
". . . . . . . . . . . V.W.C.' a [ ' ' X.u C Y.V.. . . . . . . . ",
". . . . . . . . . . . . . . Z.r / O `.. . . . . . . . . . . . . "};
