/* XPM */
static const char * WMWriteAmiraMesh_xpm[] = {
"32 32 396 2",
"  	c None",
". 	c #262626",
"+ 	c #DCDCDC",
"@ 	c #FDFDFD",
"# 	c #AEAEAE",
"$ 	c #000000",
"% 	c #B0AFAF",
"& 	c #FDFDFC",
"* 	c #DCDCDB",
"= 	c #FDFDFE",
"- 	c #FEFDFD",
"; 	c #FDFCFD",
"> 	c #707070",
", 	c #8F8F8F",
"' 	c #F7F6F7",
") 	c #F7F7F7",
"! 	c #F7F7F6",
"~ 	c #676767",
"{ 	c #2A2A2A",
"] 	c #686868",
"^ 	c #F6F6F6",
"/ 	c #F7F6F6",
"( 	c #8D8D8D",
"_ 	c #6F6F6F",
": 	c #F6F6F7",
"< 	c #B5B5B5",
"[ 	c #444444",
"} 	c #EEEEEE",
"| 	c #EEEEED",
"1 	c #232323",
"2 	c #A8A8A8",
"3 	c #EDEDEE",
"4 	c #EEEDED",
"5 	c #EDEDED",
"6 	c #424343",
"7 	c #B4B4B4",
"8 	c #EEEDEE",
"9 	c #EDEEEE",
"0 	c #E3E3E3",
"a 	c #1A1A1A",
"b 	c #DDDDDC",
"c 	c #E6E6E6",
"d 	c #CACACA",
"e 	c #222222",
"f 	c #E5E5E6",
"g 	c #1D1D1D",
"h 	c #E6E5E6",
"i 	c #191919",
"j 	c #E2E2E2",
"k 	c #E5E5E5",
"l 	c #E6E6E5",
"m 	c #E5E6E6",
"n 	c #DEDEDE",
"o 	c #515151",
"p 	c #9C9C9C",
"q 	c #DEDDDD",
"r 	c #878787",
"s 	c #606060",
"t 	c #5C5C5C",
"u 	c #868686",
"v 	c #DEDEDD",
"w 	c #9B9B9B",
"x 	c #DDDDDD",
"y 	c #DEDDDE",
"z 	c #D6D6D6",
"A 	c #909090",
"B 	c #585857",
"C 	c #D6D6D5",
"D 	c #484748",
"E 	c #99999A",
"F 	c #D5D5D6",
"G 	c #969796",
"H 	c #464646",
"I 	c #D5D5D5",
"J 	c #565656",
"K 	c #D5D6D5",
"L 	c #D6D5D6",
"M 	c #CDCECD",
"N 	c #C4C4C3",
"O 	c #1E1E1E",
"P 	c #CBCACB",
"Q 	c #171717",
"R 	c #C6C6C6",
"S 	c #CDCDCD",
"T 	c #C4C5C5",
"U 	c #101010",
"V 	c #C4C4C4",
"W 	c #1D1D1C",
"X 	c #C3C3C3",
"Y 	c #CECECE",
"Z 	c #CECDCE",
"` 	c #CDCECE",
" .	c #CECECD",
"..	c #C6C5C6",
"+.	c #373737",
"@.	c #3C3C3C",
"#.	c #393939",
"$.	c #C5C5C5",
"%.	c #363737",
"&.	c #363636",
"*.	c #C5C6C6",
"=.	c #C5C5C6",
"-.	c #BEBDBE",
";.	c #6C6D6D",
">.	c #BDBDBD",
",.	c #BEBDBD",
"'.	c #BDBEBD",
").	c #6A6A6A",
"!.	c #BDBDBC",
"~.	c #BDBCBC",
"{.	c #BDBEBE",
"].	c #BDBDBE",
"^.	c #B6B5B6",
"/.	c #A2A2A1",
"(.	c #9B9B9C",
"_.	c #B5B5B6",
":.	c #9A9A9A",
"<.	c #A1A1A1",
"[.	c #B5B4B5",
"}.	c #B4B5B5",
"|.	c #B4B5B4",
"1.	c #B4B4B5",
"2.	c #B6B6B5",
"3.	c #B5B6B6",
"4.	c #AEADAD",
"5.	c #ADADAD",
"6.	c #ADADAE",
"7.	c #ADACAD",
"8.	c #ACADAD",
"9.	c #ADADAC",
"0.	c #A5A5A6",
"a.	c #A5A5A5",
"b.	c #A5A6A5",
"c.	c #A4A5A5",
"d.	c #A5A4A5",
"e.	c #A4A4A5",
"f.	c #A4A5A4",
"g.	c #9E9D9E",
"h.	c #9E9D9D",
"i.	c #9D9D9D",
"j.	c #9D9C9D",
"k.	c #9C9D9C",
"l.	c #9C9D9D",
"m.	c #959595",
"n.	c #959695",
"o.	c #949594",
"p.	c #959594",
"q.	c #949595",
"r.	c #959494",
"s.	c #949494",
"t.	c #8D8D8C",
"u.	c #8C8D8C",
"v.	c #8D8C8C",
"w.	c #8C8D8D",
"x.	c #858585",
"y.	c #858485",
"z.	c #858484",
"A.	c #848585",
"B.	c #848584",
"C.	c #848485",
"D.	c #848484",
"E.	c #7E7E7D",
"F.	c #7E7E7E",
"G.	c #7E7D7E",
"H.	c #7D7E7D",
"I.	c #7D7D7D",
"J.	c #7D7D7E",
"K.	c #7E7D7D",
"L.	c #7C7D7D",
"M.	c #7C7D7C",
"N.	c #7C7C7C",
"O.	c #7C7C7D",
"P.	c #7D7C7C",
"Q.	c #767576",
"R.	c #767575",
"S.	c #757676",
"T.	c #767676",
"U.	c #757575",
"V.	c #757576",
"W.	c #747575",
"X.	c #747574",
"Y.	c #757475",
"Z.	c #757574",
"`.	c #747474",
" +	c #747475",
".+	c #757474",
"++	c #6E6E6E",
"@+	c #6E6D6E",
"#+	c #6D6D6D",
"$+	c #6D6E6D",
"%+	c #6D6E6E",
"&+	c #6E6D6D",
"*+	c #6D6D6E",
"=+	c #6D6D6C",
"-+	c #6C6C6D",
";+	c #6D6C6C",
">+	c #6C6C6C",
",+	c #6C6D6C",
"'+	c #666665",
")+	c #666565",
"!+	c #656665",
"~+	c #656565",
"{+	c #656566",
"]+	c #646565",
"^+	c #656465",
"/+	c #646564",
"(+	c #646465",
"_+	c #656464",
":+	c #646464",
"<+	c #5E5E5D",
"[+	c #5D5E5D",
"}+	c #5D5D5D",
"|+	c #5E5D5D",
"1+	c #5C5D5D",
"2+	c #5D5D5C",
"3+	c #5D5C5C",
"4+	c #565655",
"5+	c #555655",
"6+	c #555556",
"7+	c #555555",
"8+	c #545554",
"9+	c #555455",
"0+	c #555554",
"a+	c #545555",
"b+	c #555454",
"c+	c #545454",
"d+	c #545455",
"e+	c #4D4E4E",
"f+	c #4D4E4D",
"g+	c #4D4D4E",
"h+	c #4D4D4D",
"i+	c #4D4C4D",
"j+	c #4C4D4D",
"k+	c #4D4D4C",
"l+	c #565F4F",
"m+	c #4C4D4C",
"n+	c #4C4C4D",
"o+	c #4C4C4C",
"p+	c #454546",
"q+	c #454545",
"r+	c #444545",
"s+	c #454445",
"t+	c #444445",
"u+	c #454444",
"v+	c #85B759",
"w+	c #3D3D3E",
"x+	c #3D3D3D",
"y+	c #40423E",
"z+	c #536245",
"A+	c #4B5542",
"B+	c #41453F",
"C+	c #4F5D44",
"D+	c #4B5642",
"E+	c #42463F",
"F+	c #526245",
"G+	c #3E403D",
"H+	c #3C3C3D",
"I+	c #3D3C3D",
"J+	c #43473F",
"K+	c #3D3C3C",
"L+	c #3D3D3C",
"M+	c #40433D",
"N+	c #536445",
"O+	c #464D40",
"P+	c #444A3F",
"Q+	c #3B3B3C",
"R+	c #3C3C3B",
"S+	c #353535",
"T+	c #78A353",
"U+	c #5C7546",
"V+	c #7CA855",
"W+	c #607D48",
"X+	c #353435",
"Y+	c #77A253",
"Z+	c #759E52",
"`+	c #80B257",
" @	c #5D7747",
".@	c #6F954F",
"+@	c #64824A",
"@@	c #85B859",
"#@	c #353534",
"$@	c #343434",
"%@	c #85B85A",
"&@	c #45503B",
"*@	c #80B058",
"=@	c #70964F",
"-@	c #66854B",
";@	c #3E4639",
">@	c #6E934E",
",@	c #5D7646",
"'@	c #47543D",
")@	c #2D2D2D",
"!@	c #2E2E2D",
"~@	c #2D2D2C",
"{@	c #84B75A",
"]@	c #2C2D2D",
"^@	c #2C2C2C",
"/@	c #76A052",
"(@	c #4C5E3C",
"_@	c #414C37",
":@	c #7FAF57",
"<@	c #3A4333",
"[@	c #2C2C2D",
"}@	c #3E4835",
"|@	c #84B859",
"1@	c #2C2D2C",
"2@	c #2C2B2C",
"3@	c #414F37",
"4@	c #70974E",
"5@	c #2C2C2B",
"6@	c #252525",
"7@	c #75A151",
"8@	c #7AA853",
"9@	c #78A453",
"0@	c #252524",
"a@	c #75A252",
"b@	c #394430",
"c@	c #252425",
"d@	c #394330",
"e@	c #759F51",
"f@	c #76A151",
"g@	c #38432F",
"h@	c #242524",
"i@	c #252424",
"j@	c #39432F",
"k@	c #242424",
"l@	c #30362A",
"m@	c #7DAD55",
"n@	c #79A653",
"o@	c #7DAB55",
"p@	c #70994E",
"q@	c #242324",
"r@	c #4F6839",
"s@	c #5B7A41",
"t@	c #1C1D1D",
"u@	c #75A050",
"v@	c #333D29",
"w@	c #1C1C1D",
"x@	c #323D29",
"y@	c #759F4F",
"z@	c #1D1C1C",
"A@	c #1C1C1C",
"B@	c #1C1D1C",
"C@	c #84B759",
"D@	c #323D2A",
"E@	c #74A04F",
"F@	c #719A4D",
"G@	c #38462C",
"H@	c #2D3626",
"I@	c #1C1B1C",
"J@	c #151515",
"K@	c #415530",
"L@	c #76A251",
"M@	c #58783F",
"N@	c #141415",
"O@	c #77A351",
"P@	c #2D3923",
"Q@	c #2E3924",
"R@	c #141414",
"S@	c #2D3823",
"T@	c #141314",
"U@	c #658A46",
"V@	c #54713C",
"W@	c #171916",
"X@	c #739F4E",
"Y@	c #729C4E",
"Z@	c #141313",
"`@	c #141413",
" #	c #0C0C0C",
".#	c #496333",
"+#	c #699147",
"@#	c #1B2115",
"##	c #6C944A",
"$#	c #0C0B0C",
"%#	c #527039",
"&#	c #1E2517",
"*#	c #0B0C0B",
"=#	c #0B0C0C",
"-#	c #1D2516",
";#	c #0B0B0B",
">#	c #6D964A",
",#	c #1D2416",
"'#	c #0E0F0D",
")#	c #5A7B3E",
"!#	c #5F8342",
"~#	c #222C1A",
"{#	c #516F38",
"]#	c #0B0B0A",
"^#	c #050506",
"/#	c #050606",
"(#	c #050505",
"_#	c #040505",
":#	c #040504",
"<#	c #040404",
"[#	c #040403",
"}#	c #030404",
". + @ @ @ # $ % @ @ & * . = @ @ @ @ @ @ @ - - @ @ & & ; = @ @ @ ",
"> , ' ) ! ~ { ] ^ / ^ ( _ : : ^ ^ ' ) ! / / ^ ^ / ^ ^ ^ : : ^ ^ ",
"< [ } } | 1 2 1 3 4 5 6 7 5 8 8 5 } } | | 3 3 3 4 5 9 5 5 8 8 5 ",
"0 a b c d e f g d h + i j k k h k l c l m f f h h k k k k k h k ",
"n o p q r s n t u v w o x x x x x q q n y n n v v x x x x x x x ",
"z A B C D E F G H I J , I I K I I C C L F F K K I I I I I K I I ",
"M N O P Q R S T U V W X S S S S S Y Z Y S S ` S S  .S S S S S S ",
"....+.@.#.$.$.$.%.&.+.$.$.$.$.$.$.*.=.$.$.$.$.*.$.$.$.$.$.$.$.$.",
"-.-._ $ ;.>.,.'.).$ _ >.>.>.>.!.~.{.{.{.>.,.'.>.>.].>.>.>.>.!.~.",
"^.< /.$ (._.< < :.$ <.< [.}.|.1.1.2.3._._.< < < < < < [.}.|.1.1.",
"4.4.4.5.5.6.6.5.5.5.5.7.5.5.8.9.7.4.5.5.6.6.5.5.5.5.7.5.5.8.9.7.",
"0.a.a.0.0.a.0.b.a.a.a.c.c.d.e.a.f.a.0.0.a.0.b.a.a.a.c.c.d.e.a.f.",
"g.h.i.i.i.i.i.i.i.j.k.i.i.l.i.l.l.i.i.i.i.i.i.i.j.k.i.i.l.i.l.l.",
"m.m.n.n.m.m.m.m.m.m.o.p.m.q.r.s.p.n.n.m.m.m.m.m.m.o.p.m.q.r.s.p.",
"( ( ( ( ( ( t.( ( t.u.t.t.( v.v.w.( ( ( ( t.( ( t.u.t.t.( v.v.w.",
"x.x.x.x.y.x.x.x.z.z.A.x.x.B.C.x.D.x.x.y.x.x.x.z.z.A.x.x.B.C.x.D.",
"E.F.G.G.F.H.H.I.J.J.H.I.J.I.K.I.I.I.I.I.I.I.L.I.M.N.O.O.P.L.I.N.",
"Q.R.Q.S.T.T.U.R.V.T.R.U.U.U.U.U.U.W.X.U.Y.W.W.U.Z.X.`. +.+.+W. +",
"++@+#+$+%+#+#+&+#+*+#+#+#+#+#+#+;.;.;.=+-+;.#+;+=+;+-+>+,+,+>+>+",
"'+'+)+!+!+!+!+'+~+{+~+~+~+~+~+]+]+^+~+/+/+(+(+/+_+_+^+_+/+/+:+:+",
"<+<+<+[+}+}+}+}+|+}+}+}+}+}+}+}+1+}+2+3+3+1+3+2+1+t t t 2+t t t ",
"J 4+5+6+7+7+7+7+7+7+7+7+7+7+7+7+8+9+0+0+0+a+b+0+7+b+c+a+d+c+c+c+",
"e+f+g+h+h+h+h+h+h+h+h+h+h+h+i+j+k+k+j+l+m+m+k+i+n+o+m+m+o+o+o+o+",
"p+q+q+q+q+q+q+q+q+r+q+q+q+s+s+s+t+t+u+v+r+r+u+[ t+[ [ [ [ [ [ [ ",
"w+x+x+y+z+A+x+x+x+B+x+C+D+x+E+F+G+H+I+J+K+L+M+M+N+K+O+F+P+@.Q+R+",
"S+S+S+T+U+V+W+X+S+Y+Z+U+`+ @.@+@@@#@$@%@X+&@*@=@-@;@>@,@@@'@$@$@",
")@)@!@)@~@)@{@]@^@/@(@)@_@%@)@)@:@<@^@v+[@}@|@~@1@^@2@^@3@4@5@^@",
"6@6@6@7@8@9@|@0@6@a@b@c@d@e@6@c@f@g@h@v+i@j@7@k@k@l@m@n@o@p@k@q@",
"g g r@s@g g %@g t@u@v@w@x@y@z@A@u@x@B@C@A@D@E@A@A@F@G@A@H@E@A@I@",
"J@J@K@L@J@M@%@N@J@O@P@J@Q@O@R@R@O@P@R@C@R@S@O@R@T@U@V@W@X@Y@Z@`@",
" # # #.#+#@###$# #%#&# #&#%#*#=#%#-#;#>#;#,#%#;#;#'#)#!#~#{#]#;#",
"^#^#^#/#^#(#(#(#(#(#(#(#_#(#(#(#(#(#:#:#<#<#<#<#<#:#[#<#}#<#[#<#"};
