/* XPM */
static const char * WMCalculateGFA_xpm[] = {
"32 32 4 1",
" 	c None",
".	c #000000",
"+	c #A7A7FF",
"@	c #A8A8FF",
"     ....     .. ....     .     ",
"   .......   ... ....    ...    ",
"  ........   ... ....    ...    ",
" .....  ..   ...         ....   ",
" ....    .   ...        . ...   ",
" ...         ...        . ....  ",
"....  .....  ........  ... ...  ",
" ...  .....  ........  ... .... ",
" .... ....   ... ...   ........ ",
" ..........  ...      ..... ... ",
"  .........  ...      ..... ....",
"   .......   ...     ....    ...",
"                                ",
"                                ",
"                                ",
"    +                           ",
"    ++                          ",
"    ++                      +   ",
"   ++++                    +@   ",
"   ++++                   +@    ",
"   ++++       ++     +   @+@    ",
"   ++++     ++++++   @@++@++    ",
"   ++++     ++++++    ++++++    ",
"   ++++    ++++++++    @++++@   ",
"   ++++    ++++++++     ++++@@  ",
"   ++++     ++++++     +++      ",
"    ++      ++++++     +++      ",
"    ++        ++       ++       ",
"    +                  +        ",
"                                ",
"                                ",
"                                "};
