/* XPM */
static const char * fiberTransform_xpm[] = {
"16 16 87 1",
" 	c None",
".	c #8162D6",
"+	c #7568DD",
"@	c #6366D8",
"#	c #8479E0",
"$	c #8699DF",
"%	c #827CD8",
"&	c #7C71D9",
"*	c #6251D2",
"=	c #6C69D7",
"-	c #7673DD",
";	c #9089E1",
">	c #8B9ADF",
",	c #74C08A",
"'	c #6597C1",
")	c #6883CB",
"!	c #698ECE",
"~	c #6B71D1",
"{	c #828CBA",
"]	c #997DBA",
"^	c #8795E4",
"/	c #8BA5C4",
"(	c #7CB0AF",
"_	c #85BD95",
":	c #6B96B4",
"<	c #53BF8A",
"[	c #6A8BBB",
"}	c #7E98BB",
"|	c #6C9B9F",
"1	c #4A8984",
"2	c #5E8E8B",
"3	c #8879AE",
"4	c #948EC5",
"5	c #8BA7BA",
"6	c #6DC298",
"7	c #60C673",
"8	c #66CC6D",
"9	c #7CABBA",
"0	c #63AC9D",
"a	c #6CC963",
"b	c #91AA8A",
"c	c #8DA984",
"d	c #8C9BB5",
"e	c #4C63C8",
"f	c #7D6FE5",
"g	c #9FA3BF",
"h	c #6BBC8E",
"i	c #4DBE84",
"j	c #66C476",
"k	c #62CC5F",
"l	c #6DC353",
"m	c #71B792",
"n	c #7DC669",
"o	c #53BE78",
"p	c #6D9E97",
"q	c #85AE81",
"r	c #8A987F",
"s	c #8488AB",
"t	c #917CE0",
"u	c #78C4A4",
"v	c #77C84D",
"w	c #67B650",
"x	c #7BA364",
"y	c #74BC56",
"z	c #58C24C",
"A	c #70C669",
"B	c #83B282",
"C	c #65A18E",
"D	c #58C96D",
"E	c #7FB194",
"F	c #5BC580",
"G	c #63B76E",
"H	c #70B974",
"I	c #74B76F",
"J	c #6FBD57",
"K	c #69BD5E",
"L	c #000000",
"M	c #53BF53",
"N	c #6DC468",
"O	c #54A9A1",
"P	c #63AFA2",
"Q	c #6DAE8C",
"R	c #6FAE9C",
"S	c #81C869",
"T	c #81C664",
"U	c #61AA82",
"V	c #8D8F99",
"                ",
"                ",
"                ",
"      .+@#      ",
"    $%&*=-;>    ",
"   ,')!~{]^/(_  ",
"  :<[}|12345678 ",
" 90abcdefghijkl ",
" mnopqrstuvwxyz ",
" ABCDEFGHIJKLMN ",
"      OPQR LLL  ",
"    STUV  L L L ",
"         LLLLLLL",
"          L L L ",
"           LLL  ",
"            L   "};
