/* XPM */
static const char * WMBoundingBox_grid_xpm[] = {
"32 32 2 1",
" 	c None",
".	c #000000",
"                                ",
"                                ",
" .............................  ",
" .   .   .   .   .   .   .   .  ",
" .   .   .   .   .   .   .   .  ",
" .   .   .   .   .   .   .   .  ",
" .............................  ",
" .   .   .   .   .   .   .   .  ",
" .   .   .   .   .   .   .   .  ",
" .   .   .   .   .   .   .   .  ",
" .............................  ",
" .   .   .   .   .   .   .   .  ",
" .   .   .   .   .   .   .   .  ",
" .   .   .   .   .   .   .   .  ",
" .............................  ",
" .   .   .   .   .   .   .   .  ",
" .   .   .   .   .   .   .   .  ",
" .   .   .   .   .   .   .   .  ",
" .............................  ",
" .   .   .   .   .   .   .   .  ",
" .   .   .   .   .   .   .   .  ",
" .   .   .   .   .   .   .   .  ",
" .............................  ",
" .   .   .   .   .   .   .   .  ",
" .   .   .   .   .   .   .   .  ",
" .   .   .   .   .   .   .   .  ",
" .............................  ",
" .   .   .   .   .   .   .   .  ",
" .   .   .   .   .   .   .   .  ",
" .   .   .   .   .   .   .   .  ",
" .............................  ",
"                                "};
