/* XPM */
static const char * WMDatasetManipulator_xpm[] = {
"32 32 4 1",
" 	c None",
".	c #7373FF",
"+	c #A7A7FF",
"@	c #4A4AFF",
"                                ",
"                                ",
"                     .....      ",
"                         ..     ",
"                          ..    ",
"                           ..   ",
"                            ..  ",
"       ++++++++++++++++++    .  ",
"       +                +    .  ",
"       +                +    .  ",
"       +        @       +  .....",
"       +       @@@      +   ... ",
"       +      @@@@@     +    .  ",
"       +        @       +       ",
"       +    @   @   @   +       ",
"       +   @@   @   @@  +       ",
"       +  @@@@@@@@@@@@@ +       ",
"       +   @@   @   @@  +       ",
"       +    @   @   @   +       ",
"       +        @       +       ",
"  @    +      @@@@@     +    @  ",
" @@    +       @@@      +    @@ ",
"@@@@@@@+        @       +@@@@@@@",
" @@    +                +    @@ ",
"  @    ++++++++++++++++++    @  ",
"               @                ",
"               @                ",
"               @                ",
"               @                ",
"             @@@@@              ",
"              @@@               ",
"               @                "};
