/* XPM */
static const char * spline_surface_xpm[] = {
"16 16 113 2",
"  	c None",
". 	c #FFFFFF",
"+ 	c #FDFDFD",
"@ 	c #F9F9F9",
"# 	c #C3C3C3",
"$ 	c #9F9F9F",
"% 	c #9D9D9D",
"& 	c #ADADAD",
"* 	c #D2D2D2",
"= 	c #ACACAC",
"- 	c #444444",
"; 	c #747474",
"> 	c #757575",
", 	c #3D3D3D",
"' 	c #373737",
") 	c #646464",
"! 	c #AEAEAE",
"~ 	c #636363",
"{ 	c #8D8D8D",
"] 	c #727272",
"^ 	c #BABABA",
"/ 	c #5A5A5A",
"( 	c #939393",
"_ 	c #A0A0A0",
": 	c #9E9E9E",
"< 	c #7B7B7B",
"[ 	c #C4C4C4",
"} 	c #C7C7C7",
"| 	c #5C5C5C",
"1 	c #B3B3B3",
"2 	c #D6D6D6",
"3 	c #686868",
"4 	c #717171",
"5 	c #2E2E2E",
"6 	c #777777",
"7 	c #7F7F7F",
"8 	c #3F3F3F",
"9 	c #767676",
"0 	c #E2E2E2",
"a 	c #3E3E3E",
"b 	c #6A6A6A",
"c 	c #474747",
"d 	c #242424",
"e 	c #5B5B5B",
"f 	c #848484",
"g 	c #545454",
"h 	c #F1F1F1",
"i 	c #B7B7B7",
"j 	c #606060",
"k 	c #F8F8F8",
"l 	c #595959",
"m 	c #B0B0B0",
"n 	c #D0D0D0",
"o 	c #505050",
"p 	c #9A9A9A",
"q 	c #575757",
"r 	c #191919",
"s 	c #808080",
"t 	c #F4F4F4",
"u 	c #C9C9C9",
"v 	c #FEFEFE",
"w 	c #6C6C6C",
"x 	c #B2B2B2",
"y 	c #F5F5F5",
"z 	c #535353",
"A 	c #282828",
"B 	c #D1D1D1",
"C 	c #5E5E5E",
"D 	c #C0C0C0",
"E 	c #D3D3D3",
"F 	c #656565",
"G 	c #B1B1B1",
"H 	c #515151",
"I 	c #898989",
"J 	c #ECECEC",
"K 	c #4C4C4C",
"L 	c #5D5D5D",
"M 	c #202020",
"N 	c #868686",
"O 	c #CACACA",
"P 	c #F0F0F0",
"Q 	c #919191",
"R 	c #D7D7D7",
"S 	c #DADADA",
"T 	c #232323",
"U 	c #8A8A8A",
"V 	c #707070",
"W 	c #626262",
"X 	c #E8E8E8",
"Y 	c #858585",
"Z 	c #787878",
"` 	c #A2A2A2",
" .	c #2A2A2A",
"..	c #8F8F8F",
"+.	c #3A3A3A",
"@.	c #C5C5C5",
"#.	c #878787",
"$.	c #2D2D2D",
"%.	c #696969",
"&.	c #8C8C8C",
"*.	c #6E6E6E",
"=.	c #6B6B6B",
"-.	c #E1E1E1",
";.	c #7D7D7D",
">.	c #666666",
",.	c #383838",
"'.	c #C8C8C8",
").	c #B9B9B9",
"!.	c #565656",
"~.	c #838383",
"{.	c #E4E4E4",
"].	c #929292",
"^.	c #BCBCBC",
". . . . . . . . + . . . . . . . ",
". @ # $ % & * . . . . . . . . . ",
". = - ; > , ' ) ! . . . . . . . ",
". $ ~ . . { ] ^ / / ( _ : < [ . ",
". } | 1 2 ] 3 . . 4 5 6 7 8 9 . ",
". 0 a - b c d e { f g h . i j h ",
". k l m . n o $ p q r s . t e u ",
"v . w x . . ) n . y z A ~ B b % ",
". . C ; D E C = . . F G % H 5 I ",
". J K c ) L M N . O L P . J l Q ",
". R L S . P e T U V > . . . b = ",
". O W X . . Y Z ` 8  ...m U +.u ",
". @., ; #.{ $.%.J &.g I *.=.- B ",
". -.;.f Q #.9 ) >.,.- '.. . | @.",
". . . . . . . . 0 ).f !.V ~.c R ",
". . . + + + + . . . . {.].=.^.. "};
