/* XPM */
static const char * WMOverlayAtlas_xpm[] = {
"32 32 390 2",
"  	c None",
". 	c #FFE300",
"+ 	c #FFE400",
"@ 	c #FFE100",
"# 	c #FFE200",
"$ 	c #FFE000",
"% 	c #FFDF00",
"& 	c #FFD600",
"* 	c #FFD700",
"= 	c #FFD500",
"- 	c #FFD400",
"; 	c #FFCC00",
"> 	c #FFCB00",
", 	c #FFCA00",
"' 	c #FFC900",
") 	c #FFC100",
"! 	c #FFC000",
"~ 	c #FFBF00",
"{ 	c #FFBE00",
"] 	c #FFB500",
"^ 	c #FFB600",
"/ 	c #FFB300",
"( 	c #FFB200",
"_ 	c #FFB100",
": 	c #FFAE00",
"< 	c #FFAF00",
"[ 	c #FFAB00",
"} 	c #F9A600",
"| 	c #825700",
"1 	c #211600",
"2 	c #060400",
"3 	c #291B00",
"4 	c #A87000",
"5 	c #FFAA00",
"6 	c #E39800",
"7 	c #1F1400",
"8 	c #FFA800",
"9 	c #FDA600",
"0 	c #4B3100",
"a 	c #784E00",
"b 	c #E19400",
"c 	c #FAA300",
"d 	c #DC9000",
"e 	c #442C00",
"f 	c #AF7300",
"g 	c #FFA700",
"h 	c #AB6F00",
"i 	c #573900",
"j 	c #FFA400",
"k 	c #9A6300",
"l 	c #623F00",
"m 	c #FFA500",
"n 	c #D08600",
"o 	c #362200",
"p 	c #120B00",
"q 	c #EC9700",
"r 	c #B87600",
"s 	c #452C00",
"t 	c #B67500",
"u 	c #2B1B00",
"v 	c #050300",
"w 	c #3D2700",
"x 	c #E29100",
"y 	c #FFA300",
"z 	c #FEA300",
"A 	c #4B3000",
"B 	c #8F5B00",
"C 	c #0A0600",
"D 	c #D38700",
"E 	c #734900",
"F 	c #FFA000",
"G 	c #392300",
"H 	c #C77D00",
"I 	c #FFA100",
"J 	c #FA9D00",
"K 	c #070400",
"L 	c #372200",
"M 	c #C67D00",
"N 	c #FD9F00",
"O 	c #2F1D00",
"P 	c #CE8200",
"Q 	c #C97E00",
"R 	c #180F00",
"S 	c #BC7500",
"T 	c #F69A00",
"U 	c #805000",
"V 	c #4A2E00",
"W 	c #E18E00",
"X 	c #110A00",
"Y 	c #815000",
"Z 	c #FC9E00",
"` 	c #3B2500",
" .	c #C77C00",
"..	c #FF9E00",
"+.	c #0C0700",
"@.	c #F49600",
"#.	c #FF9D00",
"$.	c #FD9C00",
"%.	c #5D3900",
"&.	c #9F6100",
"*.	c #9D6100",
"=.	c #593600",
"-.	c #513100",
";.	c #9C6000",
">.	c #F59600",
",.	c #B87100",
"'.	c #241600",
").	c #FE9B00",
"!.	c #FA9900",
"~.	c #100900",
"{.	c #F89800",
"].	c #FF9C00",
"^.	c #FF9A00",
"/.	c #080400",
"(.	c #FE9900",
"_.	c #FF9900",
":.	c #F19000",
"<.	c #3B2300",
"[.	c #834F00",
"}.	c #794800",
"|.	c #F59300",
"1.	c #211300",
"2.	c #DE8600",
"3.	c #120A00",
"4.	c #000000",
"5.	c #8F5500",
"6.	c #704300",
"7.	c #CB7900",
"8.	c #372100",
"9.	c #FF9700",
"0.	c #372000",
"a.	c #EF8C00",
"b.	c #FF9600",
"c.	c #A25F00",
"d.	c #A46000",
"e.	c #A86200",
"f.	c #563200",
"g.	c #854E00",
"h.	c #6E4000",
"i.	c #090500",
"j.	c #F79100",
"k.	c #663C00",
"l.	c #A05E00",
"m.	c #935500",
"n.	c #6F4100",
"o.	c #FF9500",
"p.	c #FF9300",
"q.	c #B06500",
"r.	c #502E00",
"s.	c #CB7500",
"t.	c #F88E00",
"u.	c #DC7E00",
"v.	c #804900",
"w.	c #5A3300",
"x.	c #FE9200",
"y.	c #CE7600",
"z.	c #2C1900",
"A.	c #1E1100",
"B.	c #EB8600",
"C.	c #FF9200",
"D.	c #472800",
"E.	c #844C00",
"F.	c #F68C00",
"G.	c #CB7400",
"H.	c #2F1A00",
"I.	c #A75F00",
"J.	c #3D2300",
"K.	c #C77200",
"L.	c #5B3400",
"M.	c #FF8F00",
"N.	c #AA5F00",
"O.	c #291600",
"P.	c #050200",
"Q.	c #251400",
"R.	c #884C00",
"S.	c #FB8C00",
"T.	c #FF9000",
"U.	c #F48800",
"V.	c #824800",
"W.	c #DF7D00",
"X.	c #3F2300",
"Y.	c #060300",
"Z.	c #241400",
"`.	c #A15A00",
" +	c #FF8E00",
".+	c #140B00",
"++	c #ED8400",
"@+	c #231300",
"#+	c #1B0F00",
"$+	c #FF8C00",
"%+	c #FF8B00",
"&+	c #FF8800",
"*+	c #FF8900",
"=+	c #FE8900",
"-+	c #FF8801",
";+	c #FE8800",
">+	c #FE8701",
",+	c #FE8702",
"'+	c #FE8802",
")+	c #FD8702",
"!+	c #FD8701",
"~+	c #FE8801",
"{+	c #FC8603",
"]+	c #FD8603",
"^+	c #FD8602",
"/+	c #FC8602",
"(+	c #FD8502",
"_+	c #FC8504",
":+	c #FB8504",
"<+	c #FC8404",
"[+	c #FC8503",
"}+	c #FB8404",
"|+	c #FA8305",
"1+	c #FB8405",
"2+	c #C16503",
"3+	c #8D4A02",
"4+	c #FB8305",
"5+	c #703B02",
"6+	c #FA8405",
"7+	c #DF7505",
"8+	c #1E0F00",
"9+	c #FA8306",
"0+	c #FB8306",
"a+	c #FB8406",
"b+	c #F98307",
"c+	c #F98206",
"d+	c #F98207",
"e+	c #371D01",
"f+	c #482601",
"g+	c #6E3A03",
"h+	c #F98306",
"i+	c #FA8206",
"j+	c #110900",
"k+	c #A65704",
"l+	c #542C02",
"m+	c #FA8307",
"n+	c #FA8207",
"o+	c #F88207",
"p+	c #F98108",
"q+	c #F88108",
"r+	c #A65605",
"s+	c #492602",
"t+	c #A35505",
"u+	c #502902",
"v+	c #F88107",
"w+	c #703A03",
"x+	c #8B4803",
"y+	c #F98107",
"z+	c #DC7306",
"A+	c #402101",
"B+	c #1A0D00",
"C+	c #A25405",
"D+	c #8F4A04",
"E+	c #0D0700",
"F+	c #130A00",
"G+	c #9F5205",
"H+	c #F78009",
"I+	c #F78109",
"J+	c #F27D07",
"K+	c #261401",
"L+	c #D26C07",
"M+	c #C66607",
"N+	c #311901",
"O+	c #F88109",
"P+	c #D76F06",
"Q+	c #201101",
"R+	c #F88009",
"S+	c #F88008",
"T+	c #391D02",
"U+	c #C06407",
"V+	c #3B1E02",
"W+	c #914B05",
"X+	c #EF7B08",
"Y+	c #BD6206",
"Z+	c #0C0600",
"`+	c #0A0500",
" @	c #D16B07",
".@	c #BD6106",
"+@	c #F67F0B",
"@@	c #F67F0A",
"#@	c #8B4805",
"$@	c #643304",
"%@	c #E47509",
"&@	c #130900",
"*@	c #974E06",
"=@	c #633304",
"-@	c #F77F0A",
";@	c #F27C09",
">@	c #0F0700",
",@	c #EF7B09",
"'@	c #E77709",
")@	c #D46C09",
"!@	c #C86608",
"~@	c #994F06",
"{@	c #180C00",
"]@	c #F67E0A",
"^@	c #4A2603",
"/@	c #3D1F02",
"(@	c #C36307",
"_@	c #F67E0B",
":@	c #F77F0B",
"<@	c #F57D0B",
"[@	c #E6760A",
"}@	c #1D0F01",
"|@	c #DD720A",
"1@	c #F57E0B",
"2@	c #0B0500",
"3@	c #EC790A",
"4@	c #F57E0C",
"5@	c #582D03",
"6@	c #A45408",
"7@	c #F67E0C",
"8@	c #C36408",
"9@	c #341B02",
"0@	c #A15307",
"a@	c #321A02",
"b@	c #4B2703",
"c@	c #F27C0A",
"d@	c #A05207",
"e@	c #291501",
"f@	c #844405",
"g@	c #F47D0D",
"h@	c #723A06",
"i@	c #CC680A",
"j@	c #1B0E01",
"k@	c #E2740C",
"l@	c #F47C0D",
"m@	c #8D4706",
"n@	c #6A3605",
"o@	c #F47C0C",
"p@	c #1A0D01",
"q@	c #C7660A",
"r@	c #381C02",
"s@	c #A45308",
"t@	c #070300",
"u@	c #E9760B",
"v@	c #F57D0D",
"w@	c #DE710A",
"x@	c #F47D0C",
"y@	c #241202",
"z@	c #EB780D",
"A@	c #F37C0E",
"B@	c #F37B0E",
"C@	c #432203",
"D@	c #AE580A",
"E@	c #DC700C",
"F@	c #130901",
"G@	c #EB780C",
"H@	c #562B04",
"I@	c #9F5009",
"J@	c #100800",
"K@	c #B85D0A",
"L@	c #E4740D",
"M@	c #6D3706",
"N@	c #E0710C",
"O@	c #3D1F03",
"P@	c #793D07",
"Q@	c #EA760D",
"R@	c #9E5009",
"S@	c #271302",
"T@	c #EF7812",
"U@	c #EF7712",
"V@	c #603007",
"W@	c #8D460A",
"X@	c #E37212",
"Y@	c #261302",
"Z@	c #2A1503",
"`@	c #201002",
" #	c #D06810",
".#	c #EF7713",
"+#	c #92480B",
"@#	c #0D0601",
"##	c #211002",
"$#	c #8D460B",
"%#	c #0E0701",
"&#	c #DC6D11",
"*#	c #EE7613",
"=#	c #CC6510",
"-#	c #361B04",
";#	c #2B1503",
">#	c #BE5F10",
",#	c #EE7614",
"'#	c #E76F1C",
")#	c #E76F1B",
"!#	c #E76E1C",
"~#	c #E86F1B",
"{#	c #E66E1C",
"]#	c #E66E1D",
"^#	c #E76E1D",
"/#	c #E66D1D",
"      . + . + . + . + + + + + + . + . + + . + . + + + . .       ",
"    @ # @ # # @ @ # @ @ @ @ @ @ $ $ @ @ @ $ $ @ $ $ $ $ $ %     ",
"  & & & & & * * & & & & = & = = = & & = = = = = = = = - - = -   ",
"; ; > > > > > > > > , > > > > > , , > , , , , , ' , , , , ' ' , ",
") ! ! ! ! ! ! ! ~ ! ! ~ ! ! ~ ~ ~ ! ~ ~ ~ ~ ~ ~ ~ ~ ~ ~ ~ { ~ { ",
"] ^ ] ] ] ^ ^ ^ ] ] ^ ^ ^ ] ^ ] ] ^ ^ ^ ] ^ ] ^ ] ] ] ] ^ ] ] ] ",
"/ ( / ( ( ( ( ( ( ( ( ( ( ( ( ( ( ( ( ( ( ( ( _ ( _ ( ( ( _ ( ( ",
": < < : : < < < < < : : : < : < : < < : : : : : : : : : : < < : ",
"[ [ } | 1 2 3 4 [ [ [ [ [ [ [ [ [ [ [ [ 5 [ 5 [ [ [ 5 5 6 7 [ [ ",
"8 9 0 a b c d e f g 8 8 g 8 8 8 8 8 g g g g g g g g g g h i 8 g ",
"j k l j m j j n o j p q j j r s j t u v w x y z A B C D E B j j ",
"F G H F I F I J K I L M I N O P Q R S T U V F W X Y Z F `  .I F ",
"..+.@.#.......$.C #.%.&.#.*.=.#.-.;.#.#.>.C #.,.'.).#.!.~.{.].#.",
"^./.(.^.^._.^.:.<.^.[.}.|.1.2._.3.4.4.4.4./._.5.6._._.7.8._.^._.",
"9.0.a.9.b.b.b.c.d.b.e.f.g.h.b.b.i.j.b.b.b.b.b.k.l.b.b.m.n.b.b.o.",
"p.q.r.s.t.u.v.w.x.p.y.z.A.B.p.C.D.E.F.G.H.I.p.J.K.C.p.L.I.C.C.C.",
"M.M.N.O.P.Q.R.S.M.T.U.4.V.T.M.M.W.X.Y.Z.`.M. +.+++M.M.@+W.W.#+M.",
"$+$+%+$+%+$+%+$+$+$+%+%+$+%+%+%+$+%+$+%+%+%+%+%+$+%+%+%+%+%+%+$+",
"&+&+&+*+&+&+&+&+*+=+&+*+*+&+-+&+*+;+&+-+&+-+&+&+;+=+&+&+*+-+&+&+",
">+>+,+,+,+'+,+>+,+)+>+!+>+,+)+>+~+)+,+!+>+>+,+>+>+!+!+>+,+,+,+,+",
"{+]+]+^+]+^+^+^+]+{+{+]+{+^+]+]+]+/+]+^+^+{+^+^+]+^+(+^+^+]+]+^+",
"_+:+_+<+:+_+_+[+_+:+:+[+<+_+:+[+<+_+[+_+<+_+:+_+_+<+_+<+_+}+:+}+",
"|+1+1+1+2+4.3+1+4+4+5+1+6+7+8+1+4+1+1+|+4+1+4+6+6+4+9+|+0+a+4+6+",
"b+c+d+9+e+f+g+h+i+b+j+h+c+k+l+9+i+h+9+9+m+n+9+n+i+9+h+h+h+d+n+n+",
"o+p+q+r+s+t+u+p+v+4.4.4.v+w+x+y+z+A+v B+C+q+q+D+E+F+G+p+p+y+p+v+",
"H+I+J+K+L+M+N+H+O+P+Q+R+S+T+U+H+V+W+X+Y+Z+R+R+`+ @.@F+H+H+H+R+R+",
"+@@@#@$@@@%@&@@@@@*@=@-@;@>@,@@@'@)@!@~@{@]@@@^@/@(@@@_@:@@@@@@@",
"<@[@}@|@1@<@2@3@4@5@6@7@8@9@1@0@Y.a@b@a@5@1@<@c@d@e@f@1@<@1@1@1@",
"g@h@4.4.4.4.4.i@g@j@k@l@m@n@o@p@q@l@g@r@s@l@t@u@v@w@2@g@g@x@g@g@",
"  y@z@A@A@B@C@D@E@F@G@A@H@I@B@J@K@L@M@4.N@A@O@P@Q@R@S@A@B@B@B@  ",
"    T@T@U@U@V@W@X@Y@Z@U@`@ #.#+#@###$#%#&#*#=#-#P.;#>#*#,#*#    ",
"      '#)#!#)#~#'#'#!#'#!#!#{#'#{#!#]#]#]#!#]#!#{#^#]#/#/#      "};
