/* XPM */
static const char * WMOverlayAtlas_xpm[] = {
"32 32 124 2",
"  	c None",
". 	c #FFFFFF",
"+ 	c #E0E0E0",
"@ 	c #535353",
"# 	c #0D0D0D",
"$ 	c #555555",
"% 	c #E2E2E2",
"& 	c #000000",
"* 	c #EDEDED",
"= 	c #5B5B5B",
"- 	c #CFCFCF",
"; 	c #F7F7F7",
"> 	c #F2F2F2",
", 	c #B4B4B4",
"' 	c #5E5E5E",
") 	c #ECECEC",
"! 	c #777777",
"~ 	c #C3C3C3",
"{ 	c #FCFCFC",
"] 	c #909090",
"^ 	c #2A2A2A",
"/ 	c #404040",
"( 	c #242424",
"_ 	c #DCDCDC",
": 	c #EEEEEE",
"< 	c #474747",
"[ 	c #070707",
"} 	c #464646",
"| 	c #EFEFEF",
"1 	c #8E8E8E",
"2 	c #080808",
"3 	c #0F0F0F",
"4 	c #6D6D6D",
"5 	c #969696",
"6 	c #979797",
"7 	c #666666",
"8 	c #D2D2D2",
"9 	c #FBFBFB",
"0 	c #9B9B9B",
"a 	c #6A6A6A",
"b 	c #9F9F9F",
"c 	c #090909",
"d 	c #FDFDFD",
"e 	c #060606",
"f 	c #B7B7B7",
"g 	c #505050",
"h 	c #525252",
"i 	c #B5B5B5",
"j 	c #181818",
"k 	c #EAEAEA",
"l 	c #1C1C1C",
"m 	c #F0F0F0",
"n 	c #2B2B2B",
"o 	c #292929",
"p 	c #F8F8F8",
"q 	c #191919",
"r 	c #F6F6F6",
"s 	c #030303",
"t 	c #7B7B7B",
"u 	c #C6C6C6",
"v 	c #C4C4C4",
"w 	c #4A4A4A",
"x 	c #6B6B6B",
"y 	c #141414",
"z 	c #FAFAFA",
"A 	c #606060",
"B 	c #D0D0D0",
"C 	c #949494",
"D 	c #8F8F8F",
"E 	c #9C9C9C",
"F 	c #393939",
"G 	c #E3E3E3",
"H 	c #0C0C0C",
"I 	c #545454",
"J 	c #DEDEDE",
"K 	c #D7D7D7",
"L 	c #444444",
"M 	c #050505",
"N 	c #2D2D2D",
"O 	c #D4D4D4",
"P 	c #E7E7E7",
"Q 	c #4D4D4D",
"R 	c #636363",
"S 	c #4E4E4E",
"T 	c #E4E4E4",
"U 	c #7F7F7F",
"V 	c #767676",
"W 	c #808080",
"X 	c #C8C8C8",
"Y 	c #333333",
"Z 	c #AEAEAE",
"` 	c #040404",
" .	c #2F2F2F",
"..	c #C2C2C2",
"+.	c #1D1D1D",
"@.	c #D9D9D9",
"#.	c #ACACAC",
"$.	c #9D9D9D",
"%.	c #111111",
"&.	c #ABABAB",
"*.	c #B2B2B2",
"=.	c #3D3D3D",
"-.	c #454545",
";.	c #494949",
">.	c #B9B9B9",
",.	c #F5F5F5",
"'.	c #4B4B4B",
").	c #4C4C4C",
"!.	c #818181",
"~.	c #222222",
"{.	c #3E3E3E",
"].	c #0B0B0B",
"^.	c #CCCCCC",
"/.	c #1B1B1B",
"(.	c #353535",
"_.	c #D5D5D5",
":.	c #8A8A8A",
"<.	c #878787",
"[.	c #7E7E7E",
"}.	c #686868",
"|.	c #A9A9A9",
"1.	c #AAAAAA",
"2.	c #272727",
"3.	c #020202",
". . . . . . . . . . . . . . . . . . . . . . . . . . . . . . . . ",
". . . . . . . . . . . . . . . . . . . . . . . . . . . . . . . . ",
". . . . . . . . . . . . . . . . . . . . . . . . . . . . . . . . ",
". . . . . . . . . . . . . . . . . . . . . . . . . . . . . . . . ",
". . . . . . . . . . . . . . . . . . . . . . . . . . . . . . . . ",
". . . . . . . . . . . . . . . . . . . . . . . . . . . . . . . . ",
". . . . . . . . . . . . . . . . . . . . . . . . . . . . . . . . ",
". + @ # # $ % . . . . . . . . . . . . . . . . . . . . . & . . . ",
"* = - ; > , ' ) . . . . . . . . . . . . . . . . . . . . & . . . ",
"! ~ . . . . { ] . . . . . . . . . . . . . . . . . . . . & . . . ",
"^ ) . . . . . / . ( _ . _ ( . . . : < [ } | . . & 1 ^ . & . . . ",
"2 { . . . . . 3 . 4 5 . 6 4 . . . 7 8 9 0 a . . & b | . & . . . ",
"c d . . . . { e . f g . h i . . . j 9 . k l . . & m . . & . . . ",
"n | . . . . ) o . ; j p q r . . . s & & & s . . & . . . & . . . ",
"t u . . . . v ! . . w x } . . . . y z . . . . . & . . . & . . . ",
"m A B p p B = ) . . C & D . . . . ' B 9 E F . . & . . . & . . . ",
". G @ H H I + . . . J & K . . . . k L M N O . . & . . . & . . & ",
". . . . . . . . . . . . . . . . . . . . . . . . . . . . . . . . ",
". . . . . . . . . . . . . . . . . . . . . . . . . . . . . . . . ",
". . . . . . . . . . . . . . . . . . . . . . . . . . . . . . . . ",
". . . . . . . . . . . . . . . . . . . . . . . . . . . . . . . . ",
". . . . . . . . . . . . . . . . . . . . . . . . . . . . . . . . ",
". . , & , . . . . P . . . & . . . . . . . . . . . . . . . . . . ",
". . Q R S . . . . y . . . & . . . . . . . . . . . . . . . . . . ",
". G l ; l T . . . & . . . & . . . . . . . . . . . . . . . . . . ",
". U V . ! W . . & & & . . & . . X Y e q b . . Z M `  .... . . . ",
"{ +.@.. @.+.{ . . & . . . & . . o #.; $.%.. . M 5 { &.( . . . . ",
"*.=.. . . =.*.. . & . . . & . . . . . z & . . -.;.>.,.. . . . . ",
"'.& & & & & ).. . & . . . & . . k !.@ ~.& . . k {.e ].^.. . . . ",
"/.p . . . ; /.% . & . . . & . . (.! *._.& . . . . ; 0 j . . . . ",
":.. . . . . <.[.. s k . . & . . ].^.| }.& . . ^ |.9 Z M . . . . ",
"> . . . . . m ^ { S [ . . & . . 1.2.y 1 & . . u o 3.M Z . . . . "};
