/* XPM */
static const char * fiberSelection_xpm[] = {
"16 16 78 1",
" 	c None",
".	c #8162D6",
"+	c #7568DD",
"@	c #6366D8",
"#	c #8479E0",
"$	c #FF0000",
"%	c #7C71D9",
"&	c #6251D2",
"*	c #6C69D7",
"=	c #7673DD",
"-	c #9089E1",
";	c #8B9ADF",
">	c #74C08A",
",	c #6597C1",
"'	c #6B71D1",
")	c #828CBA",
"!	c #997DBA",
"~	c #8795E4",
"{	c #8BA5C4",
"]	c #7CB0AF",
"^	c #85BD95",
"/	c #6B96B4",
"(	c #53BF8A",
"_	c #6A8BBB",
":	c #7E98BB",
"<	c #5E8E8B",
"[	c #8879AE",
"}	c #948EC5",
"|	c #8BA7BA",
"1	c #6DC298",
"2	c #60C673",
"3	c #66CC6D",
"4	c #7CABBA",
"5	c #63AC9D",
"6	c #6CC963",
"7	c #91AA8A",
"8	c #8DA984",
"9	c #8C9BB5",
"0	c #7D6FE5",
"a	c #9FA3BF",
"b	c #6BBC8E",
"c	c #4DBE84",
"d	c #66C476",
"e	c #62CC5F",
"f	c #6DC353",
"g	c #71B792",
"h	c #7DC669",
"i	c #53BE78",
"j	c #6D9E97",
"k	c #85AE81",
"l	c #8A987F",
"m	c #917CE0",
"n	c #78C4A4",
"o	c #77C84D",
"p	c #67B650",
"q	c #7BA364",
"r	c #74BC56",
"s	c #58C24C",
"t	c #70C669",
"u	c #83B282",
"v	c #65A18E",
"w	c #58C96D",
"x	c #7FB194",
"y	c #5BC580",
"z	c #70B974",
"A	c #74B76F",
"B	c #6FBD57",
"C	c #69BD5E",
"D	c #60B364",
"E	c #53BF53",
"F	c #6DC468",
"G	c #54A9A1",
"H	c #6DAE8C",
"I	c #6FAE9C",
"J	c #81C869",
"K	c #81C664",
"L	c #61AA82",
"M	c #8D8F99",
"                ",
"                ",
"                ",
"      .+@#      ",
"    $$%&*=-;    ",
"   >,$$')!~{]^  ",
"  /(_:$$<[}|123 ",
" 456789$0abcdef ",
" ghijkl$mnopqrs ",
" tuvwxy$zABCDEF ",
"      G$HI      ",
"    JKLM        ",
"                ",
"                ",
"                ",
"                "};
