/* XPM */
static const char *glyph_xpm[] = {
/* columns rows colors chars-per-pixel */
"32 32 256 2",
"   c #750013",
".  c #7E0136",
"X  c #751A2D",
"o  c #59223F",
"O  c #68202F",
"+  c #79312A",
"@  c #1A6E19",
"#  c #775A37",
"$  c #340079",
"%  c #02337A",
"&  c #3E3C7F",
"*  c #572857",
"=  c #5A2B50",
"-  c #613749",
";  c #513370",
":  c #702578",
">  c #2D4D7F",
",  c #34417A",
"<  c #785258",
"1  c #7E7758",
"2  c #6D6574",
"3  c #6F546F",
"4  c #8C0005",
"5  c #940000",
"6  c #97061B",
"7  c #B71708",
"8  c #AE0E15",
"9  c #853E03",
"0  c #9D092B",
"q  c #9A0139",
"w  c #BC0E38",
"e  c #8B2529",
"r  c #BA2727",
"t  c #C52A0A",
"y  c #CF3410",
"u  c #C21520",
"i  c #C71931",
"p  c #DD3F2C",
"a  c #D13230",
"s  c #8C4B0D",
"d  c #AC531D",
"f  c #B37001",
"g  c #AB6809",
"h  c #91432E",
"j  c #8B613F",
"k  c #997A28",
"l  c #BC6D3A",
"z  c #AB532D",
"x  c #CF4E16",
"c  c #D85310",
"v  c #D17007",
"b  c #D5671C",
"n  c #CA771C",
"m  c #D3553C",
"M  c #E05130",
"N  c #D27130",
"B  c #961455",
"V  c #BD1C51",
"C  c #833E49",
"Z  c #862F50",
"A  c #A42D50",
"S  c #B72743",
"D  c #9B1C62",
"F  c #902870",
"G  c #D53750",
"H  c #C73461",
"J  c #8D505D",
"K  c #9E564F",
"L  c #B05153",
"P  c #8C6F52",
"I  c #B06144",
"U  c #BA7748",
"Y  c #AB7259",
"T  c #8C5967",
"R  c #B85077",
"E  c #9C766A",
"W  c #846377",
"Q  c #957C7A",
"!  c #93667F",
"~  c #A4717F",
"^  c #B17E7D",
"/  c #B86E76",
"(  c #DF4241",
")  c #DB5252",
"_  c #D07146",
"`  c #D86A53",
"'  c #CC4F68",
"]  c #C77267",
"[  c #278A18",
"{  c #249030",
"}  c #538B19",
"|  c #4EA714",
" . c #71B511",
".. c #619625",
"X. c #67B238",
"o. c #7CB531",
"O. c #25A44F",
"+. c #08A269",
"@. c #26A564",
"#. c #21AD71",
"$. c #1E9149",
"%. c #5A9348",
"&. c #7E9D4B",
"*. c #4FAD44",
"=. c #74AC54",
"-. c #529E70",
";. c #6F826E",
":. c #659160",
">. c #759471",
",. c #48A978",
"<. c #51AB6B",
"1. c #6FAF6C",
"2. c #859E1E",
"3. c #BD9708",
"4. c #B29411",
"5. c #9EB31A",
"6. c #92B20F",
"7. c #AFAE10",
"8. c #9B9939",
"9. c #AF9E21",
"0. c #B79937",
"q. c #8FB422",
"w. c #93B534",
"e. c #BAA72B",
"r. c #A9B02F",
"t. c #C6820B",
"y. c #C59610",
"u. c #C0A312",
"i. c #C68925",
"p. c #C89423",
"a. c #C48D36",
"s. c #828B52",
"d. c #BE8B4A",
"f. c #A89957",
"g. c #B08951",
"h. c #89AF50",
"j. c #92A946",
"k. c #ACA844",
"l. c #959468",
"z. c #978F75",
"x. c #AD8867",
"c. c #8DA565",
"v. c #CE8043",
"b. c #1D009D",
"n. c #3A1790",
"m. c #113B92",
"M. c #2D3882",
"N. c #0000AC",
"B. c #1206A3",
"V. c #3F11AE",
"C. c #3208A2",
"Z. c #2C2CA8",
"A. c #4A0F8E",
"S. c #511B90",
"D. c #64349A",
"F. c #5037B3",
"G. c #004F9A",
"H. c #144186",
"J. c #3E5DAF",
"K. c #0E71B1",
"L. c #356BAA",
"P. c #4A5291",
"I. c #6D4486",
"U. c #6D4A97",
"Y. c #5E668B",
"T. c #786888",
"R. c #6F6C92",
"E. c #6F7293",
"W. c #5349BE",
"Q. c #6249B9",
"!. c #5671B5",
"~. c #6D61AB",
"^. c #1D0CC0",
"/. c #0010C5",
"(. c #201FCE",
"). c #0C2ED7",
"_. c #3031D2",
"`. c #433BCF",
"'. c #4728C2",
"]. c #0F49DE",
"[. c #3555DA",
"{. c #1272DA",
"}. c #3A70D0",
"|. c #2E72C2",
" X c #0F5EE0",
".X c #406FD1",
"XX c #596EC1",
"oX c #4E55CD",
"OX c #914F86",
"+X c #8A548C",
"@X c #885590",
"#X c #A15682",
"$X c #917486",
"%X c #A36392",
"&X c #845FA2",
"*X c #1CAE84",
"=X c #1CAA98",
"-X c #07A88C",
";X c #21AA80",
":X c #21AA91",
">X c #3BAC95",
",X c #1896B7",
"<X c #0C97B1",
"1X c #3A9FAF",
"2X c #348CB4",
"3X c #18AAAC",
"4X c #0EA3AE",
"5X c #34A7B0",
"6X c #4D9D99",
"7X c #6A8E8E",
"8X c #4EAC8F",
"9X c #60AD9E",
"0X c #6CAC8A",
"qX c #458ABB",
"wX c #599FB0",
"eX c #578BB2",
"rX c #6383AA",
"tX c #6F97A3",
"yX c #48A8A3",
"uX c #4AA0B5",
"iX c #1483C7",
"pX c #1495CB",
"aX c #318FC6",
"sX c #4497C1",
"dX c #868582",
"fX c #829C80",
"gX c #938399",
"hX c #928394",
"jX c #B79D8C",
"kX c #A8888F",
"lX c #B9A79F",
"zX c #8E93B0",
"xX c #8D8CAB",
"cX c #BF93B0",
"vX c #A594B0",
"bX c #B4ACBD",
"nX c #CA9CB3",
"mX c #D3A9B9",
"MX c #CEC0BA",
"NX c #AAB1C0",
"BX c #B7B2C6",
"VX c #9494C9",
"CX c #C4BDDA",
"ZX c #DBD6DF",
"AX c #D8D3D7",
"SX c #CFC8D2",
"DX c #E3DCDC",
"FX c #E3D4D7",
"GX c #DDDCE1",
"HX c #CCCBE1",
"JX c #E9E5EA",
"KX c #EBE8EA",
"LX c #F0EEEE",
"PX c #F4F3F3",
"IX c None",
"UX c #F8F7F8",
/* pixels */
"IXIXIXIXIXIXIXIXIXIXIXIXIXIXIXIXIXIXIXIXIXIXIXIXIXIXIXIXIXIXIXIX",
"IXIXIXIXIXIXIXIXIXIXIXIXIXIXIXIXIXIXIXIXIXIXIXIXIXIXIXIXIXIXIXIX",
"IXIXIXIXIXIXIXIXIXIXIXIXIXIXIXIXIXIXIXIXIXIXIXIXIXIXIXIXIXIXIXIX",
"IXIXIXIXIXIXIXIXIXIXIXIXIXIXIXIXIXIXIXIXIXIXIXIXIXIXIXIXIXIXIXIX",
"IXIXIXIXIXIXIXIXIXIXIXIXIXIXIXIXPXHXCXJXIXIXIXIXIXIXIXIXIXIXIXIX",
"IXIXIXIXIXIXIXIXIXIXIXIXIXIXUXVXZ.B.b.A.vXIXIXIXIXIXIXIXIXIXIXIX",
"IXIXIXIXIXIXIXIXIXIXIXIXIXCXF.N./.(.(.V.n.BXIXIXIXIXIXIXIXIXIXIX",
"IXIXIXIXJXcX%XOXOX+X&X&XD.C.^.).).[.`.F.A.: IXIXIXIXIXIXIXIXIXIX",
"IXIXIXnXB B D F F F S.S.A.'._.].].[.oXQ.D.* KXIXIXIXIXIXIXIXIXIX",
"IXIXmXq V H H ' #X#XOX+XQ.W.[. X{.}.!.~.D.* ZXIXIXIXIXIXIXIXIXIX",
"IXUXA w G G ) ` ] ] ~ $XR.~..X{.iXqXrXE.2 - hXLXIXIXIXIXIXIXIXIX",
"IXFX0 i G ( ) ` ] ] Y z.dX7XeXpX,X6X0X>.s.P # P lXPXIXIXIXIXIXIX",
"IXFX6 u y p M M N v.v.f.l.>.6X3X:X<.=.=.w.w.8.k # j mXUXIXIXIXIX",
"IXPXe 8 u y c c b N i.0.j.&.-.;X@.*.X.o.q.5.9.4.3.g s jXIXIXIXIX",
"IXIX^ 4 7 y y c v v v y.4.2.} { [ |  . .6.6.7.7.3.3.f s jXIXIXIX",
"IXIXKXe 5 7 t y c b n p.9.o.} @ [ |  . .6.5.7.7.3.y.t.g 9 SXIXIX",
"IXIXIXAXX 6 8 r a m N g...%.$.$.O.*.*.o.w.w.r.e.0.p.i.n 9 Y UXIX",
"IXIXIXIXFX-   0 S L K P ;.<.@.+.#.<.1.h.h.j.k.k.k.a.i.l d h LXIX",
"IXIXIXIXIXUXkXX . Z < ;.-.8X*X-X*X8X0X1.c.h.f.f.v.d.d.l z + JXIX",
"IXIXIXIXIXIXIXJX! = 2 7X6X>X=X-X=X5X9X0X0Xz.l.x.x.g.U I h + LXIX",
"IXIXIXIXIXIXIXIXIX3 2 tXwX5X3X4X3X5XwXtX7Xz.z.Q E Y K K + Q IXIX",
"IXIXIXIXIXIXIXIXIX2 Y.eXuX5X3X<X,X1XqXrXE.T.W W J J C O < KXIXIX",
"IXIXIXIXIXIXIXIXIXT.P.eXsXaX<XpXK.L.!.P.; ; * = = o - $XLXIXIXIX",
"IXIXIXIXIXIXIXIXIXzXP.!.aXiXiXK.K.H.& Y.xXgXgXgXvXmXJXIXIXIXIXIX",
"IXIXIXIXIXIXIXIXIXZX& J.|.|.K.G.% Y.ZXIXIXIXIXIXIXIXIXIXIXIXIXIX",
"IXIXIXIXIXIXIXIXIXIXbXM.m.m.% M.bXIXIXIXIXIXIXIXIXIXIXIXIXIXIXIX",
"IXIXIXIXIXIXIXIXIXIXIXHXzXtXBXPXIXIXIXIXIXIXIXIXIXIXIXIXIXIXIXIX",
"IXIXIXIXIXIXIXIXIXIXIXIXIXIXIXIXIXIXIXIXIXIXIXIXIXIXIXIXIXIXIXIX",
"IXIXIXIXIXIXIXIXIXIXIXIXIXIXIXIXIXIXIXIXIXIXIXIXIXIXIXIXIXIXIXIX",
"IXIXIXIXIXIXIXIXIXIXIXIXIXIXIXIXIXIXIXIXIXIXIXIXIXIXIXIXIXIXIXIX",
"IXIXIXIXIXIXIXIXIXIXIXIXIXIXIXIXIXIXIXIXIXIXIXIXIXIXIXIXIXIXIXIX",
"IXIXIXIXIXIXIXIXIXIXIXIXIXIXIXIXIXIXIXIXIXIXIXIXIXIXIXIXIXIXIXIX"
};
