/* XPM */
static const char * WMWriteMesh_xpm[] = {
"32 32 32 1",
" 	c None",
".	c #000000",
"+	c #005E00",
"@	c #009D00",
"#	c #003800",
"$	c #003600",
"%	c #001300",
"&	c #001400",
"*	c #005100",
"=	c #001E00",
"-	c #008B00",
";	c #008E00",
">	c #000100",
",	c #009500",
"'	c #000F00",
")	c #006600",
"!	c #006C00",
"~	c #002A00",
"{	c #003400",
"]	c #004000",
"^	c #005300",
"/	c #001B00",
"(	c #007700",
"_	c #009000",
":	c #009800",
"<	c #000400",
"[	c #000600",
"}	c #004F00",
"|	c #002700",
"1	c #000C00",
"2	c #000D00",
"3	c #007D00",
"..     ...     ..               ",
"..+@   ...     ..               ",
" .#@@@$....   ..        @@@@@   ",
" .%@@@&.*.=@  ..    @@@@@@ @@   ",
" ..-@;.. .>,@-.'@@@@@@@    @@   ",
" ..) !.~ ..   .{@@@        @@   ",
"  .] ..^@ .. .. @@@        @@   ",
"  ./ .. @(.. .. @@@@       @@   ",
"  .._..  :<[ .. @@ @@@     @@   ",
"  ..}..   |.*.. @@  @@@    @@   ",
"   .1.    ..2.  @@   @@@   @@   ",
"   ...     ...3  @     @@  @@   ",
"    @         @@@@      @@ @@   ",
"    @@         @@@       @@@@   ",
"    @@@@@@@@@@@@@@@@@@@@@@@@@   ",
"    @@@@@@@@   @@@    @@@@@@@   ",
"    @@         @@@       @@@@   ",
"    @@        @@@@      @@ @@   ",
"    @       @@@  @     @@  @@   ",
"   @@      @@@   @    @@   @@   ",
"   @@     @@@   @@   @@    @@   ",
"   @@    @@     @@  @@     @@   ",
"   @    @@      @@ @@      @@   ",
"   @   @@       @@@@       @@   ",
"  @@ @@@        @@@        @@   ",
"  @@@@@         @@@        @@   ",
"  @@@@     @@@@@@@@@@@@@   @@   ",
"  @@@@@@@@@@@@       @@@@@@@@   ",
" @@@@@@@@                  @    ",
" @@@                            ",
"                                ",
"                                "};
