/* XPM */
static const char * WMBoundaryCurvesWMGM_xpm[] = {
"32 32 86 1",
" 	c #FFFFFF",
".	c #FDFDFD",
"+	c #EFEFEF",
"@	c #303030",
"#	c #000000",
"$	c #CDCDCD",
"%	c #D6D6D6",
"&	c #DEDEDE",
"*	c #DFDFDF",
"=	c #E8E8E8",
"-	c #EBEBEB",
";	c #FAFAFA",
">	c #CACACA",
",	c #F5F5F5",
"'	c #B4B4B4",
")	c #FCFCFC",
"!	c #D1D1D1",
"~	c #E3E3E3",
"{	c #C7C7C7",
"]	c #B2B2B2",
"^	c #888888",
"/	c #969696",
"(	c #F7F7F7",
"_	c #C3C3C3",
":	c #8F8F8F",
"<	c #DADADA",
"[	c #E0E0E0",
"}	c #E5E5E5",
"|	c #DDDDDD",
"1	c #FEFEFE",
"2	c #F9F9F9",
"3	c #D4D4D4",
"4	c #D0D0D0",
"5	c #F1F1F1",
"6	c #E2E2E2",
"7	c #D7D7D7",
"8	c #FBFBFB",
"9	c #C1C1C1",
"0	c #CBCBCB",
"a	c #EEEEEE",
"b	c #CCCCCC",
"c	c #F2F2F2",
"d	c #C5C5C5",
"e	c #D5D5D5",
"f	c #D9D9D9",
"g	c #F3F3F3",
"h	c #C9C9C9",
"i	c #C6C6C6",
"j	c #E7E7E7",
"k	c #D8D8D8",
"l	c #E1E1E1",
"m	c #AFAFAF",
"n	c #D3D3D3",
"o	c #EDEDED",
"p	c #CECECE",
"q	c #F8F8F8",
"r	c #BDBDBD",
"s	c #BABABA",
"t	c #ADADAD",
"u	c #F0F0F0",
"v	c #B8B8B8",
"w	c #B6B6B6",
"x	c #E6E6E6",
"y	c #BEBEBE",
"z	c #C2C2C2",
"A	c #B5B5B5",
"B	c #C0C0C0",
"C	c #C8C8C8",
"D	c #909090",
"E	c #BCBCBC",
"F	c #DCDCDC",
"G	c #B9B9B9",
"H	c #E4E4E4",
"I	c #B7B7B7",
"J	c #949494",
"K	c #E9E9E9",
"L	c #AAAAAA",
"M	c #7F7F7F",
"N	c #A1A1A1",
"O	c #F4F4F4",
"P	c #B1B1B1",
"Q	c #EAEAEA",
"R	c #C4C4C4",
"S	c #ABABAB",
"T	c #BBBBBB",
"U	c #ECECEC",
" .         +@#                  ",
" $%&*=      #  -                ",
";>  ,'      #  )                ",
"!~   {&     ##                  ",
"     ]^/+   .#    (-            ",
"     _/:<    #  #####[          ",
"        [}   # ##   ##*         ",
"        -|   # #1   2##3        ",
"        4    #5#2     ##6       ",
"       7[    # 8#      ##.      ",
"       9     #  #       ##.     ",
"       0    a# ##        ##     ",
"       b    #  ##         ##    ",
"      %c   )#  #d   ef     #    ",
"     gh    #a ##   ij*k    #l   ",
"     m(   #n ##, opg  91   ##   ",
"   q{+   ##### 1p%    r-   ##   ",
"   !1   1###% )sa     tq    #   ",
"  &u   h##<  ;v5     8w    ##   ",
"  _   g##   xy,     q_2    #-   ",
"  z   8   gAB      2B)    c#    ",
"  C      CDl     )4E2    ###    ",
"  B    )E:o     FGH     ##5     ",
"  I91+hJJK     b=       #H   .xo",
" ;L+=MN|     q$O        ########",
" 5PQRS1     5C1        #        ",
"  -Pm8     19                   ",
"           >o                   ",
"          5{                HF6.",
"         ;T.            <>p0g UC",
"        ;AO            }G     5n",
"        T5              hC    0 "};
