/* XPM */
static const char * WMReadDipoles_xpm[] = {
"32 32 10 1",
" 	c None",
".	c #000000",
"+	c #0000FF",
"@	c #0000FE",
"#	c #000001",
"$	c #000092",
"%	c #000099",
"&	c #00003E",
"*	c #0504FC",
"=	c #0605FB",
".........      +@        ++@    ",
"..........    @  +      +   @   ",
"..      ...  +    +    @     +  ",
"..       .. +    ++    ++    +  ",
"..      ..# +  +  @@  @++ +   + ",
"..........    @    @  @+   +  @ ",
".........  +  +    @@ +       @ ",
"..    ..   +       @++@     @   ",
"..    ...  + @    @+@++++   @  +",
"..     ...   +   + @+@@        +",
"..      ..+  @  +   +@   +   @ +",
"..      ..$     +   +@       + +",
"..       .%&    +   @+       + @",
"          +          +    +  + @",
"          @ +        +    +  @ @",
"          + @        @    +  @ @",
"          + +        @    +  + @",
"          + @        +    +  @ +",
"          @ +        +    +  + @",
"          +     +    +    +  @ +",
"          @     *   ++       + @",
"          @  +  =   ++   @   + @",
"          +  @      @+@  @     +",
"             @   + @++@ +   +  +",
"           + +    +@++@+    @  +",
"           +  @    +@+@     +   ",
"           +  +    +  +    +  @ ",
"               +  ++  @+   +  @ ",
"            +  ++@+@   @+@+     ",
"            @     +    +     @  ",
"             @    @         +   ",
"              +  +      +@ @@   "};
