/* XPM */
static const char * WMDataCreatorVector_xpm[] = {
"32 32 12 1",
" 	c None",
".	c #000000",
"+	c #4444FF",
"@	c #006600",
"#	c #165A53",
"$	c #4244F9",
"%	c #056316",
"&	c #115D41",
"*	c #1B5868",
"=	c #006502",
"-	c #03640C",
";	c #0C5F2D",
"                                ",
"                                ",
"  .   ....   +....+++.+  ....   ",
"  .  ..   +++..++++++.++..      ",
"  .  .  ++.++.+   . +.++.++  .  ",
"  .  .++++.++.    .  . +.++  .  ",
"  .  .++++.  .    .  .  .++  .  ",
"  . ++.++..   .  ..  .   .+ ..  ",
"  . ++....@@@@....  @.@@#....   ",
"   +++++$%@@@@@@@    @@@&+*     ",
"   ++++++@@@@@@        @=-      ",
"   ....+  @....    ....@@ .   ..",
"  ..++++  ..@@@@  ..  @@@ .  .. ",
"  .++++.  .@@@@.  .   @.  .  .  ",
"  .++++.  .@@@@.  .  @@.  .  .  ",
"  .++++.  . @@@.@ .  @@.  .  .  ",
"  +.++..   .@@..@  . @..  .   . ",
"  +....+   ....@@  ....   .   ..",
"  +++++++    @@@@@  @@          ",
"   ++++++    @@@@@ @@@          ",
"  .++.+++.... @@.@@@....    ....",
"  .++.++..    @@.@@..      ..   ",
"  . +.++.+   .@@.@@.    .  .    ",
"  .  .++.++  . @.@@.    .  .    ",
"  .  .++.++++. @.@@.    .  .    ",
"  .  .+++.++.. ;.@@ .  ..++ .  .",
"  .  .  +....+++.+++....++  ....",
"          +++++++++++++++       ",
"             +++++++++          ",
"  .   ....    ....   .  .   ....",
"  .  ..      ..      .  .  ..   ",
"  .  .    .  .    .  .  .  .    "};
